<?xml version="1.0" encoding="UTF-8"?>
<svg id="Red_Icons" data-name="Red Icons" xmlns="http://www.w3.org/2000/svg" viewBox="0 0 97.2 97.2">
  <defs>
    <style>
      .cls-1 {
        stroke-width: 3px;
      }

      .cls-1, .cls-2 {
        fill: none;
        stroke: #be1e2d;
        stroke-linecap: round;
        stroke-linejoin: round;
      }

      .cls-2 {
        stroke-width: 2px;
      }

      .cls-3 {
        fill: #be1e2d;
        stroke-width: 0px;
      }
    </style>
  </defs>
  <path class="cls-3" d="m28.08,16.52c.79,0,1.44.14,1.95.43.51.28.9.66,1.17,1.13s.42,1,.46,1.6c.04.6-.03,1.21-.21,1.83-.18.62-.45,1.23-.81,1.83-.36.6-.82,1.12-1.36,1.58.64.36,1.09.8,1.36,1.31s.38,1.05.34,1.61-.21,1.12-.51,1.67c-.31.56-.72,1.04-1.24,1.44-.52.41-1.12.73-1.81.96-.69.23-1.42.31-2.21.22-.52,0-1.05-.07-1.56-.2-.52-.13-.98-.31-1.39-.55-.41-.23-.75-.51-1.02-.83-.27-.32-.42-.67-.45-1.05-.03-.38.08-.78.34-1.2s.69-.85,1.3-1.27c.32-.06.56-.07.73-.03s.3.09.38.16c.09.07.15.17.18.29-.45.5-.66.92-.62,1.26.04.34.22.61.54.79.32.18.73.28,1.24.3.5.01.99-.05,1.48-.21.48-.15.9-.39,1.26-.72.36-.33.55-.75.58-1.26-.04-.57-.24-.99-.58-1.26-.34-.27-.72-.46-1.13-.58-.48-.12-1.01-.16-1.6-.13-.07-.2-.08-.38-.02-.52.03-.06.06-.11.09-.15.76-.2,1.38-.47,1.86-.8.48-.33.87-.66,1.15-.98s.49-.64.61-.93c.13-.29.2-.51.23-.66,0-.03,0-.05.01-.07,0-.02.01-.04.01-.07.06-.54,0-.97-.17-1.28-.18-.31-.42-.52-.73-.61-.31-.1-.67-.1-1.07-.01-.4.09-.78.25-1.14.49-.36.24-.68.55-.96.94-.29.39-.46.82-.54,1.3-.03.15-.04.3-.02.45.01.15.02.3.01.43s-.04.25-.1.37c-.06.12-.16.21-.31.28-.34.18-.63.11-.9-.19s-.43-.72-.51-1.26c-.08-.54-.06-1.15.07-1.83.12-.68.4-1.31.83-1.9s1.04-1.09,1.82-1.5c.78-.41,1.77-.61,2.99-.61Z"/>
  <g>
    <path class="cls-1" d="m56.09,51.5s-.67,4.5-.67,7.83,3,8.67,3.67,13.33,1,6.83,1,6.83c0,0,7.33.83,7.33-.83s-2-1.17-2.33-2-.33-12.67.5-15,7-12.5,7-12.5c0,0,3-5.17,4-9.5s1.33-10.17,1.33-10.17c0,0,2-2.5,2.67-3.83s-.83-3.5-.83-3.5c0,0-.33.33.33-1.17s-1.33-3.67-1.83-3.17-4.17,2.83-4.17,2.83c0,0-2,1.17-3.67,1.17s-4.83,3.83-4.83,3.83c0,0-7,2.17-6.33,4.33.25.8,3.67,1.67,3.67,1.67-.5,1.5-4.67,5.17-4.67,5.17,0,0-8.17,1.33-17.67,2.33s-13.67,4.83-13.67,4.83c0,0-1.8,2.92-2.83,4.5-1.82,2.79-4.76,6.54-5.5,12.5-.56,4.49.67,10.17.67,10.17,0,0,2.17-1.17,3.33-3.5s3.17-9.33,3.17-9.33"/>
    <path class="cls-1" d="m26.59,49.17s-2.17,7.17,0,11.17c2.17,4,3,7.17,1.83,9.33s-1.25,5.4-.5,9.17c.17.83,6.5.83,6.5.83,0,0,1.17-1-.5-3.83-1.5-2.55-.33-8,1.33-9.83,3.1-3.41,6-8.33,4.83-12.67s-3.67-5.67-3.67-5.67"/>
    <path class="cls-1" d="m41.09,56.83c.17.5,8.17,5,14,4"/>
    <path class="cls-1" d="m44.75,60.17s-2.83,4.33-5,6.83-3.33,4-2.33,5.67,3.33,3.33,3,6.33h-5.5"/>
    <path class="cls-2" d="m70.25,28.17s1.5.33,2-1.67"/>
    <path class="cls-2" d="m63.59,43.17s1.33,3,3,3.83l1.83-2.33s3.83,1.17,5.33.33"/>
    <path class="cls-2" d="m61.59,50.5s1.83,4.5,2.33,5.17,5.83-3,5.83-3"/>
  </g>
</svg>