<?xml version="1.0" encoding="UTF-8"?>
<svg id="Red_Icons" data-name="Red Icons" xmlns="http://www.w3.org/2000/svg" viewBox="0 0 97.2 97.2">
  <defs>
    <style>
      .cls-1 {
        fill: none;
        stroke: #be1e2d;
        stroke-linecap: round;
        stroke-linejoin: round;
        stroke-width: 3px;
      }

      .cls-2 {
        fill: #be1e2d;
        stroke-width: 0px;
      }
    </style>
  </defs>
  <g>
    <path class="cls-1" d="m63.4,24.85s3.82-.96,7.35,3.78c3.53,4.74,6.41,4.14,8.07,5.66,1.66,1.52-.93,6.51-3.84,6.86l-8.73,1.06s-1.13,8.93-3.59,12.92c-2.47,3.99-3.47,10.88-3.18,13.3s.46,8.53-1.47,9.8c-2.67,1.76-4.9.53-5.18-3.89-.19-2.93-.98-7.51-1.13-10.69-.14-3.18-1.69-4.78-1.69-4.78,0,0-8.19,1.43-11.06.06s-4.45-1.67-4.45-1.67c0,0,.04,5.41-2.39,7.67s-8.31,5.99-8.11,12.18c.08,2.45-.41,4.72-2.41,4.47s-5.31-.92-4.38-7.43c.93-6.51,5.6-14.86,4.64-18.68s.95-10.38,8.34-12.27,15.46,1.25,21.31-.75c2.27-.78,4.03-17.4,11.87-17.62Z"/>
    <path class="cls-1" d="m63.12,25.56c.07.55.57,7.68-1.21,9.74-1.78,2.06-5.09,2.1-5.99-2.22"/>
    <path class="cls-1" d="m23.46,46.81s-4.73-1.24-5.01-6.56,9.25-8.25,9.25-8.25"/>
    <path class="cls-1" d="m64.26,51.61s4.84,4.94,4.88,8.26c.03,3.32-1.02,6.77-1.55,8.49s-4.8,1.51-4.03-4.31c.7-5.29-2.48-5.23-2.48-5.23"/>
    <path class="cls-1" d="m38.71,59.89s.03,4.79-2.61,7.33c-2.64,2.54-6.58,5.89-6.77,8.86-.19,2.97-2.1,6.42-5.09,4.57"/>
    <ellipse class="cls-2" cx="67.47" cy="32.54" rx=".92" ry="1.51" transform="translate(-3.44 8.4) rotate(-6.94)"/>
  </g>
  <path class="cls-2" d="m22.04,27.38c.07-.83.14-1.6.21-2.32.07-.71.14-1.42.23-2.12l-5.82-.33c-.25-.03-.45-.15-.61-.37-.16-.23-.2-.47-.11-.7.13-.39.31-.89.55-1.48s.53-1.26.89-2.01c.36-.75.79-1.57,1.29-2.46.5-.89,1.08-1.82,1.74-2.8.39,0,.78.03,1.16.09.34.06.69.15,1.06.29.37.13.7.34,1,.63-.69.83-1.32,1.65-1.9,2.45-.51.7-1.01,1.43-1.51,2.2s-.87,1.45-1.12,2.04l3.68.33c.23-1.63.6-3.34,1.09-5.12.31-.03.63-.02.96.04.29.06.61.16.96.31.35.15.71.36,1.07.66-.25.48-.49,1.05-.71,1.72s-.44,1.37-.66,2.13c-.21.76-.41,1.53-.59,2.31-.18.78-.34,1.52-.48,2.23-.14.71-.25,1.35-.35,1.93-.09.58-.16,1.03-.21,1.37-.38-.07-.69-.17-.92-.29-.23-.12-.42-.23-.55-.35-.16-.13-.28-.25-.35-.37Z"/>
  <path class="cls-2" d="m76.92,34.22s-1.95,1.25-2.21,1.87c-.79,1.92,3.21,1.63,3.21,1.63,0,0,1.25-2.62-1-3.5Z"/>
</svg>