<?xml version="1.0" encoding="UTF-8"?>
<svg id="Red_Icons" data-name="Red Icons" xmlns="http://www.w3.org/2000/svg" viewBox="0 0 97.2 97.2">
  <defs>
    <style>
      .cls-1 {
        fill: none;
        stroke: #be1e2d;
        stroke-linecap: round;
        stroke-linejoin: round;
        stroke-width: 3px;
      }

      .cls-2 {
        fill: #be1e2d;
        stroke-width: 0px;
      }
    </style>
  </defs>
  <g>
    <g>
      <ellipse class="cls-2" cx="62.97" cy="28.3" rx=".81" ry="1.32"/>
      <path class="cls-1" d="m70.02,24s-5.29-1.87-9.28-.67-1.54,3.09-6.89,4.86c-2.21.73-.06,5.33,2.54,6.93,1.14.7,5.23.55,5.62.84,1.79,1.36,1.88,2.57,1.63,3.2-.4,1-22.15,6.39-25.35,6.99-3.19.6-7.31,3.15-7.78,12.17-.18,3.41-3.19,7.69-4.19,8.89s-4.32,10.38-3.2,11.68,7.49,1.77,8.29.38.45-2.34-.94-4.33,1.45-4.79,5.84-6.78c4.39-2,6.97-4.9,8.97-7.64,1.34-1.84,7.38,1.6,14.77-.4,0,0,.18,17.99,1.2,18.96,2.76,2.64,4.34,2.88,6.53,2.08s1.45-4.07.05-6.27,3.99-15.77,8.18-21.16c4.19-5.39,4.99-10.58,4.59-15.97-.4-5.39-4.56-8.69-4.56-8.69,0,0-.69-4.99-1.68-7.58-1-2.59-4.34,2.49-4.34,2.49Z"/>
      <path class="cls-1" d="m38.56,46.11s-3.64-3.44-6.96-1.14c-4.41,3.06-3.9,8.97-8.05,10.67-3.33,1.36-5.05-2.61-5.05-5.8"/>
      <path class="cls-1" d="m49.68,61c0,1.13-2.26,5.28-4.52,7.54s-3.77,3.96-3.77,6.41,1.88,3.02.94,4.52-4.21,1.34-5.65.38c-1.7-1.13-2.83-3.96.38-11.68"/>
    </g>
    <path class="cls-2" d="m55.75,28.3s1.51,1.32,1.13,2.45-2.07.94-2.07.94c0,0-2.07-2.26.94-3.39Z"/>
  </g>
  <path class="cls-2" d="m22.13,25.87c-.06.02-.12.03-.17.04-.06.02-.13.03-.2.05-.07.02-.15.04-.24.05-.18.03-.36.04-.55.03-.19,0-.36-.04-.51-.11-.15-.07-.27-.17-.36-.32-.09-.14-.11-.36-.07-.63h-.02c.1-.61.23-1.26.37-1.95.15-.69.31-1.38.48-2.08.18-.7.36-1.4.56-2.1.2-.7.4-1.38.6-2.04,1.06.1,2.09.18,3.08.24.42.03.86.05,1.3.05.44,0,.88,0,1.31-.01.43-.01.84-.04,1.23-.09s.73-.11,1.04-.2c.01.79-.19,1.4-.61,1.85-.42.45-.94.76-1.55.95-.61.19-1.26.28-1.95.26-.69-.01-1.28-.09-1.77-.24-.25.6-.49,1.25-.73,1.96-.24.71-.46,1.42-.67,2.13.42-.12.89-.21,1.39-.28.5-.07,1.01-.09,1.52-.07.51.03.99.13,1.44.31.45.17.84.45,1.16.82.32.37.55.86.68,1.47.13.6.12,1.35-.02,2.24-.1.67-.31,1.27-.61,1.79-.31.52-.69.97-1.14,1.32s-.97.63-1.54.81c-.58.18-1.19.27-1.85.27-.9,0-1.66-.13-2.28-.39-.61-.26-1.09-.59-1.44-.99-.35-.39-.57-.82-.66-1.28-.09-.46-.05-.88.1-1.27.15-.39.42-.7.8-.95.38-.25.87-.36,1.47-.35-.22.5-.33.94-.32,1.32,0,.38.1.7.28.95.18.25.44.44.77.56s.7.18,1.13.16c.6-.01,1.11-.17,1.54-.46.43-.29.76-.65.97-1.06.22-.42.32-.85.3-1.29-.02-.45-.19-.83-.5-1.14-.31-.31-.78-.52-1.39-.62-.61-.1-1.4-.01-2.36.26Z"/>
</svg>