<?xml version="1.0" encoding="UTF-8"?>
<svg id="Red_Icons" data-name="Red Icons" xmlns="http://www.w3.org/2000/svg" viewBox="0 0 97.2 97.2">
  <defs>
    <style>
      .cls-1 {
        fill: none;
        stroke: #be1e2d;
        stroke-linecap: round;
        stroke-linejoin: round;
        stroke-width: 3px;
      }

      .cls-2 {
        fill: #be1e2d;
        stroke-width: 0px;
      }
    </style>
  </defs>
  <g>
    <path class="cls-1" d="m57.74,46.05c-2.94-.44-5-2.21-5-2.21-.74-.15-5.15-5.15-5.15-5.15l2.5-5.59c-1.32-2.79-.74-7.35-.74-7.35,1.18.74,3.82,3.38,3.82,3.38,1.32-.15,7.65-.15,8.97,0,0,0,2.65-2.65,3.82-3.38,0,0,.59,4.56-.74,7.35l2.5,5.59s-4.41,5-5.15,5.15c0,0-2.06,1.76-5,2.21h.15Z"/>
    <ellipse class="cls-2" cx="60.89" cy="36.11" rx=".68" ry="1.11"/>
    <ellipse class="cls-2" cx="54.59" cy="36.11" rx=".68" ry="1.11"/>
    <path class="cls-2" d="m56.01,39.89c0,.47.64,1.4,1.42,1.4s1.42-.94,1.42-1.4-.64-.84-1.42-.84-1.42.38-1.42.84Z"/>
    <path class="cls-1" d="m64.01,53.03c.05,2.99-.08,7.3-1.13,10.28-1.71,4.9-.57,10.74.35,11.23,2.83,1.5,3.17,2.16,3.17,4,0,1.84-5.83,2-8.5.5"/>
    <path class="cls-1" d="m55.29,62.7s1.24,6.6,1.6,9.17c.37,2.57,1.55,7.5-.17,9.33-1.71,1.84-5.97-.02-6.58-1.98-.61-1.96-.48-12.01-1.59-14.52-1.83-4.17-3.17-4.83-3.17-4.83"/>
    <path class="cls-1" d="m46.8,48.27c-1.68,2.21-4.02,5.24-5.71,7.21-2.94,3.43-7.52,10-7.52,16.73,0,6.73,1.74,6.9,3.33,8,1.59,1.1,10.02,1.64,11.54,1.35,1.96-.37,1.89-4.94-1.84-5.39-4.04-.49-6.12-.86-6.12-.86"/>
    <path class="cls-1" d="m40.84,63.68s9.43,1.84,5.76,11.63"/>
    <path class="cls-1" d="m33.4,76.88s-5.55-.02-6.53-7.36,5.74-13.94,7.59-15.55"/>
    <path class="cls-1" d="m76.63,36.34c-1.1-1.89-2.99-3.94-1.42-5.83,1.58-1.89-1.58-8.03-4.25-7.72s-2.93-3.41-5.51-5.04c-3.04-1.91-6.07-2.3-7.56-2.36h0s-.17-.01-.47-.01c-.3,0-.47.01-.47.01h0c-1.49.06-4.52.45-7.56,2.36-2.59,1.63-2.84,5.36-5.51,5.04s-5.83,5.83-4.25,7.72c1.58,1.89-.32,3.94-1.42,5.83-1.1,1.89-.79,6.14,2.52,7.56,3.31,1.42,6.62,3.31,7.72,5.83,1.1,2.52,5.2,5.2,8.82,5.67h.32c3.62-.47,7.72-3.15,8.82-5.67,1.1-2.52,4.41-4.41,7.72-5.83,3.31-1.42,3.62-5.67,2.52-7.56Z"/>
    <path class="cls-1" d="m34.34,53.72s-3.11-1.84-.11-4.34c1.13-.94,4.4-1.42,4.4-1.42,0,0,.24,8.08-4.29,5.76Z"/>
  </g>
  <path class="cls-2" d="m28.75,16.43c.45.02.89.06,1.31.13.36.07.73.18,1.09.31s.66.32.88.57c-.72,1.09-1.41,2.25-2.09,3.46-.68,1.21-1.33,2.44-1.95,3.7-.62,1.25-1.2,2.51-1.74,3.77-.54,1.26-1.02,2.48-1.44,3.67-.36-.07-.68-.17-.93-.29-.25-.12-.47-.23-.65-.35-.2-.13-.37-.25-.5-.37.28-.87.59-1.8.95-2.78.36-.98.73-1.96,1.13-2.96s.8-1.99,1.22-2.99c.42-.99.85-1.95,1.27-2.87-.54.09-1.12.11-1.74.08s-1.19-.16-1.71-.38c-.52-.22-.93-.54-1.25-.97-.31-.43-.43-1-.36-1.72.38.12.86.2,1.43.25.58.05,1.17.08,1.78.08s1.21-.03,1.79-.09,1.08-.14,1.49-.24Z"/>
</svg>