<?xml version="1.0" encoding="UTF-8"?>
<svg id="Gold_Icons" xmlns="http://www.w3.org/2000/svg" version="1.1" viewBox="0 0 97.2 97.2">
  <!-- Generator: Adobe Illustrator 29.8.2, SVG Export Plug-In . SVG Version: 2.1.1 Build 3)  -->
  <defs>
    <style>
      .st0 {
        isolation: isolate;
      }

      .st1, .st2 {
        fill: none;
        stroke: #965f36;
        stroke-linecap: round;
        stroke-linejoin: round;
      }

      .st2 {
        stroke-width: 3px;
      }

      .st3 {
        fill: #965f36;
      }
    </style>
  </defs>
  <g>
    <g>
      <ellipse class="st3" cx="52.1" cy="32.3" rx="1.1" ry="1.7"/>
      <ellipse class="st3" cx="61.9" cy="32.3" rx="1.1" ry="1.7"/>
      <path class="st2" d="M67.9,27.7c.5-2-.2-11.4-2.7-9.4s-3.6,6.3-3.6,6.3c-1.2-.5-8.6-.5-9.8,0,0,0-1-4.3-3.6-6.3s-3.2,7.3-2.7,9.4c0,0-1.9,6.5,0,10,1.6,3.1,9.7,5.9,11.6,6.2h.4c1.8-.3,8.8-3,10.4-6.2,1.9-3.6,0-10,0-10h0Z"/>
      <path class="st2" d="M62.7,42.6s-1,4.6-.4,10.1c.4,4.2,2.3,15.6,1.3,25"/>
      <path class="st2" d="M58.3,58.2s1.9,13.5,1.5,21"/>
      <path class="st2" d="M40,60.5s5.2-2.3,9.7,2.7c4.6,5,2.1,13.9,2.1,13.9,0,0,6.1-.4,6.9,3.1"/>
      <path class="st2" d="M47,40.3c-.2.8-2.7,3.8-5.7,6.9-3,3-8,7.6-7.4,17.2.7,12,9.5,17.7,20.6,16.6,8.2-.8,14.9-4,16.8-16.4"/>
    </g>
    <ellipse class="st3" cx="57.1" cy="36.5" rx="1.2" ry=".9"/>
  </g>
  <g class="st0">
    <g class="st0">
      <path class="st1" d="M19.4,30.5h10.8v.8h-10.8v-.8ZM20.4,23.3h8.7v.8h-8.7s0-.8,0-.8Z"/>
    </g>
  </g>
</svg>