<?xml version="1.0" encoding="UTF-8"?>
<svg id="Gold_Icons" xmlns="http://www.w3.org/2000/svg" version="1.1" viewBox="0 0 97.2 97.2">
  <!-- Generator: Adobe Illustrator 29.8.2, SVG Export Plug-In . SVG Version: 2.1.1 Build 3)  -->
  <defs>
    <style>
      .st0 {
        isolation: isolate;
      }

      .st1, .st2, .st3 {
        fill: none;
        stroke: #965f36;
        stroke-linecap: round;
        stroke-linejoin: round;
      }

      .st2 {
        stroke-width: 3px;
      }

      .st3 {
        stroke-width: 2px;
      }
    </style>
  </defs>
  <g>
    <path class="st2" d="M56.1,51.5s-.7,4.5-.7,7.8,3,8.7,3.7,13.3,1,6.8,1,6.8c0,0,7.3.8,7.3-.8s-2-1.2-2.3-2-.3-12.7.5-15,7-12.5,7-12.5c0,0,3-5.2,4-9.5s1.3-10.2,1.3-10.2c0,0,2-2.5,2.7-3.8s-.8-3.5-.8-3.5c0,0-.3.3.3-1.2s-1.3-3.7-1.8-3.2-4.2,2.8-4.2,2.8c0,0-2,1.2-3.7,1.2s-4.8,3.8-4.8,3.8c0,0-7,2.2-6.3,4.3.2.8,3.7,1.7,3.7,1.7-.5,1.5-4.7,5.2-4.7,5.2,0,0-8.2,1.3-17.7,2.3s-13.7,4.8-13.7,4.8c0,0-1.8,2.9-2.8,4.5-1.8,2.8-4.8,6.5-5.5,12.5-.6,4.5.7,10.2.7,10.2,0,0,2.2-1.2,3.3-3.5s3.2-9.3,3.2-9.3"/>
    <path class="st2" d="M26.6,49.2s-2.2,7.2,0,11.2,3,7.2,1.8,9.3-1.2,5.4-.5,9.2c.2.8,6.5.8,6.5.8,0,0,1.2-1-.5-3.8-1.5-2.6-.3-8,1.3-9.8,3.1-3.4,6-8.3,4.8-12.7s-3.7-5.7-3.7-5.7"/>
    <path class="st2" d="M41.1,56.8c.2.5,8.2,5,14,4"/>
    <path class="st2" d="M44.8,60.2s-2.8,4.3-5,6.8-3.3,4-2.3,5.7,3.3,3.3,3,6.3h-5.5"/>
    <path class="st3" d="M70.2,28.2s1.5.3,2-1.7"/>
    <path class="st3" d="M63.6,43.2s1.3,3,3,3.8l1.8-2.3s3.8,1.2,5.3.3"/>
    <path class="st3" d="M61.6,50.5s1.8,4.5,2.3,5.2c.5.7,5.8-3,5.8-3"/>
  </g>
  <g class="st0">
    <g class="st0">
      <path class="st1" d="M31.1,28.3h10.5v.8h-10.5v-.8ZM31.8,20.1h9.2v.8h-9.2v-.8ZM32.6,24h7.5v.8h-7.5v-.8Z"/>
    </g>
  </g>
</svg>