<?xml version="1.0" encoding="UTF-8"?>
<svg id="Gold_Icons" xmlns="http://www.w3.org/2000/svg" version="1.1" viewBox="0 0 97.2 97.2">
  <!-- Generator: Adobe Illustrator 29.8.2, SVG Export Plug-In . SVG Version: 2.1.1 Build 3)  -->
  <defs>
    <style>
      .st0, .st1 {
        stroke: #965f36;
        stroke-linecap: round;
        stroke-linejoin: round;
      }

      .st0, .st2 {
        fill: #965f36;
      }

      .st3 {
        isolation: isolate;
      }

      .st1 {
        fill: none;
        stroke-width: 3px;
      }
    </style>
  </defs>
  <g>
    <g>
      <ellipse class="st2" cx="63" cy="28.3" rx=".8" ry="1.3"/>
      <path class="st1" d="M70,24s-5.3-1.9-9.3-.7-1.5,3.1-6.9,4.9c-2.2.7,0,5.3,2.5,6.9,1.1.7,5.2.5,5.6.8,1.8,1.4,1.9,2.6,1.6,3.2-.4,1-22.2,6.4-25.3,7-3.2.6-7.3,3.2-7.8,12.2-.2,3.4-3.2,7.7-4.2,8.9s-4.3,10.4-3.2,11.7,7.5,1.8,8.3.4.5-2.3-.9-4.3,1.5-4.8,5.8-6.8c4.4-2,7-4.9,9-7.6,1.3-1.8,7.4,1.6,14.8-.4,0,0,.2,18,1.2,19,2.8,2.6,4.3,2.9,6.5,2.1s1.4-4.1,0-6.3,4-15.8,8.2-21.2,5-10.6,4.6-16c-.4-5.4-4.6-8.7-4.6-8.7,0,0-.7-5-1.7-7.6s-4.3,2.5-4.3,2.5h.1Z"/>
      <path class="st1" d="M38.6,46.1s-3.6-3.4-7-1.1c-4.4,3.1-3.9,9-8,10.7-3.3,1.4-5-2.6-5-5.8"/>
      <path class="st1" d="M49.7,61c0,1.1-2.3,5.3-4.5,7.5s-3.8,4-3.8,6.4,1.9,3,.9,4.5-4.2,1.3-5.7.4c-1.7-1.1-2.8-4,.4-11.7"/>
    </g>
    <path class="st2" d="M55.8,28.3s1.5,1.3,1.1,2.5-2.1.9-2.1.9c0,0-2.1-2.3.9-3.4h0Z"/>
  </g>
  <g class="st3">
    <g class="st3">
      <path class="st0" d="M37.1,33.3h2.9v1.1h-15.1v-1.1h3.8c.4-1.5.8-3.6,1.3-5.7h-3.4v-1.1h3.5c.3-1.4.4-2.7.7-3.9h-5v-1.1h13.3v1.1h-7c-.1,1.3-.4,2.5-.7,3.9h5.7v6.9ZM36,27.5h-4.8c-.4,2.1-.8,4.2-1.3,5.7h6v-5.7Z"/>
    </g>
  </g>
</svg>