<?xml version="1.0" encoding="UTF-8"?>
<svg id="Gold_Icons" xmlns="http://www.w3.org/2000/svg" version="1.1" viewBox="0 0 97.2 97.2">
  <!-- Generator: Adobe Illustrator 29.8.2, SVG Export Plug-In . SVG Version: 2.1.1 Build 3)  -->
  <defs>
    <style>
      .st0, .st1 {
        stroke: #965f36;
        stroke-linecap: round;
        stroke-linejoin: round;
      }

      .st0, .st2 {
        fill: #965f36;
      }

      .st3 {
        isolation: isolate;
      }

      .st1 {
        fill: none;
        stroke-width: 3px;
      }
    </style>
  </defs>
  <g>
    <path class="st1" d="M57.7,46c-2.9-.4-5-2.2-5-2.2-.7-.2-5.2-5.2-5.2-5.2l2.5-5.6c-1.3-2.8-.7-7.4-.7-7.4,1.2.7,3.8,3.4,3.8,3.4,1.3-.1,7.7-.1,9,0,0,0,2.7-2.6,3.8-3.4,0,0,.6,4.6-.7,7.3l2.5,5.6s-4.4,5-5.2,5.2c0,0-2.1,1.8-5,2.2h.2,0Z"/>
    <ellipse class="st2" cx="60.9" cy="36.1" rx=".7" ry="1.1"/>
    <ellipse class="st2" cx="54.6" cy="36.1" rx=".7" ry="1.1"/>
    <path class="st2" d="M56,39.9c0,.5.6,1.4,1.4,1.4s1.4-.9,1.4-1.4-.6-.8-1.4-.8-1.4.4-1.4.8Z"/>
    <path class="st1" d="M64,53c0,3,0,7.3-1.1,10.3-1.7,4.9-.6,10.7.3,11.2,2.8,1.5,3.2,2.2,3.2,4s-5.8,2-8.5.5"/>
    <path class="st1" d="M55.3,62.7s1.2,6.6,1.6,9.2c.4,2.6,1.5,7.5-.2,9.3s-6,0-6.6-2-.5-12-1.6-14.5c-1.8-4.2-3.2-4.8-3.2-4.8"/>
    <path class="st1" d="M46.8,48.3c-1.7,2.2-4,5.2-5.7,7.2-2.9,3.4-7.5,10-7.5,16.7s1.7,6.9,3.3,8,10,1.6,11.5,1.3c2-.4,1.9-4.9-1.8-5.4-4-.5-6.1-.9-6.1-.9"/>
    <path class="st1" d="M40.8,63.7s9.4,1.8,5.8,11.6"/>
    <path class="st1" d="M33.4,76.9s-5.5,0-6.5-7.4,5.7-13.9,7.6-15.5"/>
    <path class="st1" d="M76.6,36.3c-1.1-1.9-3-3.9-1.4-5.8,1.6-1.9-1.6-8-4.2-7.7s-2.9-3.4-5.5-5c-3-1.9-6.1-2.3-7.6-2.4h-1c-1.5,0-4.5.4-7.6,2.4-2.6,1.6-2.8,5.4-5.5,5s-5.8,5.8-4.2,7.7-.3,3.9-1.4,5.8-.8,6.1,2.5,7.6c3.3,1.4,6.6,3.3,7.7,5.8,1.1,2.5,5.2,5.2,8.8,5.7h.3c3.6-.5,7.7-3.2,8.8-5.7,1.1-2.5,4.4-4.4,7.7-5.8,3.3-1.4,3.6-5.7,2.5-7.6h0Z"/>
    <path class="st1" d="M34.3,53.7s-3.1-1.8,0-4.3c1.1-.9,4.4-1.4,4.4-1.4,0,0,.2,8.1-4.3,5.8h0Z"/>
  </g>
  <g class="st3">
    <g class="st3">
      <path class="st0" d="M23.5,29.4c0,.9.2,1.1,1.3,1.1h3.8c1,0,1.2-.6,1.3-2.8.3.2.7.4,1,.5-.2,2.5-.5,3.4-2.3,3.4h-3.8c-1.8,0-2.3-.4-2.3-2.2v-4.9l-4.2.7-.2-1,4.3-.7v-5.1h1.4c0,.2,0,.3-.3.3v4.6l8.2-1.3.2,1-8.4,1.3v5.1Z"/>
    </g>
  </g>
</svg>