<?xml version="1.0" encoding="UTF-8"?>
<svg id="Gold_Icons" data-name="Gold Icons" xmlns="http://www.w3.org/2000/svg" viewBox="0 0 97.2 97.2">
  <defs>
    <style>
      .cls-1 {
        fill: none;
        stroke: #965f36;
        stroke-linecap: round;
        stroke-linejoin: round;
        stroke-width: 3px;
      }

      .cls-2 {
        fill: #965f36;
        stroke-width: 0px;
      }
    </style>
  </defs>
  <g>
    <path class="cls-1" d="m60.57,46.53c-4.17,3.81-12.16.18-13.43-7.62-1.27-7.8,1.09-15.01,6.35-16.87,7.25-2.56,9.25,3.45,9.25,3.45.36-.18,6.26-1.27,9.16,1.81.37.4,5.04,4.22,4.08,14.7-.85,9.4,4.9,10.52,4.9,10.52,0,0,2.36,1.63,0,3.63s-11.07-.18-12.34-6.35"/>
    <path class="cls-1" d="m46.96,38.91s-18.87-1.63-22.68,10.71.54,27.26,2.18,29.26c1.63,2,10.71,1.22,11.61.5.55-.44,1.37-5.04,1.93-8.57.38-2.38,2.42-4.13,4.83-4.13h5.82c1.23,0,2.29.85,2.56,2.05.76,3.44,2.29,10.16,3.56,11.01,1.16.77,6.61,1.08,9.6.46.89-.18,1.57-.89,1.75-1.77.62-3.14,2.06-11.96,1.63-25.26"/>
    <path class="cls-1" d="m26.18,45.8s-7.35.41-7.76,11.57"/>
    <ellipse class="cls-2" cx="67.55" cy="35.53" rx="1.15" ry="1.89"/>
  </g>
  <path class="cls-2" d="m24.37,17.87c.96,0,1.71.12,2.25.36.54.24.92.56,1.15.96.23.4.33.85.31,1.36s-.12,1.02-.29,1.54c-.41,1.23-1.2,2.62-2.36,4.2.74.8,1.25,1.54,1.51,2.2.26.66.36,1.26.28,1.79s-.28,1-.63,1.4c-.35.4-.77.73-1.25.99-.48.26-1,.46-1.56.59s-1.09.2-1.59.2c-1.14,0-2.05-.13-2.73-.37-.69-.25-1.2-.58-1.53-.98-.34-.41-.52-.87-.57-1.39-.04-.52,0-1.05.11-1.61.28-1.28.98-2.74,2.12-4.37-.56-.92-.88-1.79-.99-2.63-.1-.83.04-1.56.43-2.19s1.02-1.13,1.9-1.5c.88-.37,2.03-.56,3.45-.56Zm-2.06,12.99c.64.01,1.16-.12,1.56-.39.4-.28.6-.63.6-1.07s-.24-.92-.71-1.44c-.47-.52-1.26-1.03-2.35-1.51-.15.28-.3.58-.47.9-.17.32-.31.65-.42.97-.11.33-.17.64-.2.94-.02.3.03.56.14.8.12.23.32.42.61.57.29.15.7.23,1.23.24Zm1.31-6.08c.22-.28.44-.58.67-.92s.42-.67.59-1.01.29-.66.37-.97c.08-.31.09-.6.02-.84-.07-.25-.23-.45-.48-.61-.26-.16-.63-.25-1.13-.28-.42-.01-.81.04-1.17.18-.36.13-.66.32-.9.56s-.4.52-.48.84c-.08.32-.05.66.08,1.01.13.35.39.7.78,1.06.39.36.94.69,1.65.99Z"/>
</svg>