<?xml version="1.0" encoding="UTF-8"?>
<svg id="Gold_Icons" xmlns="http://www.w3.org/2000/svg" version="1.1" viewBox="0 0 97.2 97.2">
  <!-- Generator: Adobe Illustrator 29.8.2, SVG Export Plug-In . SVG Version: 2.1.1 Build 3)  -->
  <defs>
    <style>
      .st0, .st1 {
        stroke: #965f36;
        stroke-linecap: round;
        stroke-linejoin: round;
      }

      .st0, .st2 {
        fill: #965f36;
      }

      .st3 {
        isolation: isolate;
      }

      .st1 {
        fill: none;
        stroke-width: 3px;
      }
    </style>
  </defs>
  <g>
    <path class="st1" d="M60.6,46.5c-4.2,3.8-12.2.2-13.4-7.6s1.1-15,6.3-16.9c7.2-2.6,9.2,3.5,9.2,3.5.4-.2,6.3-1.3,9.2,1.8.4.4,5,4.2,4.1,14.7-.8,9.4,4.9,10.5,4.9,10.5,0,0,2.4,1.6,0,3.6s-11.1-.2-12.3-6.3"/>
    <path class="st1" d="M47,38.9s-18.9-1.6-22.7,10.7.5,27.3,2.2,29.3c1.6,2,10.7,1.2,11.6.5.5-.4,1.4-5,1.9-8.6.4-2.4,2.4-4.1,4.8-4.1h5.8c1.2,0,2.3.8,2.6,2.1.8,3.4,2.3,10.2,3.6,11,1.2.8,6.6,1.1,9.6.5.9-.2,1.6-.9,1.8-1.8.6-3.1,2.1-12,1.6-25.3"/>
    <path class="st1" d="M26.2,45.8s-7.4.4-7.8,11.6"/>
    <ellipse class="st2" cx="67.6" cy="35.5" rx="1.2" ry="1.9"/>
  </g>
  <g class="st3">
    <g class="st3">
      <path class="st0" d="M27.2,19c0,.2-.2.2-.4.3-.6,3.9-1.9,8.6-4.8,11.4-.2-.3-.7-.7-1-.9,2.8-2.6,4-7.2,4.5-11l1.7.3ZM25,15.4h7.5c.6,6.3,1.9,11.8,5.2,14.3-.3.2-.9.6-1.2,1-3.2-2.7-4.5-7.9-5.1-14h-6.4v-1.3Z"/>
    </g>
  </g>
</svg>