<?xml version="1.0" encoding="UTF-8"?>
<svg id="Layer_1" xmlns="http://www.w3.org/2000/svg" version="1.1" viewBox="0 0 1024 1024">
  <!-- Generator: Adobe Illustrator 29.8.2, SVG Export Plug-In . SVG Version: 2.1.1 Build 3)  -->
  <defs>
    <style>
      .st0 {
        fill: #5d9094;
      }

      .st1 {
        fill: #241b13;
      }

      .st2 {
        fill: #ecdcbf;
      }

      .st3 {
        fill: #413429;
      }

      .st4 {
        fill: #d8a284;
      }

      .st5 {
        fill: #11110e;
      }
    </style>
  </defs>
  <path class="st2" d="M107,1024H0V0h1024v1024h-135c-8.5-51.9-22.5-102.7-33.5-154-15.3-71.1-20.6-149.3-87.3-193.7-1.7-41.2-20.3-78.6-30.1-117.9-18.7-75-15.2-156.7-27.4-233.6-13.4-84.8-37.1-189.6-114.8-238.2-30.2-18.9-77-31.7-111.9-21.1-3.9,1.2-11,5.2-13.6,5.5s-9.2-1.2-13.9-1c-71.6,3.1-156.8,100.9-164.5,169.5-1.6,13.9,1.2,23.5,1.1,36s-4.6,28.8-6,41.1c-7.1,66.3-4.9,133.6-16.6,199.4-9.8,55.3-34.5,107.4-34.7,164.3-44.7,29.9-62.6,81.8-78.1,130.9-22,69.5-35.3,141.5-50.7,212.8Z"/>
  <path class="st5" d="M889,1024h-5c-10.8-53.5-24.2-106.5-35.7-159.8-11.5-53.4-14.2-100-46.5-146.5s-15.4-20.3-25.8-27.2c8.7,22,15.7,44.9,19.7,68.3,3.7,21.7,2.8,37,3.3,58.2l-10.5,39c-4.7,20.6-10,36.1-4.2,57.2.3,1,.2,3,1.7,2.8,4-15.4,8.3-30.5,12-46,7.2-30.3,13.3-59.5,9-91,1.9.3,1.7,2.1,2,3.5,6.2,22.7-.7,61.4-6,84.5s-10.9,37.9-16.7,56.6l11.7,63.4c1.7-.5,2.2-4.2,2.7-5.8,8.3-27.7,14.9-57.8,20.3-86.2.1-.6-.1-1.4,0-2s.7-1.5,1-3c2.5-13.6,5.5-27.1,6-41,1.7-.2.9,2.3,1,3.5.4,9.6-.9,20.3-2.1,29.9-3.6,27.9-11.1,56.7-18.1,83.9-2,7.9-7.7,21.6-8.5,28.5s4.9,18,4.7,23.8-1.9,3.7-2.9,5.5h-8c.2-4,6.5-2,5-7.4-10.7-58-23.4-115.8-31.9-174.2-2.8-19.3-6.8-42.4-5.2-61.8,1.4-16.7,9.3-13.9,12.8-.8s1.1,5.3-.8,5.3c-.9-3.2-3-10.1-5.5-12s-3.4,6.3-3.6,8.5c-1.7,23.1,5.8,69.2,11.9,92.2.4,1.5,0,3.3,1.7,4.3,2.8-21.7,13.5-45.1,15.4-66.6,2.2-25.4-3.5-57-10.2-81.6s-12.6-43.3-19.8-49.2c-6-5-23.1-13.2-30.9-17.1-23.1-11.8-47.4-21.8-71.5-31.5l28.5,31.5c15.9,19.7,31.7,48.2,33,74,.1,2.1.9,4.1-2,3.5-3.5-44.3-33.5-76.7-61.5-108-2.3-.4-1.4,1-1.5,2.5-.4,5.9.4,12.1,0,18.1-1.7,26.4-8.8,51.2-17,76.1,24.4,96.8,49,194.2,56,294.4h-3c-6.5-78.6-21.8-155.7-40.5-232-3.9-15.9-8.1-38.8-13.6-53.4-.4-1.1-.4-2.4-1.9-2.6-17,51.1-47.1,97.5-84,136.5,9.3,1.5,49.8,1,55,6.9,1.5,1.7,1.8,4.8,2,7,1.1,11.5,1,33.5,0,45.1s-1.2,8.8-7.8,11.2c-12.2,4.4-37.7,5.2-50.8,4.3-19.1-1.3-37-9.3-54.2-16.9-5.1,1.1-8.4,3.8-8.3,9.3.1,8.8,2.5,19.1,3.1,28,1.3,18.8,1.8,37.7,3,56.5h-4l-6.5-85c-4.7,2.4-10.8,12-16,12s-6.5-2.9-8.4.5l5.9,72.4h-4c0-6.2-.4-12.4-1-18.6s-1-2.3-1-2.4c-.8-9.5-4.1-35.4-3-43s2.5-3-.5-2-.2,1.4-.5,2c-8.4,20.6-15.2,42.1-19,64h-3c3.4-22.1,10-44.2,18-65s6.4-10.6,5.8-13.4-8.4-10.9-9.8-12.6v14.5c0,2.5-.4,8.7,1,10.5l-2,1.5c-2.3-14-3.2-26.6.5-40.5s4.4-9,4.5-14c-1.1-1.2-9.4,7.8-10.5,9-27.7,30.2-43.3,69.9-49.5,110h-4c5.3-27.1,12.2-53.6,25.8-77.7,4.2-7.5,11.1-15.2,14.7-22.3s3.1-10.8,5-16,5.3-15.1,7-17c2.8-3.2,11.7.7,14.8,0s1.7-3.6,4.5-4.8,13.3-3.4,17.2-4.3c.1,1,0,2,0,3-1.2.3-3.9,2-6,2.5-3.2.8-9.1.9-10.9,3.1-4.1,11.5-7.1,23.6-10.1,35.4,1.8,6.7,10.6,22.3,18.4,21s12.3-10.8,15.1-13c5.7-4.5,19.5-12.3,21.5-19,2.8-9.8,0-24.6,1-35-6.7-.8-13.3,1.6-20,1s-3.3.7-3-2c4.9-2.3,18.3-4,23.5-3s2.9,2.8,4.8,2.8c3.5,0,26.2-4,31-5,5.5-1.1,15.6-13.5,19.7-18.3,31.6-36.2,57.4-82.4,73.3-127.7s19.7-66.8,15.2-99.8l-23-33c-11.6,52.3-36.8,100.8-65.1,145.9-3.8,6.1-29.7,46.1-33.1,46.9s-22-17.1-25.8-20.8c-15.4,18.6-31.6,36.3-49,53-1.4,3.1,3.8,14,5.3,17.6,5.9,14.3,13.6,27.9,21.2,41.3-.2.3.4,2.5,0,2.9s-2.9-.1-3.9.1c-.5-3.9-17.9-33.6-21.2-41.3s-7.7-16.1-6.8-21.1l39.8-44.9c-26.7-29.6-54.2-58.7-78.8-90.2-13.8-17.7-28.4-36.6-37.1-57.5-40.7,15.7-81.8,30.7-121,50,49.9,35.4,64.8,92.2,73.8,149.7s7.7,43.2,6.2,59.9-15.4,34.5-18,51.5l13-14.5c23.2-34.2,52.5-63.7,34.5-107.5-1.1-2.6-10.2-19.2-9.5-20,1.5-1.7,2.2,1.3,2.6,1.9,5.8,8.3,15.2,27.9,16.3,37.7,3.5,29.8-23.8,68.5-41.9,90.9-4.2,5.2-15.5,15.3-17.7,20.3-4.3,9.8-9.5,49.2-11.1,61.9s-.5,10.4-1.1,15.4h-5c-.9-4.8,1.2-10,.9-14.4s-4.6-19-6.2-25.9c-15.2-63.2-40.6-122.7-45.7-188.3-.9-11.3-1.7-25.7.2-36.8,1.6-9.2,6.9-6.2,10.6,0,6.2,10.5,15.3,36.7,17.2,48.8s-.5,1.8-1.5.5c-6.8-14.6-10.2-34.8-18.9-48.1s-1.5-3.2-3.6-2.9c-6.5,68.1,20.1,132.5,37.7,196.8,3.8,14,6.7,28.3,10.8,42.2l1.5,1c2.9-19,5.2-39.7,10.3-58.2s11-25.5,11.7-32.3-4.9-16.4-7.3-23.7c-3.8-11.5-7.1-23.5-6.7-35.8,3.3-.9,1.8,4.7,2.3,7.2,3,16.6,9.2,31.1,14.7,46.8,1.5,0,1.9-3,2.3-4.2,5.9-18.5-1.2-53.1-4.4-73.1-6.6-40.8-15.2-79-40.4-112.6-4.6-6.1-25.3-29.6-32-30.1s-20.6,13.2-23.9,16.1c-31.2,27-46.4,70.9-58.8,109.2-22.9,71.1-36.6,144.9-52.7,217.8h-6c15.4-71.2,28.8-143.2,50.7-212.8s33.3-101,78.1-130.9c.2-56.9,24.9-109,34.7-164.3,11.7-65.8,9.5-133.1,16.6-199.4,1.3-12.3,5.8-29.7,6-41.1s-2.6-22.1-1.1-36c7.7-68.6,92.9-166.4,164.5-169.5,4.7-.2,10.5,1.4,13.9,1s9.7-4.3,13.6-5.5c34.9-10.6,81.7,2.2,111.9,21.1,77.7,48.7,101.4,153.4,114.8,238.2,12.1,76.9,8.7,158.6,27.4,233.6,9.8,39.3,28.4,76.7,30.1,117.9,66.7,44.4,72,122.6,87.3,193.7,11.1,51.3,25,102.1,33.5,154ZM511,68c-8.8-.9-19.6.8-28,3.5s-26.9,18.2-34.5,26.5c-1.5,1.6-4.9,7.5-6,8s-3,.5-2.4-1.4c3.1-10.8,19.4-22.9,29-28-5.4-1.6-10.5-1.1-16-.5-61.8,6.4-135.5,85.3-151.3,143.2s-7.3,48-.4,69,.2,3,1.7,2.8v-36.5l3-5.5c-2,16.8-1.3,34.6,3,51s4.3,13.7,8.2,19.3,12.8,14.8,14.8,12.7l-4.2-35.3c-4.2-4.6-7.6-9.9-10.6-15.4s-1-7.4-4.2-2.3c-1-10.9-3.7-22.3-3-33.5,1.3-22.1,12.6-49.1,24.2-67.8,2-3.2,19.3-27.6,22.8-24.7-25.2,30.6-46.8,69.9-41,111,1.5,0,1.5-3.6,1.7-4.8.5-3.2.7-6.4,1.3-9.7s-.6-4,2-1.5c-3.5,4.5,4.4,36.2,8.2,42.3s10.4,13.3,11.8,11.7c-1.7-6.5-4.8-11.7-5.9-18.6s-2.2-16.1-2.2-20.9,3.4-12.3,1.1-17.5c4.7-22.2,16.3-56,31.4-73.1s1.1-3.6,2.6-1.9-8.3,14.7-9.5,17c-14,27.1-20.3,62.8-9.5,92s5,12.6,10,17c-3.9-12.7-.7-26.2-2-39,3-19.3,9.8-38.9,17.8-56.7,7-15.5,16.7-29.2,24.2-44.3,3.3-1.6,3.8-6.3,7.5-7l.5,1c-13,15.9-26.6,66.1-26,86.5s2.3,19.1,5,26.5c0,.3,0,.7,0,1,.2,1.3.7,2.7,1,4s.8,1.5,1,2-.1.7,0,1c.8,1.9,5.9,14,8.5,10s-3.7-17.9-4.2-21.8c-1.4-9.5-1-15.8-.3-25.2,2-24.6,10.6-43.7,17-67,2.6.9,2.9-5.2,5-2-5.5,17.3-7.5,60.4-1.8,77.4s1.8,1.5,2.8,3.6c-3.2-.4-1.8.9-1.3,2.8,2,9.1,6.9,20,12.8,27.2s12.2,12.6,13,13c1.2.5,1.9-.2,1.5-1.5-8.2-11.1-11-24.9-16-37.5-5.2-20.5-4.9-41.4-1.7-62.2s5.5-21.2,6.7-30.8h4c-6.3,19.7.3,54.3,7,74s5.4,15.1,9.8,21.7,7,11.5,8.2,4.3c1,.9,5.8,1.1,5,4h-5c-2.6,2.2,14.3,14.5,16.5,15,1.7-1.1-.4-2.2-1-3-2.7-3.9-7.3-8.4-9.5-12-16.9-26.9-20.8-61.6-22-92.5s1-4-2-3.5c.7-1.7,4.5-11.6,5.1-12,3-1.9,2.8,1.8,2.9,2-.5,7.1,1.1,14.1,2.5,21,5.2,25.7,15.1,51.9,33.5,71,6.1,10.6,28.2,27.4,39.9,31.6s3.7-1.5,1.9-4.9-10.2-10.9-11.9-11.6c-10.7-15.6-18.9-31-24.3-49.2-4.1-13.8-7.5-28.3-6.7-42.8,4.1-1.8.4,11.5,5,8,0,.3.8,1.7,1,3,5.1,27.7,30.2,69.2,52.5,87,1.2.9,8.1,5.9,6.3.7-1.2-3.4-9.1-11.7-11.8-14.7h-1c-.4-.3-.6-.7-1-1-.2-3.6-2.4-6.8-4-10,2.2-.2,3.1.3,4.4,2.1,2.9,4.1,5.1,9,8.6,13.4,10.3,13.1,24.1,25.7,40,31.5l-22.8-28.7c-2.4-5.1-5.5-9.9-8-15s-3.5-12.7-8.1-14.4c-8-25.1-13.1-51.8-26-75l3-1c3.3,4.9,5.9,10,9,15-1.7,1.9-.4,2.5.3,4.1,15.7,33,34.9,72.5,59.6,99.4,11.7,12.8,25.5,25.1,44,24.5,1.6,1.2,0,1.8-1.5,2-12.5,1.6-20.9-4.4-31.5-9.5,4.3,14.1,9.9,43.3,28.5,22.5,8.9-10,14.5-25.5,30.5-26-3.3-14.3-5.8-29.7-11.3-43.3s-.3-3.2-2.7-2.7c-4.5-25.7-23.7-60.2-39.6-80.9-6.7-8.8-15.4-16-22.4-24.6-.4-1.2.2-2,1.5-1.5s11.4,11.1,13,13c66.3,73.3,75.6,176.6,80.5,271-3-.6-1.9,1.5-2,3.5-1.6,43.1-3,86.9,4.5,129.6s16.7,65,30.1,94.9c12.9,7.1,26.3,13.4,39.4,20.1s6.1,4.3,8.5,5,1.4-2.9,1.3-4.3c-2.4-33.9-20.2-71.2-28.8-104.2-19.9-76.4-15.7-161-28.4-239.6-15.6-96.8-44.9-218.9-151.9-250.1-13.4-3.9-27.8-6.9-41.8-5.7ZM472,262c3.2,4.9,6.3,9.8,10.6,13.8,5.1-1.5,10.2-2.9,15.4-3.8s4.5,1.1,4-1.5c-27.4-21.8-47.2-52.7-53-87.5-1.8-.2-1.1,3.4-1,4.5,1.9,25.4,9.9,53.4,24,74.5ZM443,282c1.4,3,2.6,5.2,4.6,7.9s5.5,5.4,6.4,7.6-3.6,1.3-5,1.5c-38.3-16.7-46.7-62.2-45-100l-3.7,10.8c-6.5,25.6-7,55.5,5.7,79.2,1.6,5.1,5.8,7.5,6,13-4.3-.3-8.8-3.2-12-6-13.1-11.2-21.8-33.1-23-50s-.2-10.3,0-15c.3-10.6,2.1-17.7,3.8-27.8s1.1-3.5-.7-3.2c-12.3,26.8-22.7,57-17.8,86.8.9.4,1.9,0,2.8.1,10.9.6,13.8.9,24,5s6,.9,9,5,3.9,8,3.9,10.3l-.9.7c-2.9-1.7-30-7.1-34-7s-1.3,0-2,0c3.2,13.8-5.3.5-9-.6s-5.9,1.1-9,.6l4,10c-2.3.5-4-.3-6-1-3.9-1.3-7.3-4.2-11-6-1.2,1.6,1.9,23.3,3,26.5,1.7,4.9,6.8,1.3,10-1l-6-2.5c2.5,0,5.4.3,7.8-.7s1.6-2.4,2.8-3.2c8-4.8,15-5.9,24.4-5.2v2c-5.8-.5-11.6,0-17,2-.3,1.7,2.4,1.1,3.5,1,3.8-.2,8.8-.6,12.5-1,6.9,1.8,12.4,3.9,18,8.5s15.9,16.7,13,19.5c-9.2-.1-17.7,3.5-26.6,4.9s-11.3,0-12.4,1.1c-2.5-2.5-9.6-.6-10-1s-1.2-7.4-6.5-4l.5-4-5,1c-.2-2.5,3.2-3.4,1.5-6s-8.1-4.5-8.5-4c4,28.4,4.1,56.1,14.2,83.2,12.9,34.5,49.5,85.4,77.2,109.8,37,32.5,80.9-2.9,112-27.1,28.4-22,51.8-39.9,59.5-77s0-.7,0-1c1.9-1.6,1.5-4,2-6s0-.7,0-1c.3-1.2.7-2.7,1-4,1.3-5.1,2.4-10.3,5-15,7.8,1.4,12.5,5.7,21,3.5,6.3-1.6,16.4-12.4,19-18.5,5.9-6.5,20.4-31.2,20.7-39.3s-1.4-6.4-1.7-8.7c-.7-7.1-1.1-14.1-2.3-21.2s-1.3-12-3.3-12.7c-10.5-3.6-23.3,16.5-27.4,24.4,1.3.6,5.9.9,7,.5,11.8,9.5,12.8,25.7,2,36.6s-2.5,1-3,1.4l4.8-6.7c6.9-7.9,1.1-33.1-11.8-26.8-2,1-4.6,8.7-4.9,11.1-.7,6.2,3.2,10.9,1.7,16.7s-8.5,8.1-7.7,13.7c4.2-.7,6.1-6.2,9.9-7.5s8.1-2,5.1,1.6c-9.9,2-7.5,10.9-18,9-2.5-10.8,8.3-12.9,6.9-23.4-.5-4-3.8-7.3-2.9-11.6l3,1c0-4.1,1.5-9.2,3-13,3.8-9.2,14.6-25.9,24.4-29.1s7.3-.7,7.6-.9.5-8-2.5-8.1c-13-.2-21.6,20.5-29,28.1s-7.5,5.1-8,6c-1.1,1.8-.2,3.7-.5,5-3.6,13.3-7.9,25.7-14,38-1.7-1-1-3.8-1-5.5-.2-14.5-.9-28.5-3.1-42.9s-3-19.5-5.3-21.7-12.1-2.7-15.3-3.7c-4.8-1.5-11.7-3.9-16.2-5.8-7.7-3.3-14.1-9.6-22.5-9.5s-3.7-.7-3.5,1c4.5,1.6,8.6,4.1,13,6,.6,2.9-1.6,2-3.5,2-3.7,0-9.2-.4-12.8-1.3s-13.8-6.8-17.1-6.7c-7.3.2-22.1,5.7-29.6,7.9-11.2,3.3-22.1,6.9-33,11-3.8.3-1.8-6.2-1.5-8l2.5,1c.8-5.1,4.8-8.6,9-11s3.3-.3,4-1.5c-30.1-18.5-41.5-55.1-45.5-88.5-4,25.9-1.1,53.1,8.5,77.5,1.6,4.1,3.8,9.5,7,12.5ZM597,293c2.8-3.6-21.4-29.9-24.8-34.7-9.5-13.2-15.5-28.4-24-41s-1.1-2.7-3.2-2.3c10.7,29.5,24.8,60.3,52,78ZM496,216c-.9,1,9.1,21.4,10.5,24,3.1,5.8,7.1,11.6,11.1,16.9s9.6,12.1,10.4,12.6c2.6,1.6,7.7-.8,10.5,1.5l-19.5-21.5c-8.4-9.1-13.2-21.3-19.8-31.2s-2-3.5-3.2-2.3ZM341,291c2-.3,7.1-2.1,6.9-4.3s-5.1-12-6.2-15.9-1.1-8.1-2-12-.4-3-1.7-2.8c0,11.8-.7,23.6,3,35ZM318,269c.5-4.2-1.5-4.2-1,0h1ZM315,407c-6.5-33.3-11.8-67.3-11.1-101.4l-7.9-16.5c-1.5,18.2-4.5,36.3-6,54.5-5.4,67-3.5,131.1-18.5,197.5-8.5,37.7-24,73.9-28.5,112.5-.9,7.8-.6,15.8-2,23.5.7.8,14.2-8.1,16-9,9.6-4.8,20.1-9.2,30-13.5,20.2-8.7,41.1-15.9,61.7-23.8,21.9-40.8,27.5-86.3,25.3-132.3-.4-8.2-1.4-23.2-3.1-30.9s-13.2-24.3-17.1-32.9c-14.7-32.3-14.7-62.2-20-96.5-7.3-1.9-13.4-6.6-18.3-12.3l-7.6-10.9c-.2,13.2.7,26.4,2,39.5s5.6,33.1,7,49.1.9,4-2,3.4ZM610,320c-.1-.1-2.1-.4-2,.5l5,27.5c1-4.5,6.9-17.5,6.1-21.4s-5.5-1.9-7.1-3.1-1.8-3.3-2-3.5ZM370,336c.1,6.5,5,13.7,11.7,14.8,5.3.9,13.8-2.9,14.3-8.8.7-8.7-18.4-17.3-23.9-13.9s-2.2,6.5-2.1,7.9ZM368,329c-1.6-1.5-16,4.9-14.4,10.8,2.5,9,14.6,14.1,23.4,13.2-8.2-6-12-13.8-9-24ZM401,343c-2-1.4-4.3,4.7-5,6l7-1-2-5ZM624,498c-.1-17.2.5-35.1,1-52.5.4-12.2.3-24.4,1-36.5l-12-2c.3,8-2.7,15.8-3.9,23.6-4.3,30.1-6.7,73.8-4.2,103.9.7,7.9,4.8,11.3,7.9,18.1,8.2,18.1,27.4,62.8,44.8,72.2,10.9,6,33.4,14.7,45.7,19.3,1.2.5,2.3,1.1,3.7.8-14.9-32.3-27-68.2-31.9-103.6-5.5-40.1-2.4-79.7-2.1-119.8.1-18.6.5-37.2-2.1-55.5l-4.5,1-14.2,23.7c3.2,28.2.8,56.6,1.7,84.9,0,1.9-1,4,2,3.5-.2,10,1.6,20.4,1,30s-3.3,5.6,1,5c0,1.3,0,2.7,0,4s-3.4,6.7,1,6c0,.6,0,1.4,0,2-1.6,1-1.2,3.9-1,5.5,2.8,30.7,13.2,61,23,90-1.4,1.9-1.6.5-2.2-.8-5.8-11.6-11.7-31-15.3-43.7-16.6-60-12.3-121.4-14.5-183-5.5,6-11.6,12.4-19.9,14.1-2.7,59.3-5.4,120.4,13.9,177.4-.8,4.8-4.3-3.6-5-4.5-2.6-7.9-4.3-15.9-6-24-2.7-12.6-4.6-25.4-7-38,0-.7,0-1.3,0-2,.2-2.8,1-9.1-2-8,0-3.7,0-7.3,0-11ZM602,465c.5-7.2,1.6-14.3,2-21.5s.7-5.5-1-5.5c-7.7,28.3-31.6,48.2-53.5,66-27.8,22.5-71.2,57.5-108.5,40,.6,6.5-2.6,13.6-.5,20s15.8,19.5,18.9,23.1c5.3,6.2,11.1,11.9,16.5,18,21.9,24.6,44.4,49,67,73,1.9,2.1,6,8.8,8.5,6,11.1-20.3,22.7-40.6,32.4-61.6s10.8-22.6,13.1-32.4,0-.7,0-1c1-.3.8-1.2,1-2,1.1-5.6,5.3-12,5.7-17.6,1-16.8-4.4-39.2-3.7-56.8-.6-15.9.9-31.7,2-47.5ZM355,628c11.9-3.3,19.8-5.3,25.4-17.1,10.1-21.2,14.8-72.8,13.6-96.4-.2-4.7-.9-14.9-2.1-18.9-2.1-7-12.4-16.1-16.4-22.6-.3,8.6,2.1,17.7,2.5,26.5,1.7,32.4-.6,64.9-10.3,95.8-3.5,11.2-9,21.7-12.7,32.8ZM431,538l-34-36c2.4,31.9-.3,64-8,95,1.8.4,2.5-.9,3.4-2.1,3.5-4.3,8.5-13.5,11.4-18.6,4.8-8.6,11.4-26.8,16.7-33.3s6.9-4.2,10.5-5ZM436,542c-.6-.7-11,2.3-11.9,4.6l-16.7,33.4c-.4.7-.2,1.3,0,1.9.7,2.1,10.3,13.7,12.6,16.5,7.6,9.6,16.3,19.3,24.5,28.5,27.5,31.3,57,61.1,85,92,1.5,0,14.6-22,16-24.9s2.1-3.2,1-5c-30.6-33.4-62.6-65.6-92.1-100-6.6-7.8-13.9-15.9-19.9-24.1s-9.6-11-8.6-17.9c1.8-2.2,7.1,10,9,10,1.6-4.8.9-10,1-15ZM611,559c-3-2.3-1,2.4-.9,3.5.8,12.6-15.9,50.2-21.9,63.2-21.9,47.9-51,93.9-81,137-.2,1.5,18.9,18.8,20.6,19.2,2.9.8,6.4-5.3,8.1-7.6,31.7-42.1,72-114.4,84.7-165.3,1-3.8,4.5-16.7,4.4-19.5s-12.6-29.4-13.9-30.5ZM425.3,613.7c-1.2-1.1-5.1-8.4-6.9-10.6-4.8-6-9.4-12.3-14.4-18.1-6.6,13.8-16.9,25.5-25.5,38.1-.8,2.2,1.3,6.3,2.3,8.6,8.1,17.6,25.9,39.4,38.2,54.8,23.4,29.4,49.1,56.8,74.5,84.5,1.7,0,18.4-23.8,20.7-27.2s13-19.6,12.7-21c-33.4-35.3-67-70.6-98.5-107.7s-2.5-.8-3.1-1.3ZM388.5,600l-1.5,1.5c0,1,2.5-.6,1.5-1.5ZM605,937c.1-.1,2.4.5,2.1-1.4-1.5-15.9,1.7-34.6,0-50.1-.5-4.4-4.1-4.4-7.8-5.2-16.6-3.6-44.6-4-61.6-2.1s-22.7,3.1-26,4.8-.7,3.8-.6,5.1c.6,7.5,4.3,6,11,7l-1,2c-3.4-.5-6.6-1.7-10-2,0,6.5.3,13.7-1.5,20s-4.7,7.5-6.5,12c20.4,2.9,41,1.9,61.5,2,7.3,0,15.2-1,22.9,0s21.1,4,17.5,8-1.5,0-2,0c-2.8-.3-5.9-2.7-9-3.5-18-4.6-46.3-.1-65.5-.5s-15.5-2.4-15.5-.5c21.2,9.7,43.3,12.6,66.5,10.5s17.5-1.8,23.5-4,1.3-1.3,2-2ZM454.9,894.1c-.5-.5-12.3-1.5-12.9-1,2.4,6.9-5.2,13.8-5,21,4.4-3.8,8.5-7.8,13.1-11.4s4.6-2.5,4.7-2.8c.4-.8.4-5.5.1-5.7ZM512,930h-4v2h4v-2Z"/>
  <path class="st2" d="M113,1024c16.1-72.9,29.8-146.6,52.7-217.8,12.3-38.3,27.6-82.2,58.8-109.2,3.3-2.9,20.7-16.3,23.9-16.1,6.7.5,27.4,24,32,30.1,25.2,33.6,33.9,71.8,40.4,112.6,3.2,20,10.3,54.6,4.4,73.1s-.8,4.2-2.3,4.2c-5.5-15.7-11.8-30.2-14.7-46.8-.5-2.6,1-8.1-2.3-7.2-.4,12.3,2.9,24.2,6.7,35.8,2.4,7.3,8.1,16.1,7.3,23.7s-9.4,23.6-11.7,32.3c-5.1,18.6-7.3,39.2-10.3,58.2l-1.5-1c-4.1-14-6.9-28.2-10.8-42.2-17.6-64.3-44.2-128.7-37.7-196.8,2.1-.4,2.7,1.4,3.6,2.9,8.7,13.3,12,33.6,18.9,48.1,1,1.3,1.9,1.6,1.5-.5-1.9-12.1-11-38.3-17.2-48.8-3.7-6.2-9-9.2-10.6,0-1.9,11.1-1.1,25.5-.2,36.8,5.1,65.6,30.5,125.1,45.7,188.3,1.6,6.8,5.8,19.8,6.2,25.9s-1.9,9.6-.9,14.4H113ZM273,817c.3,1.3.9,2.4,1,3,.4,1.7.6,3.3,1,5,1.4,6,2,14.4,6,19-.4-5.8-1.6-11.9-3-17.5s-1.8-3.1-2-3.5c-.4-1.3-.6-2.7-1-4s-.6-2.6-1-4,1.2-3.6-2-3c-.6,2,.7,3.5,1,5Z"/>
  <path class="st0" d="M300,1024c.7-5,.5-10.5,1.1-15.4,1.6-12.6,6.8-52.1,11.1-61.9s13.5-15.1,17.7-20.3c18.1-22.4,45.4-61.1,41.9-90.9-1.2-9.8-10.5-29.5-16.3-37.7s-1.1-3.6-2.6-1.9,8.4,17.4,9.5,20c18,43.8-11.3,73.3-34.5,107.5l-13,14.5c2.7-17,16.6-34.6,18-51.5s-3.5-42.8-6.2-59.9c-9.1-57.4-24-114.2-73.8-149.7,39.2-19.4,80.3-34.3,121-50,8.6,20.9,23.2,39.7,37.1,57.5,24.6,31.5,52.1,60.6,78.8,90.2l-39.8,44.9c-.9,5,4.7,16,6.8,21.1,3.3,7.8,20.7,37.4,21.2,41.3-3.9.9-14.3,2.9-17.2,4.3s-3.6,4.6-4.5,4.8c-3.1.7-12-3.3-14.8,0s-5.8,13.7-7,17c-1.9,5.2-2.3,10.8-5,16s-10.5,14.8-14.7,22.3c-13.7,24.1-20.5,50.6-25.8,77.7h-89ZM370,648c-9.1,41.3-9.3,72.7,14,109,2.6,4,5.3,9.5,8.6,12.9s2.3,3.2,3.4,2.1-10.1-14.4-11-16c-19.5-33.1-20.3-70.8-14-108,0-.2,1.5-1.2,1.8-2.7.5-2.7,1.3-6.7.7-9.3-2.8,3.5-2.6,8-3.5,12ZM396.5,773c-1,.7.5,1.4,1,2,1-.7-.5-1.3-1-2Z"/>
  <path class="st0" d="M697,1024c-7-100.2-31.5-197.6-56-294.4,8.2-24.8,15.3-49.6,17-76.1.4-5.9-.5-12.1,0-18.1.1-1.5-.8-2.9,1.5-2.5,28,31.3,58,63.7,61.5,108,2.9.6,2.1-1.4,2-3.5-1.3-25.8-17.1-54.3-33-74l-28.5-31.5c24.1,9.7,48.4,19.7,71.5,31.5,7.7,4,24.9,12.2,30.9,17.1,7.2,5.9,17,39,19.8,49.2,6.6,24.6,12.4,56.2,10.2,81.6-1.9,21.5-12.5,45-15.4,66.6-1.6-1.1-1.3-2.8-1.7-4.3-6-23-13.5-69.1-11.9-92.2s.7-10.7,3.6-8.5,4.6,8.9,5.5,12c1.9,0,1-4.3.8-5.3-3.5-13.1-11.3-15.9-12.8.8-1.7,19.4,2.4,42.5,5.2,61.8,8.4,58.4,21.1,116.2,31.9,174.2,1.4,5.4-4.9,3.5-5,7.4h-97Z"/>
  <path class="st0" d="M694,1024h-198c-1.2-18.8-1.7-37.7-3-56.5s-3-19.2-3.1-28,3.2-8.2,8.3-9.3c17.2,7.6,35.1,15.6,54.2,16.9s38.6,0,50.8-4.3c6.6-2.4,7.2-4.3,7.8-11.2,1-11.6,1.1-33.6,0-45.1s-.5-5.3-2-7c-5.3-5.9-45.7-5.4-55-6.9,36.9-39,67-85.4,84-136.5,1.5.2,1.5,1.5,1.9,2.6,5.5,14.7,9.7,37.6,13.6,53.4,18.7,76.3,34,153.5,40.5,232Z"/>
  <path class="st2" d="M884,1024h-82c1-1.8,2.8-3.3,2.9-5.5.2-5.8-5.4-17.4-4.7-23.8s6.5-20.7,8.5-28.5c7-27.2,14.6-56,18.1-83.9,1.2-9.5,2.5-20.3,2.1-29.9s.8-3.7-1-3.5c-.5,13.9-3.6,27.4-6,41l-1,3c-.1.6.1,1.4,0,2-1.9.6-2,2.4-2.5,4-4,10.9-8.8,28.9-14.7,38.3s-.9,2.1-2.8,1.7l2-72c5.3-23.1,12.3-61.9,6-84.5s-.1-3.1-2-3.5c4.3,31.5-1.8,60.7-9,91-2.6-9,2.5-19.2,3-28.5s-1.8-16.7-2-24.5c-.5-21.2.3-36.5-3.3-58.2-4-23.4-11-46.3-19.7-68.3,10.4,6.9,18.7,17,25.8,27.2,32.3,46.5,35,93.1,46.5,146.5,11.5,53.4,24.9,106.3,35.7,159.8Z"/>
  <path class="st2" d="M393,1024c6.2-40.2,21.8-79.9,49.5-110,1.1-1.2,9.4-10.1,10.5-9-.2,5-3.3,9.3-4.5,14-3.6,14-2.7,26.5-.5,40.5l2-1.5c.5.6,2.2.8,3,1-8,20.8-14.6,42.9-18,65h-42Z"/>
  <path class="st0" d="M492,1024h-25l-5.9-72.4c2-3.4,5.7-.5,8.4-.5,5.2,0,11.2-9.6,16-12l6.5,85Z"/>
  <path class="st4" d="M461,1003l-7,21h-16c3.8-21.9,10.6-43.4,19-64h1c-1.1,7.6,2.2,33.5,3,43Z"/>
  <path class="st2" d="M463,1024h-9l7-21c0,.2.9,1.1,1,2.4.6,6.1,1,12.4,1,18.6Z"/>
  <path class="st2" d="M469,282c-4.2,2.4-8.2,5.9-9,11l-2.5-1c-.3,1.8-2.3,8.3,1.5,8-3.8,7.1-3,36,9.3,33.1s8.2-21.4,10.1-25.1c3.6-7,8.7-12.9,13.5-19,7.6-2.3,22.3-7.7,29.6-7.9s12.5,5.6,17.1,6.7,9,1.2,12.8,1.3,4,.9,3.5-2c7.7,3.4,15.7,7.1,23.6,10.9,5.2,2.5,10.9,4.1,16.1,6.4,6.4,22.3,9.6,45.6,10.2,68.8,4.9.2,3.3-2.6,4-4,6.1-12.3,10.4-24.7,14-38,2.3.3,3.4-2.5,4.5-3s.8,3.3,3.5,2c-1.5,3.8-3,8.9-3,13l-3-1c-.9,4.3,2.4,7.6,2.9,11.6,1.3,10.5-9.4,12.6-6.9,23.4,10.6,1.9,8.1-7,18-9,5-1,2.2-1.4,3-2s1.9-.3,3-1.4c10.8-10.8,9.8-27.1-2-36.6,1.1-.4,14.8-15.9,16-18,.9.7,1.3,1.8,1.6,2.9s1.4,7.7,1.4,8.6v24c0,3.9-4.7,13.5-7.2,16.8s-7.2,6.7-7.8,8.2c-2.1,4.9,7-2.9,8-4,5.7-6.6,9.4-15.8,10-24.5,4.6.7-1.6-5,4-5,.2,2.3,1.7,6,1.7,8.7-.2,8.1-14.7,32.8-20.7,39.3-6.4,7-15.2,16.5-25.4,14.9s-10-8.2-14.6,0-3.7,9.9-5,15l-1,4c0,.3,0,.7,0,1-1.9,1.6-1.6,3.9-2,6s0,.7,0,1c-2.6-.6-1.9,1.4-2.5,2.9-16.9,41.2-62.8,79.4-101.4,100.6-40,22-54.9,9.6-82.5-20.5-22.4-24.4-65.5-85.1-65.5-118.5v-37.5c3.7-.8,4.3,3.4,7.5,4s9.1.3,9.5,0-.2-1.8,0-2c1.1-1.1,10.1-.8,12.4-1.1,8.9-1.4,17.5-5,26.6-4.9,2.9-2.8-10.4-17.3-13-19.5-5.6-4.6-11.1-6.7-18-8.5.9-.1,3.1-1.9,5-1,4.7,1,9.4,2.5,13.5,5-1.5-3.4-6.4-4.9-9.5-6-.6-1.6-.6-2.5-2.4-3.2-5.9-2.2-13.7-1.9-19.9-.6-8.8,1.9-17.8,10.1-16.8-6.3,2,.7,3.7,1.5,6,1l-4-10c3.1.5,5.9-1.5,9-.6s12.2,14.4,9,.6c.7,0,1.3,0,2,0,4.9,3.2,10.3,4.9,15.3,8.2,9.4,6.2,21.9,20.4,28.1,29.9,2.9,4.5,4.8,10.7,7.6,14.4s1.3-1.1,2-1.5c.5,5.6,2.3,11.2,0,17,3,.5,1.6-.8,2-2.4,3-11.8.9-31.7-8-40.6-1.9-4.4-9.2-15.7-13-18l.9-.7c0-2.3-2.5-8.5-3.9-10.3l2-1c3.2,2.8,7.7,5.7,12,6-.2-5.4-4.4-7.9-6-13-4.5-14.7-7-30-6-45.5l2-8.5c3.5,20.1,20.9,60.3,43,64.6,3.1.6,3.1-.5,4-.6,1.4-.2,5.9,1,5-1.5s-4.9-5.5-6.4-7.6-3.2-4.9-4.6-7.9c-2.8-6.1-6-15.3-7.7-21.8s-4.1-17.7-5-25-.9-4.2.2-4.2c7,20.2,19.6,40.1,38.5,51ZM509,303c-.3,0-.7,0-1,0-7.9-.5-22.2,3.1-25.5,11.1s.6,2.7.5,2.9c-.2,1.4-.7,2-1,3-.6,1.9-3.9,4.4,0,6-1.6,2.2-8.7,15.1-7,17,5.6,0,3.2-3.4,4.8-6.7,3.4-7.3,9.4-13.9,16.7-17.3.6,9.8,3.2,18.3,13.5,21l-18,2c6.5,1,13.3,1.5,20,1s10.4-1.3,14.8-2.7,8.8-4.8,10.9-5.1,4.7,1.3,5.3.8c2.2-1.9-2.8-1.6-2-3.5,1.5-3.4,7.7-5.4,8.6-6.5s-1-3.4-.6-4,4.3-1.5,5.9-2.6c3.3-2.3,6.4-4.9,9.1-7.9-.2-1-2.1-.4-3-.5-9.1-.5-5.8-2.4-12-5.5-10-5-29.6-6.2-40-2.5ZM594.9,353c-1.5-1-8.2,4.5-9.5,5.9-4.4,4.8-20.5,32.2-22,38-1.9,7.3,1.9,8.7,8.6,6.6s11.1-7.6,12.8-9.2c3.6-3.1,14.4-15.8,15-20s-2.7-19.9-5-21.4ZM415,402c-2.1,6.7-5.2,13.8,0,20.2s2.9,1.7,4,2.8-.3,1.3.7,2c5.6,4.4,14.7,9.4,21.7,5.8s5.1-6,7.3-6.7c6.2-1.8,9.8,2.8,15.3-4.2,6.7-2.6,8.3-8.3,6.5-15s-3.1-6.5-4.5-5c0,2.8,2.6,5,2.8,7.8s-.8,2-.8,2.2c-4.3,6.8-10.7.6-16.6,0-11.3-.9-14.4,11.1-28.4,3.5s-4.3-3.8-6.9-5.6c.3-3,.4-4.9,1-8s3.9-8.1.5-8c-1.4,2.4-1.7,5.4-2.5,8ZM443,448c4.1,0,5.6-5.4,2.5-8l-2.5,8ZM449,450c-2.7.4-6.8,1.9-8.6,1.9-3.4.2-4.5-1.9-8.4-.9s-11.1,6.5-15,10c-1.7-.3-6.6-.2-6,2.5,1.5,2.2,3.8,1.4,6,1.5,3,5.9,7.8,15.2,14,18,0,2.2,2.2,2.8,3,4s.3,2.6,2.1,4.4c6.8,7,20.6,5.6,27.9,0s2.4-8.3,3.1-9.4,2.8-.9,3.9-1.6c8-5.7,16.8-13.1,22.1-21.4,1.1-.4,12.5-2.7,8-5.5s-8.6,1.5-12,2.5c-2.3-.3-5.2.5-7.3,0s-.6-1.7-1.4-1.9c-7.3-2-24.7-5.1-31.3-4Z"/>
  <path class="st0" d="M484,879c-.4.2-1.8-.2-2,0-7.5-13.4-15.3-27-21.2-41.3s-6.8-14.6-5.3-17.6c17.5-16.7,33.7-34.4,49-53,3.8,3.8,21.3,22,25.8,20.8s29.3-40.9,33.1-46.9c28.3-45.1,53.5-93.6,65.1-145.9l23,33c4.5,33-4.3,68.6-15.2,99.8-15.9,45.3-41.7,91.5-73.3,127.7-4.1,4.7-14.2,17.2-19.7,18.3-4.8,1-27.5,5-31,5s-2.5-2.3-4.8-2.8c-5.2-1-18.6.7-23.5,3Z"/>
  <path class="st3" d="M315,407c2.6,13.2,5.2,28.5,9.3,41.2s.3,3,1.7,2.8l-11-95.5,1-2c3.2,13,3.7,27.3,9,39.5,9.7,66.7,24,118.6,18,188l-9,29.5-4,8.5c.3-11.6,3-23,4-34.5,2.5-28.6,2.5-57.4,1-86l-2-9.5c-1.8,46.6-9.4,92.6-26.5,136l-4.5,9c2.6-15,6.6-29.6,8.8-44.7,2.6-17.5,3.6-35.2,5.2-52.8-1.4-14.8,1.8-32.7,0-47.1s-.8-3.1-2-1.5c-1,20.4-5,41.2-9.3,61.2-6.6,31-15.6,61.3-27.2,90.8l-7.5,15c2.7-33,14.5-66.7,17-99.5,0-1.1.7-3.7-1-3.5l-29,116c-1.8.9-15.3,9.8-16,9,1.4-7.7,1.1-15.7,2-23.5,4.5-38.6,20-74.8,28.5-112.5,15-66.4,13.1-130.5,18.5-197.5,1.5-18.2,4.5-36.3,6-54.5l7.9,16.5c-.7,34.1,4.6,68.1,11.1,101.4Z"/>
  <path class="st2" d="M602,465c-1.2,15.8-2.6,31.6-2,47.5-.7,17.6,4.6,40,3.7,56.8-.3,5.6-4.6,12.1-5.7,17.6-1,.3-.9,1.2-1,2s0,.7,0,1c-17.6,29.4-31.9,61.6-54,88-22.6-24-45.1-48.4-67-73,0-3.8-3.5-13.1-1.5-16s14.1-5.6,17.5-7.5c34.5-20.3,83.9-80.5,107.1-114,.9-1.2.8-3,3-2.5Z"/>
  <path class="st1" d="M315,407c2.9.6,2.1-1.6,2-3.4-1.3-16-5.3-32.9-7-49.1s-2.2-26.3-2-39.5l7.6,10.9c4.9,5.6,10.9,10.4,18.3,12.3,5.3,34.3,5.3,64.2,20,96.5s15.4,25.4,17.1,32.9,2.7,22.7,3.1,30.9c2.2,46-3.4,91.5-25.3,132.3-20.6,7.8-41.5,15.1-61.7,23.8s-20.4,8.6-30,13.5l29-116c1.7-.3,1.1,2.4,1,3.5-2.5,32.9-14.3,66.5-17,99.5l7.5-15c11.6-29.5,20.6-59.8,27.2-90.8s8.4-40.8,9.3-61.2c1.2-1.6,1.8,0,2,1.5,1.8,14.4-1.4,32.3,0,47.1-1.7,17.6-2.6,35.3-5.2,52.8-2.2,15.1-6.3,29.7-8.8,44.7l4.5-9c17.1-43.4,24.7-89.4,26.5-136l2,9.5c1.5,28.6,1.5,57.4-1,86-1,11.5-3.7,22.9-4,34.5l4-8.5,9-29.5c0,.1,1,.8,1,2.3-.2,4.2-2.7,9.8-3,14.2s1,2.5,2,1.5,4.8-31.4,5-35.5c3.6-65.5-13.3-129.4-23-193.5-2.7-.4-2,.5-2,2.5-.1,5.8,1.3,15,2,20.5-5.3-12.2-5.8-26.5-9-39.5l-1,2,11,95.5c-1.4.2-1.4-1.7-1.7-2.8-4.1-12.7-6.7-28-9.3-41.2ZM349,601c9.1-21,15-43.4,15-66.5l-3-26.4-12,93ZM347.5,602v1c.6-.3.6-.7,0-1Z"/>
  <path class="st1" d="M657,479c-3,.6-1.9-1.5-2-3.5-.9-28.3,1.5-56.7-1.7-84.9l14.2-23.7,4.5-1c2.6,18.4,2.2,37,2.1,55.5-.3,40.1-3.4,79.7,2.1,119.8,4.9,35.4,17,71.3,31.9,103.6-1.4.3-2.5-.3-3.7-.8-12.2-4.6-34.7-13.4-45.7-19.3-17.3-9.4-36.5-54.1-44.8-72.2-3.1-6.8-7.2-10.2-7.9-18.1-2.6-30.1-.2-73.8,4.2-103.9,1.1-7.9,4.1-15.6,3.9-23.6l12,2c-.7,12.2-.6,24.4-1,36.5-.5,17.4-1.1,35.3-1,52.5-2.7-1.8-1.9-1-2,1.5-1.3,26.7,1.7,60,17,81.5s4.2,9.3,5,4.5c-19.2-57-16.6-118.1-13.9-177.4,8.3-1.7,14.4-8.1,19.9-14.1,2.2,61.6-2.1,123,14.5,183,3.5,12.8,9.4,32.1,15.3,43.7s.8,2.7,2.2.8c-9.8-29-20.2-59.3-23-90-.2-1.6-.6-4.5,1-5.5,2.9,19.8,12.1,52.5,21.2,70.3s1.7,3.2,1.8.3c-12.6-52.1-18.8-106-22-159.5l-2,10.5c0,10.4-1.8,21.2-2,31.5ZM656,608c-2.7-16.8-5.2-33.6-7-50.5-3.6-34.2-6.2-68.7-8-103l-2-14.5c-3.4,35.3-6.2,71.1-2,106.5,2.2,18.6,8,41.8,16.5,58.5s.9,2.8,2.5,3ZM684,601c.7-1.4-.6-2.7-1-2-.7,1.4.6,2.7,1,2Z"/>
  <path class="st0" d="M425.3,613.7c.6.5,2.3.3,3.1,1.3,31.5,37.1,65,72.4,98.5,107.7.4,1.4-10.8,18.2-12.7,21s-19,27.3-20.7,27.2c-25.3-27.7-51.1-55.1-74.5-84.5-12.3-15.4-30.1-37.2-38.2-54.8-1.1-2.3-3.2-6.4-2.3-8.6,8.6-12.6,19-24.2,25.5-38.1,5.1,5.8,9.6,12,14.4,18.1s5.7,9.5,6.9,10.6Z"/>
  <path class="st2" d="M436,542c-.1,5,.6,10.1-1,15-1.9,0-7.2-12.1-9-10-1,6.9,4.8,12.6,8.6,17.9,6,8.2,13.2,16.4,19.9,24.1,29.4,34.4,61.5,66.6,92.1,100,1.1,1.8-.3,3.4-1,5-1.4,3-14.5,25-16,24.9-28-30.9-57.5-60.7-85-92-8.1-9.2-16.8-19-24.5-28.5s-11.8-14.4-12.6-16.5-.5-1.2,0-1.9l16.7-33.4c.9-2.4,11.2-5.3,11.9-4.6Z"/>
  <path class="st2" d="M611,559c1.3,1,13.8,28.8,13.9,30.5,0,2.9-3.4,15.7-4.4,19.5-12.7,50.9-53,123.2-84.7,165.3-1.7,2.2-5.2,8.4-8.1,7.6s-20.8-17.7-20.6-19.2c30-43.1,59.1-89.1,81-137,5.9-13,22.7-50.6,21.9-63.2,0-1.1-2-5.8.9-3.5Z"/>
  <path class="st4" d="M602,465c-2.2-.5-2.1,1.2-3,2.5-23.2,33.4-72.6,93.6-107.1,114-3.3,2-16.9,6.7-17.5,7.5-1.9,2.9,1.5,12.3,1.5,16-5.4-6.1-11.2-11.8-16.5-18s-18.1-20.4-18.9-23.1c-2.1-6.3,1.1-13.5.5-20,37.2,17.4,80.6-17.5,108.5-40,22-17.8,45.8-37.6,53.5-66,1.7,0,1.1,4.4,1,5.5-.5,7.1-1.5,14.3-2,21.5Z"/>
  <path class="st2" d="M511,888c0-1.2-.5-4.4.6-5.1,3.3-1.8,21.3-4.3,26-4.8,17-1.8,45-1.5,61.6,2.1,3.7.8,7.3.8,7.8,5.2,1.8,15.5-1.5,34.3,0,50.1.3,2-2,1.3-2.1,1.4,3.6-4-15.9-7.8-17.5-8-7.7-1-15.7,0-22.9,0-20.6,0-41.2.9-61.5-2,1.8-4.5,5.1-6.9,6.5-12s1.4-13.5,1.5-20c3.4.3,6.6,1.5,10,2,5.2.8,11.4,2.5,16-1,12.6-1.1,14.1-8.7-.5-10s-16.9,1.7-25.5,2Z"/>
  <path class="st3" d="M453,76l-28,10c-.2,1.7,2.3.9,3.5,1,2.8.1,5.7,0,8.5,0,.3.2-.5,1.3-1,1.5-5.4,2.6-17,.5-21,7.5h14l-11.7,3.7c-3.2,4.8-9.1,4-14.2,5.9-4.6,1.7-10.7,3.9-14,7.4l6,1c-6.6,2.7-32.5,16.8-35,22.5s.3,2,1.5,1.5c2.3-1,8.9-6.9,12.2-8.8,5.3-3.2,10.8-5.5,16.3-8.2-7.5,6.9-15.7,13.3-22.5,21s-11.7,14.1-12.4,15.8-.3,2.8-1.1,4.2c1.9.4,2.4-1,3.5-2,4.9-4.1,9.1-9.8,14-14s16.4-13.2,21-15,2,.3,1.5,1.5-6.3,6.8-7.8,9.2-10.1,17.7-2.8,10.2,10.7-14.9,12.6-12.9c-1.3,5.3-6.3,8.8-8.7,13.8s-2.6,5.4.2,4.2,10.3-12.4,12.5-14.5,4.7-3.6,7-5.5c-1,5.7-5,10.7-7.5,16s-.2,2.5-.5,3c-7.4,15.1-17.2,28.8-24.2,44.3-8,17.8-14.8,37.4-17.8,56.7,0-.7-2-3.3-2.1-6.5-.2-5.3,2-10.9,1.1-16.5-1.6.4-2.5,4-3,5.5-2.3,6.9-2.8,14-4,21v18.5c-10.8-29.2-4.6-64.9,9.5-92s10.4-16,9.5-17c-1.5-1.8-2.2,1.4-2.6,1.9-15.1,17.1-26.7,50.9-31.4,73.1s-3.7,13.8-3,21l-3-5.5v-27c0-.2-1.6-1.8-2-1.5-2.3,2.5-2.5,15.3-3,16s-1.8-.2-2,0c-2.6-2.5-1.7-.2-2,1.5-.6,3.3-.8,6.5-1.3,9.7s-.2,4.8-1.7,4.8c-5.8-41.1,15.7-80.4,41-111-3.5-2.9-20.8,21.5-22.8,24.7-11.6,18.7-23,45.6-24.2,67.8s2.1,22.7,3,33.5.7,18.1,2,27c-3.7-1-1.1-7.3-6-6-4.3-16.4-5-34.2-3-51l-3,5.5v36.5c-1.5.2-1.4-1.7-1.7-2.8-6.8-21-5.3-47.9.4-69,15.7-57.9,89.5-136.9,151.3-143.2ZM385.5,158v1c.6-.3.6-.7,0-1ZM368.5,168v1c.6-.3.6-.7,0-1Z"/>
  <path class="st1" d="M680,419c2.4,46.8-1.9,101.2,7.5,146s6.6,22.6,9.5,34c1.8.2,1-2.3.9-3.4-1.3-11.9-5.3-25-6.8-37.3-3.4-27.7-3.1-57.7-.1-85.4,1.4.2,1.7,4.4,1.9,5.6,7.8,63.4,17.5,115.8,45.3,173.7.4.9,4,8.5,3.9,4.1-7.9-32.3-14.1-65-21.6-97.4-.7-3.2.1-1.9,2.6-2.1,0,.7,0,1.4,0,2,.4,4.2.8,5.8,2.2,10.3s1.4,3.8,2.2,6.8c8.8,30.1,18.9,60,24.5,91-13.1-6.7-26.5-12.9-39.4-20.1-13.4-29.9-24.4-62.5-30.1-94.9s-6-86.4-4.5-129.6c0-1.9-1-4,2-3.5Z"/>
  <path class="st2" d="M487,881c6.7.6,13.3-1.8,20-1-1.1,10.4,1.8,25.2-1,35-7.7,1.1-16,5.6-22,10.5s-10.9,11.9-12.7,12.4c-5.4,1.4-14.5-11.8-20.3-11.9,3-11.8,6-23.9,10.1-35.4,1.8-2.2,7.7-2.3,10.9-3.1s4.8-2.2,6-2.5,2,.1,3,0c-1.1,10.9-6.4,21.8-14,29.5,3.4,1.7,7.5-5.1,9.2-7.8,5.1-8.3,6.5-17.3,10.8-25.7Z"/>
  <path class="st1" d="M355,628c3.7-11.1,9.2-21.6,12.7-32.8,9.8-30.9,12-63.4,10.3-95.8-.5-8.7-2.8-17.8-2.5-26.5,4,6.5,14.3,15.6,16.4,22.6s1.8,14.2,2.1,18.9c1.2,23.6-3.5,75.2-13.6,96.4-5.6,11.8-13.5,13.8-25.4,17.1ZM384,530c-2.5-.2-1.7-.2-2,1.5-.6,4.1-.5,8.9-1.1,12.9-2.9,19.1-6.8,38-11.9,56.6,2.9.6,1.6-.8,2.3-2.2,10.4-21.3,13.9-45.2,12.7-68.8Z"/>
  <path class="st4" d="M602,427c-7.8,37.1-31.2,54.9-59.5,77-31.1,24.1-75,59.6-112,27.1-27.7-24.4-64.3-75.3-77.2-109.8-10.1-27.2-10.2-54.8-14.2-83.2.5-.5,8.1,3.2,8.5,4,1.7,2.6-1.8,3.5-1.5,6l5-1-.5,4c5.4-3.4,6.2,3.7,6.5,4s7.5-1.5,10,1c-.2.2.2,1.8,0,2-.4.3-8.4.2-9.5,0-3.2-.6-3.8-4.8-7.5-4v37.5c0,33.4,43.1,94.1,65.5,118.5,27.6,30.2,42.5,42.5,82.5,20.5,38.6-21.3,84.5-59.4,101.4-100.6s-.1-3.5,2.5-2.9Z"/>
  <path class="st1" d="M431,538c-3.5.9-8.1,2.2-10.5,5-5.3,6.5-11.9,24.7-16.7,33.3s-7.9,14.3-11.4,18.6-1.6,2.4-3.4,2.1c7.7-31,10.4-63.1,8-95l34,36Z"/>
  <path class="st4" d="M803,867l-2,72c1.8.4,2-.5,2.8-1.7,5.9-9.3,10.7-27.4,14.7-38.3s.6-3.3,2.5-4c-5.4,28.4-12,58.5-20.3,86.2-.5,1.6-1,5.3-2.7,5.8l-11.7-63.4c5.8-18.7,12.3-37.6,16.7-56.6Z"/>
  <path class="st3" d="M430,157c-1.3,9.6-5.2,20.6-6.7,30.8-3.1,20.8-3.5,41.7,1.7,62.2-1.5-3.8-3.4-9.5-6-12v15c-1.5-.7-2.9-4.7-4-7s-2.7-3.1-2.8-3.6c-5.7-17-3.7-60,1.8-77.4s3.5-8.6,4.8-10.7,1.5-2.4,2.7-3.3l.5,10c4.3-2.9,3.8-9.4,7.5-13,.7,2.5.8,6.4.5,9Z"/>
  <path class="st3" d="M407,150c.9-1,7-6,8-5-1.8,7.4-4,14.7-6,22-6.4,23.3-15,42.4-17,67-3.5-.1-2.8-.6-3,2.5s.2,7.7,0,11.5c-4.5.9,0-7.7-3-9-1.2,4.4,1.1,11,1,14.4s-2.1.1-2.1,2,.8,5.5,1.1,7.6c-2.8-7.3-4.8-18.6-5-26.5-.5-20.5,13-70.7,26-86.5Z"/>
  <path class="st3" d="M657,479c.2-10.3,2-21.1,2-31.5l2-10.5c3.2,53.6,9.4,107.4,22,159.5,0,3-1.1.9-1.8-.3-9.2-17.8-18.3-50.4-21.2-70.3s0-1.4,0-2c-.2-1.9.8-4.9-1-6,0-1.3,0-2.7,0-4s.5-4.2-1-5c.6-9.6-1.2-20-1-30Z"/>
  <path class="st3" d="M434,157c.5-1.7,1.1-5.4,3-6,0,2.3.5,17.3,1,18,1.6,2.2,2.7-3.3,3-4,3-.6,1.9,1.5,2,3.5,1.2,30.9,5.1,65.7,22,92.5h-1c.8-2.9-4-3.1-5-4-4.1-3.8-11.1-17.9-15-23.5s-.8-3-3-2.5c-6.7-19.7-13.3-54.3-7-74Z"/>
  <path class="st4" d="M798,870c-3.7,15.5-8.1,30.6-12,46-1.4.2-1.4-1.8-1.7-2.8-5.8-21.1-.5-36.6,4.2-57.2l10.5-39c.2,7.9,2.5,16.1,2,24.5s-5.7,19.5-3,28.5Z"/>
  <path class="st4" d="M603,937v2c-6,2.2-17,3.4-23.5,4-23.2,2.1-45.3-.7-66.5-10.5,0-1.9,13.9.5,15.5.5,19.3.4,47.5-4.2,65.5.5s6.1,3.3,9,3.5Z"/>
  <path class="st4" d="M492,289c-4.9,6-10,12-13.5,19s-8.8,24.8-10.1,25.1c-12.3,3-13.2-25.9-9.3-33.1,10.9-4.1,21.8-7.7,33-11Z"/>
  <path class="st2" d="M377,231c-.2,4.7-.3,10.4,0,15-2.9-.6-2.2,1.6-2,3.4.7,6.9,4,17.8,6.8,24.2s6.4,10.1,7.7,13.3,1.4,4-.5,5c-10.2-4.1-13.1-4.4-24-5-.6-18.2,2-36.6,9.3-53.3s.2-3.3,2.7-2.7Z"/>
  <path class="st4" d="M443,282c-3.2-3-5.4-8.4-7-12.5-9.6-24.4-12.4-51.7-8.5-77.5,4,33.4,15.3,70,45.5,88.5-.7,1.2-3,.9-4,1.5-18.9-10.9-31.5-30.8-38.5-51-1.1,0-.4,3.2-.2,4.2.9,7.3,3.2,17.8,5,25s4.9,15.7,7.7,21.8Z"/>
  <path class="st4" d="M401,308c3.8,2.3,11.1,13.6,13,18,4.1,9.5,5.1,15.9,6,26-.7.4-.9,3-2,1.5-2.8-3.7-4.7-9.9-7.6-14.4-6.2-9.5-18.7-23.7-28.1-29.9s-10.4-5-15.3-8.2c4-.1,31.1,5.3,34,7Z"/>
  <path class="st1" d="M485,247c-6.3-11-10.5-23.2-15.9-34.6,1.1-4.8,3.9,3.5,4.9,5.1,10.1,14.9,24.3,37.5,41,44.5,1.6.7,10.8,9.6,11.9,11.6,1.8,3.4,2.5,6.5-1.9,4.9-11.7-4.2-33.8-20.9-39.9-31.6Z"/>
  <path class="st1" d="M313,279c3.2-5.1,2.7-.3,4.2,2.3,3,5.5,6.5,10.8,10.6,15.4l4.2,35.3c-2,2.1-13.3-10.5-14.8-12.7-3.9-5.6-6.5-12.7-8.2-19.3,4.8-1.3,2.3,5,6,6-1.3-8.9-1.2-18.1-2-27Z"/>
  <path class="st4" d="M449,299c-.9.1-.9,1.2-4,.6-22.1-4.3-39.5-44.5-43-64.6l-2,8.5c-1,15.5,1.4,30.7,6,45.5-12.7-23.8-12.3-53.7-5.7-79.2l3.7-10.8c-1.7,37.8,6.7,83.3,45,100Z"/>
  <path class="st4" d="M642,366c-.8.6,2,1-3,2,3-3.5-4.2-1.9-5.1-1.6-3.9,1.3-5.7,6.9-9.9,7.5-.8-5.6,6.6-9.6,7.7-13.7s-2.4-10.4-1.7-16.7,2.9-10.1,4.9-11.1c12.9-6.2,18.8,18.9,11.8,26.8l-4.8,6.7Z"/>
  <path class="st1" d="M531,243c-3.1-6.1-6.5-12.2-8.6-18.9s-.7-3,1.1-2.1,6,10.9,7.7,13.3c5.5,8.1,14.9,19.5,22.3,25.7s1.6,2.4,3.5,2c-4.2-10.4-8.6-20.4-12-31,4.6,1.7,6,10,8.1,14.4s5.6,9.8,8,15l22.8,28.7c-15.8-5.9-29.6-18.4-40-31.5s-5.7-9.3-8.6-13.4-2.2-2.3-4.4-2.1ZM557.5,264c-1,.7.5,1.4,1,2,1-.7-.5-1.3-1-2Z"/>
  <path class="st4" d="M609,369c-.7,1.4,1,4.2-4,4-.6-23.1-3.8-46.5-10.2-68.8-5.3-2.3-10.9-3.9-16.1-6.4-8-3.8-15.9-7.5-23.6-10.9s-8.5-4.4-13-6c-.2-1.7,2.3-1,3.5-1,8.4-.2,14.8,6.2,22.5,9.5s11.4,4.3,16.2,5.8,14,2.5,15.3,3.7c2.4,2.2,4.7,17.7,5.3,21.7,2.2,14.4,2.9,28.4,3.1,42.9s-.6,4.4,1,5.5Z"/>
  <path class="st4" d="M543,678c22.1-26.4,36.4-58.6,54-88-2.4,9.8-8.8,23-13.1,32.4-9.7,21.1-21.3,41.3-32.4,61.6-2.5,2.8-6.5-3.9-8.5-6Z"/>
  <path class="st4" d="M472,262c-14.1-21.1-22.1-49.2-24-74.5,0-1.1-.8-4.6,1-4.5,5.8,34.8,25.6,65.7,53,87.5.5,2.6-2.5,1.2-4,1.5-14.7-11.7-26.7-24.9-36.5-41-1.9,9.8,7.7,18.6,10.8,26.3s1.1,3-.2,4.7Z"/>
  <path class="st1" d="M321,248c.1-.2,1.8.2,2,0,.5-.6.7-13.5,3-16,.4-.3,2,1.3,2,1.5v27l3,5.5c-.7-7.2,1.5-14.1,3-21,2.3,5.1-1.1,11.9-1.1,17.5s1.4,15.9,2.2,20.9,4.2,12.1,5.9,18.6c-1.4,1.6-11-10.4-11.8-11.7-3.8-6.1-11.6-37.9-8.2-42.3Z"/>
  <path class="st4" d="M597,293c-27.2-17.7-41.3-48.4-52-78,2.1-.4,2.3,1,3.2,2.3,8.5,12.6,14.5,27.8,24,41,3.4,4.8,27.6,31.1,24.8,34.7Z"/>
  <path class="st4" d="M377,231c-2.6-.5-2.1,1.2-2.7,2.7-7.3,16.7-9.9,35.1-9.3,53.3-.9,0-1.9.3-2.8-.1-4.8-29.8,5.6-60.1,17.8-86.8,1.8-.2.9,2.2.7,3.2-1.6,10.1-3.4,17.2-3.8,27.8Z"/>
  <path class="st4" d="M506,915c-2,6.8-15.8,14.6-21.5,19s-13.4,12.7-15.1,13c-7.8,1.3-16.7-14.3-18.4-21,5.8,0,14.9,13.2,20.3,11.9s10.1-10.3,12.7-12.4c6-4.9,14.3-9.4,22-10.5Z"/>
  <path class="st1" d="M497,196c7.9,18.5,22.6,43.9,38,57,.4.3.6.7,1,1s0,.8.5,1l.5-1c2.7,3,10.6,11.3,11.8,14.7,1.8,5.2-5.1.2-6.3-.7-22.3-17.7-47.4-59.3-52.5-87,3.9,3.8,5.1,10.5,7,15Z"/>
  <path class="st2" d="M498,272c-5.2.9-10.3,2.3-15.4,3.8-4.3-4-7.4-9-10.6-13.8,1.3-1.7,1-2.8.2-4.7-3-7.7-12.6-16.5-10.8-26.3,9.8,16.1,21.8,29.3,36.5,41Z"/>
  <path class="st1" d="M425,250c4.9,12.6,7.7,26.4,16,37.5.4,1.2-.2,2-1.5,1.5s-11.7-11.4-13-13c-5.9-7.2-10.8-18.1-12.8-27.2s-1.9-3.2,1.3-2.8c1.1,2.3,2.5,6.3,4,7v-15c2.6,2.5,4.5,8.2,6,12Z"/>
  <path class="st4" d="M345,310c-1,16.3,7.9,8.1,16.8,6.3s13.9-1.7,19.9.6,1.8,1.6,2.4,3.2c-3.2-1.1-4.4-1.7-8-2-9.4-.8-16.3.3-24.4,5.2s-1.5,2.6-2.8,3.2c-2.4,1-5.2.6-7.8.7l6,2.5c-3.1,2.2-8.2,5.8-10,1s-4.2-24.9-3-26.5c3.7,1.8,7.1,4.7,11,6Z"/>
  <path class="st4" d="M669,337c-5.6,0,.6,5.7-4,5,.5-6.3,0-28.3-3.6-32.9s-2.2.4-2.4.9c-1.2,2.1-14.9,17.6-16,18s-5.7.1-7-.5c4.1-7.9,16.8-28,27.4-24.4,2,.7,2.9,10.3,3.3,12.7,1.2,7.1,1.6,14.1,2.3,21.2Z"/>
  <path class="st1" d="M357,257c1.3,12.8-1.9,26.3,2,39-4.9-4.4-7.7-10.9-10-17v-18.5c1.2-7.1,1.7-14.2,4-21s1.5-5,3-5.5c1,5.6-1.2,11.2-1.1,16.5s2,5.8,2.1,6.5Z"/>
  <path class="st4" d="M537,896c-4.7.4-10.3-.3-15-1-6.7-1-10.4.5-11-7,8.6-.2,16.9-2.7,25.5-2,14.7,1.3,13.1,8.9.5,10Z"/>
  <path class="st4" d="M623,331c.4-1.3-.5-3.2.5-5s6.1-4.1,8-6c7.4-7.6,16.1-28.3,29-28.1,3,0,2.8,7.7,2.5,8.1s-5.2.2-7.6.9c-9.9,3.1-20.7,19.9-24.4,29.1-2.7,1.3-3.2-2.1-3.5-2-1.1.5-2.2,3.3-4.5,3Z"/>
  <path class="st3" d="M624,498c0,3.7,0,7.3,0,11s-1.3,9,2,8c0,.7,0,1.3,0,2-.3,12.8,2,22.1,4.9,34.7s-1,3.9,2.1,3.3c1.7,8.1,3.4,16.1,6,24-15.3-21.5-18.3-54.8-17-81.5.1-2.5-.7-3.3,2-1.5Z"/>
  <path class="st2" d="M368,329c-3,10.1.8,18,9,24-8.7.9-20.9-4.2-23.4-13.2s12.7-12.3,14.4-10.8Z"/>
  <path class="st1" d="M392,234c-.8,9.4-1.1,15.7.3,25.2s5.3,20.2,4.2,21.8c-2.7,4-7.8-8.1-8.5-10l1-.5-1-.5c-.2-.5-.7-.9-1-2,1.9-1.7,1.7-4.8-1-4,0-.3,0-.7,0-1-.3-2-1.1-6-1.1-7.6s2.1-1.3,2.1-2c.1-3.5-2.2-10.1-1-14.4,3,1.3-1.6,9.9,3,9,.2-3.8-.3-7.8,0-11.5s-.5-2.6,3-2.5Z"/>
  <path class="st3" d="M374,335c.3,2.8,2.4,5,5,3,0,7.3,11.1,8.1,12,0,.4.4,2.2.4,2.8,1.3s-.7,3.5,2.2,2.7c-.5,5.9-9,9.7-14.3,8.8-6.7-1.1-11.6-8.3-11.7-14.8,1.2-.5,2.9-.5,4-1Z"/>
  <path class="st2" d="M454.9,894.1c.3.3.3,5-.1,5.7s-3.7,2-4.7,2.8c-4.5,3.6-8.7,7.6-13.1,11.4-.2-7.2,7.4-14.1,5-21,.6-.5,12.4.5,12.9,1Z"/>
  <path class="st4" d="M453,959c-.8-.2-2.5-.4-3-1-1.4-1.8-1-8-1-10.5v-14.5c1.4,1.7,9.6,11.8,9.8,12.6.6,2.8-4.8,10.8-5.8,13.4Z"/>
  <path class="st4" d="M341,291c-3.7-11.4-3.1-23.2-3-35,1.4-.2,1.5,1.8,1.7,2.8.8,3.9.8,7.9,2,12s5.9,13.5,6.2,15.9-4.9,4-6.9,4.3Z"/>
  <path class="st0" d="M489,178c-.4-2.9-2-9.5,2-4.5s6.3,13.7,8.8,18.2c4,7.2,8.2,14.3,13.2,20.8,0,3.6-2.9.2-4-1-3.6-3.6-6.3-8.8-9-13.1s-.9-2.9-3-2.5c-1.9-4.5-3.1-11.2-7-15-.2-1.3-1-2.7-1-3Z"/>
  <path class="st1" d="M610,320c.2.2.3,2.2,2,3.5s6.9,2.1,7.1,3.1c.8,3.9-5.1,16.8-6.1,21.4l-5-27.5c-.1-.9,1.9-.6,2-.5Z"/>
  <path class="st4" d="M610,400c4.5-8.2,8.5-1,14.6,0,10.2,1.6,19-7.9,25.4-14.9-2.5,6.1-12.7,16.9-19,18.5-8.6,2.2-13.2-2.1-21-3.5Z"/>
  <path class="st4" d="M377,246c1.2,16.9,9.9,38.8,23,50l-2,1c-3-4.1-5.6-3.6-9-5,1.8-1,1-3.4.5-5-1.2-3.3-5.8-9-7.7-13.3-2.7-6.4-6.1-17.4-6.8-24.2s-.9-4,2-3.4ZM391.5,290v1c.6-.3.6-.7,0-1Z"/>
  <path class="st1" d="M441,231c2.2-.5,2.1,1.2,3,2.5,3.9,5.7,10.9,19.7,15,23.5-1.2,7.3-6.7-2-8.2-4.3-4.4-6.6-7.2-14.3-9.8-21.7Z"/>
  <path class="st1" d="M484,879c-.3,2.7,1.1,1.8,3,2-4.3,8.4-5.7,17.4-10.8,25.7s-5.7,9.6-9.2,7.8c7.6-7.7,12.9-18.6,14-29.5-.9.1-2.1-.2-3,0,0-1,.1-2,0-3,1-.2,3.4.4,3.9-.1s-.2-2.6,0-2.9,1.6.2,2,0Z"/>
  <path class="st1" d="M396,342c-2.9.7-1.5-1.6-2.2-2.7s-2.4-.8-2.8-1.3c-1-1-.3-3.4-3.9-4.5s-5.2.5-7.1.5c-3.8.2-.9-1.3-6,1s-2.8.5-4,1c0-1.3,1.6-7.5,2.1-7.9,5.4-3.5,24.6,5.2,23.9,13.9Z"/>
  <path class="st1" d="M464,261h1c2.2,3.6,6.8,8.1,9.5,12s2.7,2,1,3c-2.2-.5-19-12.8-16.5-15h5Z"/>
  <path class="st1" d="M633,557c-3.1.6-1.7-1.5-2.1-3.3-2.9-12.6-5.2-21.9-4.9-34.7,2.4,12.6,4.3,25.4,7,38Z"/>
  <path class="st1" d="M522,156l-3,1c-2.8-5-8.1-10.2-10-16,2.2-2.2,12,13.5,13,15Z"/>
  <path class="st4" d="M376,320c2.2.2,2.7.7,4,1-1.9-.9-4.1.9-5,1-3.7.4-8.7.8-12.5,1s-3.8.6-3.5-1c5.4-2.1,11.2-2.5,17-2Z"/>
  <path class="st1" d="M537,896c-4.6,3.5-10.8,1.8-16,1l1-2c4.7.7,10.3,1.4,15,1Z"/>
  <path class="st3" d="M384,320c3.1,1.1,8,2.6,9.5,6-4.1-2.5-8.8-4-13.5-5s-1.8-.8-4-1v-2c3.6.3,4.8.9,8,2Z"/>
  <path class="st2" d="M401,343l2,5-7,1c.6-1.3,3-7.4,5-6Z"/>
  <path class="st1" d="M624,509c3-1.1,2.2,5.2,2,8-3.3,1-1.9-5-2-8Z"/>
  <path class="st1" d="M660,524c-4.4.7-1.1-4.3-1-6,1.8,1.1.8,4.1,1,6Z"/>
  <path class="st1" d="M659,514c-4.3.6-1.1-3.5-1-5,1.5.8,1,3.4,1,5Z"/>
  <rect class="st1" x="508" y="930" width="4" height="2"/>
  <path class="st3" d="M386,264c2.7-.8,2.9,2.3,1,4-.3-1.3-.8-2.7-1-4Z"/>
  <path class="st1" d="M457,960c.3-.6-.6-1.7.5-2,3-1,.5,1.8.5,2h-1Z"/>
  <path class="st1" d="M605,937c-.7.7,1.3.8-2,2v-2c.5,0,1.9,0,2,0Z"/>
  <path class="st4" d="M604,419l1-4c-.3,1.3-.7,2.8-1,4Z"/>
  <path class="st4" d="M602,426c.4-2.1.1-4.4,2-6-.5,2,0,4.4-2,6Z"/>
  <path class="st3" d="M318,269h-1c-.5-4.2,1.5-4.2,1,0Z"/>
  <path class="st4" d="M821,893l1-3c-.3,1.5-1,2.8-1,3Z"/>
  <path class="st3" d="M511,68c13.9-1.2,28.3,1.8,41.8,5.7,107,31.1,136.3,153.3,151.9,250.1,12.7,78.6,8.5,163.3,28.4,239.6,8.6,33,26.4,70.4,28.8,104.2.1,1.5,1.1,5.1-1.3,4.3s-6.1-3.7-8.5-5c-5.6-31-15.7-60.8-24.5-91-.9-3-1.4-4.2-2.2-6.8-1.5-4.4-1.8-6.1-2.2-10.3,1.9,1,2.7,7.6,3,8,1.4,1.5,1.8-.1,2-1.5.7-5.2-1.3-9.6-2-14.5-6.2.7-3.1,2-3,6-2.5.2-3.3-1.1-2.6,2.1,7.5,32.4,13.7,65.1,21.6,97.4.1,4.4-3.5-3.2-3.9-4.1-27.8-58-37.4-110.4-45.3-173.7s-.4-5.5-1.9-5.6c-3,27.7-3.3,57.6.1,85.4s5.5,25.4,6.8,37.3.9,3.6-.9,3.4c-3-11.4-7.1-22.4-9.5-34-9.4-44.8-5-99.2-7.5-146-4.9-94.5-14.2-197.7-80.5-271-1.7-1.8-12-12.5-13-13s-1.9.2-1.5,1.5c7,8.6,15.7,15.8,22.4,24.6,15.9,20.7,35.1,55.2,39.6,80.9.3,2,.7,5.5.9,7.6s.9,3.6-.9,3.4c-3.4-9.8-8.7-19.5-14.2-28.3s-7.1-11.9-12.3-15.7c4,9.6,8.6,19,12.3,28.7,1.6,4.2,5,11.7,5.3,15.8s.3,1.7-1,1.5l-24-34-1.9,1.4,13.9,25.1-1.5,1.5-39.5-44c10.9,21.1,25.5,40.7,40,59.5-7.6-1.6-12.7-9.6-20-12.5-.8-2.2-17.5-18.4-21-22.5-9.1-11.1-15.8-22.7-23.6-34.5-.3-.5-.9-3.9-2.5-2s19.2,33.1,21.8,36.7c5.6,7.7,14.6,19.8,21.2,26.3.4,6.3,14.7,14.4,16,17.5s-.2,1.9-1.5,1.5c-2.2-.7-15.4-10-18-12-28.6-22.3-46.8-61.4-65.5-92-3.1-5-5.7-10.1-9-15s-10.8-17.2-13-15c1.9,5.8,7.2,11,10,16,12.9,23.2,18,49.9,26,75,3.4,10.6,7.8,20.6,12,31-1.9.4-2.4-1.1-3.5-2-7.5-6.2-16.8-17.6-22.3-25.7s-6.5-12.7-7.7-13.3c-1.8-.9-1.5.8-1.1,2.1,2.1,6.6,5.5,12.8,8.6,18.9s3.8,6.4,4,10c-15.4-13.1-30.1-38.5-38-57,2.1-.5,2.2,1.2,3,2.5,2.7,4.3,5.4,9.5,9,13.1s4.1,4.6,4,1c-5-6.5-9.2-13.7-13.2-20.8s-6.3-15.1-8.8-18.2c-4.1-5-2.4,1.6-2,4.5-4.6,3.5-.9-9.8-5-8-.7,14.5,2.7,29,6.7,42.8,5.4,18.2,13.5,33.7,24.3,49.2-16.6-7-30.9-29.6-41-44.5s-3.9-9.9-4.9-5.1c5.4,11.4,9.6,23.6,15.9,34.6-18.4-19.1-28.3-45.3-33.5-71s-3-13.9-2.5-21c.1.1,1.4-.4,2,.7,2.2,4.5,1.8,12.4,7,15.3l-1-23c3.5,1.5,2.7,8,7,8l-1-16,10,13c.7-4.5-2.3-8.6-2.8-12.7s-.7-3.2,1.3-2.3,7.4,10.6,9.1,12.9,2.1,4.6,4.4,4.1l-8-23c4.8,1.7,8.7,8.8,12.4,11s5.1.8,4.6-3.6-2.1-4.7-2-7.5c.3-.4,8,5.1,10,4,2.1-2.1-9-11.7-8.5-15,5.4,3.3,11,6,16,10s2.6,3.5,3.5,1c19.4,16.8,34.5,35.8,49.6,56.4,1,1.3,3,9.2,4.4,4.2-12.9-19.7-26.8-38.9-42.5-56.5-2.7-3-9.7-11.3-12.5-13l-13-12.5c4-.4,9.4,2,13.4,3.6,9,3.8,17.9,9.6,26.2,14.8,1.3.4,2-.2,1.5-1.5-1.1-2.6-12.2-13.7-15-16-5.1-4.3-11.2-7-16-11.5,6.4,1.5,12.7,4.2,18.7,6.8,5,2.2,13.6,7.9,17.8,9.2s2-.2,1.5-1.5c-.8-1.8-9.9-9.3-12.1-10.9l-24.9-14.6c17,.6,31.9,9.2,47.2,14.3s3,1.6,2.8-.3c-4.1-3-8.2-6.2-12.7-8.8s-10.8-5.1-15.9-8.1l-21.4-8.1c19.1.2,37.4,6.7,55,13.5-5.1-5.8-14.1-10.4-21.3-13.7s-23.3-8.9-32.7-9.8ZM581.5,131v1c.6-.3.6-.7,0-1ZM583.5,133v1c.6-.3.6-.7,0-1ZM554,187c-.4,2.3.8,3.6,2.5,5,.6-1.2-1.9-5.8-2.5-5ZM572.3,201.7c-.6-.9-3.5-8.6-5.3-6.7s6.9,10.7,8,11c1.1-3.3-2-3.3-2.7-4.3ZM513.5,215v1c.6-.3.6-.7,0-1Z"/>
  <path class="st4" d="M597,589c.1-.8,0-1.7,1-2-.2.8,0,1.7-1,2Z"/>
  <path class="st1" d="M388.5,600c1,.9-1.5,2.5-1.5,1.5l1.5-1.5Z"/>
  <path class="st1" d="M531,171c18.8,30.5,36.9,69.7,65.5,92,2.6,2.1,15.8,11.3,18,12s2-.2,1.5-1.5c-1.3-3.1-15.6-11.2-16-17.5.2.2,1.7.2,2.5,1,11.1,11,23.4,24,38.5,29-9.5-8-20-15-29-23.5-4.6-4.3-6.1-5.4-8-10.5,7.3,2.9,12.3,10.9,20,12.5-14.5-18.8-29.1-38.4-40-59.5l39.5,44,1.5-1.5-13.9-25.1,1.9-1.4,24,34c1.3.3,1.1-.4,1-1.5-.3-4.1-3.7-11.6-5.3-15.8-3.7-9.8-8.3-19.1-12.3-28.7,5.2,3.8,8.8,10.2,12.3,15.7,5.6,8.8,10.9,18.4,14.2,28.3,1.8.2,1-2.2.9-3.4-.2-2.2-.5-5.6-.9-7.6,2.5-.5,2.1,1.2,2.7,2.7,5.5,13.6,8,29,11.3,43.3-16,.6-21.6,16-30.5,26-18.6,20.8-24.2-8.4-28.5-22.5,10.6,5.2,19,11.1,31.5,9.5s3.1-.8,1.5-2c-18.5.6-32.3-11.7-44-24.5-24.7-26.9-44-66.4-59.6-99.4-.7-1.6-2-2.2-.3-4.1ZM617.5,275v1c.6-.3.6-.7,0-1Z"/>
  <path class="st3" d="M536,254h1l-.5,1c-.4-.2-.3-.8-.5-1Z"/>
  <path class="st3" d="M388,271c-.1-.3.1-.7,0-1l1,.5-1,.5Z"/>
  <path class="st4" d="M496,216c1.2-1.2,2.7,1.5,3.2,2.3,6.6,9.9,11.5,22,19.8,31.2l19.5,21.5c-2.8-2.2-7.9.1-10.5-1.5s-9-10.8-10.4-12.6c-4-5.2-8-11.1-11.1-16.9s-11.4-23.1-10.5-24Z"/>
  <path class="st1" d="M276,823c.1.4,1.5,1.6,2,3.5,1.4,5.6,2.6,11.7,3,17.5-4-4.6-4.6-13-6-19l1-2Z"/>
  <path class="st5" d="M276,823l-1,2c-.4-1.7-.6-3.3-1-5l1-1c.4,1.3.6,2.7,1,4Z"/>
  <path class="st5" d="M273,817c-.3-1.5-1.6-3-1-5,3.2-.6,1.5,1.2,2,3l-1,2Z"/>
  <path class="st1" d="M275,819l-1,1c-.1-.6-.7-1.7-1-3l1-2c.4,1.4.7,2.9,1,4Z"/>
  <path class="st5" d="M385,756l-1,1c-23.3-36.3-23.1-67.7-14-109h1c-6.3,37.2-5.5,74.9,14,108Z"/>
  <path class="st1" d="M385,756c.9,1.6,12,15,11,16s-2.8-1.4-3.4-2.1c-3.3-3.4-6-8.9-8.6-12.9l1-1Z"/>
  <path class="st1" d="M371,648h-1c.9-4,.7-8.5,3.5-12,.6,2.6-.2,6.6-.7,9.3s-1.7,2.5-1.8,2.7Z"/>
  <path class="st1" d="M396.5,773c.6.6,2,1.3,1,2-.5-.6-2-1.3-1-2Z"/>
  <path class="st4" d="M493,459c-5.2,8.3-14,15.7-22.1,21.4s-3.8,1.5-3.9,1.6c-.7,1,3,4.7-3.1,9.4s-21.1,7-27.9,0-1.4-3.4-2.1-4.4c9.7,2.5,24.1,4.6,32-3-11.2,2.4-24.2,3.8-35-1s-11-12.1-14-18c5.3.3,11.3-.6,16.4,0,3.9.5,7.8,3.1,12,2.9s12.5-3.9,18.3-4.8c10.4-1.6,18.4-1,29.2-4.3Z"/>
  <path class="st5" d="M512,303c8.7-.5,16.4.2,24.8,2.7s7,2,7.2,2.3c2.1,2.3-4.4,2-4,4,6.5,1,15.2,2.7,21-1,.9,0,2.8-.5,3,.5-2.7,3-5.8,5.6-9.1,7.9s-5.7,2.4-5.9,2.6c-.4.6,1.5,2.9.6,4s-7.1,3.1-8.6,6.5,4.2,1.6,2,3.5-3.7-1-5.3-.8-7.7,4.1-10.9,5.1-10.1,2.4-14.8,2.7c.3-4,0-2.5-2-3-10.3-2.7-12.9-11.2-13.5-21-7.3,3.3-13.3,10-16.7,17.3s.8,6.7-4.8,6.7c-1.8-1.9,5.4-14.8,7-17,8.2-11.3,22.7-17.7,36.6-18s8,1.5,8.4,1,.4-2.4-.7-3c-1.7-.9-12.4-2.3-14.3-2v-1ZM535,308c-8.3-2.9-8.4,1.7,0,2s2.3.4,2-1.5c0-1-1.4-.3-2-.5ZM509,321c.4-.2,5-4.2,4-5-6.4.4-13-.5-12.8,7.5s.8,1.3.8,1.5c1.9,11.9,15.3,18.1,24,8.5,3.5-3.9,2.2-4.4,3-8.5s2.5-5.7.4-7.1-9.5-2-12.4-1.9c2.8,3.4,4.3,2.1,5,7s-.1,2.7,0,4c-.4.2-.9,1.7-2.2,2.2-6.5,2.6-6.2-.9-9.8-2.2,1.3-1.9,1.3-4.1,0-6ZM529,335c1.1,1.1,7.6-5.9,8.5-7,6.3-7.7,2.1-6.6-5.5-9,.8,6.2-.6,10.5-3,16Z"/>
  <path class="st4" d="M594.9,353c2.3,1.5,5.6,17.9,5,21.4s-11.4,16.8-15,20-11.4,8.7-12.8,9.2c-6.7,2.1-10.5.7-8.6-6.6,1.5-5.8,17.6-33.2,22-38s8-6.9,9.5-5.9Z"/>
  <path class="st4" d="M449,450c6.6-1.1,24,2,31.3,4s.7,1.8,1.4,1.9c2.1.5,5-.3,7.3,0-10.5,3.1-17.3,2.6-27.2,4.3-4.8.8-11.3,4.4-15.4,4.7s-9.6-2.9-13.9-3c-7.5-.2-7.2.6-15.5-1,3.9-3.5,9.9-8.8,15-10,4.5,4.6,13.1,4.2,17-1Z"/>
  <path class="st4" d="M416,410c2.6,1.7,4.1,4,6.9,5.6,14,7.6,17.1-4.4,28.4-3.5,6,.5,12.3,6.8,16.6,0-.5,4-1.4,6.7-4,10-5.5,7-9.1,2.4-15.3,4.2s-4.8,5.4-7.3,6.7c-7,3.6-16.1-1.4-21.7-5.8s-.6-2-.7-2c5.5-1.4,9.8,3.7,15,2.5-2.5-1.3-12.1-9.1-13.6-9.4-2.4-.5-1.6,3.1-3.4,2.9-.2-2.3-1.8-4.3-2-6.6s.9-3.3,1-4.4ZM441,422c3.1.5,4.7-2.8,7.5-3s9.5,3.9,8.4-.5-16.2-3.4-16,3.5Z"/>
  <path class="st1" d="M493,459c-10.8,3.3-18.8,2.7-29.2,4.3s-13.2,4.6-18.3,4.8-8.2-2.5-12-2.9c-5.2-.7-11.1.2-16.4,0s-4.5.7-6-1.5c-.6-2.7,4.3-2.8,6-2.5,8.2,1.6,7.9.8,15.5,1s9.6,3.3,13.9,3,10.5-3.9,15.4-4.7c9.9-1.7,16.7-1.2,27.2-4.3s9.2-4.4,12-2.5c4.4,2.9-6.9,5.2-8,5.5Z"/>
  <path class="st1" d="M665,342c-.6,8.7-4.3,17.9-10,24.5s-10.1,9-8,4c.6-1.5,6.1-5.8,7.8-8.2,2.4-3.4,7.2-12.9,7.2-16.8v-24c0-.9-1.1-7.1-1.4-8.6s-.7-2.2-1.6-2.9c.3-.5-.2-4.5,2.4-.9s4,26.7,3.6,32.9Z"/>
  <path class="st4" d="M508,303c-6.9,1-14.1,5.1-19,10s-.7.7-1,1-.7.6-1,1-.7.6-1,1c-.7.4-2.2.3-3,1,0-.1-1.4-.7-.5-2.9,3.4-8.1,17.6-11.6,25.5-11.1Z"/>
  <path class="st4" d="M512,304c1.9-.3,12.7,1.1,14.3,2s.9,2.8.7,3c-.4.4-6.6-1.1-8.4-1-13.9.4-28.4,6.7-36.6,18-3.9-1.6-.6-4.1,0-6,3.4.3,3.1-2.9,4-4,.4-.2.7-.8,1-1s.7-.8,1-1,.7-.8,1-1c4.4-2.4,18.5-8.3,23-9Z"/>
  <path class="st4" d="M561,311c-5.8,3.7-14.5,2-21,1-.4-1.9,6.1-1.7,4-4s-6.1-1.9-7.2-2.3c-8.3-2.5-16.1-3.2-24.8-2.7s-2-.1-3,0c10.4-3.8,30-2.5,40,2.5s2.9,5,12,5.5Z"/>
  <path class="st1" d="M417,402c-.6,3.1-.7,5-1,8s-1.2,2.1-1,4.4,1.8,4.3,2,6.6c1.8.2,1-3.4,3.4-2.9s11.1,8.1,13.6,9.4c-5.1,1.2-9.5-3.9-15-2.5-1.1-1-3-1.4-4-2.8-5.1-6.5-2.1-13.5,0-20.2h2Z"/>
  <path class="st3" d="M414,326c9,8.9,11,28.8,8,40.6s1,2.9-2,2.4c2.3-5.8.5-11.4,0-17-.9-10.1-1.9-16.5-6-26Z"/>
  <path class="st1" d="M431,483c10.8,4.8,23.8,3.4,35,1-7.9,7.6-22.3,5.5-32,3-.8-1.2-3.1-1.8-3-4Z"/>
  <path class="st1" d="M486,316c.3-.4.7-.6,1-1-.3.2-.6.8-1,1Z"/>
  <path class="st1" d="M487,315c.3-.4.7-.7,1-1-.3.2-.6.8-1,1Z"/>
  <path class="st1" d="M488,314c.3-.3.7-.7,1-1-.3.2-.6.8-1,1Z"/>
  <path class="st1" d="M486,316c-.9,1.1-.6,4.3-4,4,.3-1,.8-1.6,1-3,.8-.7,2.3-.6,3-1Z"/>
  <path class="st1" d="M512,303v1c-4.5.7-18.6,6.6-23,9,4.9-4.9,12.1-9,19-10s.7,0,1,0c1-.1,2,0,3,0Z"/>
  <path class="st1" d="M464,422c2.6-3.3,3.5-6,4-10s1-.7.8-2.2c-.3-2.8-2.7-5-2.8-7.8,1.4-1.5,4.2,3.9,4.5,5,1.8,6.7.2,12.5-6.5,15Z"/>
  <path class="st3" d="M510,340c2,.5,2.3-1,2,3-6.6.4-13.4,0-20-1l18-2Z"/>
  <path class="st1" d="M449,450c-3.9,5.2-12.5,5.6-17,1,4-.9,5.1,1.1,8.4.9s5.8-1.5,8.6-1.9Z"/>
  <path class="st3" d="M443,448l2.5-8c3.1,2.6,1.6,7.9-2.5,8Z"/>
  <path class="st3" d="M415,402c.8-2.6,1.1-5.6,2.5-8,3.4,0-.2,6.6-.5,8h-2Z"/>
  <path class="st5" d="M512,123c2.8,1.7,9.8,10,12.5,13,15.7,17.6,29.6,36.8,42.5,56.5-1.3,5-3.4-2.8-4.4-4.2-15.2-20.6-30.2-39.5-49.6-56.4-3-2.6-6.1-6.5-9.5-9-10-7.5-22.2-14.4-34.5-17,0-1.8,4.5-1.1,5.5-1,10.5,1.4,28.2,12.5,37.5,18Z"/>
  <path class="st5" d="M600,256c-6.6-6.5-15.6-18.5-21.2-26.3-2.6-3.6-23.1-35.1-21.8-36.7s2.1,1.5,2.5,2c7.8,11.8,14.4,23.4,23.6,34.5,3.4,4.2,20.1,20.3,21,22.5,1.9,5.1,3.4,6.2,8,10.5,9.1,8.5,19.5,15.5,29,23.5-15.1-5-27.4-18.1-38.5-29s-2.3-.7-2.5-1Z"/>
  <path class="st0" d="M723,557c0-4-3.2-5.3,3-6,.7,4.9,2.7,9.3,2,14.5s-.6,3-2,1.5-1.1-7-3-8c0-.6,0-1.3,0-2Z"/>
  <path class="st5" d="M572.3,201.7c.6,1,3.7,1,2.7,4.3-1.1-.3-8.8-10.2-8-11,1.8-1.9,4.8,5.8,5.3,6.7Z"/>
  <path class="st5" d="M554,187c.6-.8,3.1,3.8,2.5,5-1.7-1.4-2.9-2.7-2.5-5Z"/>
  <path class="st1" d="M511,68c9.4,1,23.9,5.9,32.7,9.8s16.2,7.9,21.3,13.7c-17.6-6.8-35.9-13.3-55-13.5l21.4,8.1c5.2,2.9,10.8,5.1,15.9,8.1s8.6,5.8,12.7,8.8c.3,1.9-1.9.6-2.8.3-15.3-5.1-30.2-13.7-47.2-14.3l24.9,14.6c2.2,1.6,11.3,9.2,12.1,10.9s-.2,1.8-1.5,1.5c-4.2-1.3-12.9-7-17.8-9.2-6-2.7-12.3-5.3-18.7-6.8,4.8,4.5,10.9,7.2,16,11.5s13.8,13.4,15,16-.2,1.9-1.5,1.5c-8.3-5.2-17.1-11-26.2-14.8-4-1.7-9.3-4-13.4-3.6l13,12.5c-9.3-5.5-27-16.6-37.5-18s-5.6-.8-5.5,1c12.3,2.7,24.4,9.6,34.5,17s6.5,6.4,9.5,9c-.9,2.5-2.7-.4-3.5-1-5-3.9-10.6-6.7-16-10-.5,3.3,10.6,12.8,8.5,15-2,1.1-9.7-4.4-10-4-.1,2.8,1.7,4.6,2,7.5.6,4.4-.2,6.3-4.6,3.6s-7.6-9.4-12.4-11l8,23c-2.2.5-3.2-2.5-4.4-4.1-1.7-2.3-7.6-12.1-9.1-12.9s-1.4,1.2-1.3,2.3c.5,4.1,3.5,8.2,2.8,12.7l-10-13,1,16c-4.2,0-3.5-6.5-7-8l1,23c-5.2-2.8-4.8-10.8-7-15.3s-1.8-.6-2-.7,0-3.9-2.9-2-4.3,10.3-5.1,12-1.4,6.2-3,4-1-15.7-1-18c-1.9.6-2.4,4.3-3,6h-4c.3-2.6.2-6.5-.5-9-3.7,3.5-3.2,10.1-7.5,13l-.5-10c-1.2.9-1.9,2.1-2.7,3.3-1.3,2.1-4.1,8.4-4.8,10.7-2.1-3.2-2.4,2.9-5,2,2-7.3,4.2-14.6,6-22-1-1-7.1,3.9-8,5l-.5-1c-3.7.7-4.2,5.4-7.5,7,.3-.5,0-2,.5-3,2.5-5.3,6.6-10.3,7.5-16-2.3,1.8-4.9,3.4-7,5.5s-11.1,14-12.5,14.5c-2.8,1.2-.6-3.3-.2-4.2,2.4-4.9,7.4-8.5,8.7-13.8-1.9-2-11.4,11.7-12.6,12.9-7.3,7.4,1.1-7.6,2.8-10.2s7.1-7.6,7.8-9.2-.3-2-1.5-1.5c-4.6,1.8-16.8,11.4-21,15s-9.1,9.9-14,14-1.6,2.4-3.5,2c.9-1.3.6-3,1.1-4.2.7-1.7,10.5-13.7,12.4-15.8,6.8-7.7,15-14.1,22.5-21,10.9-5.3,17-8.5,29.8-10.7,1.8-.3,6.9,0,7.2-.3,1.8-1.4-.4-1.7-1.4-2.1-6.2-2.4-24,3.5-30.6,6.1l-6-1c3.3-3.5,9.4-5.7,14-7.4,5.1-1.9,11-1.1,14.2-5.9l11.7-3.7h-14c4-7,15.7-4.9,21-7.5s1.3-1.3,1-1.5c-2.8,0-5.7,0-8.5,0s-3.7.8-3.5-1l28-10c5.5-.6,10.6-1.1,16,.5-9.6,5.1-25.9,17.2-29,28s1.4,1.9,2.4,1.4,4.6-6.4,6-8c7.6-8.3,24.4-23.2,34.5-26.5s19.2-4.4,28-3.5ZM497.5,109v1c.6-.3.6-.7,0-1ZM491.5,120v1c.6-.3.6-.7,0-1ZM396.5,129v1c.6-.3.6-.7,0-1ZM476.5,130v1c.6-.3.6-.7,0-1ZM469.5,136v1c.6-.3.6-.7,0-1Z"/>
  <path class="st0" d="M513.5,215c.6.3.6.7,0,1v-1Z"/>
  <path class="st5" d="M583.5,133c.6.3.6.7,0,1v-1Z"/>
  <path class="st5" d="M581.5,131c.6.3.6.7,0,1v-1Z"/>
  <path class="st5" d="M325,393c-.8-5.4-2.1-14.7-2-20.5s-.6-2.9,2-2.5c9.7,64.1,26.6,128,23,193.5-.2,4.2-3.7,34.3-5,35.5s-2.1.2-2-1.5c.2-4.4,2.8-10,3-14.2s-1-2.2-1-2.3c6-69.4-8.3-121.3-18-188Z"/>
  <path class="st3" d="M349,601l12-93,3,26.4c0,23.1-6,45.5-15,66.5Z"/>
  <path class="st3" d="M347.5,602c.6.3.6.7,0,1v-1Z"/>
  <path class="st3" d="M656,608c-1.5-.2-1.9-1.9-2.5-3-8.5-16.7-14.3-39.9-16.5-58.5-4.2-35.4-1.4-71.2,2-106.5l2,14.5c1.8,34.3,4.4,68.8,8,103,1.8,16.9,4.3,33.8,7,50.5Z"/>
  <path class="st3" d="M684,601c-.3.7-1.7-.6-1-2s1.7.6,1,2Z"/>
  <path class="st5" d="M395,114c6.6-2.6,24.4-8.5,30.6-6.1s3.2.7,1.4,2.1-5.5,0-7.2.3c-12.7,2.2-18.9,5.4-29.8,10.7s-11,5-16.3,8.2c-3.3,1.9-9.9,7.8-12.2,8.8s-2-.3-1.5-1.5c2.4-5.7,28.4-19.9,35-22.5Z"/>
  <path class="st3" d="M469.5,136c.6.3.6.7,0,1v-1Z"/>
  <path class="st3" d="M476.5,130c.6.3.6.7,0,1v-1Z"/>
  <path class="st3" d="M396.5,129c.6.3.6.7,0,1v-1Z"/>
  <path class="st3" d="M491.5,120c.6.3.6.7,0,1v-1Z"/>
  <path class="st3" d="M497.5,109c.6.3.6.7,0,1v-1Z"/>
  <path class="st5" d="M368.5,168c.6.3.6.7,0,1v-1Z"/>
  <path class="st1" d="M385.5,158c.6.3.6.7,0,1v-1Z"/>
  <path class="st3" d="M617.5,275c.6.3.6.7,0,1v-1Z"/>
  <path class="st3" d="M384,530c1.1,23.6-2.4,47.5-12.7,68.8-.7,1.4.6,2.8-2.3,2.2,5.1-18.6,8.9-37.5,11.9-56.6.6-4,.5-8.8,1.1-12.9s-.5-1.7,2-1.5Z"/>
  <path class="st3" d="M557.5,264c.6.6,2,1.3,1,2-.5-.6-2-1.3-1-2Z"/>
  <path class="st5" d="M391,338c-.9,8.1-12.1,7.3-12,0s1.4-2.7,1-4c1.9,0,3-1.8,7.1-.5s3,3.5,3.9,4.5Z"/>
  <path class="st2" d="M380,334c.4,1.3-1,3.3-1,4-2.6,2-4.7-.2-5-3,5.1-2.3,2.2-.8,6-1Z"/>
  <path class="st2" d="M391.5,290c.6.3.6.7,0,1v-1Z"/>
  <path class="st3" d="M528,325c-.7,4.2.6,4.7-3,8.5-8.7,9.6-22.2,3.3-24-8.5.8.2,2.4-.3,3,0,2.3,1.1,2.8,1.2,5,2,3.6,1.4,3.3,4.9,9.8,2.2s1.8-2,2.2-2.2c1-.6,4.4.6,4-3,.9.3,2.3-.3,3,1Z"/>
  <path class="st2" d="M529,335c2.4-5.5,3.8-9.8,3-16,7.6,2.4,11.9,1.3,5.5,9s-7.5,8.1-8.5,7Z"/>
  <path class="st1" d="M521,323c-.7-4.9-2.2-3.6-5-7,2.9-.1,10.2.3,12.4,1.9s-.2,5.6-.4,7.1c-.7-1.3-2.1-.7-3-1s-2.2-1.7-4-1Z"/>
  <path class="st1" d="M501,325c0-.2-.8-.6-.8-1.5-.2-8,6.4-7.1,12.8-7.5,1,.8-3.6,4.8-4,5-1.5.8-5.8-1.4-5,4-.6-.3-2.2.2-3,0Z"/>
  <path class="st2" d="M509,321c1.3,1.9,1.3,4.1,0,6-2.2-.8-2.7-.9-5-2-.8-5.4,3.5-3.2,5-4Z"/>
  <path class="st2" d="M525,324c.4,3.6-3,2.4-4,3-.1-1.3.2-2.7,0-4,1.8-.7,3,.7,4,1Z"/>
  <path class="st4" d="M535,308v2c-8.4-.3-8.3-4.9,0-2Z"/>
  <path class="st0" d="M535,308c.6.2,2.1-.5,2,.5.3,1.9-.3,1.6-2,1.5v-2Z"/>
  <path class="st1" d="M441,422c-.2-6.9,15-7.7,16-3.5s-6.7.4-8.4.5c-2.8.2-4.4,3.5-7.5,3Z"/>
</svg>