<?xml version="1.0" encoding="UTF-8"?>
<svg id="Layer_1" xmlns="http://www.w3.org/2000/svg" version="1.1" viewBox="0 0 1024 1024">
  <!-- Generator: Adobe Illustrator 29.8.2, SVG Export Plug-In . SVG Version: 2.1.1 Build 3)  -->
  <defs>
    <style>
      .st0 {
        fill: #131210;
      }

      .st1 {
        fill: #c8995a;
      }

      .st2 {
        fill: #394e65;
      }

      .st3 {
        fill: #eed89e;
      }

      .st4 {
        fill: #eddcc0;
      }

      .st5 {
        fill: #273444;
      }
    </style>
  </defs>
  <path class="st4" d="M225,1024H0V0h1024v1024h-102l-5-99.5c-6.6-64.9-8-140.1-27.5-202.5-11.5-36.7-25.7-41.8-58.1-57.9s-21.5-10.2-32.4-14.1c2.7-8.5,6.8-16.3,7-25.5,1-41.3-40-58.8-46.7-97.2s5.3-36.5,6.8-58.7c3.8-57.2-38.2-122.9-57.8-176.3-19.5-53.2-29.9-107.4-63.4-154.6-36.4-51.2-98.2-88.1-162.8-73.2-5.9,1.4-14,5.7-18.5,6.5-14,2.2-25.8.4-41.7,4.3-56.5,14-95.6,50.2-126.2,97.8-20.8,32.3-14.5,69.7-19.9,106.1-8,53.6-36.9,113.4-32.7,167.3s18.6,38.9,32,57c22.3,30,2.7,38-11.4,61.6-13,21.7-18,49.9-1.4,71.2.9,1.1,7.6,9,8.8,7.7-1.2-5.7-4.2-10-5.5-16-2.1-9.7-2-18.7.8-28.2l6.7-13.8c-8.3,34.5,6.7,70.1,34,91.5-4.2,3.9-9.8,6.1-14,10-19.4,18.2-24.8,59.9-29.7,85.3-7,37.1-10.8,74.3-16.5,111.5-7.1,46.6-15,93.1-21.8,139.7Z"/>
  <path class="st0" d="M225,1024c6.8-46.6,14.8-93.1,21.8-139.7,5.6-37.3,9.4-74.4,16.5-111.5,4.8-25.4,10.3-67.2,29.7-85.3,4.2-3.9,9.8-6.1,14-10-27.3-21.4-42.3-57-34-91.5l-6.7,13.8c-2.8,9.5-2.9,18.6-.8,28.2s4.3,10.2,5.5,16c-1.2,1.3-8-6.6-8.8-7.7-16.6-21.3-11.6-49.5,1.4-71.2,14.1-23.5,33.7-31.6,11.4-61.6-13.4-18-30.1-32.4-32-57-4.1-54,24.8-113.7,32.7-167.3s-.9-73.8,19.9-106.1c30.6-47.6,69.7-83.8,126.2-97.8s27.6-2.1,41.7-4.3c4.5-.7,12.6-5.1,18.5-6.5,64.7-14.9,126.4,22,162.8,73.2,33.6,47.2,43.9,101.4,63.4,154.6,19.6,53.4,61.6,119.1,57.8,176.3-1.5,22.2-11.1,34.2-6.8,58.7,6.7,38.4,47.8,56,46.7,97.2s-4.3,17.1-7,25.5c10.9,3.9,21.9,8.9,32.4,14.1,32.4,16.1,46.7,21.2,58.1,57.9,19.5,62.4,20.9,137.6,27.5,202.5l5,99.5h-6l-2-53.5c-4.3-71.9-8.6-143.8-22.4-214.6-4.6-23.6-14.5-75.6-46.2-74.9-53.5,1.1-80.5,67.8-94.5,110.1s-22.2,75.7-20,117.5c1,19.6,4.6,40.3,6,60,1.3,18.5,1.8,37,2,55.5h-5l-2-50.5-2.3-28.7c-13.9-22.7-29.4-48.7-35.8-74.7-.9-3.8-.8-8.6-2-12.5,1.3-1.9,1.7.3,2,.5,2,13.6,8.1,28.2,13.8,40.7,5.8,12.7,13.2,25.9,21.2,37.3-2.9-26.7-3-52.8,1.2-79.3,4.8-30.2,15.2-66.4,26.8-94.7s42.8-81.9,88-84l-28.6-14.8c-5.3-1.2-12.3-6.7-17.4-7.1-15.9-8.7-32.9-15.4-49.4-23.1s-23.3-13.4-32.9-17.1-15.1-2.6-21.7-4.8l-7.7,115.8c-1.3,2.8-5.7,3.5-8.5,4.5-17.3,5.9-36,10.3-53.8,14.7,5.2,8,44.3,31,45.9,36.7s.2,2.2-.3,3.3c-54.5,76.5-109.9,153.4-151.6,238h-5c0-2.6,1.5-4.7,2.7-6.8,42.4-82.2,95.6-157.7,149.2-232.8l-1.3-2.3c-23.2-17.2-47.1-34-68-54-1-.9-7.6-6.9-6.5-8,2.2.2,4.2,2.3,5.9,3.6,8.1,6.1,15.3,13.5,23.8,19.1l63.4-18.2c.9-.8,1.7-11.4,2-14,2.4-26.7,3.6-53.7,5-80.5s1.4-13.9.9-20.9c-13-3.1-25.2-9.8-36.2-17.3s-13.1-11.5-16.2-12.8-1.3.7-1.5,1.4c-2.4,8.1-4.2,16.5-7,24.5-14.2,40.9-35.8,81.5-53.2,121.3-41.9,95.9-84.8,193.3-100.8,297.7h-5v-1c1.8-3.5,1.4-8.3,2-12,1.1-6.6,2.7-13.4,4-20s1.2-8.1,2-12c1.6-7.5,3.2-15.6,5-23s2.1-7.5,3-11c2.1-7.7,4.7-16.3,7-24s2.7-8,4-12,5.6-20.3,7-23c2.1-4,3-5.7,5-11s5.2-14.8,8-22,2.7-7.7,4-11c2.4-6.2,6.3-13.4,9-20s2.6-7.5,4-11c2.7-6.6,5.3-13.4,8-20s3.4-7.2,5-11c2.7-6.3,5.3-12.7,8-19s3.4-8.2,5-12c2.9-6.7,6.1-13.3,9-20s2.7-8,4-11,2.1-1.8,2.9-3.6c3.4-7.7,6.7-15.5,9.6-23.4-21,11.9-43.6,20.3-67.5,24-6.6-.2-13.6,1.3-20.5,1-11.1-.5-20.2-4.2-30.5-6-13.7-6.8-24.6-15.9-32.5-29-4.1,6.9-6.4,14.7-9.5,22s-2.6,6.7-4,10c-2.7,6.3-5.4,12.8-8,19s-2.7,6.8-4,10c-2.8,6.9-6.2,13.9-9,21s-2,7.5-3,10c-2.4,6.1-5.6,12.6-8,19s-2.7,6.6-4,10c-2.9,7.6-5.3,15.5-8,23s-2.7,6.3-4,10c-2.7,7.7-4.6,15.4-7,23s-2.9,6.3-4,10c-2.2,7.7-4.3,15.2-6,23s-1.3,7.3-2,11c-1.7,8.8-2.9,16.1-4,25s-.7,7.2-1,11c-.7,7.9-1.6,15.9-2,24s.1,8,0,12c-.2,6.7-1.1,13.9-1,21s.8,7.8,1,12-.1,11.4,0,17h-5c-.3-16.3-1.5-32.6-1-49,2.3-80.3,25.3-141.1,54.2-214.3,13.4-34,27.9-71,43.8-103.7,4.8-9.8,11.4-21.9,16.8-31.7s17.7-21.8,14.7-36.3c-23.9,20-41.2,46.8-70.9,59.1l-28.4,41.6c-1,5.9,2,10.8,4.8,15.3s2.9,5.1,6,7.5,17.5,7.6,4.6,8.5c-3.3.2-11.5-.1-14.5-1s-12.3-7.3-14.9-9.6c-4-3.4-5.6-10.7-7.7.6s-.5,1.6,0,3c2.3,5.1,17.6,15.4,21.6,20.6,3.4,2,5.7-1.5,8-2.5,4.2-1.9,19.6-9.9,22.5-10s.5,1.2.5,2c-10.1,4.3-19.3,10.4-29,15.5-13.6,7.2-31.9,14-44.4,21.6-2.2,1.3-3.1,2.7-4,5-3.3,9-5.6,26.5-7.4,36.6-10.8,61-14.4,111.5-5.3,173.2s4.8,32.2,9,48h-5c-2.5-16.3-6.5-32.3-8.9-48.6-10.4-72.4-2-144.8,15.4-215.3l41.8-21.2c.8-.6,1.9-.9,1.6-2.3-.6-2.6-17.7-16.3-20.5-19.5-6.6,6.9-17.5,13.7-27.1,14.9s-9.1.4-9.4.1c-2-2.1,6.7-6.8,8.5-9,7.9-9.6,7.1-23.4.3-33.4-2.2-3.3-5.6-7.4-9.8-6.2-9.4,2.6-9.1,12.5-10,21.1-2.4,22.8-1.6,52,0,75,.3,5,2.7,7.7,3,9.2,1.6,6.7-19.4,64.9-23,76.3-9.1,29-19.7,55.9-19,87,.5,24.5,7.3,48,11,72h-5c-2.9-16.9-7.7-33.6-9.9-50.6-7.9-62.5,23.8-119.6,40.8-178-3.9-32.5-.7-65,0-97.4s.8-6-1.5-5c-4.3,1.8-13.1,21.2-14.8,26.2-15.5,45.2-19.7,106.3-26.9,154.1-7.6,50.2-15.8,100.3-22.9,150.6h-6ZM496,68c-14.8-1.7-39.5,10.8-50,21,2.6.2,4.9-.9,7.5-1,29.9-1.3,57.6,6.3,82.5,23,3.5,2.4,13.4,9.7,16,12.5s1.9,2.6.5,3.5c-18.6-15.7-38-25.8-61.5-32s-11-3.6-17.5-4c-22.4-1.6-40.8,2.7-57.3,18.2-1.8,6.2,5-.6,6.8,3.8-8,1.8-14.9,5-20,11.5,7.1-1.2,14.1-4.5,21.5-3.5,1.4.2,3.1.7,1.5,2-18-.6-31.6,7.4-38.5,24-3.4-1.7-4.8-4.2-8.5-6-13.3-6.3-32.3-3.5-45,3-30.9,15.8-45.8,45.8-49,79.5-3.5,37.5-4.8,67.2-14,104.5s-8.3,29.4-12,44-1.2,1.6-1.5,2.9c-3.1,12.7-7,26-7.5,39.1l21-35c27.7-48.7,26.5-64.8,24-120-.3-6.2-.4-13.8,0-20,.9-14.6,4.3-29.9,9-44s-.1-.7,0-1c4.6-5.4,7.5-12,12-17.5,9.5-11.4,24-20.9,39-22.5.3,0,.7,0,1,0,.7,0,1.3,0,2,0,10.5-.4,18.3,1,28,5-.3-2.5,1.5-7.7,3.4-9.1s4.5-.5,6.6-.9c7.2,8.3,8.3,19.6,12,29.5s4.7,11,7,16.5c6.5,15.6,8.9,20.5,19,34,9.8,13.2,13.7,17.2,27,27s1,1.7,2,2.4c10.1,7.1,21.2,12.9,33,16.6l-18.7-11.8c-3.7-3.3-8.6-6.1-12.3-9.2-7.5-6.5-19.4-18.9-25-27-7.2-10.4-14.8-27-19-39s-5.9-16.8-6.8-23.7-.9-2.6,1.8-2.3c14.7,29.3,37.3,56.9,62,78.5,10.8,9.4,22,16.9,34,24.5.7.5,1.5.7,2,1s.6.8,1,1c25.7,15.5,41.4,22.2,72.5,21,1.2,0,3.7.8,3.5-1-32.7-4.9-59.4-27-80-51.5-19.5-23.2-33.8-51.8-58-70.5-2.9-3.2-7.8-8.1-12-9-.3-1.8,2.3-.9,3.1-.6s5.9,3.8,6.6,4.3c24.4,17.1,32.2,39.1,51.2,57.3,19,28.8,51.7,60.9,86.9,67.6,18.2,3.5,33.7-2.9,50.1-10l-.7-2.4c-19.5-2.3-40-7.5-57.4-16.6-24.5-12.8-39.2-34.9-55-56.5-4.1-5.7-7.9-12.7-13-18-2.9-4.7-7.3-11.2-12-14-.9-6.6-27.3-27.1-34-31l1-1c40.7,24.8,54.8,57.3,84,92,19.4,23,47,37.5,77.6,40.9,1.1.1,3.6.9,3.4-.9-24.7-12.2-47.9-26.4-66.5-47-8-8.9-16.5-19.4-23.5-29s-4.9-8.6-8-12.5l2.8-.3c8.8,13,18.6,25.2,29.2,36.8,9.9,10.8,19.5,20.5,31.7,28.8s39.7,20.2,54.8,34.2c7,6.5,12.4,15.6,18.5,23,18.2,43.9,20.2,56.5,20,105s0,17.3,0,26c-2.1,1.2-3-4.2-3-4.5v-26.5c-1.4.1-1.7,4.4-1.9,5.6-5.8,51.8,7.5,98.7,44.9,135.4,1.5,4.4,8,10.8,11,15v-26.5c0-2.1-4.3-13.8-5.5-16.5-3.9-8.6-12.5-17.8-19.5-24-4-7.1-8.9-13.2-13-21,0-4.6-3.4-10.4-3.9-14.6-3.5-25.6,3.5-50.3,5.9-75.4s1.1-33.6-3-50c-10-39.4-37.9-57-59.4-88.1-6.7-9.7-11.6-19.9-17.6-29.9-11.5-19.2-21.7-38.5-36-56l1-1c.7.8,2.4,1.3,3,2s.2,1.7,1,2.5c6.9,7.9,12.8,16.1,19,24.5,0,2.3,19,35,21.8,39.7,10.9,18.1,24,35.6,39.2,50.3,13.5,14.7,22.9,31.4,30,50,6.2,29.6,5.6,46.2,2,76-3.3,27.4-9.9,55.8,6.6,80.9,7.4,11.2,20.8,20.5,26.4,33.1s2.3,8.6,3.5,12,.1,2.3,1.5,2c.6-17.4,14.3-37.1,14-54,6-42-15-80.8-31-118s-18.1-40.1-25.8-60.7c-9.3-25-15.6-54.7-26.2-78.3-14.5-48-44.1-96.9-86.9-124.6-4.2-2.7-8-4.2-12.1-6.4-25.8-13.9-52.3-21.5-82-17ZM438,77c-22.2,3.6-45.9,12.8-65.3,24.2l-18.7,12.8c10.5-1.7,20.1-5,31-5s11.4.8,13.9,1.6,6.7,5,11.1,2.9,4.9-6.8,7-9c6.8-7.3,13-8.1,20.4-12.6,6.7-4.1,13.3-12.7,21.6-14.9.4-2.7-.5-2-2.5-2-4.8,0-13.5,1.2-18.5,2ZM368,113c-19.3,4.5-36.1,18.2-48,33.5,5.3.5,11.2-5.5,16-7.5s18.7-5.2,26-5,17.3,3.9,25,8c4.4-9.7,11.4-18.2,19-25.5-6.4-4.5-13.7-4.2-21-4.5s-10.1-.6-17,1ZM396,156c-1.8-7.6-8.3-2.9-8,3,2.6-1.8,4.6-3.4,8-3ZM300,227c-6,47.5,8.8,82-13,130-9.3,20.6-24.4,38-33,59s-8.2,23.7-4.5,39,4,12.5,4.5,13c1.4,1.5,1.8,0,2-1.5.6-4.8-.6-9-1-13.5,1.5-5.9,1.2-12,2.5-18s3.7-13.7,5.5-18,3.6-6.4,5-9,2.7-3.9,4-6l1,1c-14.4,23.2-22.3,65.4-2.5,88s2.8,3,4.5,4c3.3,7.6,10.6,11.8,13,22s1.1,9.7,1,15c4.2-2.2,5-7.5,7-11s2.4-1.3,3.2-3.2c2.6-5.8-4-6.9-7.8-10.7-44.7-44.7,5.7-99.4,18.8-145.3,4.2-14.8,5.6-28.4,5.7-43.8s-3.7-47.3-1-66c.5-.1.9-.5,1-1,0-.6,0-1.4,0-2,4-31,12.5-64.4,40.8-81.7s2.6-1.4,4.1-1.4c.2-1.8-2-.8-3-.5-5.1,1-14.1,6.1-17.9,9.6l-1-1c5.3-5.1,10.8-9.4,18-11.5s13.2-1.1,20-2.5c-1.1-2-6.4-2.8-8.5-3-42.3-3.8-63.8,33.3-68.5,70ZM452,261c1.4-.6,4.6-1.5,5-3-23.9-16.1-39.8-42-49.8-68.7-2.8-7.6-5.2-21.6-8.5-27.5s-6.3.2-10.5,1-9.8,0-16.1,1.9c-47.3,14.6-53.6,78.5-53.2,120.3.3.3,5.5-4.4,7-5,4.3-1.6,16.4-.6,21.4.1,4.8.7,15.3,3.4,19.6,5.4,2.1,1,7.4,8.5,8.3,10.7s.4,4.3.8,5.7c-8.7-1.6-17.3-3.5-26-5s-16.4-3.9-24-3c-7.7,1-6.4,4.9-6,11.5s2.7,13.6,3,20.5l5-2.5-4-2.5c5.6,1.4,5.4-1.4,7.8-3,8.8-6,16.9-6.9,27.2-5v1c-5-1.1-11.9.9-17,1,1.3,2.6,6.6.7,10.4,1.1s10.3,2.2,13.6,3.9c6.7,3.4,16.9,14.3,18,22l-41.5,8,.5-2-7,1c.5-.9,3.3-.8,1.5-3s-4.4-2.6-6-1l.5-4c-1.3,0-2.7,0-4,0,1.1-3.4,4.8-6.1-3-7,1.5,3.5-.6,6.8,3,7-2,6.1,2.8,37.9,4.3,46.2,7.4,40.1,40.7,90.6,70.7,117.8.3.3.6.7,1,1,12.3,19,29.9,30.8,53.2,24.7,30.9-8.1,104.4-63.3,119-92,6.6-13,9.4-27.9,13.8-41.7s0-.7,0-1,.6-.9,1-2-.1-.7,0-1,.6-1,1-2-.1-.7,0-1,.7-.4,1-1-.1-.7,0-1,.8-.6,1-1,.7-.5,1-1c19.5,9.5,28.1.7,39-14,12.8-17.3,24.5-40.1,26-62,.8-11,.3-19.7-8-27.5-3.1-2.9-5.5-4.9-10-4.5-16.4,1.3-20.1,16.4-28,26.5s-8.7,5.1-11,14.5-3.9,18.8-7.8,25.7c-1,1.8-1.8,3.2-4.2,3.3,0-1.2-.8-4.1-1-6-1.5-13.5-6.2-33-15-43.5s-9.6-6.6-20-9c-19.6-4.5-39.4-3.6-58.9-10.1-5-1.7-16.8-8.2-20.6-8.4-7-.3-33.7,14.8-42.4,17.9s-3.6,1.2-3.9,1c-2.3-4.6-2.4-8.9-2.1-14l3,3c-.2-3.7.8-6.1,4-8l-2.5,16c.8-.1.2-1.4,1.2-2,12.4-6.4,26.1-11.4,39.3-16.1l-10.3-7.3c-.9-.6-1.7-.5-2.7-.3-2.4.4-16.5,6.9-18.5,8.6s-4.5,6.6-5.5,10c-2.7-1.7-.2-7,1-9,3.3-5.4,10.6-7.6,16-10ZM484,252c-17.1-15.1-32.6-30.7-47-48.5-3.1-3.8-5.8-8.6-8.8-12.2s-1.1-2.8-3.2-2.3c7.5,16.8,15.3,33.1,27.5,47s15.7,16.4,17.8,17.3c3.9,1.6,9.3-2,13.7-1.3ZM499,261c-4,0-7.4-5.4-10.5-6-4.5-.9-9,1.1-13.5,1-.6,2.3.6,1.7,1.3,2.3,1.5,1.3,6.9,5.3,8.4,5.5l14.3-2.8ZM537,283c-5.7-1.4-11.8-4.6-17-7.5-4-2.2-15-10.4-17.9-11.1s-9.5,1.8-13,1.6c8.1,5.9,18.8,10.8,28.5,14,4.5,1.5,9.4,3.3,14.1,3.9s5.4,1,5.4-.9ZM373,298c-1.4-5.6-4.5-4.3-6.9-5.5s-3.6-4.2-6.4-5.7c-5.9-3.1-26.6-5.2-32.8-3.3-2.5.8-8.8,7-6.9,9.6,3.4-1.9,6.5-3.1,10.4-3,13.8.4,28.9,6.2,42.5,8ZM615,287c-12.8,3.7-26.8,5.2-40,5-.9.7,8,10,9,11,2.7,2.7,4.3,5.8,8.7,6.8,17.6,3.7,20.1-15.1,29.3-25.3-2.3-.4-5.2,2-7,2.5ZM367.5,290v1c.6-.3.6-.7,0-1ZM657,393c0,.3,0,.7,0,1s-.7,1.3-1,3c-3.2,20.8-10.8,43.3-12,64-1.2,2.8-1.9,7.4-2,10.5-1.8,34.8,1.5,65.8,24,93.5l-1,1c-2.9-3-5.5-5.6-8-9-6.9-9.5-13.5-24.3-16-36-11.4-54.3,12.6-100,15-152.5s.6-14.6,0-19-.6-2.4-1.9-2.5c-5.2,14.6-15.5,26.6-24.8,38.7-8.5,50.6-20,103.4-1.2,153.3l-1,1c-7.8-18-8.9-29.2-12-48-3.8-34.8,6.4-68.8,10-103-6.3,4.6-12.3,5.7-20,5-8.7,52.4-14.8,106.7,14.6,153.9,26.4,42.4,69.2,62.6,118.4,65.6l1,1.5c-3.2.1-6.4-.2-9.5,0s-2.7-.7-2.5,1l39.5,19c1.5-8-.2-16.3-2-24.1s-1.4-2.3-1.5-2.9c-3.8-13.9-8.4-25.6-16-38-3.6,1.4.2,10.7-4,10v-16.5c0-3-32.3-41.2-36.8-48.2-27.6-42.2-22.5-73-21.2-120.3l3-16.5c0-27.7-6.6-56.6-22.5-79.5-.5,6.5-.7,12.7-1.8,19.2-2.4,14.4-4.8,16.4-4.6,32.3.2,14.2-.2,28.5-2,42.5ZM600,314c-5.3.5-9.9-.7-14-4,2.5,8.9,6.4,17.6,7,27l4.5-12,2.5-11ZM349,322c-5.1.5-16.2,4.7-14.6,11,2.7,10.9,15.8,14,25.6,13l-7.9-4.6c-5-5.5-6.5-12.7-3.1-19.4ZM360,327l7-2c-22.7-13.2-20.8,17.6-4.5,18.1s17.9-10.6,9-14.1c-2.4-.9-2.1,6.5-4.2,7s-4.6,0-6.1-.8c-2.2-1-2-3.2-2.2-3.3l1-5ZM318,434c.6,6.9,3.4,13.6,4,20.5,1.4,17.5-4.4,36.9-12,52.5s-25.4,37.6-38,56-17,28.5-14.9,50.4l2.9,8.6c-2.7-19.2,5.3-35.8,17-50.5s9.7-11.8,11-10.5c-1.6,5.7-5,10.9-7,16.5-6.4,17.4-7.3,36.9-1,54.5s9.6,19.2,14.6,25.9c12.9,17.4,36.8,27.4,34.4,52.6-.6,6.5-3.8,9.8-6,15.5,11.4-1.6,26.3-15.5,26-27.5s-3.1-6.8-4-9.5c-9.8-28.3-10.5-39.4-1-68,0,0,.8-.4,1-1s-.1-.7,0-1c9.7-17.3,24.1-32.2,32.2-50.3,10.3-23.1,12.1-52.1,7.4-76.7l-23.5-29.9c7.5,27.9,11.2,56,8,85-.1.3-.8.6-1,1s-.9.3-1,1c-1.2,8-4,16.4-7.8,24.7s-8.7,16-10.4,17.1-2.7.7-2.8-.3c2.6-3.5,5.3-7.5,7-11.5,19.2-31.5,15.6-70.5,7.5-105-6.4-27.3-21.5-44.2-29-70s-6.8-46.1-10.5-69c-2,.4-1.7,2.1-2,3.5-3.6,19-11.3,39.3-10.1,58s4.4,26.3,9,37.5ZM380,336c-1.8-1.3-5.3,4.8-5,5h6s-1-5-1-5ZM296,474c2.9,8,12.3,15.8,12,26l3.8-7.7c1-2.7,1.4-5.5,2.2-8.3,1.3-4.7,3.4-9.5,3.9-14.6,2.8-29-14-53.4-11.9-82.4-1.2,0-1.7,1.4-2.2,2.3-4.4,7.3-21.1,42.5-21.5,49.5-.6,10.3,6.3,27.9,13.8,35.3ZM626,597c1.9-4.5,7.9-17.7,6.8-22.2s-12.2-16.2-14.8-20.2c-26-39.6-27.6-81.9-22.9-127.9s3.2-21.5,4.8-32.2c.5-1.5-3.7-3.6-3.9-3.4-5,16.2-8.3,34.4-15.8,49.7-10.3,20.9-38.2,43.2-56.9,57.1s-35.5,24.7-54.9,34.2c4.9,25.1,11.5,52.5,7.3,78.2-.6,4-1.4,10.5-4.7,12.8l.5-11c-2.7,5.5-12.2,16.4-13.3,21.7s-.5,14.9-.3,18.8,1.8,3.7,2.1,4.5-.4,4.5,0,5,2.2-.2,3,0v2c-.5-.2-1.4.2-2,0s.2-.6-.5-1l-.5.5c-.5,1,1,1.4,1,1.5,0,.6-.1,1.4,0,2l-2,1c-.1-.8-1.1-1.8-1-3s1.3-.2,1-1c-.6-.1-1.8.1-2,0s-1-2.8-1-3c0-.6,0-1.3,0-2s1.1-1,1.1-2.4c-.3-5.5-1.9-11.6-1.1-17.6-2.5,3.2-8,11.9-8.9,15.6s2.4,1.8,3.9,2.4v2c-11.4-3.3-3.6,5.9-1,10,3.8,6,6.9,10.3,12.5,15,.2-4.6-2.5-9.6-3.5-14l2-1c.9,4.3,2.8,7,3.9,9.7,3.7,9,2.7,9.4,13.1,12.8,24.7,8,62.7,3.4,82.5-14.5l18.5-17-44.3,10.2c-4.9,1.8-6.8,7-11.7,8.8l-1-1c3,.5,1.7-2.6,2-3,9.6-12.2,43.6-13.3,58.5-19,2.2,0,2.5-2,3.5-3,15.5-15.1,31.6-36.1,40-56ZM249.5,415v1c.6-.3.6-.7,0-1ZM279,451c-4.1,19.3,1.4,39.2,15.4,53,4.9,4.8,10,9.9,9.6-.6s-11.4-23.5-17.6-34.5l-7.5-18ZM342,667c1.2,19.4,15.7,41.3,34,48s3.6,3.7,6,1.5c-2.3-1.2-3.9-3.1-6-4.5s-2.1-1.3-3-2c-2.6-9.9-7.5-19.4-10.3-29.2-16.2-58.4,40.7-65.9,52.4-111.1,2.6-9.9,5-35.5,0-44.2s-8.1-7.5-10.6-10.4c-5.2-6-9.7-12.6-15.5-18,2.9,27.4.9,53.9-11.8,78.7s-24.9,32.6-31.9,52.1c-4.4,12.2-7.3,26.6-3.3,39.2ZM747,553c0,.7-1,2.6-1.1,4.4-.2,8.5,10.1,21.6,13.9,30.2,6.9,15.4,11,32.3,10.3,49.2,7.1,2.6,13.6,5.8,20.9,8.1s1.9,2.5,3,1.5c5.6-8.9,6.7-19.3,6-29.5s-1-1.9-1-2c0-.3,0-.7,0-1-4-27.4-20.6-35.8-33.4-57.1-4.2-7-6.6-14.8-10.6-21.9,0-.7,0-1.3,0-2s0-.7,0-1c-.3-5.8-3-11.9-2-18l-1.5,1c-.6,8.3-3.6,16.2-4.5,24.5s0,9.1,0,13.5ZM448,537c-10.6,1.5-18.8-3-28-7,2.2,19.9,1.4,39.2-8.6,56.9-16,28.2-50,41.8-48.5,78.6s2.2,10.9,3.1,16.4l6.5-15c12.3-20.3,34.1-31.8,49.5-49.5s28.6-49.5,26-80.5ZM464,534c-.4-.4-10.1,1.8-11.3,2.2-3.7,1.3-.6,9.9-.6,13.3-.3,24.9-10,49.3-26.1,68l-21.5,22.5c24.7-10,43.8-32.4,50.5-58,1.7-.3,1,2.3.9,3.4-.7,5-3.4,9.6-3.9,14.6,6.7-4.9,11.1-12.7,18.8-16.2.7-16.8-3.8-33.4-6.8-49.8ZM607,647c4.1-7.1,8.7-18.9,11.8-26.7s2.3-4.4.2-4.3c-7.5,10.8-14.9,22.3-24,32s-4.5,3.3-6,5.5c3.2.6,13.3-1.5,16-3s1.4-2.4,2-3.5ZM373,683c4.6-10.4,13.6-18.3,17.5-29-7.3,4.8-14.1,13.9-17,22s-2.2,6.6-.5,7ZM603,654c-.8-.8-16.4,3.8-18.9,4.6l-23.1,21.4c9.4-2,19.7-8.2,27.9-13.6,2.3-1.5,11.9-7.6,13.1-8.9s1.7-2.8,1-3.5ZM595.7,668.6c-43.9,27.9-120.2,55.6-153.2-1.6-.7,0-5.5,9.2-5.5,10.5s7.7,11.4,9,12.9c28,32,84.1,23.5,118.9,8,4.6-2.1,21.7-10.5,24.5-13.5,2.6-2.9,5.9-13.9,7.5-17.9l-1.3,1.6ZM321.5,726v1c.6-.3.6-.7,0-1Z"/>
  <path class="st2" d="M916,1024h-144c-1.9-22.1-4-44.4-7.1-66.4-6.9-48.6-20.2-96.3-13.8-146.1v-20.5c13.9-42.2,40.9-108.9,94.4-110.1,31.8-.7,41.6,51.3,46.2,74.9,13.7,70.8,18,142.7,22.4,214.6l2,53.5Z"/>
  <path class="st2" d="M799,656c5.1.5,12.1,5.9,17.4,7.1l28.6,14.8c-45.2,2.1-72.5,46.4-88,84-2.4-.5-2.1,1.2-2.8,2.6-20.1,37.4-30.2,79.5-36.2,121.4l-3-.7c-6-7-13.7-22.5-21-27.3s-.8-2.4-2-.5c1.2,3.9,1.1,8.7,2,12.5-1.7,1-1.1,3.7-.9,5.4,2,17.8,9.3,35.6,11.7,53.3,4.8,34.3-9.7,65.1-23.8,95.3h-149c13-32.6,28.9-65.1,47.6-94.9s51.2-69.6,76.2-104.8c5.1-7.2,18.7-24.6,21.2-31.8s1.1-2.9.8-4.8c-1.3-7-27.4-26.2-33.9-32.2s-4-3.5-3-4.5c13.9-3.7,29.2-7.6,42.5-13,7-2.8,10.6-3.9,11.5-12.5,2.5-22.9,0-48.6,2-72,.3-3.6,1-13.2,5.4-13.4,30.9,8.3,62.2,14.1,94.1,16.9s2.3-1,2.5-.9Z"/>
  <path class="st2" d="M690,630c-1.4,26.7-2.6,53.8-5,80.5-.2,2.7-1.1,13.2-2,14l-63.4,18.2c-8.4-5.7-15.6-13-23.8-19.1s-3.7-3.4-5.9-3.6c-1.1,1.1,5.5,7.1,6.5,8,21,20,44.8,36.7,68,54l1.3,2.3c-53.6,75.2-106.8,150.6-149.2,232.8-1.1,2.2-2.7,4.3-2.7,6.8h-38c16-104.4,58.9-201.8,100.8-297.7,17.4-39.9,39-80.4,53.2-121.3,9.9-4.7,18,.2,26.7,4.8s21.6,14.7,33.3,20.2Z"/>
  <path class="st5" d="M279,865c3.6-11.4,24.6-69.6,23-76.3s-2.7-4.2-3-9.2c-1.6-23-2.3-52.2,0-75,.9-8.6.5-18.5,10-21.1s7.6,2.9,9.8,6.2c6.8,10,7.6,23.7-.3,33.4-1.8,2.2-10.5,6.9-8.5,9s7.9,0,9.4-.1c9.6-1.2,20.5-8,27.1-14.9,2.8,3.3,19.9,16.9,20.5,19.5s-.8,1.7-1.6,2.3l-41.8,21.2c-17.4,70.6-25.8,143-15.4,215.3,2.3,16.3,6.4,32.4,8.9,48.6h-46c-3.7-24-10.5-47.5-11-72l12.5,13c2.2,1.5,4.7,2.8,7.1,3.9s18.8,6.9,20.2,2.5c-1.3-24.6-3.7-49.2-2.9-73.9.3-10.1,1.2-21.8,2-32,1.4-15.9,4.6-31.6,6-47.5l-26,47Z"/>
  <path class="st5" d="M799,656c-.3,0-1.4,1-2.5.9-31.9-2.8-63.2-8.6-94.1-16.9-4.4.2-5.1,9.8-5.4,13.4-1.9,23.4.5,49-2,72-.9,8.7-4.5,9.7-11.5,12.5-13.3,5.4-28.6,9.3-42.5,13-1,1,2.2,3.8,3,4.5,6.5,6,32.6,25.2,33.9,32.2s-.2,3.1-.8,4.8c-2.5,7.2-16.1,24.5-21.2,31.8-25,35.2-53.2,68.1-76.2,104.8s-34.5,62.3-47.6,94.9h-13c41.6-84.5,97.1-161.5,151.6-238,.5-1.1.6-2.2.3-3.3-1.6-5.7-40.7-28.7-45.9-36.7,17.7-4.5,36.5-8.8,53.8-14.7,2.8-1,7.2-1.7,8.5-4.5l7.7-115.8c6.6,2.2,15.4,2.4,21.7,4.8,9.6,3.6,22.8,12.3,32.9,17.1,16.4,7.7,33.5,14.5,49.4,23.1Z"/>
  <path class="st5" d="M772,1024h-33c-.2-18.5-.7-37-2-55.5-1.4-19.8-5-40.4-6-60-2.2-41.8,7.1-78.4,20-117.5v20.5c-6.3,49.8,6.9,97.5,13.9,146.1,3.1,22,5.3,44.2,7.1,66.4Z"/>
  <path class="st2" d="M231,1024c7-50.3,15.3-100.4,22.9-150.6,7.2-47.8,11.4-108.9,26.9-154.1,1.7-5,10.5-24.4,14.8-26.2s1.5,3.9,1.5,5c-3-.6-1.8,1.4-2.1,3.3-5.2,27.3-4.8,53-7.9,80.2s-21,72.5-29.5,109.5-11.3,88.1-16.5,133h-10Z"/>
  <path class="st5" d="M734,1024h-53c14.1-30.2,28.6-61,23.8-95.3-2.5-17.7-9.7-35.5-11.7-53.3s-.8-4.3.9-5.4c6.4,26,21.9,52,35.8,74.7l2.3,28.7,2,50.5Z"/>
  <path class="st5" d="M297,698c-.8,32.5-4,64.9,0,97.4-16.9,58.3-48.7,115.5-40.8,178,2.2,17,6.9,33.8,9.9,50.6h-25c5.2-44.9,6.3-88.8,16.5-133s25.3-71.7,29.5-109.5,2.7-52.8,7.9-80.2c.4-1.9-.8-3.9,2.1-3.3Z"/>
  <path class="st5" d="M342,975c-.5,16.4.7,32.7,1,49h-21c-4.2-15.8-6.6-31.9-9-48,10.1,7,18.9,3.7,29-1Z"/>
  <path class="st3" d="M471,1023v1h-123c-.1-5.6.2-11.4,0-17l123,16Z"/>
  <path class="st4" d="M452,261c-5.4,2.4-12.7,4.6-16,10-1.5-1.3-1.5-.3-2,0-3.2,1.9-4.2,4.3-4,8l-3-3c-.3,5.1-.2,9.4,2.1,14,.3.2,3.2-.7,3.9-1-3.2,9-6.6,28.5,3.6,33.9,2.3,1.2,3.5,2,5.3-.5,2.5-3.6,5.3-16.9,7.6-22.4,4-9.3,12.5-24.8,24-25.1,4.4-.1,22.6,9,29,11,11.6,3.6,26.2,6.5,38.2,8.8,18.4,3.5,24.1-1.9,35.2,16.3-10.1,3.8-15.8,14.6-20.8,23.7s-3.3,10.7-6.2,11.9-4.4-1.3-4.9,1,1.5,5.1.7,8.7-3.5,5-4.5,7.5c-2.3,5.2-9.9,20.7-10.2,24.8-1,11.2,6.7,12,16.3,10.3,7.9-1.5,28.1-17.3,33.2-23.8,3.8-4.9,11.8-21.2,11.6-26.9,2.4,0,3.2-1.5,4.2-3.3,3.9-6.9,5.9-17.9,7.8-25.7,6.8-1.8,7.5-9.9,13-13-.3,7.3-5.6,13.5-5,21-.1.2-1.2.4-1.5,1-1.9,4.1,4.1,10.6,3.3,15.3s-13.4,13.2-7.3,18.7,10.1-6,12.8-7.7,7.1-.9,10-2.3,8.1-10.9,8.6-14.6c.8-6.1-2.1-21.7-8.9-23.4,3.3-6.8,11.4-12.4,16-18-.1,2.9,2,8.2,2,10.5v27c0,1.5-3.1,9-4.2,10.8-2.2,3.9-9.9,10.1-10.8,12.2-1.8,4.2,6.2-2.1,7-3,5.5-5.6,9.7-13.8,11-21.5,3.5-6.3,4.7-14.9,6-22h5c-1.5,21.9-13.2,44.7-26,62-8.4,5-14.9,16.1-26.3,13.8s-5.7-3.5-9.2-3.6-2.9,2.8-3.5,3.9-.9.8-1,1l-1,1c-.1.3.1.7,0,1l-1,1c-.1.3.1.7,0,1l-1,2c-.1.3.1.7,0,1l-1,2c0,.3,0,.7,0,1-4.1,5.9-5.7,14.1-8.5,21-14,34-35.1,50.8-63.6,72.4-22.8,17.3-61.3,47.5-91.1,35.3-9.1-3.7-15.9-13.9-22.8-19.7s-.7-.7-1-1c.5-2.4-.9-3-2-4.5-23.9-33.1-54.1-64-63.4-105.6s-4.9-39.6-1.7-45.8l7-1-.5,2,41.5-8c-1.1-7.7-11.3-18.6-18-22l1-2c1,.4,1.6,1.4,3,1-.6-4.3-7.4-5.3-11-6,.1-4.5-11-3.3-14.5-3s-14.4,4.1-15.5,3.6c-4.2-2.1-4.1-15.3-3-19.6,7.6-.9,16.5,1.7,24,3,15.7,12.5,35.2,26.6,42.5,46,.6,1.6-.3,3.6,2.5,3,.2,3.3-.1,6.7,0,10h2s0-20.5,0-20.5c0-3.4-5.6-15.4-9-17.5-2.7-5.2-10.8-12-12-16s.1-3.3-.8-5.7-6.1-9.7-8.3-10.7c-4.2-2-14.8-4.7-19.6-5.4-5-.7-17.1-1.7-21.4-.1-.2-36.7,7.7-93.3,46.6-108.9,5.8-2.3,18.5-6.4,22.8-1.1s8.9,26.7,12.4,34.6c9.6,22.1,25.4,41.5,44.2,56.3ZM530,300c0-3-4.1-4.2-6.3-5.2-16.9-7.1-36.2-6.8-53.5-1.1-5.3,1.8-16.1,8.4-18.7,13.3s1.4,2.8,1.5,3c2.2,3.1-3.9,8.2-4,8.7-.2.9.2,4.3,0,6.3s-1.3,5.2-1,8l10-2-6-1c1.7-9.2,9.6-19,19-21-.6,6.6,0,11.8,5,16.5s6.1,3.2,7,4.5l-14,.5c0,1.9,12.1,1.6,14,1.5,5.2-.3,11.9-1.2,16.8-2.7s9.5-7,16.2-4.3c0-1.2-3-2.9-3-3.5s5.6-5.7,6.6-6.4c1.5-.9,4.2-1,4.4-1.1,2.5-2.5-3.4-1.3-3-3,4-1.1,14.5-8.2,16-11.5s-5.8.3-7,.5ZM388,356h-2v3h2v-3ZM391,412c3.9,4.9,7.8,8.6,14.7,9.8,11.1,1.9,9.2-2.9,15.6-6,5.8-2.8,9.5-.5,14.7-6.8,7.9-2,9.9-9.7,6-16.5s-.8-2.9-3-2.5c1.5,3,2.5,6.5,2,10-7.2,4.4-13.9-1.1-22.4,0s-9,6.1-14,5.9-14.8-5.4-14.6-10.9c.5-4,1.5-7.9,1.9-11.6s-.2-1.4-1.9-1.4c-1.1,8.6-7.2,18.3-2.2,26.7s2.3,2.1,3.2,3.3ZM421,427c-3.1-.5-1.5.9-2,2.5s-1,3.7-1.5,5.5c4-1.8,3.8-3.8,3.5-8ZM406,439c-4.4,1.3-10.5,6-11,11-2-.5-6-3.7-7,.5s5.4,2.3,7,2.5c3,6.1,5.6,12.5,9.2,18.4s2.5,2.1,2.8,2.6c1.3,1.8,1.7,2.3,3,4s-.2,1.9.5,2.9c1.8,2.4,9.2,6.3,12.2,6.8,7.8,1.3,25.9-2.7,25.3-12.8-1,0-2,0-3,0s-.7,0-1,0l11.5-9c5.8-6.8,14.1-12.3,18.5-20,.8-.3,2-2.1,3.3-2.2l9.7-3.3c-2.2-6.8-7.9-1.1-13,.5-15.7,2.4-35.1-6.6-50-5s-4.5,1.7-6.6,1.9c-4.4.6-6.7-.3-11.4,1.1Z"/>
  <path class="st4" d="M626,597c-8.4,19.9-24.5,40.9-40,56-15.9,3.6-33.5,5.6-49,10.5-6.2,1.9-10.3,4-15,8.5,0-.2-.9-.5-.8-1.3.2-1.8,2.6-4.1,1.8-6.7-2.7.9-2.9,3.9-4,6-2.7,2.2-5.5,4.6-8,7l-15,4c-.8.8,4.6,9.9,7.9,5.8s0-1.5.1-1.8c4.4-1.5,6.9-2.4,10-6,3.8-.4,5.6,1.3,9,0,4.9-1.8,6.8-7,11.7-8.8l44.3-10.2-18.5,17c-19.7,17.9-57.8,22.6-82.5,14.5-10.4-3.4-9.3-3.8-13.1-12.8s-3-5.4-3.9-9.7.1-1.4,0-2,0-1.4,0-2v-1c.6.2,1.5-.2,2,0,2.2.9,5.9,2.7,8,4,3.7,2.3,4.6,5.6,9,5,.3-2-.2-3.6-1.1-5.4s-14.9-11.6-15.9-11.6c1.6-6.8,7.7-12,10.9-18.6,9.6-19.9,12.4-43.6,13.6-65.4,30.7-27.3,60.3-58.3,84.3-91.7,6-8.3,12.5-16.8,16.2-26.3l2,8.5c.4,32.5,6.4,63.4,18.5,93.5s13.6,26.7,17.5,41Z"/>
  <path class="st3" d="M578,85c7,7.2,15.8,12.6,23,19.5,1.9,1.8,12.4,12.7,13,14s-.3,2-1.5,1.5-10.9-11.6-12.5-10c4.3,9.4,13.9,16.1,17,26.5l-9-5.5c-.9.9,5.9,10.3,3.5,13-5.5-2.7-8.5-8.5-12.5-12.5s-11.2-11.5-16-15c-1.3-1-3.4-2.2-5-2,11.4,13.8,24.3,26.2,33,42-.8,1.5-2.4-.2-3.3-.7-3.5-2-10.4-7.7-13.2-8.8-5.5-2.2,6,10,.5,9-.6-.7-2.3-1.2-3-2-3.2-3.2-5.3-4.6-8-7s-19.3-18-22.5-19c-5.2-1.5,5,7.9,5.5,8.5,1.2,1.5,3,3.5,3,5.5-1.7,1.7-13.2-11.8-17-10.5,4.2,6.1,19.7,16.9,22,23s-1,1.7-2.3,1.3c-2.2-.8-4.9-3.6-7.2-4.8.6,3.3,3.1,6.2,3.5,9.5s0,1.9-1.5,1.5c-2.8-.8-20.5-12-21.5-11,.4,4.7,18.6,23.2,16,26-4.5-.9-8.6-2.7-12.7-4.8-7.1-3.6-20.4-15.5-25.9-17.2s-2,.2-1.5,1.5,10,12,12,14c5.7,5.9,13.8,13.5,20,19,10.6,9.4,22.4,17.7,33.5,26.5,5.1,2-4.9-8-5.3-8.7-3.4-4.6-6.7-10.6-9.2-15.8.8-1.5,2.6,0,3.5.5,5.4,3.1,10.4,8.8,16.5,11,1.8-2.1-10.9-18.9-12-22.5s.1-1.7,1.5-1.5c4.4.8,13.9,15.2,18.5,18l-12.5-23c8.7,4.4,15.1,12.3,21.5,19.5,5.1,5.8,9.4,15.6,17,17.5,6,10,10.9,20.2,17.6,29.9,21.5,31.1,49.4,48.7,59.4,88.1-6.8,2.1-4.2-8.8-8.5-11-3.2-1.6,0,8-2.5,8-2.9-9.2-6.4-18.2-10.8-26.7s-1.5-2.1-1.2.2c.7,7,6.8,19.8,8.7,28.3,4.9,22.4,5.9,45.5,8.3,68.2,1.7,0,1.9-3.3,2-4.5.8-9.7-.4-19.8,1-29.5l3,14.6,3,2.4c-2.4,25.1-9.4,49.9-5.9,75.4.6,4.1,3.9,10,3.9,14.6-5.7-10.9-8.2-19-9.9-31.6-1.4-10.4-.5-21.2-3.1-31.4.2-48.5-1.8-61.1-20-105s-7.1-22.5-13-31.5c-11.5-17.6-29.5-36-42.7-53.3s-1.2-3-1.4-3.1c-.6-.5-2.4-.4-1.9,1.4,2.3,8.5,11.2,16.7,13.4,25.6-8-5.4-16.1-13.8-24.2-18.8s-3.6-2.6-3.3.3l21,24.5c-19.5-6.5-36.2-19.4-53-31-10.5-11.6-20.3-23.8-29.2-36.8l-2.8.3c3,3.9,5.1,8.6,8,12.5-.2,2.2.9,3.9,1.8,5.7,9.9,19.2,25.7,39.9,44.2,51.3.2,2-2.7.3-3.5,0-3.7-1.4-8.7-3.9-12.1-5.9-7.6-4.4-14-10.3-21.3-15.2-29.2-34.7-43.3-67.2-84-92-3-1.8-11.1-5.3-12-6s-.1-2-1.6-2.9c-4.8-2.9-10.2-4.9-14.4-8.6,16.2-3,30.8,5.3,45,11.5,1.1-1.1-3.6-5.2-4.5-6-5.3-4.7-12.1-7.5-17.5-12,5.6-1.6,32.6,13.2,34,12s-1.4-2.2-1.9-2.6c-10.1-7.4-21.9-13.5-34.1-16.4-.2-1.7,2.3-.9,3.5-1,15-.6,29.3,5.4,43.5,9-9.2-8.1-23-12.3-35-15,.2-1.6,4.3-1.9,5.5-2,4.1-.3,8.4.2,12.5,0,23.5,6.2,42.9,16.3,61.5,32,1.4-.9.3-2.5-.5-3.5-2.5-2.8-12.4-10.2-16-12.5-2-5.2-9.1-7.8-13.1-11.4l-26.9-13.6c20.2.7,38.9,4.8,58,11-.6-1.9-2.5-2.6-4-3.5-14.8-9.1-35.8-14.1-53-15.5l7.5-2c5,.2,10.1-.3,15,0s13,2.5,19.5,2.5c-5.5-3.1-12.8-4.7-19-6s-17.4-3.7-24-4.5c29.7-4.5,56.2,3.1,82,17ZM555.5,97v1c.6-.3.6-.7,0-1ZM509.5,112v1c.6-.3.6-.7,0-1ZM498.5,123v1c.6-.3.6-.7,0-1ZM554.5,127v1c.6-.3.6-.7,0-1ZM486.5,129v1c.6-.3.6-.7,0-1ZM612.5,211v1c.6-.3.6-.7,0-1ZM598,217c-.1-.1-2.4-.7-3-.5l2.5,2.5c.9.1.6-1.9.5-2Z"/>
  <path class="st2" d="M440,657c-15.9,32.7-30.3,69.8-43.8,103.7-28.9,73.2-52,134-54.2,214.3-10.1,4.7-18.9,8-29,1-9-61.7-5.5-112.2,5.3-173.2,1.8-10.2,4-27.6,7.4-36.6s1.8-3.7,4-5c12.5-7.7,30.8-14.4,44.4-21.6,9.7-5.1,18.9-11.2,29-15.5,0-.8.4-2-.5-2-2.9,0-18.3,8.1-22.5,10-1-3.3-8.4-2.2-9-4.6s3-4.8,2-7.4c3,.9,11.3,1.3,14.5,1,12.9-.9-.7-5.5-4.6-8.5s-4.1-4.6-6-7.5c-.2-6.6-.6-12.5,3.2-18.3,6.1-9.6,40.8-36.2,51.6-38.4,8.2-1.7,5.6,3.6,8.3,8.8Z"/>
  <path class="st1" d="M641,521c-3.9.2-2.6.3-3-2.5-1.3-8.8-2.4-17.7-3-26.5-1.2-15.9-.4-30.1,1-46s6.7-37,6-56l-11.2,19.3c-9.9,36.2-13.8,74-1.8,110.2,8.5,25.7,23.7,46.5,44.5,63.5-5.5-8.6-13.7-16-16.5-26,2.5,3.4,5.1,6,8,9,4.3,4.5,8.5,11.1,15,12.5l-14-13.5c-22.5-27.8-25.8-58.8-24-93.5.2-3,.9-7.7,2-10.5-1.9,32.6,6.2,68.6,22.8,96.7,1.8,3,14.4,22.8,18.2,19.3-.9-5.2-6.9-8.1-6-14,9.8,15.5,22.5,30.3,40,37.5s11.5,4.3,8,.5-11-4.8-13.3-6.2c-36.6-22.1-51.3-72.2-50.7-112.8,3.1,0,2.6,1.4,3,3.5,2.7,12.5,4.5,25.3,8.3,37.7,10,32.9,32.6,65.9,65.7,78.3-7.4-7.6-15.3-14.8-21.9-23-3-3.6-12.9-16.4-14-20-.4-1.3.2-2,1.5-1.5,1.8.7,8.3,10.2,10.5,12.5,14.2,14.6,32,24.8,47,38.5.2.6,1.2,1.5,1.5,2.9,1.8,7.8,3.5,16,2,24.1l-39.5-19c-.3-1.6,1.3-.9,2.5-1,3.2-.2,6.4.1,9.5,0l-1-1.5c-49.3-3-92-23.2-118.4-65.6-29.4-47.2-23.2-101.5-14.6-153.9,7.7.7,13.7-.4,20-5-3.6,34.2-13.8,68.2-10,103-1.1-6.8-3.3-13.5-4-20.5-1-9.5-1.2-19-1-28.5-1.4.2-1.7,4.4-1.9,5.6-3.7,29.2,1.6,60.3,13.7,87.1,3.2,7.1,7,13.6,12.2,19.3.1.1,1.9,1.1,2,1-1.2-5.4-6.1-12.1-8-17-18.7-49.9-7.2-102.6,1.2-153.3,9.2-12.2,19.6-24.1,24.8-38.7,1.4.2,1.7,1.4,1.9,2.5.7,4.4.3,14.1,0,19-2.5,52.5-26.4,98.2-15,152.5Z"/>
  <path class="st1" d="M626,597c-3.8-14.4-11.9-27.2-17.5-41-12.2-30-18.2-61-18.5-93.5l-2-8.5c-3.7,9.5-10.2,18-16.2,26.3-24,33.4-53.6,64.4-84.3,91.7-1.3,21.8-4,45.5-13.6,65.4s-9.2,11.8-10.9,18.6c-.2,0-1.9,1.5-3,1-.2-.8-1.9-1.5-2.1-4.5s-.4-15.6.3-18.8c1.1-5.3,10.6-16.2,13.3-21.7l-.5,11c3.3-2.2,4.1-8.8,4.7-12.8,4.2-25.7-2.4-53.1-7.3-78.2,19.4-9.5,37.6-21.3,54.9-34.2s46.6-36.2,56.9-57.1c7.5-15.3,10.8-33.5,15.8-49.7.2-.2,4.4,1.9,3.9,3.4-1.6,10.7-3.7,21.5-4.8,32.2-4.8,46-3.1,88.3,22.9,127.9,2.6,4,14.2,17.5,14.8,20.2,1.1,4.6-4.9,17.8-6.8,22.2Z"/>
  <path class="st3" d="M615,183c0-.4,1.7-5.1,1.5-7l11.5,9-4-13c1.5-1.6,10.3,8.2,12,9,1.6-4.2-9-26-8-27,1.9-.4,2.4,1.1,3.5,2,6.4,5.3,11.1,13.4,16,20,2.4.5,1.6-1.9,1.3-3.3-.8-3.8-4.7-9.1-4.8-12.2s1.2-.5,2-.5c11.4,17.3,20.1,35,28.8,53.7s2.1,2,2.2,2.2c10.7,23.6,17,53.3,26.2,78.3,7.7,20.7,17,40.5,25.8,60.7-.9,2.1.7,6,1.3,8.2,2.3,8.1,5.6,16.2,7.7,24.3.6,2.3-4.3.7-5.9.4s-2.3-2-3-.5c3.6,9.9,5.7,20.3,8,30.5,1.1,20.2,5.7,41.2,4,61.5-.1,1.2-.4,5.3-2,5.5l-12-45c-.8,14.8,3.2,29.3,4.5,44-13.4-18-17.6-40.9-21.4-62.6l-2.1-22.4c3.6-29.8,4.2-46.4-2-76-10.1-48.5-35.6-92.6-60.5-135-1.8-2.3-1.7-.2-1.2,1.2,3.1,9,9.9,19.9,14,29s11.8,26.5,10.8,27.7c-1.4,1.8-2.2-1.3-2.6-1.9-5.3-7.6-10.1-16.9-16-24s-2.2-3.2-3.4-2.6l29,55.5c-15.2-14.7-28.3-32.2-39.2-50.3-2.8-4.7-21.9-37.4-21.8-39.7ZM725,393v17c-3.1,1.7-4.2-7.3-6-5s1.9,7-2,6c-.8-.9.6-8.9-3-8-.2,6.4,2.1,33.3,6,37s2,0,2-1.5c0-5.5-1.6-12.8-2-18.5,2.7,1,2.5,5.7,3.9,7.4s2.5.2,3.1,1.3c1.1,2,.9,6.2,2.7,9.1s0,1.7,2.3,1.3c0-13.2.4-28.9-3.9-41.5s-1.2-3.9-3.1-4.4Z"/>
  <path class="st3" d="M456,130c1.9.7,8.7,4.7,11,6,6.7,3.9,33.1,24.4,34,31s-1,1.2-.8,2.3l2.7,10.7-11-11c.3,2.5,1.4,4.8,2.4,7,1.9,3.9,10.5,12.8.5,9v4c-1.8,2-14.2-12.1-17-12.5,1.2,1.9,1.7,4.2,2.8,6.2,3.4,6.3,23.2,33.6,28.9,35.1s2.2.3,3.3.2c.3-.3-5-8-2.5-8,5.4,1.3,8.8,5.5,13.5,8,2-2.5-11-15.6-11.5-19l14,11,.5-5c6.6,4.5,19.4,28.1,26,36.5,7,8.8,15.4,16.3,24,23.5-18.9-5.5-33.4-20-47.5-33-1.2-.4-2,.2-1.5,1.5s6.8,7.7,8,9c7.5,8.2,16.1,15.4,25,22-3.8.8-8.6-3.1-11.9-5.1-19-11.5-31.6-27.6-47.1-42.4-19-18.1-26.8-40.2-51.2-57.3-.7-.5-6.3-4.2-6.6-4.3-.9-.3-3.4-1.2-3.1.6,4.2.9,9,5.9,12,9s6.1,8.3,9,12l3,14-5.5-5c-3-1.3-.7,6.1-1,7l-7.5-5,1,8c-2.3,2.4-14-13.2-17-13.5,6.2,9.9,22.5,35.1,33.5,38.5s1.6-3.5,1.5-5c2.2,1.1,3.4,3.3,5,5,1.8,3.4,4.2,8.7,6.4,11.6,6.3,8.4,21.1,22,29.3,29.2s4,1.9,1.3,3.2c-12-7.6-23.3-15.1-34-24.5-24.7-21.6-47.3-49.2-62-78.5-2.6-.3-2,.1-1.8,2.3.9,6.9,4.4,16.9,6.8,23.7-3.9.1-3.9,4.5-6,7-2.3-5.5-4.9-10.8-7-16.5-3.7-9.9-4.8-21.2-12-29.5.2,0,.5-1.3,1-1.5,4.4-1.8,13,7.5,13.9,6.5-.9-4.4-4.6-7.1-8-9.5-1.8-3.6,7.5.3,8.3.7,5.3,2.2,9.3,6.2,14.6,7.8.8-.7-8.4-10.6-9.8-11.7s-2.6-1.5.3-1.3c9.6.9,18.5,9.3,27.5,12l-2-3.5-12.5-13.5c11,1.7,19.7,8.6,29.5,13,.4-1.9-1.1-2.4-2-3.5-5.4-6.5-13.4-12.8-21-16.5,0-1.8,4.4-1.1,5.5-1,2.7.3,12.2,2.2,14.5,3ZM527,231c.3-1.5-.4-2.1-1.5-3-.4,1,1,3.9,1.5,3Z"/>
  <path class="st3" d="M318,434c-.3-4.1-.2-9.3,0-13.5s-.8-3.7,1-3.5c4.1,18.6,8.5,36.1,7,55.5s-4.5,20.2-5,30.5c1.4,0,2-2.8,2.5-4,6.4-15.8,8.6-34.5,7.5-51.5s-5.6-27.2-6.9-40.1-.9-3.6.9-3.4c4.2,14.1,10.6,27.7,14.7,41.8,7.1,24,9.6,50.7,8.3,75.8s-2.2,12.4-2,18.5c4.8-3.7,5.7-9.9,8-15,0,.7,0,1.3,0,2-2.9,24.6-12.1,37.8-22,59-6.3,6.7-11.9,16.2-15.9,24.6s-8.1,19.4-8.1,23.9v17.5c-1.7-.3-1.7-2-2.3-3.2-10.9-25.5-8.4-41.7-1.7-66.8l2,3.5,8-13.5c1,10-4.5,21-5,30.5s1.2,2.3,2,1.5,2.6-8.4,3.8-10.7c3.5-6.6,9.1-14.4,13.4-20.6s13.5-12.9,11.3-21.7c-3.7,5-4,11.1-10.5,13,2.5-14.7.3-11.2-6-2-.7-8.7,5.9-16.6,7.8-24.7s1-3.5-.8-3.3l-25,43c.3-1,0-2.5.5-4,1.3-4.2,5.1-10,3.5-14,8.6-19.1,15-31.4,20-52s3.3-8.9,3.9-15.6,1-4.1-1.4-3.4-2.7,16.1-3.5,19c-1.2,4.5-3.4,8.7-5,13-.9-2.4-2.7.2-3.5,1-7.5,6.9-9.1,13.5-14.5,21.2s-2.1,2.6-2.9,2.8c.4-7.4,6-13.2,8-19.4s.7-5.2,1.4-7.6c1.4-5.2,6.2-7.4-1.4-10.9,7.6-15.6,13.4-34.9,12-52.5s-3.4-13.6-4-20.5Z"/>
  <path class="st2" d="M279,865l26-47c-1.3,15.9-4.6,31.6-6,47.5s-1.7,21.9-2,32c-.8,24.7,1.6,49.3,2.9,73.9-1.5,4.4-16.8-1-20.2-2.5s-4.9-2.4-7.1-3.9l-12.5-13c-.7-31.1,9.9-58,19-87Z"/>
  <path class="st4" d="M505,886c-1.4,2.7-5.5,18.3-7,23-47.4-2.4-94.3-10-141-18,1.7-7.8,3.8-15.3,6-23,13.4,3.2,27.1,5.6,40.8,7.7,33.4,5.2,67.4,8.9,101.2,10.3Z"/>
  <path class="st4" d="M494,921c-2.3,7.7-4.9,16.3-7,24-40.6-3-81.2-7.7-121.2-15.3-1.9-.4-3.7-1.5-4.8-1.7l3-24c42.9,8.3,86.5,12.5,130,17Z"/>
  <path class="st1" d="M373,710c-23.7-18-28.6-50.5-11.4-75.9,9.9-14.7,25.4-23.7,35.2-38.8,5.2-8,10.6-20.3,11.2-29.8s-.3-2.8-1.1-.1-.9,3.5-1.7,5.3-1.7,4.8-3.2,5.3c1.5-11.8,3.8-23.3,0-35l-4.7,23.8c-5.2,17.2-15.3,31.5-26.3,45.4s-2.5,3.5-2.9,2.3c6.8-13.2,16.5-26.4,19.8-41.2s1-3.5-.8-3.3c-12.6,27.6-36.6,46.9-42.7,77.8-1.2,6-2.7,15.2-2.3,21.2-4.1-12.7-1.2-27,3.3-39.2,7.1-19.4,22.6-33.9,31.9-52.1s14.7-51.2,11.8-78.7c5.8,5.4,10.3,12.1,15.5,18s9.1,7.9,10.6,10.4c5,8.7,2.6,34.3,0,44.2-11.7,45.2-68.6,52.7-52.4,111.1s7.7,19.3,10.3,29.2Z"/>
  <path class="st3" d="M353,579c-1.7,4-4.4,8-7,11.5.1.9,2.3.6,2.8.3,1.7-1.1,9.1-14.3,10.4-17.1,3.8-8.3,6.6-16.7,7.8-24.7l1-1c.2-.4.9-.7,1-1,2.8-6,2.9-11.5,4-18,1.7-.2.9,2.3,1,3.5,1.5,38.3-17.1,53.9-29,86.5s.1.7,0,1l-1,1c-9.5,28.6-8.8,39.7,1,68-.2,6.9-2.1,20.2-9,23.5s-.8-7.1-.2-11.2c2.2-15.3-5.8-23.6-9.5-37s-2.3-33.1.7-49.2l-5,3c10.3-30.8,31.8-57.6,34-91s-.2-9.4,0-14c.5-11.2.6-22.3,1-33.5s-.8-3.7,1-3.5c7.4,26.1,10.1,51.8,2.9,78.4-1.8,6.7-5.4,18.4-7.9,24.6Z"/>
  <path class="st4" d="M518,853c-2.8,7.2-5.3,14.7-8,22-45.1-1.4-89.7-8.6-134-16l7-22c20.1,4.1,42.2,7.4,62.6,9.9,24,3,48.3,5,72.4,6.1Z"/>
  <path class="st3" d="M300,227l2.5-4,4.5-13c-2.2,15-3.9,29.7-3,45,1.8-.3,1.7-2,2.1-3.4,2.5-8,3.3-17.5,5.9-25.6l2,12.5c.2,2.3,0,4.7,0,7s-1,4,2,3.5c0,.6,0,1.4,0,2-.5.1-.9.5-1,1-2.7,18.7,1.1,46.2,1,66-2.2,7.9-2.5,16.3-4.3,24.2-11,48-58.1,103.6-36.7,152.8-1.7-1-3.2-2.5-4.5-4-19.7-22.6-11.9-64.8,2.5-88s4.7-6.6,7-9c.5,10-5.1,16-6,23.5s-.1,1.7,1.5,1.5c12.8-18.8,18.9-40.7,27.4-61.6l-.4-2.4-9.5,12c0-.5,0-1,0-1.5.2-4.8,10.2-26,12.3-33.7,4-15.1,4.5-29.6,3.7-45.3s-2.2-23.5-3.5-23.5c-1.9,3.8-1.6,8.4-1.5,12.6.5,19.5,6.1,29.5.8,49.7s-7.8,23.1-12.3,28.7-2.6,3.4-5.4,3.1c21.8-48,7-82.5,13-130ZM303.5,353v1c.6-.3.6-.7,0-1Z"/>
  <path class="st4" d="M556,761c-2.7,6.3-5.3,12.7-8,19-49.4-1.6-98.3-9.2-147-17,2.8-7.1,6.2-14.1,9-21,47.7,11.9,96.8,16.8,146,19Z"/>
  <path class="st1" d="M353,579c2.5-6.1,6.1-17.8,7.9-24.6,7.1-26.6,4.5-52.3-2.9-78.4-1.7-.2-.9,2.3-1,3.5-.4,11.2-.5,22.3-1,33.5-2.3,3.5-1.6,8.2-2,12-2.3,5.1-3.2,11.3-8,15-.1-6,1.7-12.5,2-18.5,1.2-25.1-1.2-51.7-8.3-75.8s-10.6-27.7-14.7-41.8c-1.8-.2-1,2.2-.9,3.4,1.2,12.9,6,26.6,6.9,40.1s-1.1,35.7-7.5,51.5c-.5,1.2-1,4-2.5,4,.4-10.3,4.2-20.3,5-30.5,1.5-19.4-2.9-36.8-7-55.5-1.7-.2-.9,2.3-1,3.5-.2,4.2-.3,9.4,0,13.5-4.6-11.1-8.2-25.4-9-37.5-1.3-18.8,6.4-39,10.1-58s0-3.1,2-3.5c3.7,22.9,4,46.6,10.5,69s22.6,42.7,29,70c8.1,34.5,11.7,73.5-7.5,105Z"/>
  <path class="st3" d="M576,311c5.7,9.3,8,17.9,11.5,28,.6,1.6-.2,3.5,2.5,3,.2,1.9.9,4.8,1,6,.3,5.8-7.8,22.1-11.6,26.9-5.1,6.5-25.3,22.4-33.2,23.8-9.5,1.8-17.2.9-16.3-10.3.4-4.1,8-19.6,10.2-24.8s3.8-4.2,4.5-7.5-.9-7.7-.7-8.7c.5-2.3,3.5-.5,4.9-1,2.9-1.2,4.6-8.9,6.2-11.9,5-9.1,10.7-19.8,20.8-23.7Z"/>
  <path class="st4" d="M531,822c-2.7,6.6-6.6,13.8-9,20-45.4-1.7-90.3-8.7-135-16l7-22c44.4,10.9,91.4,15.2,137,18Z"/>
  <path class="st1" d="M448,537c2.6,31-5.6,57.3-26,80.5s-37.2,29.2-49.5,49.5l-6.5,15c-.8-5.5-2.8-10.8-3.1-16.4-1.5-36.8,32.5-50.5,48.5-78.6,10-17.7,10.8-37,8.6-56.9,9.2,3.9,17.4,8.5,28,7ZM372,652c18.1-20.1,40.9-28.1,54.8-52.7,4.6-8.2,8.6-17.9,9.2-27.3l-9.6,15.9-18.4,23.6-6,5c6.1-9.6,14.1-19.1,16.5-30.5-4.5,5.9-8.3,12.2-13,18-12.4,15.2-31.4,26.8-33.5,48ZM420,585c.7-1.4-.6-2.7-1-2-.7,1.4.6,2.7,1,2Z"/>
  <path class="st4" d="M570,729c-2.9,6.7-6.1,13.3-9,20-33.8,0-67.9-2.9-101.2-8.3-12.2-2-24.7-4.4-36.8-6.7l6-19c46.2,10,93.8,13,141,14Z"/>
  <path class="st4" d="M543,791c-2.7,6.6-5.3,13.4-8,20-46.3-1.3-90.9-8.6-136-18l7-18c11.1,2.3,22.5,4.2,33.7,5.8,34.2,5.1,68.8,8.6,103.3,10.2Z"/>
  <path class="st3" d="M477,991c-1.3,6.6-2.9,13.4-4,20-42.2-3.4-84.4-8.2-126-16,0-7.1.8-14.3,1-21,42.7,7.4,85.6,14,129,17Z"/>
  <path class="st1" d="M305,577c-.6,2-.6,3.5-1,5-6.7,25.1-9.2,41.3,1.7,66.8s.5,3,2.3,3.2v-17.5c0-4.4,6-19.1,8.1-23.9,3.9-8.5,9.6-17.9,15.9-24.6-14.3,30.7-32.9,68.8-5,98-2.7-6.4-6.5-12.3-8.4-19-5.3-18.2-2.3-29.9,3.5-47l5-3c-3,16.1-5.1,33.1-.7,49.2s11.7,21.8,9.5,37-7.7,15,.2,11.2,8.9-16.6,9-23.5c.9,2.7,3.9,5.8,4,9.5.3,12.1-14.6,26-26,27.5,2.1-5.7,5.4-9,6-15.5,2.4-25.2-21.5-35.2-34.4-52.6-5-6.8-11.8-18.1-14.6-25.9,2.4-4.7-.1-10.3,0-15.5s1.9-16.3,3.8-22.2.7-4.2,2.3-4.2c-3,15.8-2.4,38.2,4.5,53s3.4,7.7,5.6,3c.5,1.1,2.7,6.7,3,7,4.7,4.7-1.6-10.2-1.7-10.8-9.6-33.5-1.7-53.4,11.7-83.2,1.5,4-2.3,9.8-3.5,14s-.2,3-.5,4ZM301.5,654v1c.6-.3.6-.7,0-1ZM302.5,656c-1,.7.5,1.4,1,2,1-.7-.5-1.3-1-2Z"/>
  <path class="st4" d="M484,956c-1.8,7.4-3.4,15.5-5,23-1,0-2,0-3,0-5.3-2.9-12.8-5.1-18.8-6.7-30.2-8.1-48-4.1-77.2-5.3-5.7-.2-11.4-1-17-2-2.6-7.6-2.5-16-3-24,24.3,4.8,50,8,74.6,10.9,16.4,1.9,32.9,3.5,49.4,4.1Z"/>
  <path class="st1" d="M502,217c15.5,14.8,28.1,30.9,47.1,42.4,3.3,2,8.1,5.9,11.9,5.1-8.9-6.6-17.5-13.8-25-22-1.2-1.3-7.7-8.5-8-9-.5-1.2.2-1.9,1.5-1.5,14.1,13,28.6,27.5,47.5,33-8.5-7.3-17-14.7-24-23.5-6.7-8.4-19.4-31.9-26-36.5s-.8-.8-1-2,.1-2.7,0-4c15.8,21.6,30.5,43.7,55,56.5,17.4,9.1,37.9,14.3,57.4,16.6l.7,2.4c-16.4,7.2-31.9,13.5-50.1,10-35.2-6.7-68-38.7-86.9-67.6Z"/>
  <path class="st3" d="M669,416c0,.3,0,.7,0,1s-.8,1.1-1,3c-.5,4.4-1.6,8.6-2,13l-5,28c-.1-1-1.1-5.8-3-4s-1.1,8.3-1.5,10.1l-3.5,10.9c-2.5-13.4-.4-27.2.9-40.6s.9-3.6-.9-3.4c-8.3,28.6-6,60.1,4,88,1.6.4.6-1.3,1.3-1.7,1-.6,2.6-.2,2.7-.3.6-.5-4.7-12.9,0-15,2.1,21.9,8.1,31.6,14,51s-1.3,3.6,2,3c.1.3-.1.7,0,1s.6.8,1,1c.6.8.7,1.5,1,2-.9,5.9,5.1,8.8,6,14-3.8,3.5-16.4-16.3-18.2-19.3-16.6-28.1-24.7-64.1-22.8-96.7,1.2-20.7,8.8-43.2,12-64l1-3c0-.3,0-.7,0-1l3.7-11.8,3.3-24.2c3.2,18.7,6.5,39.9,5,59Z"/>
  <path class="st5" d="M595.7,668.6l1.3-1.6c-1.7,4.1-4.9,15.1-7.5,17.9-2.7,3-19.9,11.5-24.5,13.5-34.8,15.5-90.9,24-118.9-8-1.3-1.5-9-12-9-12.9,0-1.3,4.8-10.5,5.5-10.5,32.9,57.2,109.3,29.5,153.2,1.6Z"/>
  <path class="st3" d="M342,667c-.4-6,1.1-15.2,2.3-21.2,6.1-30.9,30.1-50.2,42.7-77.8,1.8-.3,1,2.3.8,3.3-3.3,14.8-13,28-19.8,41.2.4,1.2,2.8-2.1,2.9-2.3,11-13.9,21.2-28.2,26.3-45.4l4.7-23.8c3.8,11.7,1.6,23.2,0,35,1.5-.5,2.5-3.8,3.2-5.3s1.1-3.5,1.7-5.3c.9-2.6,1.3-2.4,1.1.1-.6,9.5-6,21.8-11.2,29.8-9.8,15.1-25.3,24.1-35.2,38.8-17.2,25.4-12.3,57.9,11.4,75.9.9.7,2,1.3,3,2v3c-18.3-6.7-32.8-28.6-34-48ZM362.5,618v1c.6-.3.6-.7,0-1ZM361,620c-2-.5-3.6,2.8-4.4,4.1-3.4,5.9-6.2,14.1-5.6,20.9l8.8-19.7,1.2-5.3Z"/>
  <path class="st5" d="M440,657c-2.6-5.2,0-10.5-8.3-8.8-10.8,2.2-45.5,28.9-51.6,38.4s-3.3,11.7-3.2,18.3c-2.8-4.5-5.8-9.3-4.8-15.3l28.4-41.6c29.7-12.3,47-39,70.9-59.1,3,14.5-8.2,24.6-14.7,36.3s-12.1,21.9-16.8,31.7Z"/>
  <path class="st3" d="M295,259c2.5,55.2,3.7,71.3-24,120-1.9-1-.7-3.3-.3-4.8,1.4-5.1,4-10.3,5.6-15.4,4.3-14,8.5-29.1,8.7-43.8l-5.7,22.8c-5,16.3-12.3,31.7-19.3,47.2l-1-13c3.7-14.6,8.4-29.4,12-44,2.1,2.7,1.8,0,2.3-1.2,6.5-15.9,9.2-32.7,12.4-49.6s1.9-18.6,3.9-19.1,3.8,1.4,5.4.9Z"/>
  <path class="st1" d="M685,395c.3-12.9-1.3-28-5.1-40.4-.4-1.1-.4-3.7-1.9-3.6,2.6,6.8,0,54.2-4.5,56l-1.5-2c.7,4-.4,7.4-1,11h-2c1.5-19-1.8-40.3-5-59l-3.3,24.2-3.7,11.8c1.9-14,2.2-28.4,2-42.5-.2-15.9,2.2-17.9,4.6-32.3,1.1-6.4,1.4-12.7,1.8-19.2,15.8,22.9,22.5,51.8,22.5,79.5l-3,16.5Z"/>
  <path class="st1" d="M300,227c4.7-36.7,26.2-73.7,68.5-70,2.1.2,7.4,1,8.5,3-6.8,1.5-13.1.6-20,2.5s-12.7,6.4-18,11.5-8.5,7.4-7,9,6.9-7,8-8c3.8-3.5,12.9-8.6,17.9-9.6s3.3-1.3,3,.5c-1.6,0-2.8.6-4.1,1.4-28.3,17.3-36.8,50.7-40.8,81.7-3,.6-1.9-1.5-2-3.5s.2-4.7,0-7l-2-12.5c-2.6,8.1-3.3,17.6-5.9,25.6s-.3,3-2.1,3.4c-.9-15.3.8-30,3-45l-4.5,13-2.5,4ZM332,184c-1.9-1.9-2.7,3.3-3,5,.4,1,3.6-4.4,3-5Z"/>
  <path class="st5" d="M423,734c12.1,2.3,24.6,4.8,36.8,6.7,33.4,5.3,67.4,8.3,101.2,8.3-1.6,3.8-3.3,8.1-5,12-49.2-2.2-98.3-7.1-146-19,1.3-3.2,2.6-6.7,4-10,3.4-.8,5.9,1.4,9,2Z"/>
  <path class="st5" d="M548,780c-1.6,3.8-3.6,7.6-5,11-34.5-1.5-69.1-5.1-103.3-10.2s-22.6-3.5-33.7-5.8-5.5-1-8-2c1-2.5,1.7-6.6,3-10,48.7,7.8,97.6,15.4,147,17Z"/>
  <path class="st1" d="M326,280c-1.5.6-6.7,5.3-7,5-.4-41.8,5.9-105.6,53.2-120.3,6.3-1.9,10.6-.9,16.1-1.9s7.4-6.7,10.5-1,5.6,19.9,8.5,27.5c9.9,26.7,25.8,52.7,49.8,68.7-.4,1.5-3.6,2.3-5,3-18.8-14.8-34.6-34.3-44.2-56.3-3.5-7.9-8.5-29.8-12.4-34.6s-17-1.2-22.8,1.1c-38.9,15.5-46.9,72.1-46.6,108.9Z"/>
  <path class="st5" d="M387,826c44.7,7.3,89.6,14.3,135,16-1.3,3.3-2.6,7.5-4,11-24.1-1.1-48.4-3.2-72.4-6.1-20.4-2.5-42.6-5.8-62.6-9.9-2.9-.6-5.9-1.9-9-2,1.3-3.7,2.9-6.8,4-10,3,0,6.1.5,9,1Z"/>
  <path class="st5" d="M376,859c44.3,7.4,88.9,14.6,134,16-2,5.3-2.9,7-5,11-33.8-1.4-67.7-5.1-101.2-10.3-13.7-2.1-27.4-4.5-40.8-7.7,1.1-3.7,3.3-7.7,4-10,3.1-.3,6,.5,9,1Z"/>
  <path class="st5" d="M399,793c45.1,9.4,89.7,16.7,136,18-1.4,3.5-2.5,7.3-4,11-45.6-2.8-92.6-7.1-137-18-2.6-.6-5.2-2.1-8-2,1.3-3.4,2.7-6.7,4-10,2.8.1,6.3.4,9,1Z"/>
  <path class="st1" d="M314,484c-2.4-.7-1.8-2.7-2-4.5-1.1-8.5-1-17.1-3.7-25.3l-9.3-18.2v14.5c0,4.9,4.5,15,5.5,20.5s.6,3.3.4,5c-4.3-4.5-7.7-11.2-10-17-1.8,0-1.1,4.3-1,5.5.2,2.8,1,6.9,2,9.5-7.5-7.4-14.4-24.9-13.8-35.3s17.2-42.2,21.5-49.5,1-2.2,2.2-2.3c-2.2,28.9,14.6,53.4,11.9,82.4s-2.5,9.9-3.9,14.6Z"/>
  <path class="st5" d="M498,909c-1.3,4-2.8,8.1-4,12-43.5-4.5-87.1-8.7-130-17-2.7-.5-6-2-9-2,.7-3.7,1.2-7.3,2-11,46.7,8,93.6,15.6,141,18Z"/>
  <path class="st5" d="M468,710c10.3,1.8,19.4,5.5,30.5,6s13.9-1.2,20.5-1,10.4,2,13.5,2h26c.4,0,1.7,1,3,1,4.2.2,8.4-.2,12.5,0-1.3,3-2.3,7.2-4,11-47.2-1-94.8-4-141-14-2.2-.5-4.6-1.8-7-2,1.4-3.3,2.6-6.6,4-10,13.8,3.5,28.1,4.6,42,7Z"/>
  <path class="st5" d="M757,762c-11.6,28.3-22,64.5-26.8,94.7-4.2,26.5-4.1,52.7-1.2,79.3-8-11.4-15.4-24.6-21.2-37.3-5.7-12.5-11.8-27.1-13.8-40.7,7.2,4.8,14.9,20.3,21,27.3l3,.7c6-41.9,16.1-83.9,36.2-121.4.8-1.4.4-3.2,2.8-2.6Z"/>
  <path class="st1" d="M345,619c11.9-32.6,30.5-48.2,29-86.5,0-1.2.8-3.7-1-3.5-1.1,6.5-1.2,12-4,18,3.2-29-.5-57.1-8-85l23.5,29.9c4.7,24.6,2.9,53.6-7.4,76.7-8.1,18.2-22.5,33.1-32.2,50.3Z"/>
  <path class="st5" d="M361,928c1,.2,2.8,1.3,4.8,1.7,40,7.6,80.6,12.3,121.2,15.3-.9,3.5-2.2,7.6-3,11-16.4-.6-33-2.2-49.4-4.1-24.6-2.9-50.4-6-74.6-10.9s-6.9-2.5-10-3c.3-3.8.5-7.2,1-11,3.1.7,7.2.5,10,1Z"/>
  <path class="st1" d="M708,399l2.1,22.4c3.8,21.8,7.9,44.6,21.4,62.6-1.3-14.6-5.3-29.2-4.5-44l12,45c1.6-.2,1.9-4.3,2-5.5,1.7-20.3-2.9-41.3-4-61.5,1.1,4.9,2.8,9.7,3.7,14.8,4.6,25.2,5.4,49.6,3.3,75.2-.7,1.9.2,5.7-3,5-5.6-12.6-19-21.9-26.4-33.1-16.5-25.2-9.9-53.5-6.6-80.9Z"/>
  <path class="st1" d="M590,342c-2.7.6-1.9-1.4-2.5-3-3.6-10.2-5.8-18.7-11.5-28-11.1-18.2-16.9-12.8-35.2-16.3s-26.6-5.2-38.2-8.8-24.6-11.1-29-11c-11.5.3-20,15.8-24,25.1s-5.1,18.8-7.6,22.4-3,1.7-5.3.5c-10.2-5.4-6.8-24.9-3.6-33.9,8.7-3.2,35.4-18.3,42.4-17.9s15.6,6.7,20.6,8.4c19.5,6.5,39.4,5.6,58.9,10.1,10.4,2.4,12.3-.1,20,9s13.5,30,15,43.5Z"/>
  <path class="st5" d="M363,965c5.6,1,11.3,1.8,17,2,15.5,3.9,31.7,6,47.6,7.9,15.3,1.8,33.2,4.1,48.4,4.1s2,0,3,0c-.8,3.9-1.2,8.1-2,12-43.4-3-86.3-9.6-129-17,.1-4-.2-8,0-12,5.1.6,10,2.1,15,3Z"/>
  <path class="st1" d="M453,165c24.2,18.7,38.5,47.3,58,70.5,20.6,24.5,47.3,46.6,80,51.5.2,1.7-2.3.9-3.5,1-31.1,1.2-46.8-5.5-72.5-21l-1-1c-.5-.3-1.3-.5-2-1,2.7-1.3-.4-2.5-1.3-3.2-8.2-7.2-23-20.8-29.3-29.2s-4.6-8.2-6.4-11.6c17.7,19.3,36.1,39.7,59.5,52l-16.5-14c1,.5,5.8,2.2,7,1.5-11.1-11.7-21.6-24.4-31-37.5s-20.7-31.6-32-46c-2.9-3.7-5.7-8.4-9-12Z"/>
  <path class="st1" d="M567,215c16.8,11.6,33.5,24.5,53,31l-21-24.5c-.3-2.9,2-1.1,3.3-.3,8,5,16.2,13.4,24.2,18.8-2.2-8.8-11.1-17.1-13.4-25.6s1.3-1.9,1.9-1.4.6,2.1,1.4,3.1c13.2,17.4,31.2,35.7,42.7,53.3,5.9,9,8.7,21.3,13,31.5-6.1-7.4-11.5-16.5-18.5-23-15-14-37.6-22.5-54.8-34.2s-21.8-18-31.7-28.8Z"/>
  <path class="st5" d="M473,1011c-.6,3.7-.2,8.5-2,12l-123-16c-.2-4.2-1-8-1-12,41.6,7.8,83.8,12.6,126,16Z"/>
  <path class="st1" d="M496,68c6.7.8,17.2,3,24,4.5s13.5,2.9,19,6c-6.5,0-13-2.2-19.5-2.5s-10.1.3-15,0l-7.5,2c17.2,1.4,38.2,6.4,53,15.5s3.4,1.7,4,3.5c-19.1-6.2-37.8-10.3-58-11l26.9,13.6c4,3.6,11.1,6.2,13.1,11.4-25-16.7-52.7-24.3-82.5-23-2.5.1-4.9,1.2-7.5,1,10.5-10.2,35.2-22.7,50-21Z"/>
  <path class="st3" d="M636,446c-4.1.7-1-6.6-2-8l-2,1-1-6c-4.1,17-8,34.9-5.9,52.4s3.2,17.9,3.9,18.6c1.4,1.5,1.8,0,2-1.5.5-3.8-2.2-11.2,4-10.5.7,8.8,1.8,17.7,3,26.5.4,2.8-1,2.7,3,2.5,2.5,11.7,9.1,26.5,16,36,2.8,10,11.1,17.4,16.5,26-20.9-17-36-37.8-44.5-63.5-12-36.2-8.1-74.1,1.8-110.2l11.2-19.3c.7,19-4.3,37.4-6,56Z"/>
  <path class="st3" d="M272,563c1.8,1.3,2.7,1.2,4.5,0,4.1-2.5,10-11.1,14.5-14.6s1.3-1.9,3-1.5c1.4,2.6-3.1,11.8-2,13s5.4-2.2,6,.5-3.1,5.4-3.7,7.3c-2.1,5.9-4.3,13-4.3,19.2,2.8.5,1.6-.7,2.2-2.2,1.4-3.5,2.1-7.2,3.3-10.7l5.4-7.1c-9.7,27.2-16.6,50.5-5,79-2.1,4.8-4.5-.6-5.6-3-6.9-14.8-7.4-37.3-4.5-53-1.5,0-1.9,3-2.3,4.2-1.9,6-3.7,16-3.8,22.2s2.5,10.9,0,15.5c-6.3-17.6-5.4-37.1,1-54.5s5.4-10.7,7-16.5c-1.2-1.3-9.9,9.2-11,10.5-11.7,14.6-19.7,31.3-17,50.5l-2.9-8.6c-2.1-21.9,3.2-33.3,14.9-50.4ZM287,589c.7-1.4-.6-2.7-1-2-.7,1.4.6,2.7,1,2Z"/>
  <path class="st4" d="M334,144l8,.5c-2.7,2.8-17.1,11.7-18,14s0,1,0,1.5l6-1.5c-4.9,3.6-8.1,6.4-11.8,11.2s-11.6,16.9-14.2,24.3.1.7,0,1l-6,4,1-6c-2.3-3-9.5,24.6-9.7,26.8-.7,5.9-2.9,20.3,5.7,19.2-.4,6.2-.3,13.8,0,20-1.6.5-4.4-1.1-5.4-.9-1.9.5-3.3,15.8-3.9,19.1-3.2,16.9-5.9,33.7-12.4,49.6s-.1,3.9-2.3,1.2c9.2-37.3,10.5-67,14-104.5,3.2-33.7,18.1-63.7,49-79.5Z"/>
  <path class="st3" d="M755,532l-1,.5,1,.5c0,.7,0,1.3,0,2,.3,5.2-.4,7.6,1.7,13.8,8.7,25.7,32.5,40.1,42.3,65.2,0,.3,0,.7,0,1l1,2c.8,10.3-.4,20.7-6,29.5-1.2,1-2.3-1.3-3-1.5,6.3-19.3-2.4-41-13.8-56.7l-15.2-19.3c10,18.4,21.6,33,20,55.5,0,1-1,10.2-3,7.5-2.5-19.9-12.5-39.2-21.5-57-3.7-7.4-8.7-13.4-10.5-22,.1-4.3-.4-9.3,0-13.5.9-8.3,3.9-16.2,4.5-24.5l1.5-1c-1,6.1,1.8,12.2,2,18Z"/>
  <path class="st4" d="M287,357c2.8.3,3.9-1.2,5.4-3.1,4.5-5.6,10.4-21.5,12.3-28.7,5.3-20.2-.3-30.2-.8-49.7-.1-4.2-.4-8.7,1.5-12.6,1.2,0,3.4,21.2,3.5,23.5.8,15.7.3,30.1-3.7,45.3s-12,28.9-12.3,33.7,0,1,0,1.5l9.5-12,.4,2.4c-8.6,20.9-14.6,42.8-27.4,61.6-1.6.2-1.7,0-1.5-1.5.9-7.5,6.5-13.5,6-23.5s.3-4.9-2-3-5,9.2-6,11-3,4.2-4,6c-4,1.3-6.3,5.4-8,9s-.8,1.4-1,2l-5-3c8.6-21,23.7-38.4,33-59Z"/>
  <path class="st5" d="M630,605c2.8-8,4.5-16.4,7-24.5s-.3-2.2,1.5-1.4c3.1,1.3,12.2,10.1,16.2,12.8,11,7.5,23.2,14.2,36.2,17.3.5,7-.5,13.9-.9,20.9-11.8-5.5-21.9-14.1-33.3-20.2s-16.7-9.5-26.7-4.8Z"/>
  <path class="st4" d="M310,507c7.6,3.5,2.8,5.7,1.4,10.9s-.5,4.9-1.4,7.6c-2,6.2-7.7,12-8,19.4.8-.2,2.5-2.2,2.9-2.8,5.5-7.8,7.1-14.4,14.5-21.2s2.7-3.4,3.5-1c-1.1,3-1.7,6.1-3.1,9.4-3.1,7-8.2,13.3-10.9,19.6-4.3,3-4.4,8.8-6,13s.1.7,0,1-.8.4-1,1,.1.7,0,1-.8.3-1,1,.1.7,0,1l-5.4,7.1c-1.2,3.5-1.9,7.2-3.3,10.7s.6,2.7-2.2,2.2c0-6.2,2.2-13.3,4.3-19.2s3.8-6.7,3.7-7.3c-.6-2.8-5.5,0-6-.5-1.1-1.2,3.3-10.4,2-13-1.7-.5-2,.7-3,1.5-4.5,3.5-10.3,12.1-14.5,14.6s-2.7,1.2-4.5,0c12.6-18.4,28.1-35.7,38-56Z"/>
  <path class="st1" d="M747,553c1.8,8.6,6.8,14.6,10.5,22,8.9,17.8,18.9,37.1,21.5,57,2.1,2.7,3-6.5,3-7.5,1.6-22.6-10.1-37.1-20-55.5l15.2,19.3c11.4,15.8,20.1,37.4,13.8,56.7-7.3-2.3-13.7-5.5-20.9-8.1.8-17-3.4-33.8-10.3-49.2-3.8-8.6-14.1-21.7-13.9-30.2s1-3.7,1.1-4.4Z"/>
  <path class="st1" d="M316,318c-.1,15.4-1.5,28.9-5.7,43.8-13.1,45.8-63.5,100.6-18.8,145.3s10.4,4.9,7.8,10.7-2.9,2.7-3.2,3.2c-3.3-.6-3.4-4.8-8-4-2.4-10.2-9.7-14.4-13-22-21.4-49.2,25.7-104.8,36.7-152.8,1.8-7.9,2.1-16.3,4.3-24.2Z"/>
  <path class="st1" d="M543,191c7,9.6,15.5,20.2,23.5,29,18.6,20.6,41.8,34.8,66.5,47,.2,1.8-2.3,1-3.4.9-30.6-3.3-58.3-17.9-77.6-40.9,7.3,4.8,13.7,10.8,21.3,15.2s8.4,4.5,12.1,5.9,3.7,2,3.5,0c-18.5-11.4-34.3-32.1-44.2-51.3-.9-1.8-2-3.5-1.8-5.7Z"/>
  <path class="st1" d="M404,506c6.9,5.8,13.7,16,22.8,19.7,29.8,12.2,68.3-18,91.1-35.3,28.5-21.6,49.6-38.4,63.6-72.4,2.8-6.9,4.4-15,8.5-21-4.5,13.7-7.2,28.7-13.8,41.7-14.6,28.7-88,83.9-119,92-23.3,6.1-40.9-5.7-53.2-24.7Z"/>
  <path class="st3" d="M738,408c2.2,1.2,2.9,4.5,3.7,6.8,3.8,10.5,7.1,22.2,8.3,33.2,1.3,1.7,1.8-.1,2-1.5.6-4.1-.8-8-1-12s-.7-6.2,1-6.5c4.6,14.5,6.1,28.4,7,43.5s1,1.4,1,1.5c.3,16.9-13.4,36.6-14,54-1.3.3-1.1-1-1.5-2-1.2-3.4-2.1-8.9-3.5-12,3.2.7,2.3-3.1,3-5,9.4-27.7,1.9-71.8-6-100Z"/>
  <path class="st4" d="M760,473c0,0-.9.2-1-1.5-1-15.1-2.4-29-7-43.5-1.8.3-1.1,5.2-1,6.5.2,4,1.6,7.9,1,12s-.7,3.2-2,1.5c-1.2-11.1-4.5-22.8-8.3-33.2s-1.6-5.5-3.7-6.8c-1.9-6.7-4.8-13.1-6-20,1.6.3,6.5,1.9,5.9-.4-2.1-8.1-5.3-16.2-7.7-24.3s-2.2-6.2-1.3-8.2c16,37.2,37,76,31,118Z"/>
  <path class="st1" d="M438,77c5-.8,13.6-2.1,18.5-2s2.9-.6,2.5,2c-8.3,2.1-15,10.8-21.6,14.9-7.4,4.5-13.6,5.3-20.4,12.6s-4.9,8.1-7,9c-4.3,2-7.6-1.9-11.1-2.9s-11.5-1.6-13.9-1.6c-.6-2.5,2.6-2.9,4.2-3.3,3.5-.9,7.2-1.3,10.8-1.7.2-2.7,0-1.6-1.5-2s-9.9-.6-7.5-3,19.8-2.2,24-1l-8-4c-.3-1.7,2.4-1.1,3.5-1,2.2.2,4.3,1.3,6.5,1,.5-3.8-5.7-2.8-8-3-2.3-1.5,14.6-4,16-3l-5-4c5.2-2.7,20.1,2.3,18-7Z"/>
  <path class="st4" d="M707,379l-3-2.4-3-14.6c-1.4,9.7-.2,19.8-1,29.5s-.3,4.5-2,4.5c-2.4-22.7-3.4-45.8-8.3-68.2-1.9-8.5-8-21.3-8.7-28.3s0-2.5,1.2-.2c4.4,8.6,7.9,17.6,10.8,26.7,2.5,0-.7-9.6,2.5-8,4.3,2.1,1.7,13.1,8.5,11,4.1,16.4,4.6,33.3,3,50Z"/>
  <path class="st1" d="M328,341c1.3,0,2.7,0,4,0l-.5,4c1.6-1.6,4.8-.5,6,1,1.8,2.2-1.1,2.1-1.5,3-3.2,6.3-.2,37.6,1.7,45.8,9.2,41.7,39.5,72.5,63.4,105.6,1.1,1.5,2.5,2.1,2,4.5-30-27.3-63.3-77.8-70.7-117.8-1.5-8.3-6.3-40.1-4.3-46.2-3.6-.2-1.5-3.5-3-7,7.8.9,4.1,3.6,3,7Z"/>
  <path class="st3" d="M718,490c7,6.2,15.6,15.4,19.5,24s5.5,14.4,5.5,16.5v26.5c-3-4.2-9.5-10.6-11-15-4.1-12.4-10.8-21.5-16.2-33.3-3.1-6.8-5.6-14-7.8-21.2l11.6,18.4,13.9,18.1c-3.5-10.9-9.6-20.9-15.1-31s-.2-2.6-.5-3Z"/>
  <path class="st3" d="M438,77c2.1,9.3-12.8,4.3-18,7l5,4c-1.4-1-18.3,1.5-16,3,2.2.2,8.5-.8,8,3-2.3.3-4.3-.8-6.5-1s-3.7-.7-3.5,1l8,4c-4.1-1.2-21.5-1.5-24,1s6.6,2.8,7.5,3c1.5.4,1.7-.7,1.5,2-3.6.4-7.3.8-10.8,1.7s-4.8.8-4.2,3.3c-10.8,0-20.5,3.2-31,5l18.7-12.8c19.4-11.4,43.1-20.6,65.3-24.2Z"/>
  <path class="st4" d="M574,718c-4.1-.2-8.4.3-12.5,0s-2.6-1-3-1h-26c-3.1,0-10.5-1.9-13.5-2,23.9-3.7,46.5-12.1,67.5-24-2.9,7.9-6.2,15.7-9.6,23.4s-2.7,3.3-2.9,3.6Z"/>
  <path class="st3" d="M379,141c-6.7,4.1-16.3.7-24,4-.3,1.3,1.8,1.6,2.7,1.7,1.9.3,9.5.5,10.3,1.3,3.3,3.2-11.6,1.9-10,6-.7,0-1.3,0-2,0l-.5-1-.5,1c-15,1.7-29.5,11.1-39,22.5-4.6,5.5-7.4,12.1-12,17.5,2.5-7.4,9.1-17.6,14.2-24.3s6.9-7.6,11.8-11.2l-6,1.5c0-.5-.2-1,0-1.5.9-2.3,15.3-11.2,18-14l-8-.5c12.7-6.5,31.7-9.3,45-3Z"/>
  <path class="st1" d="M484,252c-4.4-.7-9.8,2.9-13.7,1.3s-15.4-14.6-17.8-17.3c-12.2-14-20-30.2-27.5-47,2.1-.5,2.3,1.1,3.2,2.3,3,3.6,5.7,8.4,8.8,12.2,14.4,17.8,29.9,33.4,47,48.5Z"/>
  <path class="st1" d="M385,112c7.3.3,14.6,0,21,4.5-7.6,7.3-14.6,15.8-19,25.5-7.7-4.1-16.1-7.7-25-8-.6-3.2,1.6-1.7,3.5-2s13-1.6,13.5-2c2.7-2.6-5.4-2-6.4-2.1-1.6-.3-6-.5-6.6-1.9,4.7-2,11.7-1.7,15-6-3.7-.3-7.9.4-11.5,0s-3-.6-1.5-2,12.2-2.7,14.2-3.3,3.3-.2,2.8-2.7Z"/>
  <path class="st4" d="M279,451l7.5,18c6.2,11,17,21.1,17.6,34.5s-4.7,5.4-9.6.6c-14.1-13.8-19.6-33.8-15.4-53Z"/>
  <path class="st3" d="M314,484c-.8,2.7-1.2,5.6-2.2,8.3l-3.8,7.7c.3-10.2-9.1-18-12-26s-1.8-6.7-2-9.5-.8-5.5,1-5.5c2.3,5.8,5.7,12.5,10,17,.2-1.7-.1-3.4-.4-5-1-5.5-5.5-15.6-5.5-20.5v-14.5l9.3,18.2c2.6,8.2,2.6,16.8,3.7,25.3s-.4,3.7,2,4.5Z"/>
  <path class="st1" d="M271,379l-21,35c.4-13.1,4.3-26.3,7.5-39.1s1.4-2.4,1.5-2.9l1,13c7-15.5,14.3-30.9,19.3-47.2l5.7-22.8c-.2,14.7-4.4,29.7-8.7,43.8s-4.2,10.4-5.6,15.4-1.6,3.8.3,4.8Z"/>
  <path class="st1" d="M376,302c1.2,4,9.3,10.8,12,16,4.5,8.6,6.5,18.3,7,28-2.8.6-1.9-1.4-2.5-3-7.4-19.4-26.8-33.5-42.5-46,8.7,1.5,17.3,3.4,26,5Z"/>
  <path class="st4" d="M468,710c-13.9-2.4-28.2-3.5-42-7,3.1-7.3,5.4-15.1,9.5-22,7.9,13.1,18.8,22.2,32.5,29Z"/>
  <path class="st3" d="M615,492c3.1,18.8,4.2,30,12,48,1.6,3.6,4.8,12.3,7,15-5.1-5.7-9-12.3-12.2-19.3-12.1-26.7-17.4-57.8-13.7-87.1s.4-5.5,1.9-5.6c-.2,9.5,0,19,1,28.5.7,7.1,2.9,13.7,4,20.5Z"/>
  <path class="st4" d="M799,614c-9.8-25.2-33.6-39.6-42.3-65.2-2.1-6.2-1.4-8.6-1.7-13.8,4,7.1,6.4,14.9,10.6,21.9,12.8,21.2,29.4,29.6,33.4,57.1Z"/>
  <path class="st1" d="M436,271c-1.2,2-3.7,7.3-1,9,1-3.4,2.7-7.7,5.5-10s16.1-8.2,18.5-8.6,1.8-.3,2.7.3l10.3,7.3c-13.2,4.6-26.8,9.7-39.3,16.1-1,.5-.4,1.8-1.2,2l2.5-16c.5-.3.5-1.3,2,0Z"/>
  <path class="st1" d="M373,298c-13.7-1.8-28.8-7.7-42.5-8s-7.1,1.2-10.4,3c-1.8-2.6,4.4-8.8,6.9-9.6,6.1-1.9,26.8.2,32.8,3.3s4.4,4.7,6.4,5.7,5.6-.1,6.9,5.5Z"/>
  <path class="st4" d="M421,188c4.2,12,11.8,28.6,19,39-2.2,0-5.2-.6-6,2-10.1-13.5-12.5-18.4-19-34,2.1-2.5,2.1-6.9,6-7Z"/>
  <path class="st3" d="M295,239c-8.6,1.1-6.4-13.3-5.7-19.2s7.4-29.8,9.7-26.8l-1,6,6-4c-4.7,14.1-8.1,29.4-9,44Z"/>
  <path class="st1" d="M612,297c-.5-.5.9-1.6,1-.5s-.8.7-1,.5Z"/>
  <path class="st1" d="M615,287c0,2.1-1.2,2.7-2.7,3.8-6.1,4.4-14.7,8.1-22.3,8.2-.3,2.6,0,1.6,1.5,2,7.8,2.5,13.5-1.6,20.5-4-2.1,3.2-7.1,6.1-10.7,6.8-6.8,1.2-11.2-2.1-17.3-.8-1-1-9.9-10.3-9-11,13.2.2,27.2-1.3,40-5Z"/>
  <path class="st5" d="M373,720c1,2.7-2.5,5.5-2,7.4s8,1.3,9,4.6c-2.2,1-4.6,4.5-8,2.5-4-5.2-19.3-15.5-21.6-20.6s-.3-1.7,0-3c2.1-11.3,3.7-4,7.7-.6s12,8.7,14.9,9.6Z"/>
  <path class="st3" d="M360,941c.5,8,.4,16.4,3,24-5-.9-9.9-2.4-15-3,.4-8.1,1.3-16.1,2-24,3.1.5,7.3,2.5,10,3Z"/>
  <path class="st4" d="M368,113c.3,2.4-.3,3.1-2.3,4.2-4.8,2.8-11.9,4-16.7,7.3l8,1c-5.6,4.6-14,6.5-19.9,10.1s-3.4,2.6-1.1,3.4c-4.8,2-10.7,8-16,7.5,11.9-15.3,28.7-29,48-33.5Z"/>
  <path class="st3" d="M259,419c-5.4,12.9-5.2,20.6-4,34s1.6,8.7,1,13.5-.6,2.9-2,1.5-4.1-11.4-4.5-13c-3.7-15.3-1.1-25.2,4.5-39l5,3Z"/>
  <path class="st3" d="M603,654c.7.7-.2,2.5-1,3.5s-10.7,7.4-13.1,8.9c-8.2,5.3-18.5,11.6-27.9,13.6l23.1-21.4c2.5-.7,18.1-5.4,18.9-4.6Z"/>
  <path class="st2" d="M359,332c.2.1,0,2.3,2.2,3.3s4.6,1.2,6.1.8,1.8-8,4.2-7c8.9,3.5.2,14.3-9,14.1-16.3-.5-18.2-31.3,4.5-18.1l-7,2c-2.8-2.5-7,2.3-4,4.5s2.7.3,3,.5Z"/>
  <path class="st1" d="M326,294c-1,4.3-1.2,17.5,3,19.6s12.1-3.3,15.5-3.6,14.7-1.4,14.5,3c-10.3-2-18.5-1-27.2,5s-2.2,4.4-7.8,3l4,2.5-5,2.5c-.2-6.9-2.6-13.6-3-20.5s-1.7-10.5,6-11.5Z"/>
  <path class="st1" d="M642,278l-13.5,11c-3.2,2.4-2.2,5.2-2.5,7-.8,4.8-6.6,10.6-8.9,15.6s-2.9,10.3-6.1,15.4c-.6-7.5,4.7-13.7,5-21-5.5,3.1-6.2,11.2-13,13,2.3-9.4,5.8-7.8,11-14.5,7.9-10.1,11.6-25.2,28-26.5Z"/>
  <path class="st4" d="M349,322c-3.4,6.7-1.9,13.9,3.1,19.4l7.9,4.6c-9.7,1-22.9-2.1-25.6-13s9.5-10.5,14.6-11Z"/>
  <path class="st3" d="M660,310h-5c.2-1.2.8-2.3,1-4,.5-4.2.4-8.7-1.5-13-4.8-11-15.9-7.2-23.4-1.4s-2.4,4.5-5.1,4.4c.3-1.8-.7-4.7,2.5-7l13.5-11c4.4-.4,6.9,1.6,10,4.5,8.3,7.8,8.8,16.5,8,27.5Z"/>
  <path class="st1" d="M537,283c0,1.9-4.2,1-5.4.9-4.7-.5-9.6-2.4-14.1-3.9-9.6-3.2-20.4-8.2-28.5-14,3.5.3,9.9-2.3,13-1.6s14,8.9,17.9,11.1c5.2,2.9,11.3,6.1,17,7.5Z"/>
  <path class="st3" d="M364,904l-3,24c-2.8-.5-6.9-.3-10-1,1.1-8.9,2.3-16.2,4-25,3,0,6.3,1.5,9,2Z"/>
  <path class="st3" d="M440,227c5.6,8.1,17.5,20.5,25,27-.5,1.8-2.3,2.2-4,2-13.3-9.8-17.2-13.8-27-27,.8-2.6,3.8-2.1,6-2Z"/>
  <path class="st3" d="M383,837l-7,22c-3-.5-5.9-1.3-9-1,2.4-7.6,4.3-15.3,7-23,3.1,0,6.1,1.4,9,2Z"/>
  <path class="st3" d="M394,804l-7,22c-2.9-.5-6-1-9-1,2.7-7.5,5.1-15.4,8-23,2.8,0,5.4,1.4,8,2Z"/>
  <path class="st1" d="M586,653c-1,1-1.3,2.9-3.5,3-14.9,5.7-48.9,6.8-58.5,19-3,.5-1.7-1.1-2-3,4.7-4.5,8.8-6.6,15-8.5,15.5-4.9,33.1-6.9,49-10.5Z"/>
  <path class="st4" d="M607,647c-4.1-.8-8.6,4-12,1,9.1-9.7,16.5-21.1,24-32,2.1-.1,0,3.5-.2,4.3-3,7.8-7.7,19.7-11.8,26.7Z"/>
  <path class="st3" d="M406,775l-7,18c-2.7-.6-6.2-.9-9-1,2.4-6.4,5.6-12.9,8-19,2.5,1,5.3,1.4,8,2Z"/>
  <path class="st3" d="M429,715l-6,19c-3.1-.6-5.6-2.8-9-2,2.6-6.2,5.3-12.7,8-19,2.4.2,4.8,1.5,7,2Z"/>
  <path class="st1" d="M600,314l-2.5,11-4.5,12c-.6-9.4-4.5-18-7-27,4.1,3.3,8.7,4.5,14,4Z"/>
  <path class="st1" d="M595,386c.5-1-1.3-4,3.5-3.9s6.4,3,9.2,3.6c11.4,2.4,17.9-8.8,26.3-13.8-10.9,14.7-19.5,23.5-39,14Z"/>
  <path class="st3" d="M584,303c6.1-1.3,10.4,1.9,17.3.8,3.7-.6,8.6-3.6,10.7-6.8.2.2,1-.2,1-.5,0-1.1-1.5,0-1,.5-7,2.4-12.8,6.5-20.5,4s-1.8.6-1.5-2c7.6-.1,16.2-3.7,22.3-8.2s2.7-1.7,2.7-3.8c1.7-.5,4.6-2.9,7-2.5-9.1,10.1-11.6,28.9-29.3,25.3-4.5-.9-6-4.1-8.7-6.8Z"/>
  <path class="st1" d="M499,261l-14.3,2.8c-1.6-.2-6.9-4.2-8.4-5.5s-1.9,0-1.3-2.3c4.4.1,9-1.9,13.5-1s6.5,5.9,10.5,6Z"/>
  <path class="st3" d="M463,656c1,0,15,10,15.9,11.6s1.4,3.3,1.1,5.4c-4.4.6-5.3-2.7-9-5,1.2-3.6-5-5.1-8-6s-2.8.3-3,0c-.4-.5.3-3.8,0-5,1.1.5,2.8-1,3-1Z"/>
  <path class="st1" d="M465,254c3.7,3.1,8.6,6,12.3,9.2l18.7,11.8c-11.8-3.7-22.9-9.5-33-16.6s-1.6-2.1-2-2.4c1.7.2,3.5-.2,4-2Z"/>
  <path class="st4" d="M457,664c0,0,.5.9,1,1,0,1.2.9,2.2,1,3s-.1,1.4,0,2c1,4.4,3.7,9.4,3.5,14-5.6-4.7-8.7-9-12.5-15,3.7-.2,2.9-4.7,7-5Z"/>
  <path class="st1" d="M456,659c-1.5-1.1-3.3-1.4-5-2s-4.4-.6-3.9-2.4c.9-3.7,6.4-12.4,8.9-15.6-.9,5.9.8,12,1.1,17.6s-1.1,2.3-1.1,2.4Z"/>
  <path class="st1" d="M263,417c-1.9,4.3-4.6,13.3-5.5,18s-1,12.1-2.5,18c-1.2-13.4-1.4-21.1,4-34s.7-1.3,1-2h3Z"/>
  <path class="st5" d="M373,683c-1.7-.4.2-6.1.5-7,2.9-8.1,9.7-17.2,17-22-3.9,10.6-12.9,18.6-17.5,29Z"/>
  <path class="st3" d="M451,659c1.2.3,3,2.3,5,2,0,.2.9,2.9,1,3-4.1.3-3.3,4.8-7,5-2.6-4.1-10.4-13.3,1-10Z"/>
  <path class="st3" d="M522,672c.3,1.9-1,3.5,2,3-.3.4,1,3.5-2,3l1,1c-3.4,1.3-5.2-.4-9,0,2.4-2.8,3.4-5.9,5-9s1.3-5.1,4-6c.9,2.6-1.5,4.9-1.8,6.7s.7,1.2.8,1.3Z"/>
  <path class="st3" d="M288,517c4.6-.8,4.7,3.4,8,4-2,3.5-2.7,8.8-7,11,.1-5.3.2-9.8-1-15Z"/>
  <path class="st3" d="M607,647c-.6,1.1,0,2.3-2,3.5s-12.8,3.6-16,3c1.5-2.2,4.4-3.8,6-5.5,3.4,3,7.9-1.8,12-1Z"/>
  <path class="st1" d="M359,314c.7.2,6.5,3.3,8,4l-1,2c-3.3-1.7-9.9-3.5-13.6-3.9s-9,1.5-10.4-1.1c5.1,0,12-2.1,17-1Z"/>
  <path class="st3" d="M513,181c5.1,5.3,8.9,12.3,13,18,.1,1.3-.2,2.8,0,4-6.4-6-8.6-14.7-13-22Z"/>
  <path class="st5" d="M666,565l14,13.5c-6.4-1.4-10.7-8-15-12.5l1-1Z"/>
  <path class="st1" d="M396,156c-3.4-.4-5.4,1.2-8,3-.3-5.9,6.2-10.6,8-3Z"/>
  <path class="st5" d="M628,539c1.8,4.9,6.8,11.6,8,17,0,.1-1.9-.9-2-1-2.2-2.7-5.4-11.4-7-15l1-1Z"/>
  <path class="st5" d="M468,135l-1,1c-2.3-1.3-9.1-5.3-11-6v-1c.9.7,9,4.2,12,6Z"/>
  <path class="st3" d="M263,417h-3c1.7-3.6,4-7.7,8-9-1.4,2.6-4,6.7-5,9Z"/>
  <path class="st5" d="M359,313c3.6.7,10.4,1.7,11,6-1.4.4-2-.6-3-1-1.5-.7-7.3-3.8-8-4v-1Z"/>
  <path class="st4" d="M360,327l-1,5c-.3-.2-2,.1-3-.5-3-2.2,1.1-7,4-4.5Z"/>
  <path class="st5" d="M340,175c-1.1,1-6.5,9.5-8,8s5.9-7.9,7-9l1,1Z"/>
  <path class="st5" d="M463,662c3,.9,9.2,2.4,8,6-2.1-1.3-5.8-3.1-8-4v-2Z"/>
  <path class="st4" d="M380,336l1,5h-6c-.3-.2,3.2-6.3,5-5Z"/>
  <path class="st5" d="M592,154l-1,1c-1.9-2.4-5.1-4.8-7-8,2.7,2.4,4.8,3.8,8,7Z"/>
  <path class="st1" d="M376,712c2.1,1.4,3.7,3.3,6,4.5-2.4,2.2-4.7-1-6-1.5v-3Z"/>
  <path class="st5" d="M456,659c0,.7,0,1.4,0,2-2,.3-3.8-1.7-5-2v-2c1.7.6,3.5.9,5,2Z"/>
  <path class="st5" d="M461,669l-2,1c-.1-.6.1-1.4,0-2l2-1c.1.6-.1,1.4,0,2Z"/>
  <path class="st1" d="M656,397c.3-1.7,1-2.8,1-3l-1,3Z"/>
  <path class="st1" d="M590,396l1-2c-.4,1.1-1,1.9-1,2Z"/>
  <path class="st1" d="M591,393l1-2c-.4,1-1,1.9-1,2Z"/>
  <path class="st5" d="M457,664c.2.2,1.4-.1,2,0,.3.8-1,.8-1,1-.5,0-.9-1-1-1Z"/>
  <path class="st5" d="M461,664v1c0-.1-1.6-.5-1-1.5l.5-.5c.7.4.4,1,.5,1Z"/>
  <path class="st4" d="M677,216c0-.2-1.6-1-2.2-2.2-8.7-18.8-17.4-36.4-28.8-53.7-.8,0-2-.4-2,.5,0,3.2,4,8.4,4.8,12.2s1.2,3.7-1.3,3.3c-4.9-6.6-9.6-14.7-16-20s-1.6-2.4-3.5-2c-1,1,9.6,22.8,8,27-1.7-.8-10.5-10.6-12-9l4,13-11.5-9c.2,1.9-1.5,6.6-1.5,7-6.2-8.4-12.2-16.6-19-24.5s-.7-2.3-1-2.5c5.5,1-6-11.2-.5-9s9.7,6.8,13.2,8.8,2.5,2.2,3.3.7c-8.7-15.8-21.6-28.3-33-42,1.7-.2,3.7,1,5,2,4.8,3.6,11.6,10.6,16,15s7,9.8,12.5,12.5c2.4-2.7-4.4-12.1-3.5-13l9,5.5c-3.1-10.4-12.7-17.1-17-26.5,1.6-1.6,11.3,9.5,12.5,10s2-.3,1.5-1.5-11.1-12.2-13-14c-7.2-6.9-16-12.3-23-19.5,4.1,2.2,8,3.7,12.1,6.4,42.8,27.7,72.4,76.6,86.9,124.6ZM642,156c-.3,1.5.4,2.1,1.5,3,.4-1-1-3.9-1.5-3Z"/>
  <path class="st4" d="M800,617l-1-2c0,.1.9.2,1,2Z"/>
  <path class="st1" d="M344,621l1-1c-.2.6-1,.9-1,1Z"/>
  <path class="st1" d="M464,534c3,16.4,7.5,33,6.8,49.8-7.7,3.5-12.1,11.3-18.8,16.2.5-5,3.2-9.6,3.9-14.6s.9-3.6-.9-3.4c-6.7,25.5-25.9,48-50.5,58l21.5-22.5c16.1-18.7,25.8-43.1,26.1-68s-3.1-12,.6-13.3,10.9-2.6,11.3-2.2Z"/>
  <path class="st1" d="M593,388l1-1c-.2.4-.9.7-1,1Z"/>
  <path class="st1" d="M592,390l1-1c-.3.6-.9.9-1,1Z"/>
  <path class="st1" d="M367,549c.1-.7.9-.8,1-1l-1,1Z"/>
  <path class="st1" d="M367.5,290c.6.3.6.7,0,1v-1Z"/>
  <path class="st4" d="M755,533l-1-.5,1-.5c0,.3,0,.7,0,1Z"/>
  <path class="st1" d="M356,154c-.3,0-.7,0-1,0l.5-1,.5,1Z"/>
  <path class="st1" d="M321.5,726c.6.3.6.7,0,1v-1Z"/>
  <path class="st1" d="M249.5,415c.6.3.6.7,0,1v-1Z"/>
  <path class="st3" d="M515,267c-.4-.2-.7-.8-1-1l1,1Z"/>
  <path class="st1" d="M315,252c0-.5.5-.9,1-1,0,.5-.5.9-1,1Z"/>
  <path class="st1" d="M491,95c-4.1.2-8.4-.3-12.5,0s-5.3.4-5.5,2c12,2.7,25.8,6.9,35,15-14.2-3.6-28.5-9.6-43.5-9-1.2,0-3.7-.8-3.5,1,12.2,2.9,24,9,34.1,16.4s3.7,1.1,1.9,2.6-28.4-13.6-34-12c5.4,4.5,12.2,7.3,17.5,12s5.7,4.9,4.5,6c-14.2-6.2-28.8-14.5-45-11.5,4.2,3.7,9.6,5.7,14.4,8.6,1.5.9,1.5,2.8,1.6,2.9v1c-2.4-.8-11.8-2.7-14.5-3s-5.5-.8-5.5,1c7.6,3.7,15.6,10,21,16.5s2.4,1.6,2,3.5c-9.8-4.4-18.5-11.3-29.5-13l12.5,13.5,2,3.5c-9-2.7-17.9-11.1-27.5-12-2.9-.3-1.7,0-.3,1.3s10.5,11,9.8,11.7c-5.3-1.7-9.4-5.6-14.6-7.8s-10.1-4.2-8.3-.7c3.3,2.4,7.1,5.2,8,9.5-1,1-9.5-8.3-13.9-6.5s-.9,1.5-1,1.5c-2.1.4-4.2-.8-6.6.9s-3.7,6.6-3.4,9.1c-9.7-4-17.5-5.4-28-5-1.6-4,13.3-2.8,10-6s-8.4-.9-10.3-1.3-3-.4-2.7-1.7c7.7-3.3,17.3,0,24-4,3.7,1.8,5.1,4.3,8.5,6,6.9-16.6,20.5-24.7,38.5-24,1.7-1.3-.1-1.8-1.5-2-7.4-1-14.4,2.3-21.5,3.5,5.1-6.5,12-9.7,20-11.5-1.8-4.4-8.5,2.4-6.8-3.8,16.5-15.5,34.9-19.9,57.3-18.2,6.4.5,11.6,2.5,17.5,4Z"/>
  <path class="st0" d="M498,292l2,1c6,.9,11.2,2.2,17,4l-4,2c-1.9,2.4,9.8,2,11,2,3-.1,3.6-.5,6-1s8.3-3.5,7-.5-12,10.5-16,11.5c-.4,1.7,5.5.5,3,3s-2.9.2-4.4,1.1-6.6,5.9-6.6,6.4,3,2.2,3,3.5c-6.7-2.7-10,2.4-16.2,4.3s-11.6,2.5-16.8,2.7c-.1-.6.2-1.7,0-2-.9-1.3-5.1-2.6-7-4.5-5-4.7-5.5-9.9-5-16.5-9.4,2-17.3,11.8-19,21l6,1-10,2c-.3-2.8.7-5.3,1-8,4.8-4.8,6.5-11.1,11.5-16s16.6-11,22-11h26.5c-.5-1.6-4.6-1.9-6.2-2.3-3.3-.8-10.9-2.7-13.8-2.7v-1c2.7-.1,6.4-.3,9,0ZM474.2,307.2c-2,2.8-.4,9.1,1.1,12,7.3,15.2,30.3,7.7,26.7-10.7s-.4-1.6-1.7-2.3c-3.5-1.9-23.9-2-26.1,1ZM513,310c-.3-.3-6.7-1.4-8-2-.1,3.1.3,6.2-.2,9.3s-2.4,4.2-2.8,6.7c1.4,1.4,13.4-11.1,11-14Z"/>
  <path class="st1" d="M474,446c-4.3,7.7-12.7,13.3-18.5,20l-11.5,9c-12.8,1.1-24,6.7-37-1-.4-.5-1.9-1.1-2.8-2.6-3.6-5.8-6.1-12.3-9.2-18.4,9.1,1,7.3,2.8,13.8,5.7,17.3,7.8,48.5-5.8,65.2-12.7ZM453,459c-1.4-1.3-6.3,2.6-5,4s6.4-2.6,5-4ZM446,462c-.6-.7-10.9,2.6-11,4.5-.1,2.9,9.4-.7,10.4-1.4s.8-2.8.6-3.1Z"/>
  <path class="st0" d="M656,306c-3.6-4.2-2.2-11.1-6.4-15.1-10-9.3-25.7,15.1-29.5,22.6,2.1,1.3,5.8,0,8,.5,6.8,1.8,9.7,17.3,8.9,23.4s-5.3,13-8.6,14.6-8.2,1.1-10,2.3c-2.7,1.8-6.4,13.5-12.8,7.7s6.7-14.4,7.3-18.7-5.3-11.2-3.3-15.3,1.4-.8,1.5-1c3.2-5,3.7-10.1,6.1-15.4s8.1-10.9,8.9-15.6c2.6,0,2.9-2.8,5.1-4.4,7.5-5.8,18.6-9.6,23.4,1.4s2,8.8,1.5,13ZM628.7,348.7c8.9-7.2,6.3-33.7-8-31.5s-6.4,9.2-6.7,12.4c-.5,5,3.5,10.2,2.3,15.2s-9.2,9.8-8.4,13.7,1.3,1.7,2.5.5c2.2-2,2.4-4.3,5.8-6.2s10.3-2.4,12.4-4.1Z"/>
  <path class="st1" d="M441,400c-.2,1.8-3.8,7.5-5,9-5.2,6.3-8.9,4-14.7,6.8-6.4,3.1-4.4,7.9-15.6,6-7-1.2-10.8-4.8-14.7-9.8,3,1.4,6.4.6,9.3,1.2s9.5,4.8,7.7,1.3-11.6-6-13.6-8.4l-3.3,2.9c-1.8-4-2.3-7.1-2-11.6s1-2.2,1-2.4c-.2,5.6,10.1,10.7,14.6,10.9s8.6-5.1,14-5.9c8.5-1.2,15.2,4.4,22.4,0ZM415,409c2.5-.1,3.8-1.9,6.5-2.1s9.4,2.5,8.5-1.4-15.3-3-15,3.5Z"/>
  <path class="st1" d="M474,441c-14.2,4.5-29.6,1.9-44.2,4.3-7.5,1.2-12.5,1.9-20.2,2.8s-8.5,3.3-14.6,1.9c.5-5,6.6-9.7,11-11,5.9,2.7,13.7,2.2,18-3,14.9-1.6,34.3,7.4,50,5Z"/>
  <path class="st0" d="M474,441c5.1-1.6,10.8-7.3,13-.5l-9.7,3.3c-1.3.1-2.5,1.9-3.3,2.2-16.8,6.9-47.9,20.5-65.2,12.7-6.5-2.9-4.7-4.8-13.8-5.7s-7.7.8-7-2.5,5-1,7-.5c6,1.4,9.4-1.3,14.6-1.9,7.7-.9,12.7-1.6,20.2-2.8,14.6-2.4,30.1.3,44.2-4.3ZM464,446c-8.7,1.8-17.7.3-26.5,1s-10.3,2.3-15.1,2.9-10.6-.9-15.4,1.6c8.2,14.7,29.9,5.3,42.5,1.5l14.5-7Z"/>
  <path class="st1" d="M656,306c-.2,1.7-.8,2.8-1,4-1.3,7.1-2.5,15.7-6,22,1.3-8.4.9-27.3-2.5-35-.5-1.1-1-2.2-2-3-1,0-.2,1.7-.5,2-4.6,5.6-12.7,11.2-16,18-2.2-.6-5.9.8-8-.5,3.9-7.5,19.6-31.9,29.5-22.6,4.2,4,2.9,10.8,6.4,15.1Z"/>
  <path class="st3" d="M530,300c-2.4.5-3,.9-6,1,.1-3.6-4.3-3.2-7-4-5.8-1.8-11-3.1-17-4s-.3-.8-2-1c-2.6-.3-6.3-.1-9,0-15.4.7-25.4,6.2-35,18h-1c-.1-.2-3.5.8-1.5-3s13.4-11.5,18.7-13.3c17.2-5.7,36.5-6,53.5,1.1s6.3,2.2,6.3,5.2Z"/>
  <path class="st1" d="M489,293c2.9,0,10.5,1.9,13.8,2.7s5.7.7,6.2,2.3h-26.5c-5.4,0-18,7.1-22,11s-6.7,11.2-11.5,16c.2-2-.2-5.4,0-6.3s6.2-5.6,4-8.7h1c3.6-.4,4.2-4.2,7.1-6.4,5.5-4.3,21.1-10.5,27.9-10.6Z"/>
  <path class="st1" d="M445,475c1,0,2,0,3,0,.6,10-17.5,14.1-25.3,12.8s-10.5-4.5-12.2-6.8-.4-2.7-.5-2.9c9.7,5.2,22.4,3.7,32.3-.3s3.2-.3,2.7-2.7Z"/>
  <path class="st0" d="M649,332c-1.3,7.8-5.4,16-11,21.5s-8.8,7.2-7,3,8.6-8.3,10.8-12.2,4.2-9.3,4.2-10.8v-27c0-2.3-2.1-7.6-2-10.5.3-.3-.5-2,.5-2,1,.8,1.5,1.9,2,3,3.3,7.7,3.8,26.6,2.5,35Z"/>
  <path class="st0" d="M391,412c-.9-1.1-2.3-1.7-3.2-3.3-5-8.5,1.1-18.1,2.2-26.7,1.7,0,2.1-.6,1.9,1.4-.4,3.7-1.4,7.6-1.9,11.6s-1,1.1-1,2.4c-.3,4.5.3,7.5,2,11.6l3.3-2.9c2.1,2.4,12.8,6.8,13.6,8.4,1.7,3.5-7-1.1-7.7-1.3-2.9-.7-6.3.1-9.3-1.2Z"/>
  <path class="st0" d="M444,475c.3,0,.7,0,1,0,.5,2.5-1.2,2.1-2.7,2.7-9.9,4-22.6,5.4-32.3.3-1.3-1.7-1.7-2.2-3-4,13,7.7,24.2,2.1,37,1Z"/>
  <path class="st5" d="M388,318c3.4,2.1,9,14.1,9,17.5v20.5h-2c-.1-3.3.2-6.7,0-10-.5-9.7-2.5-19.4-7-28Z"/>
  <path class="st5" d="M436,409c1.2-1.5,4.8-7.2,5-9,.5-3.4-.5-7-2-10,2.2-.5,2.3,1.1,3,2.5,3.9,6.8,1.8,14.5-6,16.5Z"/>
  <path class="st5" d="M424,436c-4.3,5.2-12.1,5.7-18,3,4.7-1.4,7.1-.5,11.4-1.1s3.7-1.6,6.6-1.9Z"/>
  <path class="st2" d="M483,330c.2.3-.1,1.4,0,2-1.9,0-14.1.4-14-1.5l14-.5Z"/>
  <path class="st2" d="M421,427c.3,4.2.5,6.1-3.5,8,.6-1.8,1-3.7,1.5-5.5s-1.1-3,2-2.5Z"/>
  <rect class="st3" x="386" y="356" width="2" height="3"/>
  <path class="st3" d="M511,677c-.1.1.2,1.2-.3,1.7-2.7,2.8-4.8,2.4-6.7,6.3s.3,1.3-.1,1.8c-3.3,4.1-8.7-5-7.9-5.8l15-4Z"/>
  <path class="st0" d="M514,679c-3.1,3.6-5.6,4.5-10,6,1.9-3.9,4-3.6,6.7-6.3s.2-1.6.3-1.7c2.5-2.4,5.3-4.8,8-7-1.6,3.1-2.6,6.2-5,9Z"/>
  <path class="st1" d="M598,217c0,0,.4,2.1-.5,2l-2.5-2.5c.5-.2,2.9.4,3,.5Z"/>
  <path class="st4" d="M584,147c1.9,3.2,5.1,5.6,7,8,14.3,17.5,24.5,36.8,36,56-7.7-1.9-12-11.7-17-17.5-6.4-7.2-12.8-15.1-21.5-19.5l12.5,23c-4.6-2.9-14.1-17.2-18.5-18s-1.9,0-1.5,1.5c1,3.6,13.8,20.5,12,22.5-6-2.2-11.1-7.9-16.5-11-1-.6-2.7-1.9-3.5-.5,2.4,5.2,5.8,11.2,9.2,15.8s10.5,10.7,5.3,8.7c-11.2-8.8-22.9-17.1-33.5-26.5s-14.3-13.1-20-19-11.3-12.4-12-14,.2-1.9,1.5-1.5c5.5,1.7,18.8,13.5,25.9,17.2s8.2,3.9,12.7,4.8c2.6-2.8-15.6-21.3-16-26,1-1,18.7,10.1,21.5,11s1.6,0,1.5-1.5c-.4-3.3-2.9-6.2-3.5-9.5,2.3,1.1,5,4,7.2,4.8s3,.6,2.3-1.3c-2.3-6.1-17.7-16.9-22-23,3.8-1.3,15.3,12.2,17,10.5,0-2-1.8-4-3-5.5s-10.7-10-5.5-8.5,18.8,15.6,22.5,19Z"/>
  <path class="st1" d="M612.5,211c.6.3.6.7,0,1v-1Z"/>
  <path class="st1" d="M486.5,129c.6.3.6.7,0,1v-1Z"/>
  <path class="st0" d="M554.5,127c.6.3.6.7,0,1v-1Z"/>
  <path class="st1" d="M498.5,123c.6.3.6.7,0,1v-1Z"/>
  <path class="st1" d="M509.5,112c.6.3.6.7,0,1v-1Z"/>
  <path class="st1" d="M555.5,97c.6.3.6.7,0,1v-1Z"/>
  <path class="st0" d="M668,434c-2.3,15.7-4.8,32.1-5,48-.6,40.6,14.1,90.7,50.7,112.8,2.3,1.4,12.8,5.7,13.3,6.2,3.5,3.8-6.9,0-8-.5-17.5-7.2-30.2-22-40-37.5-.3-.5-.4-1.2-1-2s-.6-.7-1-1c-.1-.3.1-.7,0-1-.5-1.1-.9-2.3-2-3-5.9-19.4-11.9-29.1-14-51-1-10.2-1.2-20.2-1-30.5s1.6-8.5,1-13.5l5-28,2,1Z"/>
  <path class="st4" d="M635,492c-6.2-.6-3.5,6.7-4,10.5s-.6,3-2,1.5-3.6-16.3-3.9-18.6c-2.1-17.5,1.8-35.4,5.9-52.4l1,6,2-1c1,1.4-2.1,8.7,2,8-1.4,15.9-2.2,30.1-1,46Z"/>
  <path class="st3" d="M685,395c-1.3,47.3-6.4,78.1,21.2,120.3,4.6,7,36.8,45.2,36.8,48.2v16.5c4.2.7.4-8.6,4-10,7.7,12.4,12.2,24.1,16,38-15-13.7-32.8-23.8-47-38.5s-8.7-11.8-10.5-12.5-1.9.2-1.5,1.5c1.1,3.6,11.1,16.4,14,20,6.7,8.2,14.6,15.5,21.9,23-33.1-12.4-55.6-45.4-65.7-78.3s-5.6-25.2-8.3-37.7,0-3.5-3-3.5c.2-15.9,2.7-32.3,5-48,.9-6,2.1-12,3-18s1.7-7,1-11l1.5,2c4.5-1.8,7.1-49.2,4.5-56,1.5-.1,1.6,2.4,1.9,3.6,3.8,12.4,5.4,27.5,5.1,40.4ZM708,544c-1.6-12.4-8.5-23.9-12.7-35.7-3.7-10.4-6.8-21.1-10.5-31.5l-5.7-24.8c-.8,10.1,1.3,20,2,30l-4-13c-3-.9-2.1,3.5-2,5.5.3,9.4,2.5,19.2,4,28.5-4.1-1.9-4.4-15.4-7.5-17s-1.5,1.6-1.5,2.5c0,4.3,6.7,22.8,9.6,25.5s2.9,1.6,3.5,1-1-3.3,1-3c-.1,2.5,6.9,11,5.9,4.6s-3.4-9.1-4.6-13.4c-.3-.9-2.2-5.2-.3-5.2,3.1,10,8.7,18.9,13.2,28.3,2.7,5.6,3.3,14,9.8,17.7ZM698.5,547v1c.6-.3.6-.7,0-1ZM701.4,551.6c-.6-.7-1.1-3-2.4-2.1,1.1.2,3.1,8.8,5,6.5s-1.8-3.6-2.6-4.4Z"/>
  <path class="st4" d="M725,393c1.9.5,2.5,2.8,3.1,4.4,4.3,12.6,3.9,28.3,3.9,41.5-2.3.5-1.6-.2-2.3-1.3-1.8-2.9-1.6-7-2.7-9.1s-2.2-.3-3.1-1.3c-1.4-1.6-1.2-6.4-3.9-7.4.4,5.7,2,13,2,18.5s-.9,2.6-2,1.5c-3.9-3.7-6.3-30.6-6-37,3.6-.9,2.2,7,3,8,3.9,1,1.1-4.9,2-6,1.8-2.3,2.9,6.7,6,5v-17ZM720,413h-2c-.2,1.8,0,2.9,1.5,4l.5-4Z"/>
  <path class="st0" d="M732,388c1.2,6.9,4.1,13.3,6,20,7.9,28.2,15.4,72.3,6,100,2-25.6,1.3-50-3.3-75.2-.9-5.1-2.6-9.9-3.7-14.8-2.3-10.2-4.4-20.6-8-30.5.7-1.5,2.4.4,3,.5Z"/>
  <path class="st1" d="M706,323c-7.1-18.6-16.5-35.3-30-50l-29-55.5c1.2-.6,2.7,1.8,3.4,2.6,5.8,7.2,10.7,16.5,16,24s1.1,3.6,2.6,1.9-9.4-24.4-10.8-27.7c-4-9.1-10.8-20.1-14-29s-.6-3.6,1.2-1.2c24.9,42.3,50.4,86.5,60.5,135ZM671,250c.3-1.5-.4-2.1-1.5-3-.4,1,1,3.9,1.5,3Z"/>
  <path class="st4" d="M462,177c11.3,14.4,21.1,30.8,32,46-1,2-5-.9-5.9-1.6-5-3.8-9.1-9.9-14.6-13.4l.5,7c-.5-.5-1.7-1-2.5-1.9-1.7-2-10.2-13.8-11-14.1s-2.5-.3-2.5.5c3.8,4.8,7.5,9.6,11,14.5s.7.7,1,1c0,.3,0,.7,0,1,0,1.4.9,5.7-1.5,5-11-3.4-27.3-28.6-33.5-38.5,2.9.3,14.7,15.9,17,13.5l-1-8,7.5,5c.2-.9-2-8.2,1-7l5.5,5-3-14Z"/>
  <path class="st0" d="M469,214c-3.5-4.9-7.2-9.7-11-14.5,0-.8,2-.7,2.5-.5.9.3,9.3,12.1,11,14.1s2,1.4,2.5,1.9c9.6,10.8,32,38.2,44,44l16.5,14c-23.4-12.3-41.9-32.7-59.5-52-1.6-1.7-2.8-3.9-5-5,0-.3,0-.7,0-1-.1-.5-.5-.8-1-1Z"/>
  <path class="st4" d="M501,167c4.7,2.8,9.1,9.3,12,14,4.4,7.3,6.6,16,13,22,.2,1.2-.2,1.1,1,2l-.5,5-14-11c.5,3.4,13.5,16.5,11.5,19-4.7-2.5-8.1-6.7-13.5-8-2.5,0,2.8,7.7,2.5,8-1.1,0-2.2,0-3.3-.2-5.8-1.5-25.5-28.7-28.9-35.1s-1.5-4.3-2.8-6.2c2.8.4,15.2,14.5,17,12.5v-4c9.9,3.8,1.4-5.1-.5-9s-2.1-4.6-2.4-7l11,11-2.7-10.7c-.3-1.1.8-2.1.8-2.3Z"/>
  <path class="st1" d="M527,231c-.5,1-1.9-2-1.5-3,1.1.9,1.8,1.5,1.5,3Z"/>
  <path class="st4" d="M708,544c-6.5-3.7-7.1-12.1-9.8-17.7-4.5-9.4-10.1-18.3-13.2-28.3-1.9,0,0,4.3.3,5.2,1.2,4.3,4,9.4,4.6,13.4,1,6.4-6.1-2-5.9-4.6-2-.3-.5,2.5-1,3s-2.5-.1-3.5-1c-2.9-2.7-9.5-21.2-9.6-25.5s-.4-3.5,1.5-2.5c3.1,1.6,3.4,15,7.5,17-1.6-9.2-3.7-19.1-4-28.5s-1-6.5,2-5.5l4,13c-.7-10-2.8-19.9-2-30l5.7,24.8c3.7,10.4,6.8,21.1,10.5,31.5,4.3,11.8,11.1,23.3,12.7,35.7ZM680,506c.7-1.4-.6-2.7-1-2-.7,1.4.6,2.7,1,2Z"/>
  <path class="st5" d="M671,416c-.9,6-2.1,12-3,18l-2-1c.4-4.4,1.5-8.6,2-13l1-3c0-.3,0-.7,0-1h2Z"/>
  <path class="st1" d="M701.4,551.6c.8.8,3.8,3,2.6,4.4-1.9,2.3-3.8-6.3-5-6.5,1.2-.9,1.7,1.4,2.4,2.1Z"/>
  <path class="st1" d="M698.5,547c.6.3.6.7,0,1v-1Z"/>
  <path class="st4" d="M305,577l25-43c1.8-.3,1,2.3.8,3.3-1.8,8.1-8.5,16-7.8,24.7,6.3-9.2,8.5-12.7,6,2,6.5-1.9,6.8-8,10.5-13,2.1,8.8-6.8,15.1-11.3,21.7s-9.9,14.1-13.4,20.6-3.4,10.3-3.8,10.7c-.8.8-2.1.4-2-1.5.5-9.5,6-20.6,5-30.5l-8,13.5-2-3.5c.4-1.5.4-3,1-5Z"/>
  <path class="st0" d="M356,527c-2.2,33.4-23.7,60.2-34,91-5.7,17.1-8.8,28.8-3.5,47s5.7,12.7,8.4,19c-27.9-29.2-9.3-67.3,5-98s19.1-34.4,22-59h2Z"/>
  <path class="st0" d="M309,559c-13.4,29.8-21.3,49.8-11.7,83.2.2.6,6.4,15.5,1.7,10.8s-2.6-5.9-3-7c-11.6-28.5-4.7-51.8,5-79,.1-.3-.1-.7,0-1l1-1c.1-.3-.1-.7,0-1l1-1c.1-.3-.1-.7,0-1,3.5-3.5,4.3-9,6-13,2.7-6.4,7.7-12.6,10.9-19.6s2-6.4,3.1-9.4c1.6-4.3,3.8-8.5,5-13h1c-5,20.6-11.4,32.9-20,52Z"/>
  <path class="st5" d="M328,507c.8-2.9,2.6-18.7,3.5-19,2.4-.7,1.4,2.4,1.4,3.4-.5,6.7-2.7,10.7-3.9,15.6h-1Z"/>
  <path class="st5" d="M356,527h-2c0-.7,0-1.3,0-2,.4-3.8-.3-8.5,2-12-.2,4.6.3,9.4,0,14Z"/>
  <path class="st5" d="M272,402c1.1-1.8,5.5-10.6,6-11,2.2-1.9,1.9,2.1,2,3-2.3,2.4-5.3,6.3-7,9l-1-1Z"/>
  <path class="st4" d="M303.5,353c.6.3.6.7,0,1v-1Z"/>
  <path class="st3" d="M420,585c-.3.7-1.7-.6-1-2s1.7.6,1,2Z"/>
  <path class="st3" d="M372,652c2.1-21.2,21.1-32.8,33.5-48s8.5-12.1,13-18c-2.4,11.4-10.4,20.9-16.5,30.5l6-5,18.4-23.6,9.6-15.9c-.6,9.4-4.6,19.1-9.2,27.3-13.9,24.5-36.7,32.6-54.8,52.7Z"/>
  <path class="st3" d="M642,156c.5-1,1.9,2,1.5,3-1.1-.9-1.8-1.5-1.5-3Z"/>
  <path class="st0" d="M301.5,654c.6.3.6.7,0,1v-1Z"/>
  <path class="st0" d="M302.5,656c.6.6,2,1.3,1,2-.5-.6-2-1.3-1-2Z"/>
  <path class="st3" d="M476,979c-15.2,0-33.1-2.3-48.4-4.1-15.9-1.9-32.2-4-47.6-7.9,29.3,1.2,47-2.8,77.2,5.3,6,1.6,13.4,3.8,18.8,6.7Z"/>
  <path class="st4" d="M661,505c-4.7,2.1.6,14.5,0,15s-1.7-.3-2.7.3.3,2.1-1.3,1.7c-10-27.9-12.3-59.4-4-88,1.8-.2,1,2.2.9,3.4-1.3,13.5-3.4,27.2-.9,40.6l3.5-10.9c.4-1.8.9-9.5,1.5-10.1,1.8-1.8,2.9,3,3,4,.5,4.9-1,8.9-1,13.5-.2,10.4,0,20.4,1,30.5Z"/>
  <path class="st1" d="M677,559c-3.3.6-1.5-1.3-2-3,1.1.7,1.5,1.9,2,3Z"/>
  <path class="st1" d="M668,420c.2-1.9,1-2.8,1-3l-1,3Z"/>
  <path class="st1" d="M678,561c-.4-.2-.9-.6-1-1,.4.3.7.6,1,1Z"/>
  <path class="st4" d="M361,620l-1.2,5.3-8.8,19.7c-.6-6.8,2.2-15,5.6-20.9s2.4-4.7,4.4-4.1Z"/>
  <path class="st4" d="M362.5,618c.6.3.6.7,0,1v-1Z"/>
  <path class="st5" d="M332,184c.6.6-2.6,6-3,5,.3-1.7,1-6.9,3-5Z"/>
  <path class="st3" d="M494,223c9.4,13.1,19.9,25.8,31,37.5-1.2.7-6-1-7-1.5-12-5.8-34.4-33.2-44-44l-.5-7c5.5,3.6,9.6,9.6,14.6,13.4s4.9,3.6,5.9,1.6Z"/>
  <path class="st1" d="M287,589c-.3.7-1.7-.6-1-2s1.7.6,1,2Z"/>
  <path class="st3" d="M671,250c-.5,1-1.9-2-1.5-3,1.1.9,1.8,1.5,1.5,3Z"/>
  <path class="st3" d="M303,562c1.6-4.2,1.7-10,6-13-1.7,4-2.5,9.5-6,13Z"/>
  <path class="st3" d="M301,566c.2-.7,1-.9,1-1l-1,1Z"/>
  <path class="st3" d="M302,564c.2-.6.9-.9,1-1l-1,1Z"/>
  <path class="st1" d="M732,542c-37.4-36.6-50.7-83.6-44.9-135.4s.4-5.5,1.9-5.6v26.5c0,.3.9,5.7,3,4.5,0-8.7,0-17.3,0-26,2.6,10.2,1.7,20.9,3.1,31.4,1.7,12.6,4.1,20.7,9.9,31.6,4.1,7.8,9,13.9,13,21s-.1,2,.5,3c5.5,10,11.6,20.1,15.1,31l-13.9-18.1-11.6-18.4c2.2,7.1,4.8,14.4,7.8,21.2,5.4,11.8,12.1,21,16.2,33.3Z"/>
  <path class="st3" d="M385,112c.5,2.5-1.1,2.2-2.8,2.7s-13.7,2.8-14.2,3.3c-1.5,1.4.1,1.8,1.5,2,3.6.5,7.8-.3,11.5,0-3.3,4.3-10.3,4-15,6,.6,1.4,5,1.6,6.6,1.9s9.1-.4,6.4,2.1-11.4,1.7-13.5,2-4.1-1.3-3.5,2c-7.3-.2-19.2,2.2-26,5-2.3-.9,0-2.8,1.1-3.4,5.9-3.6,14.3-5.5,19.9-10.1l-8-1c4.8-3.3,12-4.5,16.7-7.3s2.5-1.8,2.3-4.2c6.9-1.6,10.6-1.3,17-1Z"/>
  <path class="st2" d="M474.2,307.2c2.2-3,22.6-2.9,26.1-1s1.4.8,1.7,2.3c3.5,18.4-19.5,25.9-26.7,10.7-1.4-3-3.1-9.2-1.1-12ZM483,316c2.1,1.1,2.1,3.9,7.3,2.8,9-1.8,3.7-14.9-7.1-10.2s-1.1,2.3-1.2,2.3c-.9.5-5.2-.3-4,3.5s4.2,1.1,5,1.5Z"/>
  <path class="st4" d="M513,310c2.5,2.9-9.6,15.3-11,14,.3-2.6,2.3-3.9,2.8-6.7s.1-6.2.2-9.3c1.3.6,7.7,1.7,8,2Z"/>
  <path class="st5" d="M489,292v1c-6.8,0-22.5,6.3-27.9,10.6-2.9,2.2-3.5,6.1-7.1,6.4,9.6-11.8,19.6-17.3,35-18Z"/>
  <path class="st1" d="M524,301c-1.2,0-12.9.4-11-2l4-2c2.7.8,7.1.4,7,4Z"/>
  <path class="st5" d="M500,293l-2-1c1.7.2,1.9,1,2,1Z"/>
  <path class="st4" d="M446,462c.2.2.3,2.3-.6,3.1s-10.5,4.3-10.4,1.4,10.3-5.2,11-4.5Z"/>
  <path class="st3" d="M453,459c1.4,1.3-4.1,4.9-5,4-1.3-1.4,3.6-5.3,5-4Z"/>
  <path class="st1" d="M628.7,348.7c-2.1,1.7-9.2,2.3-12.4,4.1s-3.6,4.2-5.8,6.2-2.3.6-2.5-.5c-.8-3.9,7.2-8.9,8.4-13.7s-2.8-10.1-2.3-15.2,3.2-11.9,6.7-12.4c14.3-2.2,16.9,24.3,8,31.5Z"/>
  <path class="st0" d="M415,409c-.3-6.5,14.1-7.4,15-3.5s-6.6,1.3-8.5,1.4c-2.8.2-4,1.9-6.5,2.1Z"/>
  <path class="st4" d="M464,446l-14.5,7c-12.6,3.8-34.3,13.1-42.5-1.5,4.8-2.5,10.3-.9,15.4-1.6s10.1-2.5,15.1-2.9c8.8-.7,17.7.8,26.5-1Z"/>
  <path class="st3" d="M720,413l-.5,4c-1.5-1.1-1.7-2.1-1.5-4h2Z"/>
  <path class="st3" d="M470,215c-.3-.3-.7-.6-1-1,.5.2.9.5,1,1Z"/>
  <path class="st3" d="M680,506c-.3.7-1.7-.6-1-2s1.7.6,1,2Z"/>
  <path class="st0" d="M483,316l-1-5c.1,0-.4-1.6,1.2-2.3,10.8-4.7,16,8.3,7.1,10.2s-5.1-1.8-7.3-2.8Z"/>
  <path class="st4" d="M482,311l1,5c-.7-.4-4.3.6-5-1.5-1.2-3.8,3.1-2.9,4-3.5Z"/>
</svg>