<?xml version="1.0" encoding="UTF-8"?>
<svg id="Layer_1" xmlns="http://www.w3.org/2000/svg" version="1.1" viewBox="0 0 1024 1024">
  <!-- Generator: Adobe Illustrator 29.8.2, SVG Export Plug-In . SVG Version: 2.1.1 Build 3)  -->
  <defs>
    <style>
      .st0 {
        fill: #eddfc9;
      }

      .st1 {
        fill: #ecdcc0;
      }

      .st2 {
        fill: #edd8b7;
      }

      .st3 {
        fill: #121110;
      }

      .st4 {
        fill: #d7a383;
      }

      .st5 {
        fill: #2d3036;
      }
    </style>
  </defs>
  <path class="st1" d="M45,1024H0V0h1024v1024h-57l-9-47c5.4,2.9,6.3,9.2,8.8,13.7s3-2.2,4.1-4.4c5.9-11.9,9.6-11.5,19.9-17.1s-2.8-3.2-5.1-4.4c-5.9-3.1-10-6.6-13.5-12.5s-3.2-11.1-5.4-7-2,6.2-3.9,9.1-7.5,6.2-7.8,9.7h-1c-14.6-69.2-31.3-138.3-51.5-206-12-40.5-18.5-58.5-50.5-87.5-3.5-3.2-23.7-18.1-24.5-19.5-1.3-2.3-.6-7.7-2.7-11.3s-5.1-4.9-7.6-6.4c-14.2-8.7-38.3-17-54.3-23.7-41.6-17.2-84.3-31.8-124.7-51.8-7.4-11.9-12.1-43.7-20.7-52.8s-9.1-2.5-5.4-9.3,10.3-11.1,13.7-16.3c11.2-17.5,10.3-43.3,15.2-63.3,21.4,4,23.4-14.9,30.8-28.7,11.8-21.8,23.6-37.1,27.9-63.1,3.1-19.1-.4-43.8-25.7-35.2-1.5-5.6,5.2-9.4,5.9-13.5.9-5-.7-11,.5-16.5,1.5-7.3,8.8-13.9,8.6-22.4s-7.4-41.5-10.3-51.8c-9.8-34.2-42.9-75.7-78.7-84.3s-15.3-5-27.1-9.9c-85.2-35.8-156.7-1.3-218.5,58.4-26.6,25.8-19.6,54.8-28.1,88.4,1.9,8.6,7.3,14.8,9.2,23.6s2,18.3,3.5,27c-30.8-3.2-24.1,33.6-18,52.5s16,32.1,25.6,50.4,9.1,30.5,30.4,25c4.4,16.7,4.3,37.6,9.8,53.7s17.7,22.3,25.1,33c.2,2.1-4.6,3.4-6.4,5.3-7,7.3-11.4,38.5-17.2,48.8-.4,1.3-1.5,1.8-2.5,2.5-7.4,5.4-26.1,13.1-35.4,17.6-47.5,23.1-97.3,42.4-143.8,67.2-3.7,11.2-12.9,14.5-21.5,21.5-27.7,22.7-45.5,41.3-58.9,75.1-10.1,25.6-18.3,54.1-26.5,80.5-20.7,66.9-39,134.5-54.7,202.8Z"/>
  <path class="st5" d="M829,1024h-230c0-23.4-2.2-47-1-70.5,1-21.1,7.2-42.4,10.7-63.3,15-87.9,30.9-182.6,33.4-271.6.5-17.5-.3-35.1-.5-52.6,38.1,18.7,78.3,32.4,117.5,48.5s46.2,17.1,57,25c8.4,6.3,4.4,17.3,4.1,25.9-2.4,70.4-7.7,140.5-4.1,211l13,147.5Z"/>
  <path class="st5" d="M439,1024h-230c1.9-19.1,2.5-38.4,4-57.5,4.1-52.4,8.3-100.1,6-153-2-47.7-9.1-96.6-10.1-143.9s-3.1-19.4,12.7-27.4c32-16.1,67.3-29.7,100-45,21.6-10.1,43-20.7,64.3-31.2.1,77,10.6,153.4,23.3,229.2,11,65.7,27.9,130.5,29.7,197.3.3,10.5-.3,21.1,0,31.5Z"/>
  <path class="st3" d="M45,1024c15.7-68.2,34-135.9,54.7-202.8s16.4-54.9,26.5-80.5c13.4-33.8,31.2-52.5,58.9-75.1s17.8-10.3,21.5-21.5c46.5-24.9,96.2-44.1,143.8-67.2,9.2-4.5,27.9-12.2,35.4-17.6s2.1-1.2,2.5-2.5c5.8-10.3,10.3-41.5,17.2-48.8s6.6-3.2,6.4-5.3c-7.4-10.7-20.8-20.4-25.1-33s-5.4-37-9.8-53.7c-21.4,5.5-23.4-11.5-30.4-25s-18.7-29-25.6-50.4-12.8-55.7,18-52.5c-1.5-8.8-1.6-18.4-3.5-27s-7.3-15-9.2-23.6c8.5-33.6,1.5-62.6,28.1-88.4,61.8-59.8,133.3-94.3,218.5-58.4,11.7,4.9,14.3,6.8,27.1,9.9,35.7,8.7,68.8,50.1,78.7,84.3,2.9,10.2,10.1,42.1,10.3,51.8s-7.1,15.1-8.6,22.4c-1.1,5.5.4,11.5-.5,16.5-.8,4.1-7.4,7.9-5.9,13.5,25.3-8.6,28.8,16,25.7,35.2-4.3,26.1-16,41.4-27.9,63.1-7.5,13.7-9.4,32.6-30.8,28.7-4.9,20-4,45.8-15.2,63.3s-11.6,12.4-13.7,16.3c-3.6,6.8,2,5.8,5.4,9.3,8.6,9.1,13.3,40.9,20.7,52.8,40.4,20,83.1,34.6,124.7,51.8s40.2,15,54.3,23.7c2.5,1.5,6.1,3.8,7.6,6.4s1.3,9,2.7,11.3,21,16.3,24.5,19.5c32,29,38.4,47,50.5,87.5,20.2,67.7,36.9,136.8,51.5,206l-5,1c-13.6-61.6-29.1-123.5-46.3-184.2-6.4-22.4-13.1-53.4-25.3-72.7-10.3-16.2-31-36.1-46.5-47.5s-3.5-3.3-4.4-1.6c-.9,13.1-.8,26.4-1.5,39.5-1.1,21.6-2.4,42.9-3,64.5-1.1,37.6-1.6,75.8,0,113.5l13,147.5h-6l-13-147.5c-3.7-70.5,1.7-140.7,4.1-211s4.4-19.7-4.1-25.9c-10.7-8-43-19.3-57-25-39.2-16.1-79.4-29.8-117.5-48.5.2,17.4,1,35.1.5,52.6-2.5,89-18.4,183.8-33.4,271.6-3.6,20.8-9.7,42.1-10.7,63.3-1.1,23.5,1.1,47.1,1,70.5h-6c.7-20.5-1.7-41-1-61.5,1.1-36.8,11.9-77.2,17.9-114.1,14.5-88.7,27-179.3,26.2-269.3l-16,23.5c-19.3,23.2-40.3,34.8-68,45.5-2.5,1-4.6,1.8-7,3s-1.8-.6-2,.6c-.9,9.9-.6,19.9-1,29.9-3.9,101.6,5,203.3,1.1,305.1.1,1.2-.4,2-1,3-1,1.7-15.9,16-18.1,17.4s-.7.9-1,1c-1.5.7-4.3,1-6,1-.7-3.1-21-16.7-23-22,0-.7,0-1.3,0-2,1.8-38.6-.7-78-1-116.5-.6-70.7-2.7-141.6,2.1-212.1.3-3.8-3.3-3.8-6.1-4.5s-2.3.2-3,0-1.1-.7-2-1c-3.8-1.1-5.4-2.7-10-3-26.9-10.2-49.4-26.7-68.5-48l-13.5-19c1.4,73.9,12,147.4,24.3,220.2,9.6,57.1,25.2,116.7,27.7,174.3.7,16.1-.5,32.4,1,48.5h-6c-.3-10.5.3-21,0-31.5-1.8-66.8-18.7-131.6-29.7-197.3-12.7-75.7-23.2-152.2-23.3-229.2-21.4,10.5-42.7,21.1-64.3,31.2-32.7,15.3-68.1,28.9-100,45-15.8,8-13,9.9-12.7,27.4,1,47.3,8,96.3,10.1,143.9,2.3,53-1.9,100.6-6,153-1.5,19.1-2.1,38.4-4,57.5h-6l1.6-24c-23.2-72-56.8-145.9-52.6-223.5.4-6.8,1.5-18.2,3.4-24.7s.2-3,1.7-2.8c0,1.3,0,2.7,0,4,.3,23.3-2.7,41.8.1,66.4,6.7,58.6,29.4,113,46.9,168.6,1.4,1.5,1.8-.1,2-1.5.4-2.8-.2-6.1,0-9,2.1-26.8,7.1-57.6,7.1-84s-6.4-23.7-8.1-32.5-4.4-28.6-5-41h2c1.9,19.6,5.7,38.8,10,58,1.6-.2,1.9-4.3,2-5.5,2.9-34.9-2.8-77.2-5-112.5-2.1-33.3-4.8-66.6-6-100-19.3,13.6-39.3,30-53.4,49.1-23.5,31.9-42.2,106.9-54.1,146.9s-31.1,111.6-44.5,168h-6ZM422,106c9.8-.9,14.1,3.8,22,6.5s11.5,3.2,17,4.5c-2-2.3-4.7-4.5-7.1-6.4s-8.5-5.2-8.9-5.6-.4-1.9.5-2c3.1-.2,12.8,7.7,16,10,4.8,3.5,8,9.2,15.5,9-1.1-2.6-2.6-5-4.2-7.3s-7.4-8.2-7.8-9.2c-2.3-5.4,8.3,5.2,9,6,4.3,5.1,6.1,12.2,12.5,14.4-3.9-10.6-11.7-21.3-20.6-28.4s-9.5-5.2-9.9-5.6-.5-2.4,1.4-1.9c9.4,2.6,21.4,15.4,26.4,23.6,4.1,6.6,4.5,14.4,13.2,16.3.3-10.4-5.6-19.1-9.2-28.3s-1.6-3-.3-3.7c4.4,4.7,7.8,12,9.9,18.1s.5,16.1,10.6,16.9c1.5-12.2.2-23.9-1-36,2.6-.2,1.7-.1,2,1.5,2.1,11,2.2,22.3,2,33.5.4.4,4.1-1,4.9-1.6,4-2.7,11.7-26.3,13-32,2.8-12,5.7-16.8-9.9-16.4,2.8,7.9,2.2,16,.5,24-.2,1.1,0,3.2-1.5,3v-22.5c0-.2-1.3-4.3-1.5-4.5-1.9-2.5-25.7-.4-30.5,0,4.3,9.4,12.8,17.8,13,29l-10.2-20.3c-2.1-2.1-4.3-7.4-7.3-7.7s-16,3.5-19.5,4.5c-10.9,3.1-24.2,8.5-34.2,13.8s-6.1,2.4-5.8,4.7c-6.2.6-24.6,13.8-30.3,18.2-10.8,8.2-41.8,34.3-46.9,45.1-4.6,9.9-4.2,19.6-6.1,29.9s-5.6,23.4-6.6,33.4,6,16.2,8.2,25.6,2.9,29.7,4.7,33.1,7,5.3,9.2,9.1c4.7,8.2,7,22.3,8.8,31.7l2-1.5,2-43.5-5.5,14-1.5,1,.2-7.3c.3-6.3,24.6-44.9,22.8-46.7s-2.8,1.3-3.4,2.1c-4.2,4.8-7.7,12.7-11.8,18.2s-4,6.4-6.8,7.2c3.1-10.6,16.1-22.1,19.3-31.8s-.1-3.5-.3-5.7c-1.6-1.7-23.3,36.2-24.5,39s-2,7.3-3.3,10.8.5,2.7-2.3,2.2c.5-15.5,10.3-25.6,17.8-37.7,1.8-2.9,10.2-16.7,10.3-18.8s-1.8-7.5-3-6.5c-1,4.7-5.6,8.2-8.4,12.1s-5.9,10.1-9.2,13.8-2.4,3.1-3.4,2.1,6.2-11.8,7.2-13.3c2.4-3.7,11.9-14.9,12.6-17.4s-1.2-10.3-2.1-13.4-.4-3.6-2.2-2.8-11.2,11.7-12.9,14.1c-4.1,5.6-6.4,12-10.6,16.9-1.9-2.6,9.2-20,11.6-22.9s11.1-9.8,12.8-13.2,1.4-8.3,2.6-11.9c-1-1-14,9.6-15.5,11-6.7,6.2-12.1,14.1-18,21-.9,0-.6-1.7-.4-2.4.9-4.2,14.6-19.3,18.4-22.6s16.2-10.6,17.3-12.7,3.9-9.4.7-9.3c-7.9.4-19.4,8.5-25,14-1.2-.3-.4-2.2,0-3,2.6-4.7,16-11.7,21.2-13.8s8.7-2.1,9.1-2.4c.6-.5,4.3-12.1,6.2-13.8-13.8-1.4-22,4.7-33,10.5s-2.7.7-2-1c2.6-6.1,23.4-12.1,29.7-13.3s8.6,1.5,11.2-5.2c-7.3-3-13.2-1.8-20.6-1.1s-3.6.9-3.4-.9c4.2-1.1,10.3-3,14.5-3s10.5,2.6,12.4,1.6,6.7-8,6-8.6l-16-2c3.2.3,6.3-1.1,9.5-1.1s7.1,1.8,9.8,1,2.4-2.3.7-3.4-9.4.2-11-1.5,0-1.8,1.5-2c3.6-.5,14,1.5,15.5.5,4.5-2.9-5.5-3.9-7.6-4.5s-3.1-.3-1.5-2,10.1.2,13-1l-1,2c6.2,2.2,4.7.2,7.2-1.3s7.7-2,3.5-3.9-5.5-1.3-7.9-2.1-3-.3-2.8-1.7c8.9-2.2,14.9,5.8,23,1l-1.3-2.2c-2-1.8-14.5-4.2-14.7-5.7ZM560,91l-27-7c.1,15.6-5.6,30.2-12,44,8.3.1,8.4-8.6,10.8-13.7s4.8-10.8,5.2-11.3c1.4-1.4,1.9.1,2,1.5.4,4.1-2.8,9.7-4.5,13.5s-4.7,6.5-1,5,12.2-18.5,14.7-23.3.7-3.6.8-3.7c.4-.5,2.3-.6,1.8,1.3-1.6,7.6-7.1,15.5-10.8,22.2,8.7-1.5,14.1-13.9,17.5-21.5s3-6.4,2.5-7ZM565,93c-5.7-.7-3.2.7-4.5,4s-8.6,14.8-7.5,16c6.8,2.2,14.1-17.9,12-20ZM574,97l-6-2c-.5,5.4-3.2,10.2-5.5,15,1.5-1.7,5-.4,6.3-1.1s3.5-10.2,5.2-11.8ZM596,105c-7.9,1-13.8-5-21-7l-3,12c4.5-.9,7.9,2.8,12.3,2.8l11.7-7.8ZM611,110c-10.1-5.9-16.9-4.3-24,5,6.4,4.6,9.9-1.3,16-3.5l8-1.5ZM557,117c-18.8,7.6-37.1,22.5-58.2,17.7-16.7-3.8-33.5-12.6-50.8-15.7-10.3-1.9-14.1.5-23,5.5-23.7,13.4-43.5,44.8-48.7,71.3-3.8,19.7,7,31.8,10.3,49.2s-9.3,21.5-12.7,31.4-6.2,66.1-4.7,79.1c1.6,14.5,13.7,36.6,21.2,48.9s9.9,13.6,10.7,16.3-.7,2.1-2,1c-2.9-2.4-12.4-18.2-15-22.5s-4.1-7.7-6.2-12.3-1.7-3.2-1.8-.2c3.9,17.1,6.8,34.3,10,51.5s.8,3,1,4c1.3,7,1.5,14.3,3.3,21.2,3.9,15.2,18.9,28,29.7,38.8h1c.8,4.7,11.1,13,14.5,17l2.5-2c-.2,4.6,2.8,6.3,5,9s1.9,1.9,3,3c3,3,5.6,5.4,9,8s2,1.3,3,2c4.7,3.3,6.6,4.7,12,7s1.8,1.3,4,2c9.5,3.1,16.5,3.2,26,4s.1.9,2,1c3.8.2,8.2.1,12,0s1.3,0,2,0c4.9-.3,10.1-1.1,15-2s.7,0,1,0c3.9-.8,4.9-.2,8-3,.7,0,1.3,0,2,0,7-.3,13.4-4.2,19-8s3-2.4,5-4c3.3-2.7,5.2-5.3,8-8s1.5-1.5,2-2c5.8-5.6,11.5-11.1,17-17s.7-.7,1-1c12.8-13.6,27.9-26.8,33-45,.2-.9.7-1.7,1-3,5.7-23.8,7.9-48.7,14-72.5-1-1.6-1.2.8-1.5,1.5-1.4,2.8-2.5,5-3.5,8s-.8.2-1,1,0,.7,0,1c-6.9,6.7-10.6,16.5-17,23.5s-2.6,3.7-4,2c1.1-.8,1.4-.5,2.2-1.9,16.3-27.7,33.5-49.8,32.8-84.1-4.1-22.1.6-48.4-7.8-69.2-2.2-5.5-9.9-16.9-10.2-21.8-.6-8.3,6.2-24.3,7-34,3.1-36-28.8-90.5-65.2-99.8-7.7-2-10.3.7-16.8,3.3ZM655,325c1-1,5.2-22.5,7.5-27s5.1-4,6-6,.2-5.9,1-9,4.6-6.2,5.3-8.7c1.3-4.7-1.5-9.3-.5-14.5,1.9-10,10-14.2,8.7-27.1-4.2-40.8-18.3-81.8-50.9-108.1-12.2-9.9-21.6-17.5-36-5,3.6,5.3,7.9-.4,12.7-1.3s8.2,0,12.3-.2l-12.5,2.9c-1,.9-6.2,1.5-5.4,3.5,1.9,5,8.5,0,12.5-.5s7.9,0,11.5,1l-14.2,2.3c-1.7,1.2-6.2.9-3.8,3.2,3.7,3.6,12.3.9,18.3,1.7s7.3,2.3,10.8,3.8l-18.5-1.1c-5.1-.7-5.5,3.2-.9,4s5-.2,7.7.3c7,1.3,14.6,3.3,20.3,7.7l-15.1-3.9-11.4.4c3.6,6,4.4,3.5,9.4,4.6s10.6,2.7,15.1,5.9c1.4,1.9-1.8.7-2.6.6-5.3-1.2-10.2-4.3-15.9-3.5.8,7.7,11.1,6.6,17.5,9s10,4.6,10.5,5c.7.8.4,2.2-1.5,2-3.6-.5-18.2-8.4-21.5-6,2.5,8.4,5.5,7,11.4,10.1s21.9,13.4,24.6,20.4-7-5.1-7.5-5.5c-2.9-2.7-20.9-16-23.5-14,1.8,9.2,15.5,7.7,17.5,17-2-1.2-13.3-10.2-14.5-9,1.9,10,12.7,14.4,19.5,22s12,15.5,13.4,20.6-1.4,1.9-1.9,1.4-1.7-5.4-3.3-6.7-3.2-.9-3.6-1.4c-.5-.8.2-3.2-1.1-5.4s-8.3-9.3-10.1-10.9c-2.7-2.5-6.1-4.4-9-6.5-.4.6,1.1,13.2,1.5,14,1.1,2.5,7,5.3,9.1,7.4,4,3.8,16.5,18.3,17.4,23.1s-.8,2.1-2,1c-2.5-2.1-8.3-12-11.5-15.5s-12.5-12.9-13.5-12c-3.2,9.7.2,9.6,5,15.5s21.5,29.7,18,34.5c-2.5-1.2-2.6-5.1-3.8-7.7-3.8-8.3-9.4-16.7-15.7-23.3s-5.5-6.1-6.5-5c.2,4.6-2.9,9.7-1.6,14s10.6,14.2,13.1,18.9,6.1,10.8,5.5,17l-9.2-18.3c-1.1-1.4-9.8-15.6-11.8-13.7.2,1.3-.7,2.6-.7,3.7.2,6.9,18.9,26.4,21.5,38s1.1,4.4-.7,4.3c-.3-1.2-4.9-14.4-7-12l3,46.5c-.7,1.7,1.5,2,2,1.5ZM645,395c-.5,2.3-3.6,15.4-3,16,17.1,2.2,17.9-11.7,23.6-22.9,11.4-22.1,24.1-37.9,28.9-64.1s1.2-39.3-20.8-29.8c-1.1.5-6.3,3.7-6.8,4.4s-7.8,22.4-6.9,23.3c1.6,1.8,8.9-10.2,10-11.5,9.4-10.8,21.4-16.7,23,3s.8,4.1-2,3.5c-1-20-10.2-13-19-2.5s-8.3,11.4-8.6,12.4c-1.4,4.3,3.3,7.5,5.6,11,0,.3,0,.7,0,1,.1,1.7,1,1.9,1,2,.4,6.2,1.4,10.8-.5,17s-3.9,6.2-5.5,10c-5.9,4.6-14.2,8.4-16.7,15.8-1.2,3.6-1.5,7.5-2.3,11.2ZM374,401c-.8-4.3-2-14.7-3.6-17.9s-12.2-9.4-15.8-13.2c-7.7-8-8.9-21-4-30.8s5.9-3.3,2.2-10.4-17-25-23.2-23.6-2.2,11-5.6,12.9c-1.8-17,5.1-21.2,18.5-10l15.5,21c-1.6-12.3-5.5-32.4-19.9-35.5s-18,19.7-15.6,32.6c4.6,24.3,15.4,38.8,26.7,59.3s7.7,24.5,19.6,26.4,6.5-4,5.3-10.8ZM650,373c12.2-5.1,18.7-14.8,16.9-28.4s-4.9-16.1-8.2-9.3c-3.2,6.8,5.5,16.9,3.2,24.7-2.7.5-1.7-.5-2.3-2.2-1.1-3.5-1.2-8.1-2.6-11.4-2.2-5.3-1.9,2.2-2.2,4-1.4,7.6-4,14.9-4.9,22.6ZM354,363c0-2.7-.2-5.5.3-8.2s7.4-17.9,3.2-18.8-10.1,23.7-3.5,27ZM369,376l-7.5-32c-3.9,4.8-6,16.6-4.3,22.3s11.3,10.3,11.8,9.7ZM649.5,374v1c.6-.3.6-.7,0-1ZM606,517c0-4.2,0-8.3,0-12.5-2.1-2-2.1,1.1-3.4,2.5-12,12.6-32.6,35.3-47.6,42.5-21.3,10.1-54.2,10.4-76.8,4.8-25.8-6.3-43-29.2-60.7-47.3-.9,3.5-.5,7.4-.5,11-.1,13.1-.8,17.3,7.6,27.9s23.2,21.3,36.4,30.1,31.6,17.8,38,25c7.3,8.1,9.3,20.2,10.9,30.6s.4,14.1,1.3,16.7,7.9,2.5,8.7,0,.7-11.8,1.3-15.7c2.1-13.7,4.3-27.7,15.9-36.6s2-1.3,3-2c17.7-12,36.8-20.4,51.5-37,12.9-14.6,14.1-20.6,14.5-40ZM525,649c41-4.5,80-29.8,102-64.5,5.1-8,10.1-14.5,6.3-24.3l-17.8-47.2c-1.1,27.4-16.7,47.5-37.6,63.4-11.1,8.5-23.8,14.3-34.8,22.2-17.2,12.3-15.5,31.4-18.1,50.4ZM506,650c-1.7-18.8-.6-39.2-17.7-50.8-26.8-18.3-60.3-30.7-75.5-62.5l-5.8-20.7-15,47.5c-1.3,9.5,6.1,19.1,11.6,26.4,23.5,31.7,63.1,55.5,102.4,60.1ZM538,653c-12.6,1.5-25.2,2.6-38,2-2.5,22.1-1.6,44.3-2,66.5-.8,49,.4,97.9,1,146.9s-.3,45.7,0,68.5l40-1c-.4-39.5-.4-79-1-118.5s-2.8-101.1-1.1-152c.1-4,1.8-8.2,1-12.5ZM539,940h-40c2.5,12.3-3.9,34.2-.6,45.1s9.3,9.6,11.5,11.5,8.3,7.2,9.5,7.1c2.8,0,15.5-14.5,18.3-17.4l1.2-46.3Z"/>
  <path class="st0" d="M209,760c-3.2-.6-1.7,1.6-2,3.5-2.2,16.8-2.8,34-6,50.5s-1.2,2.8-1,6c.6,12.4,2.6,28.8,5,41-.7,1-2,5.8-2,6.5v21.5c-3.1-3-5.4-8.3-7.2-12.3-18.7-41.1-24.7-78.4-36.1-120.9-.5-1.7-.2-3.3-2.7-2.8,0-1.3,0-2.7,0-4-1.4-.2-1.4,1.8-1.7,2.8-1.8,6.4-3,17.8-3.4,24.7-4.2,77.6,29.4,151.5,52.6,223.5l-1.6,24H51c13.4-56.4,28.1-112.5,44.5-168s30.5-115,54.1-146.9,34.1-35.5,53.4-49.1c1.2,33.4,3.9,66.7,6,100Z"/>
  <path class="st0" d="M949,965c.6,2.5,1.6,5,2,7s-.1,3.4.3,5.2c3.4,15.6,7,31.1,9.7,46.8h-121c16.1-68.2,33.5-139.8,30-210.5s-2.9-30.3-4.1-31.5c-2.1-2.1-1.9,1.9-2,2-.2.2-1.5-.5-2.3,1.2-2.7,5.5-3,13.9-5.2,19.8l-19.5,93-15-135c.6-21.6,1.9-42.9,3-64.5s.6-26.4,1.5-39.5c.9-1.7,3.5.9,4.4,1.6,15.5,11.4,36.2,31.3,46.5,47.5,12.2,19.3,18.9,50.3,25.3,72.7,17.2,60.7,32.7,122.6,46.3,184.2Z"/>
  <path class="st0" d="M474,648c-1.9-.1-12,0-12,2.5v27c0,.1,1.4,1.5,1.5,1.5h23c.3,0,2.4-1.1,2.5-1.7,1.5-6.3-1.2-18.3,0-25.3,2.8.7,6.4.7,6.1,4.5-4.9,70.4-2.7,141.3-2.1,212.1.3,38.5,2.9,77.9,1,116.5-3,.6-1.9-1.5-2-3.5,0-2.8,0-5.7,0-8.6-8.3-1.5-16.2-.2-24.5,0-.8,0-2.5.9-2.5,1.5v27c0,.1,1.4,1.5,1.5,1.5h24c3.6,0,2.2-11.1,2.5-13.6s1-2.3,1-2.4c2,5.3,22.3,18.9,23,22-.8,0-2.5-1-4.4-1-3.5,0-22.3-.5-23.6.5-2,1.4-.4,12.5-.9,15.6h-43c-1.4-16.1-.2-32.4-1-48.5-2.5-57.6-18.1-117.1-27.7-174.3-12.3-72.8-22.9-146.3-24.3-220.2l13.5,19c19.1,21.3,41.7,37.8,68.5,48ZM489,684h-26c.3,1-1,2.2-1,2.5v26c0,.1,1.4,1.5,1.5,1.5h24c.2,0,1.8-1.5,2-2,1.1-2.5.8-27.2-.5-28ZM464.5,719c-.3.5-1.5,1.2-1.5,1.5v28c0,.1,1.4,1.5,1.5,1.5h24c.1,0,1.5-1.4,1.5-1.5v-27c0-.2-2.3-2.5-2.5-2.5h-23ZM490,785v-28.5c0-.1-1.4-1.5-1.5-1.5h-24c-.1,0-1.5,1.4-1.5,1.5v28c0,.1,1.4,1.5,1.5,1.5h23c.3,0,1.5-1.3,2.5-1ZM463,793.5c-1.1,4.1,0,21.3,0,27s1.4,1.5,1.5,1.5h24c.2,0,1.8-1.5,2-2,.9-1.9,1-25.4,0-27-1.6-2.7-22.8-2.7-25.5-1.5s-1.9,1.7-2,2ZM464,828c.3,1-1,2.2-1,2.5v26c0,.1,1.4,1.5,1.5,1.5h25c.1,0,1.5-1.4,1.5-1.5v-27c0-.1-1.4-1.5-1.5-1.5h-25.5ZM464,894h25.5c.1,0,1.5-1.4,1.5-1.5v-27c0-.1-1.4-1.5-1.5-1.5h-24c-2.5,0-1.4,15.9-1.5,18.5,0,3.9-2.2,7.3,0,11.5ZM491,900h-25.5c-.1,0-1.5,1.4-1.5,1.5v27c0,1.2,10.5,2.6,12.5,2.6,3.9,0,8.6-2,13-1.1.8,0,2.5-.9,2.5-1.5v-26c0-.3-1.3-1.5-1-2.5ZM465,937v28.5c0,.1,1.4,1.5,1.5,1.5h24c.1,0,1.5-1.4,1.5-1.5v-27c0-.2-1.5-1.8-2-2-2.4-1.1-24.2-.8-25,.5ZM471,1012c-1,1.3,8.1,10.1,9.9,10.6,5,1.4,3.4-12.2,2.1-13.2s-9.8,2.2-12,2.6Z"/>
  <path class="st0" d="M593,1024h-41c-2.1-3.3.3-14-1.9-15.6-8.4-1.6-17.9,1.1-26.1-1.4,2.1-1.4,17.1-15.7,18.1-17.4s1.1-1.8,1-3c3.9-101.8-5-203.5-1.1-305.1s0-19.9,1-29.9c.2-1.2,1.6-.4,2-.6.8,4.9-1.7,24.7,1.4,27.1s22.1.9,26.6,0v-27.5c0-3.3-18.3.2-21-2.5,27.7-10.7,48.6-22.3,68-45.5l16-23.5c.8,90.1-11.7,180.6-26.2,269.3-6,36.9-16.8,77.3-17.9,114.1-.6,20.5,1.7,41,1,61.5ZM546.5,684c-.3.5-1.5,1.2-1.5,1.5v27c0,.1,1.4,1.5,1.5,1.5h25c.1,0,1.5-1.4,1.5-1.5v-26c0-.2-2.3-2.5-2.5-2.5h-24ZM545,721.5c-1.1,3.6,0,21.6,0,27s1.4,1.5,1.5,1.5h25c.1,0,1.5-1.4,1.5-1.5v-27c0-2.9-26.7-4.3-28,0ZM573,785v-27.5c0-.2-1.5-1.8-2-2-1.8-.8-19.9-1-22.5-.5s-3.5,1.7-3.5,2.5v26c0,.2,1.5,1.8,2,2,2.4,1.1,25.2.8,26-.5ZM546,792c.3,1-1,2.2-1,2.5v26c0,.1,1.4,1.5,1.5,1.5h25c.1,0,1.5-1.4,1.5-1.5v-27c0-.1-1.4-1.5-1.5-1.5h-25.5ZM546.5,828c-.3.5-1.5,1.2-1.5,1.5v27c0,.2,1.5,1.8,2,2,2.6,1.2,26,1.3,26-2v-27c0-.1-1.4-1.5-1.5-1.5h-25ZM573,865c0-1.3-23.8-1.5-26-.5s-2,1.8-2,2v25c0,.3,1.3,1.5,1,2.5h25.5c.1,0,1.5-1.4,1.5-1.5v-27.5ZM573,930v-28.5c0-.1-1.4-1.5-1.5-1.5h-24c-3.5,0-3.4,27.6-1.3,29.8s25.9,1.6,26.8.2ZM573,937c-9-1.1-17.8-1-26.9.1-1.5.9-1.8,25.3-.6,27.9s1.8,2,2,2h24c.1,0,1.5-1.4,1.5-1.5v-28.5ZM573,973h-27v30h25.5c.1,0,1.5-1.4,1.5-1.5v-28.5ZM568,1012c-.4-.5-10.6-3.7-12.1-2.6s-.8,11,0,13.6c2.2,1.5,13.8-8.3,12-11Z"/>
  <path class="st2" d="M822,763l15,135,19.5-93c2.2-5.9,2.5-14.3,5.2-19.8s2.1-1.1,2.3-1.2c10.4,81.1-10.7,161.4-27,240h-2l-13-147.5c-1.5-37.8-1-75.9,0-113.5Z"/>
  <path class="st3" d="M864,784c.1,0-.1-4.1,2-2s3.9,27.7,4.1,31.5c3.5,70.7-13.9,142.4-30,210.5h-3c16.3-78.6,37.4-158.9,27-240Z"/>
  <path class="st3" d="M956,974c.7.6,1.3,2.2,2,3l9,47h-6c-2.8-15.7-6.4-31.2-9.7-46.8-.4-1.8,0-3.8-.3-5.2,1.5.3,3.8,1,5,2Z"/>
  <path class="st4" d="M552,1024h-4v-13h-21.5c-2.4,0-1.3,10.7-1.5,13h-3c.2-5.3-.7-10.9,1-16,.3-.1.6-.7,1-1,8.2,2.6,17.6-.2,26.1,1.4,2.2,1.5-.2,12.3,1.9,15.6Z"/>
  <path class="st4" d="M517,1009c.9,3.9-.6,10.7,0,15h-3v-13h-23v13h-3c.5-3.1-1.1-14.1.9-15.6s20.1-.5,23.6-.5,3.7,1,4.4,1Z"/>
  <path class="st1" d="M491,1024v-13h23v13h-3c-.2-1.6.4-8.7,0-9-.6-.6-15.7-1.7-16.9.1s.3,6.8-.1,8.9h-3Z"/>
  <path class="st1" d="M525,1024c.2-2.3-.9-13,1.5-13h21.5v13h-3c-.6-5.9,2.7-9.3-4.5-10-10-1-14.1-1.5-12.5,10h-3Z"/>
  <path class="st4" d="M528,1024c-1.6-11.5,2.5-11,12.5-10,7.2.7,3.9,4.1,4.5,10h-3c-.3-1.3.7-5.8-.6-6-2.8-.4-6.5.3-9.4,0v6s-4,0-4,0Z"/>
  <path class="st4" d="M494,1024c.4-2.1-.7-7.5.1-8.9s16.2-.7,16.9-.1-.3,7.4,0,9h-4c2.6-10.1-12.6-10.1-10,0h-3Z"/>
  <path class="st2" d="M523,1008c-1.7,5.1-.8,10.7-1,16h-5c-.6-4.3.9-11.1,0-15,1.7,0,4.5-.3,6-1Z"/>
  <path class="st1" d="M507,1024h-2c.6-5.1-.5-4.1-5-4v4s-3,0-3,0c-2.6-10.1,12.6-10.1,10,0Z"/>
  <path class="st0" d="M532,1024v-6c3,.3,6.6-.4,9.4,0s.3,4.7.6,6h-3c.3-4.3.5-4.4-4-4v4h-3Z"/>
  <path class="st4" d="M500,1024v-4c4.5,0,5.6-1.1,5,4h-5Z"/>
  <path class="st4" d="M535,1024v-4c4.5-.4,4.3-.3,4,4h-4Z"/>
  <path class="st0" d="M955,964c.4-3.4,5.8-6.6,7.8-9.7s2.5-6.4,3.9-9.1c2.3-4.1,3.8,4.3,5.4,7,3.4,5.9,7.5,9.4,13.5,12.5s9.2,2.1,5.1,4.4c-10.3,5.6-14,5.2-19.9,17.1s-1.8,8.5-4.1,4.4-3.4-10.9-8.8-13.7c-.7-.8-1.3-2.4-2-3,.7-3.3-1.3-6.9-1-10Z"/>
  <path class="st4" d="M954,964h1c-.3,3.1,1.7,6.7,1,10-1.2-1-3.5-1.7-5-2-.4-2-1.4-4.5-2-7l5-1Z"/>
  <path class="st2" d="M557,117c5.7,3.1,12.1,3.6,18.2,6.3,22.7,10.1,38.5,33.7,43.3,57.7,6,29.6-10.2,57.6-2.6,87.1-13.6-9.3-22.7-7.5-37.5-3-8.8,2.7-30.7,11.1-37.5,16.6s-1.7,1.6-2,3.5,0,.7,0,1c0,.8.5,2.6,1,3-.9,2.2-2.6,3.3-5,3-1.7-.8-5.9-15.3-8-13s3.6,14.3,7,15c-3.1,7.7-5.3,2-8.5,2h-27c-1.8,0-6.4,2.7-8.9,1.9s-1.3-3.4-1.6-3.9c2.9-4.1,5.4-8.8,5-14-3-.6-1.5.9-2.1,2.4-1.5,3.8-3.3,7-4.9,10.6-.7-1.3-1.3-2.6-2-4s.5-1.9-.3-2.7-1.6-.1-1.7-.3c-.2-.3.2-1.6,0-2-1.6-3.2-1.5-2.8-4.7-4.8-9.5-5.9-43.9-19-54.3-17.8s-13.2,4.8-17,7.6v-25.5c-8.9-39.3-12.5-76,18.5-106.5l23.5-18c17.3,3.1,34.1,11.9,50.8,15.7,21.1,4.8,39.4-10.1,58.2-17.7ZM524,196c-11.6-2.9-23.5,1.3-35-2-.5,2.8.6,1.7,2.3,2.1,7.1,1.9,15.8,1.9,23.2,1.9l9.5-2ZM524.5,194v1c.6-.3.6-.7,0-1ZM504,215c-15-1.5-31.5-6.1-46.5-5s-4.5.7-4.5,1.5c17.2,0,34,4.7,51,5.5,4.7.2,10.3.2,15,0,15.7-.8,30.2-4.4,46.5-5,1.3,0,4.2.8,3.5-1.5-1-3.6-44.7,3.9-50,4.5s-8.6.6-15,0ZM490,244c-.3-1.7-2-1.7-3.2-2.3-16.6-7.1-36-9.2-53.8-6.7-.1,2.3-.3,1.8,1.5,2,3.6.4,8.7-1.1,13-1.1,14.6.2,28.3,5.8,42.5,8ZM585,235c-4.2-4-38.7,1.7-45.5,5l-11.5,5c11.3-1,22.1-6.2,33.6-7.9s9.4-1.1,12.9-1.2,6,1.1,9,1.1,2.6-1,1.5-2Z"/>
  <path class="st4" d="M557,117c6.5-2.6,9.1-5.3,16.8-3.3,36.4,9.3,68.3,63.8,65.2,99.8-.8,9.7-7.6,25.8-7,34s8,16.3,10.2,21.8c8.4,20.7,3.7,47.1,7.8,69.2.7,34.3-16.5,56.4-32.8,84.1-.8,1.4-1.1,1.1-2.2,1.9,1.4,1.6,3.2-1.1,4-2,6.4-7,10.2-16.8,17-23.5-1.4,4.6-2,10.1-4,15.5s-6,11.3-6,12v19.5h-1s-1-6-1-6c.7-3.4.4-9.3,1-13-1.1-1.2-8.1,6.8-9.7,7.8-7.7,5.3-15.9,6.6-24.7,3s-14.9-14-19.6-22.9c5.4,7.8,9.1,11.2,17,16,2.1,1.3,4.3,4.8,8,4,.3-3-4.9-3.5-7-5-13.6-9.8-20.1-28.5-30-41,6.8,3.4,10,10.6,16.1,15.4,12.1,9.6,30.1,13.5,41.5.6,9.3-10.6,20.9-22.6,26-36,8.5-22.2.3-42.4-5.5-64-3.2.6-4.5,3.4-7.6,4.9-11.7,5.5-13.5-4.3-21.5-10.3-28.6-21.4-64.5.5-72.9,31.4-.3-1.2-.9-4.9-3-4,0,3.9,1.1,10.3,2.8,13.8s2.1,2.1,2.2,2.2c4.9,9.9,7.5,23.6,2.7,34.2-1.6,3.6-5.6,5.8-7.1,10.9s-2.2,13.3-1.7,13.8c10.7.2,19,1.5,18-12,3.3,5,2.3,14.5-2,18.5s-4.9,2-6,4.4c14.2.2,15.5-14.2,12.5-25,5.4,7,11.1,14.7,14.5,23-.3-.3-1.7-.2-2.5-.9-1.3-1.2-6.7-9.6-8.5-8.1-1.9,11.8-14.3,14.2-24,17-3.2-.1-3.3-.5-3,3-2.8-2-1.7.7-2,1-.5.5-1.8-2.1-3.3-1.9s-6,4.1-11.2,4.3-30.3-6.2-32.5-4.5c-4.4-2.1-10.8-5.7-14.1-9.4s-2.5-5.2-3.8-8.2.6-1.7-1.6-1.4c-3,4.8-7.8,9-11.1,13.4s-4.3,5.9-6.4,8.6c.2-.2-.2-2,.6-2.9,8.1-10.2,14.2-21.7,21.9-32.1-1,10.4-2.5,23.6,11.5,24l-6.9-6.6c-3.8-9.6-1.3-16.8,4.9-24.4-6.9,16.3-4,24.6,15,20-1-18.6-13.2-28.4-10.9-48.4s2.4-5.8,2.9-7.6c4.3-4.1,5.6-12.3,6-18l-3,4c0-2.3.2-4.8-.5-7-1.7-5.4-12.4-19.1-17.1-22.9-15.5-12.6-40.3-12.3-56,0-3.5,2.8-9,11.1-11.8,12.2-4,1.7-12,.9-16.5,2-9.5,18.5-14.5,37.7-5.4,57.5,6.8,14.8,24.5,42,42.7,41.4,15.5-.5,26.2-14.5,37.5-22.1-8,14-16.3,31-31,39,0,2.1,3.8.7,4.7.2s10.8-7.7,11.3-8.2c-.3.3-.3,1.6-1,2.5-7.9,9.9-15.9,16-29.5,14.5-3.1-.3-10.9-4-13.1-1.1s3.5,12.3,4.3,14.9.7,6.8,1.6,9.4,7.4,12.2,8.7,10.8c-.3-6.5-1.8-12.7-2.3-19.2s-2.2-3.2,1.3-2.8c1.9,9.2,7.4,30.4,13,37s1.5,2.7,3,3c.2-2.9,3.6-11.1,6-12-.5,2.7-3.5,10.7-4.9,12.4s-2.3.4-2.8.9c-.7.7-.4,3-1.8,3.8s-1.8-2.1-2.9-3.1c-4.7-3.8-11.3-11.7-14.3-17.7s-1.9-5.6-2.3-8.3l-1,3c-3.8-2.6-.6-8.9-4-13l-1,5c-.2.3-1.3-.5-1.5-1-1.2-2.4-.9-15.9-1.7-20.3s-1.5-6.6-3.7-7.8v20h-1v-24.5c0-1.9,1.1-7.8-3-7.5-.8,1,1.4,16.8-3,19-.2-1-.7-2.4-1-4,3,.6,1.9-1.5,2-3.5.2-4.4,1.9-12,1.7-14.9s-4.4-12.2-5.7-16.1-1.9-3.6,0-4.5c2.6,4.3,12.1,20.1,15,22.5s2.5.7,2-1c-.8-2.7-8.5-12.8-10.7-16.3-7.5-12.2-19.6-34.3-21.2-48.9-1.4-13,.7-67.8,4.7-79.1s14.7-21.1,12.7-31.4c-3.3-17.3-14.1-29.5-10.3-49.2,5.2-26.5,25-57.9,48.7-71.3,8.9-5,12.7-7.3,23-5.5l-23.5,18c-31,30.6-27.4,67.2-18.5,106.5v25.5c-8.8,6.6-18.3,22-20,33,1.2,1.2,11-5.6,13-6.5,16.2-8.1,24.2-9.3,42.4-7.4s28.7,7.5,42.6.9c.7,1.4,1.3,2.7,2,4s1.9.9,2,1c.4.5-.5,3.2,1.6,3.9s7-1.9,8.9-1.9h27c3.2,0,5.4,5.7,8.5-2s.7-1.3,1-2c2.4.3,4.1-.8,5-3,7.9,6.5,33.6-1.2,43.5-2,13.2-1,23.4.3,35.4,5.5,5.6,2.4,10.4,6.3,16,8.5-1.5-10.7-10-26.9-19-33-7.6-29.5,8.5-57.4,2.6-87.1-4.8-24-20.6-47.5-43.3-57.7-6.1-2.7-12.5-3.2-18.2-6.3ZM529,307c-2.9-2.9-6.4-1.9-10-2,.6-3-1.5-1.9-3.5-2s-10.1-1.4-9.5,2c-11.9,1.7-8.3,6.4-7.9,14.5s-1.1,2.2-1.1,2.5c-1.9-5.4-2.8-16.2-10-17l10,19c3.2,14.3,1.4,29.6,0,44.5s-4.7,21.5-3.9,28.9c1.8,17.5,33.2,15.3,35.7,1.9,2.3-12.3-2.6-19.2-4.5-30s-2.6-29.5-1.3-41.2c3.1.6,1.7-1.5,2.1-3.3.9-4.2,2.2-8.2,4-12.1s5.2-6.9,5.9-9.1c1.4-4.6-5.3,2.6-6,3.5ZM542,410c3-3.4-5.6-5.3-8.4-4.9-7.7,1.1-12.1,12.1-24,11.8-12.5-.2-15.2-13.6-27.9-10.7s-3.7,1.4-3.7,3.3,12.2,3.3,14,4c10,3.9,11.8,8.9,25.1,6s7.2-5,11.4-6.6,13.1-2.4,13.6-3ZM402,425c.7-1.4-.6-2.7-1-2-.7,1.4.6,2.7,1,2Z"/>
  <path class="st0" d="M538,653c.8,4.3-.9,8.5-1,12.5-1.7,50.9.3,101.2,1.1,152s.6,79,1,118.5l-40,1c-.2-22.8.3-45.7,0-68.5-.6-49-1.8-97.9-1-146.9.4-22.2-.6-44.4,2-66.5,12.8.6,25.4-.5,38-2ZM515.8,669.2c-14.2,2.3-9.8,23.8,4.5,20.6,11.7-2.7,9.4-22.9-4.5-20.6ZM525.7,758.3c-9.6-10.4-26.1,5.5-14.8,15.3,10.2,8.7,23.4-5.9,14.8-15.3ZM516.8,839.2c-13.3,1.9-10.4,22.1,2.6,20.8s11.4-22.8-2.6-20.8Z"/>
  <path class="st0" d="M557,448v1c-.6-.1-1.4.1-2,0l.5-1h1.5Z"/>
  <path class="st0" d="M533,419c.6,0,2.2,1.2,4,0-1.5,3.4,5.1,5.3,5.5,2,3.5,2.6,9.6,1.9,13.8,3.1s2.9,5.5,4.8,3.9-5.3-4.3-2-5c-.4,3.9,2.1.8,3.5.9s.4,1.9,1.2,2c1.8.3,5.6-1.3,8.4.5s.7,2.1,1,2.5c5.8,9.2,15.5,18.1,16,30-2.8,2.2-6.3,4.3-10,5-6.1-7.1-5.7-11.5-16-14l-3.5-7,1.5,7c-.6-.1-1.4.1-2,0,.8-2.5-1.9-1.9-2-2-1-1.4-3.7-8.6-4.5-9-2.2-1.1-.5,1.6-1.5,2.4s-1.9.4-2,.6c-.4.4,3.3,4.4,3,6-.9-.2-2.1.1-3,0,.1-1.2.3-1.5-1-2l-.5-1-.5,1c-.3,0-.6.8-1,1-.6,0-1.4,0-2,0l-2-6-1,5c-4.8-.6-14.6-1.8-19-1,0-.9-.7-1.4-1-2-1.6-3.3-4-5.4-4-9-2.9,1.3,1.9,5.7,1,8-1.1-.2-3.4.4-3.9-.1s.2-2.2-.2-2.7-5.6-1.8-5.9-1.7c-1.9.2-5,6.3-4,8.5-2.6-.4-7-1.1-9.4-1s-20.6,3.8-21.6,3,.5-2.1-.5-2l-1.5,3c-1.5.4-4,1.2-5,0,.4-2.8-1.4-2.8-1,0-.9.7-2.1.7-3,1-1.5-3.1-2.4-2.1-3,1-1.2.3-2.9-.3-4,0,5.2-12.6-2.7-5.8-4,1-1.7,1-7,9.7-7.6,11.9-1.1,4.8,0,7,.6,11.1s1.8,12.1,3.3,16.2,15.8,19.1,19.7,22.3,5.1,3.6,5.4,3.7c3.7,1.3,8.8-.8,7.6,3.8,2.8.6,2-1,2-3,4.8,2.7,10.6-.9,14.9-3.6s6.6-8.8,10.6-1.4l.5-3c3.4,0,6.4,1.6,9.5,2.4,5.3,1.5,3.9,1.2,8.8,3.8,6.9,3.7,12.8,3.7,19.7-.2l.5,3c1.2-1.2,1.7-2.8,3.2-3.8,2.7-2.1,9-4.3,11.1-6.4,3.6-3.6,2-5.3,8.2-8.9.2-.1-.8-4.1,0-4.9s3.1,1.7,4-.5l-2-1c2.6-1.9,4.3-15,5-15.5,3.2-2.2,4.6,3.3,5,5-.7.1-2.2-.4-2,.5,1.5,2.8,1.4,6,2,9s-1.1,3,2,2.5c-1.2-3.9-1-8.1-2-12,.9-.1,2.1.2,3,0,1,2.5,1.6,7.2,3,9.3s2,.6,2,.7,1,1.9,1,2c1.3,4,1.3,9.9,3,14-5.5,5.9-11.2,11.4-17,17-.2-3.8.3-7.6,0-11.4s-.4-3.8-1.9-3.6c1.6,6,.3,11,0,17-2.8,2.7-4.7,5.3-8,8l2.5-11v-4s-7.5,19-7.5,19c-5.6,3.8-12,7.7-19,8,0-4-.7-1.2-2,0-3.1,2.8-4.1,2.2-8,3,1.7-4,7.6-6.9,5.5-12l-6.5,12c-4.9.9-10.1,1.7-15,2,.7-2.7.6-23.1-1.5-23-1,7.7.9,15.1-.5,23-3.8.1-8.2.2-12,0-1.8-6.8-5.2-12.5-4-20-1.8-.2-.9,2.3-1,3.5-.3,6.3.3,9.8,3,15.5-9.5-.8-16.5-.9-26-4l-8-16-.8,3.3,4.8,10.7c-5.4-2.3-7.3-3.7-12-7-.1-1.2-2.5-6.1-3-5v3c-3.4-2.6-6-5-9-8l1-23c-1.7.6-2.6,5.2-2.7,6.8-.5,4.4.7,9.3-1.3,13.2-2.3-2.7-5.3-4.4-5-9l-2.5,2c-3.4-4-13.7-12.3-14.5-17s1.2-7.8-1.5-7-.5,5.7.5,7c-10.8-10.8-25.8-23.6-29.7-38.8s-2-14.2-3.3-21.2c4.4-2.2,2.2-18,3-19,4.1-.3,3,5.6,3,7.5v24.5h1v-20c2.3,1.1,3.3,5.5,3.7,7.8.8,4.4.6,17.9,1.7,20.3s1.3,1.3,1.5,1l1-5c3.4,4.1.2,10.4,4,13l1-3c.4,2.6,1.1,5.9,2.3,8.3,3,6,9.6,13.9,14.3,17.7s1.2,4,2.9,3.1,1.1-3.1,1.8-3.8,2,0,2.8-.9c1.5-1.7,4.5-9.6,4.9-12.4.7-.2,2.1.1,3,0-.4,3.8,1.6,1.6,2-1,.6-4.6-1.9-8.2-1.8-9.3s1.4-4.6,1.8-6.7-.8-.9-.3-2.7c1.1-3.8,6.4-7.2,5.8-11.3l-7.5,14c-.7.4-.3,2.1-3.2,1.8-4.5-.4-1.7-2.2-1.8-2.8l10-15.5c-6.1,2.4-7.3,9-11,13.5-.1-.3-1.9-3.8-2-4-.7-4.3,14.3-26,16-26s2,1.5,2.8.9,2.2-4,5.7-4.9,0,2.7,2,2c2.2-2.1,3.9-5.1,5-1,1.3-2,15.2-7.7,16.3-6.8s.2,3.4,2.2,1.8-.2-1.8,0-2c2.2-1.7,26.9,4.8,32.5,4.5s9.2-4,11.2-4.3,2.8,2.3,3.3,1.9-.8-3,2-1c-.3-3.5-.2-3.1,3-3ZM492,427l-2.5,7c1.2-.9,5-5.9,2.5-7ZM500,432l.5-3c-1.5,1-2.5,3.2-.5,3ZM506,433c.7-1.4-.6-2.7-1-2-.7,1.4.6,2.7,1,2ZM534,437c.8-.8-2.4-5.7-3-5-.3,1.8,1.2,6.8,3,5ZM498.5,433v1c.6-.3.6-.7,0-1ZM547,444c-2.1-3.4-2.6-8.5-6-11l1.8,5.6,4.2,5.3ZM471.5,434v1c.6-.3.6-.7,0-1ZM504,438c.1-.2,1.2-3.6,1-4-1.5-.3-1.7,2.5-2,4,.3,0,.8.1,1,0ZM463,444l2-9c-2.8,1.7-5.9,6.8-2,9ZM488,438l.5-3c-1.5,1-2.5,3.2-.5,3ZM495,441c2.2-.9,3.1-3.8,3-6-2.2.9-3.1,3.8-3,6ZM467,444c2.9-1.3,3.9-5,4-8-2.5,1.4-4,5.2-4,8ZM476.5,438v1c.6-.3.6-.7,0-1ZM536,438c-2.8-2.4-2.1,4.2,1,5,.1-.9-.7-4.8-1-5ZM486,444c.4-.4,1.1-4,1-5-2.3.6-2.1,3.2-2,5,.3,0,.8.1,1,0ZM502.5,439v1c.6-.3.6-.7,0-1ZM476,440c-.6-.8-3.1,3.8-2.5,5,1.7-1.4,2.9-2.7,2.5-5ZM502,441c-1.1-1.1-3.1.9-2,2s3.1-.9,2-2ZM494.5,442v1c.6-.3.6-.7,0-1ZM571,442c-1.1-1.1-3.1.9-2,2s3.1-.9,2-2ZM575.5,442v1c.6-.3.6-.7,0-1ZM579,448c.9-1-1.6-3.2-2.5-4-.2,1.7.8,5.7,2.5,4ZM462,447c.7-1.4-.6-2.7-1-2-.7,1.4.6,2.7,1,2ZM466.5,445v1c.6-.3.6-.7,0-1ZM571.5,445c.2,2.6,2.1,5.3,4,7l-4-7ZM581,449c-2.8-2.7-1.9,3.7,1.5,5-.6-1-1.3-4.8-1.5-5ZM576.5,453v1c.6-.3.6-.7,0-1ZM435,494c2.8-1.8,3.5-6.9,4-10-2.7,2-4,6.8-4,10ZM455,533l-3-11c0,3.4-.2,8.9,3,11ZM529,537c-.2-3.8.3-7.6,0-11.4s-.4-3.8-1.9-3.6c.8,4.5-2,12,2,15ZM509,524c-1.3-1.7-1.8.1-2,1.5-.5,3.9,1.2,7.6,1,11.5,1.7.2.9-2.3,1-3.5.1-3.2,0-6.4,0-9.5ZM550,540c.3-.3,1.6-6.6,2.5-8-.9,1.7-4,5.2-4.5,6.5s1.6,1.9,2,1.5ZM473.5,534v1c.6-.3.6-.7,0-1ZM478.4,542.6c-1.4-2.2-2.4-5.1-4.4-6.6.5,3.2,3.7,9.5,7,9.5-.3-1.1-2.2-2.4-2.5-2.9ZM548,541c-1.1-1.1-6.1,3.9-5,5s6.1-3.9,5-5ZM481.5,547c-1,.7.5,1.4,1,2,1-.7-.5-1.3-1-2Z"/>
  <path class="st0" d="M506,650c-39.3-4.6-78.9-28.4-102.4-60.1s-12.9-16.9-11.6-26.4l15-47.5,5.8,20.7c15.2,31.8,48.7,44.3,75.5,62.5,17.1,11.7,16,32.1,17.7,50.8Z"/>
  <path class="st0" d="M525,649c2.5-19,.9-38.2,18.1-50.4s23.7-13.7,34.8-22.2c20.9-15.9,36.5-36,37.6-63.4l17.8,47.2c3.8,9.8-1.2,16.3-6.3,24.3-22,34.6-61,60-102,64.5Z"/>
  <path class="st5" d="M422,106c-.3-2.3,3.8-3.7,5.8-4.7,10-5.3,23.3-10.7,34.2-13.8s16.9-4.7,19.5-4.5,5.2,5.6,7.3,7.7l10.2,20.3c-.2-11.2-8.7-19.5-13-29,4.8-.4,28.7-2.5,30.5,0s1.5,4.3,1.5,4.5v22.5c1.5.3,1.3-1.9,1.5-3,1.6-8.1,2.3-16.1-.5-24,15.6-.4,12.7,4.5,9.9,16.4-1.3,5.7-9,29.3-13,32s-4.6,2-4.9,1.6c.2-11.2,0-22.5-2-33.5s.7-1.7-2-1.5c1.1,12.1,2.5,23.8,1,36-10.1-.8-7.9-9.3-10.6-16.9s-5.5-13.4-9.9-18.1c-1.3.6,0,2.7.3,3.7,3.6,9.2,9.5,17.9,9.2,28.3-8.7-1.9-9.1-9.7-13.2-16.3-5-8.2-17-21-26.4-23.6s-1.9,1.4-1.4,1.9,7.9,4,9.9,5.6c8.8,7,16.7,17.8,20.6,28.4-6.4-2.2-8.3-9.3-12.5-14.4s-11.3-11.5-9-6,6.3,7,7.8,9.2,3.1,4.7,4.2,7.3c-7.5.2-10.7-5.4-15.5-9s-12.9-10.3-16-10-.7,1.8-.5,2c.4.4,7.4,4.4,8.9,5.6,2.4,1.9,5.1,4.1,7.1,6.4-5.4-1.3-11.7-2.7-17-4.5-7.9-2.7-12.2-7.4-22-6.5.2,1.6,12.7,4,14.7,5.7l1.3,2.2c-8.1,4.8-14.1-3.1-23-1-.2,1.4,1.7,1.4,2.8,1.7,2.5.8,5.7,1,7.9,2.1,4.2,1.9-1.8,3-3.5,3.9-2.6,1.5-1.1,3.5-7.2,1.3l1-2c-2.9,1.2-11.3-.8-13,1s.3,1.7,1.5,2c2,.6,12.1,1.5,7.6,4.5s-11.9-1-15.5-.5-2.9.5-1.5,2,9.1.3,11,1.5,1,2.9-.7,3.4c-2.7.8-6.7-.9-9.8-1s-6.2,1.4-9.5,1.1l16,2c.7.6-5.4,8.2-6,8.6-1.9,1-9.4-1.6-12.4-1.6s-10.3,1.9-14.5,3c-.2,1.8,2.3,1,3.4.9,7.4-.7,13.3-1.8,20.6,1.1-2.7,6.8-5.9,4.2-11.2,5.2s-27.2,7.2-29.7,13.3.5,1.8,2,1c11-5.8,19.2-11.8,33-10.5-1.8,1.7-5.6,13.3-6.2,13.8s-7.1,1.6-9.1,2.4c-5.2,2.1-18.6,9.1-21.2,13.8s-1.2,2.6,0,3c5.6-5.5,17.1-13.6,25-14s0,7.9-.7,9.3c-1.1,2.1-14,9.8-17.3,12.7s-17.5,18.4-18.4,22.6-.5,2.4.4,2.4c5.9-6.9,11.3-14.8,18-21s14.5-11.9,15.5-11c-1.2,3.6-.8,8.6-2.6,11.9s-9.8,9.4-12.8,13.2-13.5,20.3-11.6,22.9c4.1-4.9,6.5-11.3,10.6-16.9s11-13.3,12.9-14.1,1.8,1.7,2.2,2.8c.9,3.1,2.8,10.6,2.1,13.4s-10.2,13.8-12.6,17.4-7.7,12.8-7.2,13.3c1,1,2.8-1.3,3.4-2.1,3.2-3.7,6.1-9.6,9.2-13.8s7.4-7.4,8.4-12.1c1.3-1,3.1,5.4,3,6.5,0,2-8.5,15.9-10.3,18.8-7.5,12.1-17.3,22.2-17.8,37.7,2.8.5,1.7-.6,2.3-2.2,1.2-3.5,1.8-7.2,3.3-10.8s22.9-40.7,24.5-39c.2,2.2,1,3.4.3,5.7-3.2,9.7-16.2,21.2-19.3,31.8,2.8-.8,5-4.8,6.8-7.2,4-5.5,7.6-13.4,11.8-18.2s2.4-3.1,3.4-2.1c1.8,1.9-22.4,40.4-22.8,46.7l-.2,7.3,1.5-1,5.5-14-2,43.5-2,1.5c-1.8-9.4-4.1-23.5-8.8-31.7s-8.2-7.3-9.2-9.1c-1.8-3.4-3-26.2-4.7-33.1s-9.1-16.8-8.2-25.6,4.7-23.1,6.6-33.4,1.5-20,6.1-29.9c5.1-10.9,36.1-36.9,46.9-45.1,5.8-4.4,24.1-17.6,30.3-18.2ZM486.5,96v1c.6-.3.6-.7,0-1ZM351,168c-.9-.9-4.6,2.2-4,4,.9.9,4.6-2.2,4-4Z"/>
  <path class="st5" d="M655,325c-.5.5-2.7.2-2-1.5l-3-46.5c2.1-2.4,6.7,10.8,7,12,1.9.2,1-3.3.7-4.3-2.5-11.6-21.3-31.1-21.5-38s.9-2.5.7-3.7c2-2,10.7,12.3,11.8,13.7l9.2,18.3c.6-6.2-2.7-11.8-5.5-17s-12.3-16.4-13.1-18.9c-1.4-4.3,1.8-9.5,1.6-14,1-1.1,5.7,4.1,6.5,5,6.3,6.6,11.9,15.1,15.7,23.3,1.2,2.6,1.3,6.5,3.8,7.7,3.5-4.8-14.3-29.9-18-34.5s-8.1-5.8-5-15.5c1-1,12.3,10.6,13.5,12,3.2,3.6,9,13.5,11.5,15.5s2.4.8,2-1c-.9-4.8-13.4-19.3-17.4-23.1s-8-4.8-9.1-7.4-1.9-13.4-1.5-14c2.9,2.1,6.3,4,9,6.5s9.2,9.4,10.1,10.9c1.3,2.2.6,4.6,1.1,5.4s2.5.5,3.6,1.4c1.5,1.4,2.9,6.4,3.3,6.7.5.5,2.4.5,1.9-1.4-1.4-5.2-9.6-16.4-13.4-20.6-6.8-7.6-17.6-12-19.5-22,1.2-1.2,12.5,7.8,14.5,9-2.1-9.3-15.7-7.8-17.5-17,2.7-2.1,20.7,11.3,23.5,14s9.7,11.3,7.5,5.5-18-16.9-24.6-20.4-8.8-1.8-11.4-10.1c3.3-2.4,17.9,5.5,21.5,6s2.2-1.2,1.5-2-9.1-4.5-10.5-5c-6.4-2.4-16.7-1.3-17.5-9,5.7-.7,10.6,2.3,15.9,3.5s4,1.3,2.6-.6c-4.5-3.2-9.8-4.8-15.1-5.9s-5.8,1.4-9.4-4.6l11.4-.4,15.1,3.9c-5.7-4.4-13.3-6.4-20.3-7.7s-5.4.1-7.7-.3c-4.5-.8-4.2-4.7.9-4l18.5,1.1c-3.5-1.4-6.9-3.2-10.8-3.8-6-.8-14.6,1.9-18.3-1.7s2.1-2,3.8-3.2l14.2-2.3c-3.6-1.1-7.7-1.4-11.5-1s-10.6,5.5-12.5.5,4.4-2.6,5.4-3.5l12.5-2.9c-4,.2-8.2-.4-12.3.2s-9.1,6.6-12.7,1.3c14.4-12.5,23.8-4.9,36,5,32.5,26.3,46.7,67.3,50.9,108.1,1.3,12.9-6.7,17.1-8.7,27.1-1,5.2,1.8,9.8.5,14.5s-4.5,5.6-5.3,8.7.1,6.5-1,9-4.3,2.7-6,6-6.5,26-7.5,27Z"/>
  <path class="st2" d="M157,753c2.4-.5,2.2,1.1,2.7,2.8,11.5,42.6,17.5,79.8,36.1,120.9,1.8,4,4,9.4,7.2,12.3v-21.5c0-.7,1.3-5.5,2-6.5,1.7,8.8,8.1,24.4,8.1,32.5,0,26.4-5,57.2-7.1,84s.3,6.2,0,9-.6,3-2,1.5c-17.5-55.6-40.2-110.1-46.9-168.6-2.8-24.6.2-43-.1-66.4Z"/>
  <path class="st4" d="M417,518c0-3.6-.4-7.5.5-11,17.7,18.1,34.8,41,60.7,47.3,22.6,5.5,55.6,5.2,76.8-4.8,15-7.1,35.6-29.9,47.6-42.5s1.4-4.5,3.4-2.5c0,4.2,0,8.3,0,12.5-2.3-.5-2.1,1.3-3,2.5-14.9,20.7-30.5,39.9-52,54l-11,20.5c-1,.7-2.1,1.3-3,2-.1-3.9,10.4-17.4,8-20-6,1.7-11.8,4.2-18,5.5-4.9,1.1-16.9,1.4-20.3,3.4s-1.8,7-1.7,9c-1.5-1.7-3.9-2.8-5.4-5.1-3.2-4.6-3.7-10.6-6.4-14.6s-1.2-2.7-3.2-2.3c3.5,9,4.9,18.7,13,25-.3,0-5.2,3.1-4,4-6.4-7.2-28.4-18.6-38-25-.7-2.4-2.2-4.9-3.6-6.9-9.9-14.8-25-35.1-36.4-48.6s-2.1-2.5-4-2.5Z"/>
  <path class="st0" d="M539,940l-1.2,46.3c-2.8,2.9-15.5,17.4-18.3,17.4s-7.9-5.8-9.5-7.1-11-9.6-11.5-11.5c-3.3-10.9,3-32.8.6-45.1h40Z"/>
  <path class="st2" d="M691,317c2.8.6,2.2-1.7,2-3.5-1.6-19.7-13.6-13.8-23-3s-8.4,13.2-10,11.5,6.2-22.2,6.9-23.3,5.7-4,6.8-4.4c21.9-9.5,23.7,14.2,20.8,29.8-4.9,26.2-17.5,41.9-28.9,64.1-5.8,11.2-6.5,25.1-23.6,22.9-.6-.6,2.5-13.7,3-16,2.9-2.7,7.7-3.6,10.5-6s1.9-3.4,2.5-4c4.6-5.2,9.5-10.4,13-16.5l-9,7.5c.5-2.1,1.2-6.3,2-8,1.7-3.8,4.2-5.4,5.5-10s.8-10.8.5-17l-1-2c0-.3,0-.7,0-1-.2-3.4-.4-7.5.8-10.7s8.1-11.3,12.2-11.3c-.5,11,1,22.2-1,33,2.7,3.1,3.9-9.1,4-10,3,.6,1.7-1.5,2.3-3.2,2-6.4,4.1-11.9,3.7-18.8Z"/>
  <path class="st2" d="M374,401c1.2,6.8,5.7,12.6-5.3,10.8s-14.5-17.3-19.6-26.4c-11.3-20.4-22.1-35-26.7-59.3-2.4-12.9-4.3-36.9,15.6-32.6s18.3,23.2,19.9,35.5l-15.5-21c-13.5-11.1-20.4-7-18.5,10s3,14.7,6.2,21.4.5,3.1,2.8,2.6c.4,2.9-.3,7.4,3,9v-17.5c0-3.1-.9-8.4-1-12.5,16.9.5,9.4,17.3,9,27.5s2.2,15.3,6.4,22.6,2.7,3.3.6,3.9c-2.7-2.9-4.9-6-7.5-9,1.5,8.5,9.1,14.7,14.5,21s2.6,4.9,4.4,6.6,8.1,6.9,11.6,7.4Z"/>
  <path class="st2" d="M505,594c0-2,0-8.1,1.7-9,3.4-2,15.4-2.4,20.3-3.4,6.1-1.3,12-3.8,18-5.5,2.4,2.6-8.1,16.1-8,20-11.6,9-13.8,22.9-15.9,36.6-.6,3.9-.4,13.1-1.3,15.7s-7.9,2.5-8.7,0-.7-12.6-1.3-16.7c-1.6-10.4-3.6-22.6-10.9-30.6-1.2-.9,3.7-3.9,4-4,.9-.3,2.8.2,4,0,.2-.1-1.6-2.6-2-3Z"/>
  <path class="st2" d="M606,517c-.4,19.4-1.6,25.4-14.5,40-14.7,16.6-33.9,24.9-51.5,37l11-20.5c21.5-14.1,37.2-33.3,52-54,.9-1.2.7-3,3-2.5Z"/>
  <path class="st4" d="M374,401c-3.6-.5-9.2-4.9-11.6-7.4s-3.3-5.4-4.4-6.6c2.9.4,2.3-1.1,1.5-3-1.8-3.9-5.7-6.1-8.5-9,2.1-.6,0-2.9-.6-3.9-4.2-7.3-6.7-14-6.4-22.6s7.9-27-9-27.5c0-2.3,0-4.7,0-7-1.9-.3-2.7.8-3,2.5-1.1,5.8.2,19.1,1,25.5-2.3.5-2.2-1.1-2.8-2.6-3.1-6.7-5.4-14-6.2-21.4,3.4-1.8,1.8-12,5.6-12.9,6.2-1.4,20.5,18.4,23.2,23.6s.7,4.6-2.2,10.4c-4.8,9.8-3.7,22.8,4,30.8s13.8,8.8,15.8,13.2,2.8,13.6,3.6,17.9Z"/>
  <path class="st4" d="M209,760c2.2,35.3,7.9,77.5,5,112.5s-.4,5.3-2,5.5c-4.3-19.2-8.1-38.4-10-58s.4-4.1-1-6c3.2-16.5,3.9-33.7,6-50.5s-1.3-4.1,2-3.5Z"/>
  <path class="st0" d="M628,460l-4-8c.4,3.2-.1,9,3,11-5.1,18.2-20.2,31.4-33,45-.2-3-1.9-7.6-1.1-10.4s2.7-.4,4-2.2,3.6-8.6,4.1-10.4h2c-.3,1.3-.7,5.1-.9,6.6s-.9,3.6.9,3.4l3-15c.8-.8,2.1-1.3,3-2l1,9v-9s2.5,1,2.5,1l6.5-25c1.7-.2,1,2.3,1,3.5,0,3.6-.8,5.9-1,9s-.7,3.7,1,3.5c1.5-8.6,2.6-17.2,2-26,.5-.6,1.9-3.3,2-4l1,6h1s0-19.5,0-19.5c0-.7,5-9.1,6-12,2-5.4,2.5-10.9,4-15.5s0-.7,0-1l1-1c1-3,2.1-5.3,3.5-8s.5-3,1.5-1.5c-6.1,23.8-8.3,48.6-14,72.5ZM627,451v-4h-1v4h1Z"/>
  <path class="st2" d="M461,576c-13.2-8.8-26.3-17.3-36.4-30.1s-7.7-14.9-7.6-27.9c1.9,0,2.9,1.2,4,2.5,11.5,13.5,26.5,33.8,36.4,48.6s2.9,4.5,3.6,6.9Z"/>
  <path class="st4" d="M691,317c.4,6.9-1.7,12.5-3.7,18.8s.7,3.8-2.3,3.2c.4-6.1.8-20.5-.7-25.8-.5-1.8.3-2.6-2.3-2.2,0,1.7,0,3.3,0,5-4.1,0-11,8-12.2,11.3s-.9,7.3-.8,10.7c-2.3-3.5-6.9-6.7-5.6-11s7.4-10.9,8.6-12.4c8.8-10.5,18-17.5,19,2.5Z"/>
  <path class="st4" d="M650,373c.9-7.7,3.5-15,4.9-22.6s0-9.3,2.2-4,1.5,7.9,2.6,11.4-.4,2.6,2.3,2.2c2.2-7.9-6.5-17.9-3.2-24.7,3.2-6.8,7.7,5.9,8.2,9.3,1.8,13.6-4.8,23.3-16.9,28.4Z"/>
  <path class="st4" d="M494,987c0,.1-.9,1.1-1,2.4-.2,2.5,1.2,13.6-2.5,13.6h-24c-.1,0-1.5-1.4-1.5-1.5v-27c0-.6,1.7-1.5,2.5-1.5,8.3-.2,16.2-1.5,24.5,0,0,2.8-.1,5.7,0,8.6s-1,4,2,3.5c0,.7,0,1.3,0,2ZM489,976h-21v24h20.5c3.1,0,.5-9.5.5-11.5-.2-4.2.2-8.4,0-12.5Z"/>
  <path class="st4" d="M474,648c4.6.3,6.2,1.9,10,3l-19,1v23h21v-23c.7.2,2.2-.2,3,0-1.1,7,1.5,19,0,25.3s-2.2,1.7-2.5,1.7h-23c-.1,0-1.5-1.4-1.5-1.5v-27c0-2.4,10.1-2.6,12-2.5Z"/>
  <path class="st4" d="M552,648c2.7,2.7,21-.8,21,2.5v27.5c-4.5,1-23.9,2.2-26.6,0s-.6-22.2-1.4-27.1c2.4-1.2,4.5-2,7-3ZM570,652h-22v22.5c0,.1,1.4,1.5,1.5,1.5h19c.1,0,1.5-1.4,1.5-1.5v-22.5Z"/>
  <path class="st1" d="M484,651c.9.3,1.5.8,2,1v23h-21v-23l19-1ZM483,655h-14c-.6,3.3-2.2,13.7-.6,16.1s11.7.4,14.6.9v-17Z"/>
  <path class="st0" d="M384,399c-1.9.9-.4,3.2,0,4.5,1.3,3.9,5.5,12.9,5.7,16.1s-1.5,10.5-1.7,14.9,1,4-2,3.5c-3.3-17.2-6.1-34.4-10-51.5,0-3,1.2-1.1,1.8.2,2.1,4.6,3.6,7.9,6.2,12.3Z"/>
  <path class="st4" d="M369,376c-.5.6-11.2-7.6-11.8-9.7-1.7-5.7.4-17.5,4.3-22.3l7.5,32Z"/>
  <path class="st4" d="M662,376l-4.9,8.4.9.6c-.6.7-.5,2.3-2.5,4-2.8,2.4-7.6,3.3-10.5,6,.8-3.7,1-7.7,2.3-11.2,2.6-7.4,10.8-11.2,16.7-15.8-.8,1.7-1.5,5.9-2,8Z"/>
  <path class="st5" d="M596,105l-11.7,7.8c-4.4,0-7.8-3.7-12.3-2.8l3-12c7.2,2,13,8,21,7Z"/>
  <path class="st4" d="M601,485c-.5,1.9-3.2,9.3-4.1,10.4-1.3,1.8-3.7,1.2-4,2.2-.8,2.8.8,7.4,1.1,10.4-.3.3-.7.7-1,1-1.7-4.1-1.7-10-3-14,1.4-.6.7-2.3,1-3,4.6-10.4,9.6-18.4,13-30,1.2,1.6.5,3,.2,4.6-.9,5.8-1.7,12.8-3.2,18.4Z"/>
  <path class="st5" d="M611,110l-8,1.5c-6,2.2-9.6,8.1-16,3.5,7.1-9.2,13.9-10.8,24-5Z"/>
  <path class="st4" d="M354,363c-6.6-3.3-1.9-28.1,3.5-27s-2.7,15.5-3.2,18.8-.2,5.5-.3,8.2Z"/>
  <path class="st5" d="M565,93c2.2,2.1-5.2,22.2-12,20-1.1-1.2,6.5-13.4,7.5-16s-1.2-4.7,4.5-4Z"/>
  <path class="st5" d="M574,97c-1.7,1.7-4.3,11.3-5.2,11.8-1.3.8-4.8-.6-6.3,1.1,2.3-4.7,5-9.6,5.5-15l6,2Z"/>
  <path class="st4" d="M446,529c-1.1-1.1-1.8-1.6-3-3,1.9-3.9.7-8.8,1.3-13.2s1-6.2,2.7-6.8l-1,23Z"/>
  <path class="st4" d="M516,553c-.7,0-1.3,0-2,0,1.4-8-.5-15.3.5-23,2.1,0,2.2,20.3,1.5,23Z"/>
  <path class="st4" d="M566,536c-2,1.6-2.6,2.4-5,4l7.5-19v4s-2.5,11-2.5,11Z"/>
  <path class="st4" d="M502,553c-1.9,0-1.9-1-2-1-2.7-5.7-3.3-9.2-3-15.5s-.8-3.7,1-3.5c-1.2,7.5,2.2,13.2,4,20Z"/>
  <path class="st4" d="M576,526c-.5.5-1.4,1.4-2,2,.3-6,1.6-11,0-17,1.5-.2,1.8,2.6,1.9,3.6.4,3.8,0,7.6,0,11.4Z"/>
  <path class="st1" d="M627,463c-3.1-2-2.6-7.8-3-11l4,8c-.3,1.3-.8,2.1-1,3Z"/>
  <path class="st4" d="M420,502c-1-1.3-1.7-6.7-.5-7,2.7-.8,1.2,5.5,1.5,7h-1Z"/>
  <path class="st5" d="M202,820h-2c-.2-3.2.6-3.9,1-6,1.4,1.9.8,4,1,6Z"/>
  <path class="st4" d="M470,546l-4.8-10.7.8-3.3,8,16c-2.2-.7-2.7-1.5-4-2Z"/>
  <path class="st4" d="M458,539c-1-.7-1.7-1-3-2v-3c.5-1.1,2.9,3.7,3,5Z"/>
  <path class="st4" d="M531,551l6.5-12c2.1,5.2-3.8,8-5.5,12-.3,0-.7,0-1,0Z"/>
  <path class="st4" d="M542,548c-.7,0-1.3,0-2,0,1.3-1.2,2-4,2,0Z"/>
  <path class="st4" d="M670,341c0-.1-.9-.3-1-2l1,2Z"/>
  <path class="st4" d="M636,398c.2-.8,1-.9,1-1l-1,1Z"/>
  <path class="st4" d="M649.5,374c.6.3.6.7,0,1v-1Z"/>
  <path class="st5" d="M560,91c.5.6-2,5.8-2.5,7-3.4,7.6-8.8,20-17.5,21.5,3.8-6.7,9.2-14.6,10.8-22.2.4-2-1.4-1.8-1.8-1.3s-.2,2.5-.8,3.7c-2.5,4.8-10.5,21.5-14.7,23.3s.8-4.4,1-5c1.7-3.8,4.9-9.5,4.5-13.5s-.6-2.9-2-1.5-4.5,9.6-5.2,11.3c-2.3,5.1-2.5,13.8-10.8,13.7,6.4-13.8,12.1-28.4,12-44l27,7ZM552,94v-4c-.6-1.2-2.5,3.4-2,4h2Z"/>
  <path class="st4" d="M463,793.5c0-.3,1.6-1.8,2-2,2.7-1.3,23.9-1.3,25.5,1.5s.9,25.1,0,27-1.8,2-2,2h-24c-.1,0-1.5-1.4-1.5-1.5,0-5.7-1.1-22.9,0-27ZM487,794c-6.2,1.5-13.1,1.6-19.4.1-.4,0-1.6,1.2-1.6,1.4v23.5h21v-25Z"/>
  <path class="st4" d="M464.5,719h23c.2,0,2.5,2.3,2.5,2.5v27c0,.1-1.4,1.5-1.5,1.5h-24c-.1,0-1.5-1.4-1.5-1.5v-28c0-.3,1.2-1,1.5-1.5ZM466,747h19.5c.1,0,1.5-1.4,1.5-1.5v-22c0-2.3-5-.5-6.5-.5-4.8.1-9.7-.2-14.5,0v24Z"/>
  <path class="st4" d="M491,900c-.3,1,1,2.2,1,2.5v26c0,.6-1.7,1.5-2.5,1.5-4.4-.9-9.1,1.1-13,1.1s-12.5-1.4-12.5-2.6v-27c0-.1,1.4-1.5,1.5-1.5h25.5ZM489,903h-22v24h22v-24Z"/>
  <path class="st4" d="M464,894c-2.1-4.2,0-7.5,0-11.5s-1-18.5,1.5-18.5h24c.1,0,1.5,1.4,1.5,1.5v27c0,.1-1.4,1.5-1.5,1.5h-25.5ZM488,867h-21v24h21v-24Z"/>
  <path class="st4" d="M464,828h25.5c.1,0,1.5,1.4,1.5,1.5v27c0,.1-1.4,1.5-1.5,1.5h-25c-.1,0-1.5-1.4-1.5-1.5v-26c0-.3,1.3-1.5,1-2.5ZM488,855v-22.5c0-.1-1.4-1.5-1.5-1.5h-19c-.1,0-1.5,1.4-1.5,1.5v22.5h22Z"/>
  <path class="st4" d="M490,785c-1-.3-2.2,1-2.5,1h-23c-.1,0-1.5-1.4-1.5-1.5v-28c0-.1,1.4-1.5,1.5-1.5h24c.1,0,1.5,1.4,1.5,1.5v28.5ZM487,758h-21v25h19.5c.1,0,1.5-1.4,1.5-1.5v-23.5Z"/>
  <path class="st4" d="M465,937c.8-1.2,22.6-1.6,25-.5s2,1.8,2,2v27c0,.1-1.4,1.5-1.5,1.5h-24c-.1,0-1.5-1.4-1.5-1.5v-28.5ZM489,939h-21v25h21v-25Z"/>
  <path class="st4" d="M489,684c1.3.8,1.6,25.5.5,28s-1.8,2-2,2h-24c-.1,0-1.5-1.4-1.5-1.5v-26c0-.3,1.3-1.5,1-2.5h26ZM487,687h-22v24h20.5c.1,0,1.5-1.4,1.5-1.5v-22.5Z"/>
  <path class="st4" d="M471,1012c2.3-.3,10.6-3.6,12-2.6s2.9,14.6-2.1,13.2-10.9-9.2-9.9-10.6ZM481,1013h-5s3.5,5,3.5,5l1.5-5Z"/>
  <path class="st4" d="M573,930c-.9,1.3-24.7,1.8-26.8-.2s-2.3-29.8,1.3-29.8h24c.1,0,1.5,1.4,1.5,1.5v28.5ZM570,903h-21v24h21v-24Z"/>
  <path class="st4" d="M573,937v28.5c0,.1-1.4,1.5-1.5,1.5h-24c-.2,0-1.8-1.5-2-2-1.2-2.6-.8-27,.6-27.9,9-1.2,17.8-1.3,26.9-.1ZM570,940h-21v24h21v-24Z"/>
  <path class="st4" d="M546.5,828h25c.1,0,1.5,1.4,1.5,1.5v27c0,3.3-23.3,3.2-26,2s-2-1.8-2-2v-27c0-.3,1.2-1,1.5-1.5ZM570,831h-21c-1.5,7.9-.9,16-1,24h22v-24Z"/>
  <path class="st4" d="M545,721.5c1.3-4.3,28-2.9,28,0v27c0,.1-1.4,1.5-1.5,1.5h-25c-.1,0-1.5-1.4-1.5-1.5,0-5.4-1.1-23.4,0-27ZM570,723h-22v22.5c0,.1,1.4,1.5,1.5,1.5h20.5v-24Z"/>
  <path class="st4" d="M573,865v27.5c0,.1-1.4,1.5-1.5,1.5h-25.5c.3-1-1-2.2-1-2.5v-25c0-.2,1.5-1.8,2-2,2.2-1,26-.8,26,.5ZM570,867h-20.5c-2.9,0-.4,6.3-.5,7.5-.2,5.2-1.9,10.9-1,16.5h22v-24Z"/>
  <path class="st4" d="M573,785c-.8,1.3-23.6,1.6-26,.5s-2-1.8-2-2v-26c0-.7,2.4-2.3,3.5-2.5,2.6-.5,20.7-.3,22.5.5s2,1.8,2,2v27.5ZM570,758h-20.5c-.1,0-1.5,1.4-1.5,1.5v22c0,.1,1.4,1.5,1.5,1.5h20.5v-25Z"/>
  <path class="st4" d="M546,792h25.5c.1,0,1.5,1.4,1.5,1.5v27c0,.1-1.4,1.5-1.5,1.5h-25c-.1,0-1.5-1.4-1.5-1.5v-26c0-.3,1.3-1.5,1-2.5ZM570,795h-22v22.5c0,.1,1.4,1.5,1.5,1.5h20.5v-24Z"/>
  <path class="st4" d="M546.5,684h24c.2,0,2.5,2.3,2.5,2.5v26c0,.1-1.4,1.5-1.5,1.5h-25c-.1,0-1.5-1.4-1.5-1.5v-27c0-.3,1.2-1,1.5-1.5ZM570,711v-22.5c0-.1-1.4-1.5-1.5-1.5h-20.5v24h22Z"/>
  <path class="st4" d="M573,973v28.5c0,.1-1.4,1.5-1.5,1.5h-25.5v-30h27ZM570,976h-21v24h21v-24Z"/>
  <path class="st4" d="M568,1012c1.8,2.7-9.7,12.5-12,11-.9-2.6-2.1-12.1,0-13.6s11.7,2.1,12.1,2.6ZM558,1018c2.9.5,4.2-1.7,6-3.5l-6-2.5v6Z"/>
  <path class="st0" d="M482,284c.2.4-.2,1.7,0,2-2,4.2-7.6,1.2-10.6,1.1s-.3,1.7-1.1,1.9c-3,.7-24.6-3-28.6-4.2s-1.7-.8-1.7-1.7c5.8-.2,12.9-2.1,18.5-2.1,5.8,0,10.5,3.1,16,4.1-4.6-8-20.5-6.1-28.6-4.5s-7.5,3-11.6,3.4c-9.3,1.1-13.3-.7-22.1,2.9s-15.4,6-21.8,11.2c-.9-3.1,2.4-8,4.1-10.9,7.4-12.7,19.6-24.8,35.5-22.6,17,2.4,36,13.3,51.9,19.5ZM425,268c-1.4-.7-2.7.6-2,1,1.4.7,2.7-.6,2-1ZM422,269c-4.9,1-10.2,4.4-13,8.5l13-8.5ZM426,272c-1.2-.2-5.1,1.5-4,2,1.2.2,5.1-1.5,4-2ZM449,273c-3.1,0-6.2-.3-9.3.2s-6.6,2-7.7,3.8l17-4ZM409,282l12-7.5-3.9,1.1-8.1,6.4ZM449,276l-11,1.5-10,4.5,21-6ZM430.5,277v1c.6-.3.6-.7,0-1ZM448,285h16.5c.6,0,2,1.6,3.5,1,1.6-1.2-9.1-3.9-10.5-3.1l-9.5,2.1ZM476.5,285c-1,.7.5,1.4,1,2,1-.7-.5-1.3-1-2ZM469.5,286v1c.6-.3.6-.7,0-1Z"/>
  <path class="st5" d="M482,284c-15.9-6.3-34.9-17.2-51.9-19.5-15.9-2.2-28,9.9-35.5,22.6s-5,7.8-4.1,10.9c6.3-5.2,14.2-8.2,21.8-11.2s12.8-1.8,22.1-2.9,7.6-2.7,11.6-3.4c8.1-1.6,24-3.5,28.6,4.5-5.5-1-10.2-4.1-16-4.1-5.6,0-12.7,1.9-18.5,2.1,0,1,.9,1.5,1.7,1.7,4,1.2,25.6,4.9,28.6,4.2s.6-1.9,1.1-1.9c2.9.1,8.5,3.1,10.6-1.1.1.1,1.3-.2,1.7.3.7.8,0,2.3.3,2.7-13.9,6.6-28.3.7-42.6-.9s-26.2-.7-42.4,7.4c-1.9,1-11.8,7.7-13,6.5,1.7-11,11.2-26.4,20-33s12.4-7.1,17-7.6c10.4-1.2,44.9,11.9,54.3,17.8s3.1,1.6,4.7,4.8Z"/>
  <path class="st5" d="M616,268c9,6.1,17.5,22.3,19,33-5.7-2.2-10.5-6-16-8.5-12-5.3-22.3-6.5-35.4-5.5-9.9.8-35.7,8.4-43.5,2-.5-.4-.9-2.2-1-3,5.1,3,7.9,1.4,12.6,1.1s0,2,1.9,2c12.9,0,26.3-5.2,41.6-5.1.7,0,1.3,0,2,0,2.9.1,8.4,0,10.9.6,8.1,2.1,16.4,8.7,24.1,11.9-5.8-14-11.6-24.9-26.3-30.7s-13.4-2-23.4.9c-15.1,4.4-29.3,11.2-43.2,18.3.3-1.9.6-2.3,2-3.5,6.8-5.5,28.6-13.9,37.5-16.6,14.8-4.5,23.9-6.3,37.5,3Z"/>
  <path class="st5" d="M585,235c1.1,1.1,0,2-1.5,2-3,0-5.7-1.2-9-1.1s-9.4.7-12.9,1.2c-11.5,1.6-22.3,6.9-33.6,7.9l11.5-5c6.8-3.3,41.3-9,45.5-5Z"/>
  <path class="st5" d="M490,244c-14.1-2.2-27.9-7.8-42.5-8s-9.5,1.5-13,1.1-1.6.3-1.5-2c17.8-2.5,37.2-.4,53.8,6.7s3,.5,3.2,2.3Z"/>
  <path class="st5" d="M504,215v2c-17.1-.8-33.8-5.5-51-5.5,0-.8,3.5-1.4,4.5-1.5,15-1.1,31.5,3.5,46.5,5Z"/>
  <path class="st5" d="M519,215c5.3-.5,49-8.1,50-4.5s-2.1,1.4-3.5,1.5c-16.3.6-30.8,4.2-46.5,5v-2Z"/>
  <path class="st5" d="M524,196l-9.5,2c-7.4,0-16.1,0-23.2-1.9s-2.8.7-2.3-2.1c11.5,3.3,23.4-.9,35,2Z"/>
  <path class="st3" d="M535,292c-.3.7-.7,1.3-1,2-3.4-.7-8-13.9-7-15,2.1-2.3,6.3,12.2,8,13Z"/>
  <path class="st5" d="M486,293c1.6-3.6,3.4-6.9,4.9-10.6s-1-2.9,2.1-2.4c.4,5.2-2.1,9.9-5,14,0-.1-1.6-.3-2-1Z"/>
  <path class="st3" d="M519,215v2c-4.7.2-10.3.2-15,0v-2c6.4.6,8.5.7,15,0Z"/>
  <path class="st5" d="M524.5,194c.6.3.6.7,0,1v-1Z"/>
  <path class="st2" d="M486,332c-.2,4.4-1.9,9.6-3,14s-2.5,4-2.9,7.6c-2.3,20,9.9,29.8,10.9,48.4-19,4.6-21.9-3.7-15-20,1-1.3,2.2-2.6,3-4-8.2-.7-11.9,7.2-17,11s-1.5-.4-1.9.1.1,2.2-.1,2.9-.5.7-1,1c-11.2,7.6-22,21.5-37.5,22.1-18.2.6-35.9-26.6-42.7-41.4-9.1-19.8-4.2-39,5.4-57.5,4.6-1.1,12.5-.3,16.5-2s8.3-9.4,11.8-12.2c15.6-12.3,40.4-12.6,56,0s15.4,17.5,17.1,22.9.6,4.7.5,7ZM407,320c0,.9.3.9,1,1,2.1.4,4.8-.4,7.3.2,5.6,1.3,10.7,4.2,17.2,4.8,14.2,1.3,27.7-2.7,41.5-1,1.2-.9-10.9-12.3-12-13.5-.3-1.8,8.3,2.3,5-1-11.2-11.1-51.3-5.5-60,9.5ZM406,321c-6.6.3-12.7.1-19-2-3.3,3.1,18.8,9.6,19,2ZM403,327c-6.2,2.2-12.4,3.2-19,3.5,2.7,2.3,9,1.9,12.3,1.3s8.7-3.1,6.7-4.8ZM462,336c-12.6,1.2-24.2,7.8-37,3.5l-12-6.5c3.8,5.7,8.5,6.7,14.2,9.1s.7,1.9,1.3,1.9c1,0,2.5-1,3.9-1,10.1-.1,18.1-.8,27.5-5-.6,1.3-.1,2.7-1.5,4.9-6.4,9.9-25.2,11.4-35.5,8.6s-7.9-5-13-6.5c0-5.6-7.1,2.9-6,6l5-5c2,6.3,8.8,11.5,15,13s15.3,1.2,22,0c9.4-1.8,18.3-7.9,23.8-15.7s3.8-5.4,2.2-6.3-5.3-1.9-6.7-2c-2.1-.1-2.9.9-3.3,1ZM406,335c-7.1,1.8-12.6,7.5-17,13,2,.4,2.7-.5,4-1.4,3.3-2.4,7.4-5.7,10.7-8.3s2.7-1.1,2.3-3.2Z"/>
  <path class="st2" d="M535,331c8.4-30.9,44.4-52.8,72.9-31.4,8,6,9.7,15.8,21.5,10.3s4.4-4.3,7.6-4.9c5.8,21.5,13.9,41.7,5.5,64s-16.7,25.5-26,36c-11.3,12.9-29.4,9-41.5-.6-6.1-4.8-9.3-12-16.1-15.4-4-5-11.6-11.9-18-11.5,4.1,3.4,5.5,5.7,7,10.5s1,.9,1,1c0,.3,0,.7,0,1,1,13.5-7.3,12.2-18,12-.5-.5,1.2-12.1,1.7-13.8,1.5-5.1,5.5-7.4,7.1-10.9,4.8-10.6,2.2-24.4-2.7-34.2-.8-3.6-1.2-8.6-2-12ZM620,323c4.7.2,9.3-.6,12-5-15.2,6.3-17-1.3-27.5-7-14.4-7.8-36.9-10-51.5-2,.9,3.4,4.1-.1,6,1.5-2.2.8-14.7,13-13,14.5,9.1-2.2,17.6.6,26.5,1,8.2.4,15.8-1,23.5-1s14.3.4,22,1c1.9,3.5,11.7,4.6,14.8,3.3s1.5-.2,1.2-2.3c-4.8.5-9.3-.5-14-1v-3ZM549,340c4.1,8.4,17.6,18,27,19s14,.1,20-1c11.1-2.1,14.9-11.6,16.5-12s4.6,5.6,7.5,5c.8-3-6.8-9.3-8.5-9-1.5.7-1.1,2.2-1.5,3-10.3,5.8-19.4,8.3-31.4,6.9-7-.8-19.7-7.2-20.6-14.9,12.7,4,27,9,40,3.5,1.9-.8,5.5-2.8,6-5l-12.8,4.2c-11.5,2.1-22.1-3.7-33.2-4.7s-5.9-.1-10,.5c-1.3.8.5,3.4,1,4.5ZM632,344c1.6-1.6-9.6-9-11.1-9.4-2.1-.7-3.8-.7-5.9-.6.1,5,5,3.4,8,4.5s8.1,6.4,9,5.5Z"/>
  <path class="st2" d="M568,411c2,1.6,1.9,1.9,3,4,4.7,8.9,9.1,18.5,19.6,22.9s17,2.2,24.7-3,8.6-9.1,9.7-7.8c-.6,3.7-.3,9.6-1,13s-1.5,3.4-2,4-1.7-.6-2,.6c-2.9,12-7.2,21.8-11,33.4-.9.7-2.2,1.2-3,2-2.2,2-2.3,1.9-3,5h-2c1.5-5.6,2.3-12.6,3.2-18.4s1-3-.2-4.6c1.8-6.1,3.5-13.7,4-20-6.3,7.6-6.6,19.2-9.7,28.8-2.3,7-5.9,14.6-9.3,21.2-1.4-.8-2.6-8-3-10-1.1-.4-1.8,1-2,1-.9.2-2.1-.1-3,0-.4-1.7-1.8-7.2-5-5s-2.4,13.6-5,15.5l2,1c-.8,2.2-3.7.2-4,.5-.9.8.1,4.8,0,4.9-6.2,3.5-4.6,5.3-8.2,8.9s-8.4,4.3-11.1,6.4-2,2.6-3.2,3.8l-.5-3c-6.8,3.9-12.8,3.9-19.7.2s-3.4-2.2-8.8-3.8-6.1-2.5-9.5-2.4l-.5,3c-4-7.4-7-.8-10.6,1.4s-10.1,6.3-14.9,3.6c0,2,.8,3.6-2,3,1.2-4.7-3.9-2.5-7.6-3.8s-4.9-3.3-5.4-3.7c-3.9-3.2-18.4-18.2-19.7-22.3s-2.5-11.6-3.3-16.2c.4-2.2.4-6,1-8,4.8-1.8,9.3-4.5,13-8,22.4,15.6,32.8,20.9,61.5,19,17.7-1.2,28.4-9.5,42.5-19l13,7c.3.6.7,1.2,1,2s-.2,4.6,3.1.5c2-2.5.2-2.7,0-3.5s.1-.8,0-1c3.7-.7,7.2-2.8,10-5s1.9,0,2.6-.9c2.3-3.4-10.5-24.1-14-27.1s-2.3-2.3-4.5-2c-.3-.4.1-1.8-1-2.5-2.9-1.8-6.6-.3-8.4-.5s-.5-2-1.2-2c-1.4-.1-3.9,2.9-3.5-.9-3.3.7,2.7,4.4,2,5-1.8,1.5-3.2-3.5-4.8-3.9-4.1-1.1-10.3-.5-13.8-3.1-.4,3.3-7,1.4-5.5-2-1.8,1.2-3.4,0-4,0,9.7-2.8,22.1-5.2,24-17,1.7-1.6,7.2,6.8,8.5,8.1s2.2.7,2.5.9ZM486,487c1.4,3.2,3.6,9.6,7,10,0,.3,0,.7,0,1s-.1.9.5,1c.6,0,1.2-1,1.5-1,.4,0,.9,0,1,.5-1.6,3.9,4.3,5.1,7,4.5,1.4,1.3,3.3,6.4,5,5s-.2-1.8,0-2,1.6-.9,2-1,.7,0,1,0,1.2.8,2.3.7c5-.6,6.1-2.8,9.7-5.7,6.3-2.6,9-9.4,12-15,8.3-.6,13.5-6.3,19-11.5-3.7,1.7-16.3,6-18,8.5-3-1.1-7.6,1-9.5,1h-34c-.4,0-7.9-.9-8.5-1-4.6-1.1-11.2-6.6-15.5-9-3.2-1,5.8,7.8,6.6,8.4,2.6,2.1,7.6,5.4,10.9,5.6Z"/>
  <path class="st2" d="M519,305c3.6.1,7.1-.9,10,2-4.5,6.8-5.1,13.3-6,21-1.3,11.8-.8,29.3,1.3,41.2s6.8,17.7,4.5,30c-2.5,13.4-33.9,15.7-35.7-1.9-.7-7.4,3.1-20.8,3.9-28.9,1.5-14.9,3.2-30.2,0-44.5s0-1.4,0-2,1.2-1.1,1.1-2.5c-.4-8.2-4-12.9,7.9-14.5,3.5-.5,9.3-.1,13,0ZM507.6,385.1c-3.1,1-1.7,8.1,1.7,7.8,6.1-.5,3.4-9.5-1.7-7.8Z"/>
  <path class="st2" d="M444,424c2.1-2.7,4.2-5.8,6.4-8.6,3.3-4.3,8.1-8.6,11.1-13.4,2.2-.4,1.2.4,1.6,1.4,1.3,3,1.5,5.4,3.8,8.2s9.6,7.3,14.1,9.4c-.2.2.2,1.8,0,2-2,1.6-2-1.6-2.2-1.8-1.1-1-15.1,4.7-16.3,6.8-1.1-4.1-2.8-1.1-5,1-2,.7-1.3-2.2-2-2-3.5.9-4.9,4.4-5.7,4.9s-2.3-.9-2.8-.9c2.6-4.8-3.9.3-4.5,1-3.2,3.1-15.3,19.7-14.4,23.5s2.8,1.4,2.9,1.6,1.9,3.7,2,4c.3.7,1,1.9,1,2,0,.6-2.7,2.4,1.8,2.8s2.5-1.4,3.2-1.8,1.4.1,2,0c-.4,2-1.7,5.9-1.8,6.7s2.5,4.8,1.8,9.3c-.6.2-1.4.9-2,1-.9.1-2.3-.2-3,0-2.4.9-5.8,9.1-6,12-1.5-.3-2.1-2-3-3l-12.2-43.3-1.8-1.7c-.1,2.7.5,5.4,1,8-3.5-.4-1.4,1.1-1.3,2.8.5,6.6,2,12.7,2.3,19.2-1.3,1.5-8.2-9.1-8.7-10.8-.9-2.6-.7-6.4-1.6-9.4s-5.3-13.4-4.3-14.9c2.2-3,10,.7,13.1,1.1,13.6,1.5,21.6-4.7,29.5-14.5s.7-2.1,1-2.5Z"/>
  <path class="st3" d="M559,389c9.9,12.5,16.4,31.2,30,41l-1,1c-7.9-4.8-11.6-8.2-17-16-1.1-2.1-1-2.4-3-4-3.4-8.3-9.1-15.9-14.5-23,3,10.7,1.7,25.2-12.5,25,1.2-2.4,4.1-2.6,6-4.4,4.3-4.1,5.3-13.5,2-18.5,0-.3,0-.7,0-1l-1-1c-1.5-4.8-2.9-7.1-7-10.5,6.4-.4,14,6.5,18,11.5Z"/>
  <path class="st3" d="M462,389c5.1-3.8,8.8-11.7,17-11-.8,1.4-2,2.7-3,4-6.2,7.6-8.7,14.8-4.9,24.4l6.9,6.6c-14-.4-12.5-13.5-11.5-24-7.7,10.5-13.8,21.9-21.9,32.1s-.4,2.6-.6,2.9c-.4.6-10.3,7.8-11.3,8.2s-4.7,1.9-4.7-.2c14.6-8,22.9-25,31-39,.5-.3.8-.3,1-1,1.4-.4,2-1.5,2-3Z"/>
  <path class="st3" d="M542,410c-.5.5-11.3,2.1-13.6,3-4.2,1.6-6.5,5.6-11.4,6.6-13.3,2.8-15.1-2.1-25.1-6s-14-3.3-14-4c0-1.9,2.2-2.9,3.7-3.3,12.7-2.9,15.4,10.4,27.9,10.7,11.9.2,16.3-10.8,24-11.8,2.8-.4,11.4,1.5,8.4,4.9Z"/>
  <path class="st5" d="M427,490c-5.6-6.6-11.1-27.8-13-37s-1.1-5.3-1-8l1.8,1.7,12.2,43.3Z"/>
  <path class="st5" d="M529,307c.6-1,7.4-8.1,6-3.5s-4.5,6.3-5.9,9.1-3.1,7.9-4,12.1,1,3.9-2.1,3.3c.9-7.7,1.5-14.2,6-21Z"/>
  <path class="st3" d="M497,322c0,.6-.1,1.5,0,2l-10-19c7.2.8,8.1,11.6,10,17Z"/>
  <path class="st5" d="M537,343c0-.1-1.5-.8-2.2-2.2-1.7-3.5-2.8-9.9-2.8-13.8,2.1-.9,2.7,2.8,3,4,.8,3.4,1.2,8.4,2,12Z"/>
  <path class="st5" d="M483,346c1.1-4.4,2.8-9.6,3-14l3-4c-.4,5.7-1.6,13.9-6,18Z"/>
  <path class="st5" d="M506,305c-.6-3.4,7.6-2.1,9.5-2s4-1,3.5,2c-3.7-.1-9.5-.5-13,0Z"/>
  <path class="st5" d="M589,430c2.1,1.5,7.3,2,7,5-3.7.8-5.9-2.7-8-4l1-1Z"/>
  <path class="st3" d="M402,425c-.3.7-1.7-.6-1-2s1.7.6,1,2Z"/>
  <path class="st3" d="M525.7,758.3c8.7,9.4-4.6,24-14.8,15.3-11.4-9.7,5.1-25.6,14.8-15.3ZM515.7,759.2c-7.6,2.2-4.5,15.3,4.6,12.6s4.3-15.2-4.6-12.6Z"/>
  <path class="st3" d="M515.8,669.2c14-2.3,16.2,17.9,4.5,20.6-14.3,3.3-18.7-18.2-4.5-20.6ZM515.7,673.2c-7.5,1.6-6,14.6,3.5,12.6s6-14.6-3.5-12.6Z"/>
  <path class="st3" d="M516.8,839.2c14-2,16.1,19.5,2.6,20.8s-15.9-18.9-2.6-20.8ZM516.7,843.2c-5.7,1.2-7,10.4-.8,12.4,10.9,3.4,11.5-14.6.8-12.4Z"/>
  <path class="st3" d="M504,446c12.6,2.1,7.3.9,18-1,4.4-.8,14.2.4,19,1s1.5.8,3,1,1.4,0,2,0,1.6.8,3,1,2.1-.2,3,0,1.6.7,3,1,1.4-.1,2,0,1.1.8,2,1,1.4-.1,2,0,1.4-.1,2,0c10.3,2.5,9.9,6.9,16,14,.1.2,0,.7,0,1l-3,3c-.3-.8-.7-1.4-1-2-1.8-4-3.6-8.4-7.6-10.8-16.3,1-33.8,5.8-49.8,6.8-18.8,1.1-38.6-5.2-57.5-5l13.3,9.2c17.4,10.7,47.9,12.6,66.4,4,3.4-1.6,20.5-14.5,22.2-13.1s0,1.3.1,1.9c-14,9.5-24.7,17.9-42.5,19-28.7,1.9-39.1-3.5-61.5-19-1.6-1.1-1.6-4.5-6-2.5s-6.2,7.9-7,10.5-.6,5.8-1,8c-.6-4.1-1.7-6.2-.6-11.1s5.8-11,7.6-11.9,3.3-.9,4-1c1.1-.3,2.8.3,4,0s1.8-.6,3-1,2.1-.3,3-1h1c1,1.2,3.5.4,5,0s1.4-.5,2-1c1,.7,18.3-3,21.6-3s6.9.6,9.4,1ZM557,452c-10.6,0-21.8-5-32.4-3.9s-8.8,3-13.1,2.9-7.8-2.3-11.3-2.8c-11.6-1.5-24,3-35.3,5.2,13.6,0,28.3,4.6,41.5,5.5,10.9.7,33.1-3.3,44.8-5.1,1.3-.2,5.4-.4,5.6-1.9Z"/>
  <path class="st2" d="M504,446c-1.1-2.3,2-8.3,4-8.5s5.7,1.5,5.9,1.7c.5.5-.1,2.3.2,2.7.5.6,2.9,0,3.9.1s1.9,1,3,1c.3.6,1,1.1,1,2-10.7,1.9-5.4,3.1-18,1Z"/>
  <path class="st5" d="M431,457c-.1-.2-2.6-.2-2.9-1.6-.9-3.8,11.2-20.4,14.4-23.5s7.2-5.8,4.5-1c-1.7,0-16.7,21.7-16,26Z"/>
  <path class="st5" d="M589,459c-.5-11.9-10.2-20.8-16-30,2.3-.4,3.1.7,4.5,2,3.6,3,16.3,23.7,14,27.1s-2.2.7-2.6.9Z"/>
  <path class="st1" d="M552,448c.3-1.5-3.4-5.6-3-6s1.5-.1,2-.6c1-.8-.7-3.6,1.5-2.4s3.5,7.7,4.5,9h-1.5s-.5,1-.5,1c-1.4-.3-2.5-.9-3-1Z"/>
  <path class="st1" d="M557,448c.1.1,2.8-.5,2,2-.9-.2-1.7-.9-2-1v-1Z"/>
  <path class="st4" d="M529,537c-4-3-1.2-10.5-2-15,1.5-.2,1.8,2.6,1.9,3.6.4,3.8,0,7.6,0,11.4Z"/>
  <path class="st4" d="M451,452c1.3-6.8,9.2-13.6,4-1-.7.1-3.8.9-4,1Z"/>
  <path class="st4" d="M433,461c3.7-4.5,4.8-11.1,11-13.5l-10,15.5c0-.1-.7-1.3-1-2Z"/>
  <path class="st4" d="M584,483c.1,0,.9-1.4,2-1,.4,2,1.6,9.2,3,10s.7,0,1,0l-1,1c0,0-1.4.3-2-.7-1.3-2.1-2-6.8-3-9.3Z"/>
  <path class="st4" d="M509,524c0,3.2.1,6.3,0,9.5s.8,3.7-1,3.5c.2-3.9-1.5-7.6-1-11.5s.7-3.1,2-1.5Z"/>
  <path class="st4" d="M463,444c-3.9-2.2-.8-7.3,2-9l-2,9Z"/>
  <path class="st4" d="M581,483c1,3.9.8,8.1,2,12-3.1.5-1.6-.8-2-2.5-.6-3-.5-6.3-2-9-.2-.9,1.2-.4,2-.5Z"/>
  <path class="st4" d="M435,494c0-3.2,1.2-8,4-10-.5,3.1-1.2,8.2-4,10Z"/>
  <path class="st1" d="M541,446l1-5,2,6c-1.5-.2-2.7-1-3-1Z"/>
  <path class="st4" d="M455,533c-3.2-2.1-2.9-7.6-3-11l3,11Z"/>
  <path class="st4" d="M467,444c0-2.8,1.5-6.6,4-8,0,3-1.1,6.7-4,8Z"/>
  <path class="st4" d="M548,541c1.1,1.1-3.9,6.1-5,5s3.9-6.1,5-5Z"/>
  <path class="st4" d="M495,441c-.1-2.2.7-5.1,3-6,.1,2.2-.7,5.1-3,6Z"/>
  <path class="st4" d="M547,444l-4.2-5.3-1.8-5.6c3.4,2.5,3.9,7.5,6,11Z"/>
  <path class="st4" d="M534,437c-1.8,1.8-3.3-3.2-3-5,.6-.8,3.8,4.2,3,5Z"/>
  <path class="st4" d="M536,438c.3.2,1.1,4.1,1,5-3.1-.8-3.8-7.4-1-5Z"/>
  <path class="st4" d="M521,443c-1.1,0-2.2-.9-3-1,.9-2.3-3.9-6.7-1-8,0,3.6,2.5,5.7,4,9Z"/>
  <path class="st4" d="M486,444c-.1.1-.7,0-1,0-.1-1.8-.3-4.4,2-5,0,1-.6,4.5-1,5Z"/>
  <path class="st1" d="M561,450l-1.5-7,3.5,7c-.6-.1-1.4.1-2,0Z"/>
  <path class="st4" d="M478.4,542.6c.4.6,2.2,1.8,2.5,2.9-3.3,0-6.5-6.4-7-9.5,2,1.5,3,4.3,4.4,6.6Z"/>
  <path class="st4" d="M492,427c2.4,1.1-1.3,6.1-2.5,7l2.5-7Z"/>
  <path class="st4" d="M476,440c.4,2.3-.8,3.6-2.5,5-.6-1.2,1.9-5.8,2.5-5Z"/>
  <path class="st4" d="M462,450c-1.2.4-1.4.7-3,1,.6-3.1,1.5-4.1,3-1Z"/>
  <path class="st4" d="M579,448c-1.7,1.8-2.7-2.3-2.5-4,.9.8,3.4,3,2.5,4Z"/>
  <path class="st4" d="M473,448c-.6.5-1.3.8-2,1l1.5-3c1,0,.2,1.8.5,2Z"/>
  <path class="st2" d="M590,495c0-.1-.9-1.9-1-2l1-1h1c-.3.7.4,2.4-1,3Z"/>
  <path class="st4" d="M550,540c-.4.5-2.7.3-2-1.5s3.6-4.8,4.5-6.5c-.9,1.3-2.2,7.7-2.5,8Z"/>
  <path class="st1" d="M549,448c-1.4-.2-2.7-1-3-1,.4-.2.7-.9,1-1s.8,0,1,0c1.3.5,1.1.8,1,2Z"/>
  <path class="st4" d="M581,449c.2.2.9,4,1.5,5-3.4-1.2-4.3-7.7-1.5-5Z"/>
  <path class="st4" d="M571,442c1.1,1.1-.9,3.1-2,2s.9-3.1,2-2Z"/>
  <path class="st4" d="M502,441c1.1,1.1-.9,3.1-2,2s.9-3.1,2-2Z"/>
  <path class="st4" d="M441,464c-.6.1-1.7-.2-2,0l7.5-14c.6,4.1-4.6,7.6-5.8,11.3s.3,2.5.3,2.7Z"/>
  <path class="st4" d="M571.5,445l4,7c-1.9-1.7-3.8-4.3-4-7Z"/>
  <path class="st4" d="M462,447c-.3.7-1.7-.6-1-2s1.7.6,1,2Z"/>
  <path class="st4" d="M466,449h-1c-.4-2.8,1.4-2.8,1,0Z"/>
  <path class="st4" d="M504,438c-.1.1-.7,0-1,0,.3-1.5.5-4.3,2-4,.2.3-.9,3.8-1,4Z"/>
  <path class="st4" d="M488,438c-2,.2-1-2,.5-3l-.5,3Z"/>
  <path class="st4" d="M506,433c-.3.7-1.7-.6-1-2s1.7.6,1,2Z"/>
  <path class="st4" d="M500,432c-2,.2-1-2,.5-3l-.5,3Z"/>
  <path class="st4" d="M441,480c-.4,2.6-2.4,4.8-2,1,.6,0,1.4-.8,2-1Z"/>
  <path class="st4" d="M498.5,433c.6.3.6.7,0,1v-1Z"/>
  <path class="st4" d="M471.5,434c.6.3.6.7,0,1v-1Z"/>
  <path class="st4" d="M476.5,438c.6.3.6.7,0,1v-1Z"/>
  <path class="st4" d="M502.5,439c.6.3.6.7,0,1v-1Z"/>
  <path class="st4" d="M494.5,442c.6.3.6.7,0,1v-1Z"/>
  <path class="st4" d="M575.5,442c.6.3.6.7,0,1v-1Z"/>
  <path class="st4" d="M466.5,445c.6.3.6.7,0,1v-1Z"/>
  <path class="st4" d="M548,446c-.2,0-.8,0-1,0l.5-1,.5,1Z"/>
  <path class="st4" d="M481.5,547c.6.6,2,1.3,1,2-.5-.6-2-1.3-1-2Z"/>
  <path class="st4" d="M473.5,534c.6.3.6.7,0,1v-1Z"/>
  <path class="st4" d="M576.5,453c.6.3.6.7,0,1v-1Z"/>
  <path class="st3" d="M351,168c.7,1.8-3,4.9-4,4-.7-1.8,3-4.9,4-4Z"/>
  <path class="st3" d="M505,594c.4.4,2.2,2.9,2,3-1.2.2-3-.3-4,0-8.1-6.3-9.5-15.9-13-25,2-.4,2.3.9,3.2,2.3,2.7,4.1,3.2,10.1,6.4,14.6s3.9,3.4,5.4,5.1Z"/>
  <path class="st3" d="M486.5,96c.6.3.6.7,0,1v-1Z"/>
  <path class="st3" d="M682,316c0-1.7,0-3.3,0-5,2.6-.4,1.8.4,2.3,2.2,1.5,5.4,1.2,19.8.7,25.8s-1.3,13.1-4,10c2-10.8.5-22,1-33Z"/>
  <path class="st5" d="M658,385l-.9-.6,4.9-8.4,9-7.5c-3.4,6.1-8.4,11.3-13,16.5Z"/>
  <path class="st5" d="M333,342c-.8-6.3-2.1-19.6-1-25.5s1.1-2.8,3-2.5c0,2.3,0,4.7,0,7,0,4.1,1,9.4,1,12.5v17.5c-3.3-1.6-2.6-6.1-3-9Z"/>
  <path class="st5" d="M351,375c2.8,3,6.7,5.1,8.5,9s1.4,3.4-1.5,3c-5.4-6.3-13-12.5-14.5-21,2.6,3,4.8,6.1,7.5,9Z"/>
  <path class="st4" d="M622,444c.6,8.8-.5,17.4-2,26-1.7.3-1.1-2.4-1-3.5.2-3.1,1.1-5.5,1-9s.7-3.7-1-3.5l-6.5,25-2.5-1v9s-1-9-1-9c3.8-11.6,8.1-21.4,11-33.4.3-1.2,1.9-.5,2-.6Z"/>
  <path class="st4" d="M606,480l-3,15c-1.8.2-1-2.3-.9-3.4s.6-5.3.9-6.6c.7-3.1.8-3,3-5Z"/>
  <rect class="st4" x="626" y="447" width="1" height="4"/>
  <path class="st3" d="M552,94h-2c-.5-.6,1.4-5.2,2-4v4Z"/>
  <path class="st1" d="M489,976c.2,4.2-.2,8.4,0,12.5s2.6,11.5-.5,11.5h-20.5v-24h21ZM486,979c-16.1-1.9-17,2.2-14,17h14v-17Z"/>
  <path class="st1" d="M570,652v22.5c0,.1-1.4,1.5-1.5,1.5h-19c-.1,0-1.5-1.4-1.5-1.5v-22.5h22ZM552.1,671.9c1,.6,13.5.5,14.4-.8s-.7-15-1.5-15.6c-1.3-.9-12.7-.9-13.6.5s-.7,15.1.7,15.9Z"/>
  <path class="st4" d="M483,655v17c-2.9-.5-13.1,1.1-14.6-.9s0-12.8.6-16.1h14ZM480,658c-7.4-.4-10.1-.9-9.1,7.5s4.7,3.1,9.1,3.4v-3c-8.3,1.1-8.3-6.1,0-5v-3Z"/>
  <path class="st5" d="M604,462c-3.4,11.6-8.4,19.6-13,30h-1c-.3,0-.8.1-1,0,3.4-6.6,7-14.2,9.3-21.2,3.1-9.6,3.4-21.2,9.7-28.8-.5,6.3-2.2,13.9-4,20Z"/>
  <path class="st1" d="M487,794v25h-21v-23.5c0-.2,1.1-1.3,1.6-1.4,6.3,1.5,13.2,1.4,19.4-.1ZM484,798h-14v15.5c0,2.5,11.8,1.2,14,1.5v-17Z"/>
  <path class="st0" d="M466,747v-24c4.8-.1,9.7.2,14.5,0s6.5-1.8,6.5.5v22c0,.1-1.4,1.5-1.5,1.5h-19.5ZM470.6,726.1c-2.4.8-2.2,14.5-1.2,15.9s12.3,1.4,13.6.5,1.4-14.3.5-15.6-11.2-1.4-12.9-.8Z"/>
  <path class="st1" d="M489,903v24h-22v-24h22ZM485,907h-14v16h14v-16Z"/>
  <path class="st0" d="M488,867v24h-21v-24h21ZM485,871h-15v15.5c0,2.3,15,2.3,15,0v-15.5Z"/>
  <path class="st1" d="M488,855h-22v-22.5c0-.1,1.4-1.5,1.5-1.5h19c.1,0,1.5,1.4,1.5,1.5v22.5ZM484,835h-14v16h14c.7-5.6.7-10.4,0-16Z"/>
  <path class="st1" d="M487,758v23.5c0,.1-1.4,1.5-1.5,1.5h-19.5v-25h21ZM484,762c-2.4.3-15-1.1-15,1.5v14.5c2.4,1.1,15,2,15-.5v-15.5Z"/>
  <path class="st0" d="M489,939v25h-21v-25h21ZM471,943v15.5c0,2.1,13.4,2.3,14.6.6s.9-14.7-.5-15.6c-2.1-1.4-11,.1-14.1-.4Z"/>
  <path class="st1" d="M487,687v22.5c0,.1-1.4,1.5-1.5,1.5h-20.5v-24h22ZM483,707c.5-3.4,2.2-13.5.5-16s-11.8,1.1-14.5,0v16h14Z"/>
  <polygon class="st0" points="481 1013 479.5 1018 476 1013 481 1013"/>
  <path class="st1" d="M570,903v24h-21v-24h21ZM567,907h-15v16c2.3-.5,15,2.8,15-.5v-15.5Z"/>
  <path class="st0" d="M570,940v24h-21v-24h21ZM552,943v15.5c0,2.1,13.4,2.3,14.6.6s.9-14.7-.5-15.6c-2.1-1.4-11,.1-14.1-.4Z"/>
  <path class="st0" d="M570,831v24h-22c0-8-.5-16.1,1-24h21ZM552,835v15.5c0,2.1,13.4,2.3,14.6.6s.9-14.7-.5-15.6c-2.1-1.4-11,.1-14.1-.4Z"/>
  <path class="st1" d="M570,723v24h-20.5c-.1,0-1.5-1.4-1.5-1.5v-22.5h22ZM566,743c1.2-14.8,3.6-18.7-14-17v17h14Z"/>
  <path class="st1" d="M570,867v24h-22c-.9-5.6.8-11.2,1-16.5,0-1.3-2.4-7.5.5-7.5h20.5ZM552,887c5.1-1.3,14.2,4.7,15-2.5,1.9-15.5-1-14-15-13.5v16Z"/>
  <path class="st1" d="M570,758v25h-20.5c-.1,0-1.5-1.4-1.5-1.5v-22c0-.1,1.4-1.5,1.5-1.5h20.5ZM566,762h-14v15.5c0,2.1,13.4,2.2,14.6.6s.5-15.4-.6-16.1Z"/>
  <path class="st1" d="M570,795v24h-20.5c-.1,0-1.5-1.4-1.5-1.5v-22.5h22ZM566,799l-14-1v17h14v-16Z"/>
  <path class="st1" d="M570,711h-22v-24h20.5c.1,0,1.5,1.4,1.5,1.5v22.5ZM566,691h-14c.2,5.6-2.3,10.5,0,16h14v-16Z"/>
  <path class="st0" d="M570,976v24h-21v-24h21ZM567,996v-15.5c0-2.6-12.6-1.2-15-1.5v17h15Z"/>
  <path class="st2" d="M558,1018v-6s6,2.5,6,2.5c-1.7,1.8-3.1,4-6,3.5Z"/>
  <path class="st5" d="M557.5,281c-2.2.4-6.5,3.2-9,4-.6-1.3,1.9-2.7,2.8-3.2,8.8-4.5,18.5-2.6,27.7-.8-.7,2.9-5.7,0-6.5,0-4.3,0-11.1-.7-15,0Z"/>
  <path class="st4" d="M588,278l-3.2.7-12.7-3.7c5.5-.4,10.7,1.9,16,3Z"/>
  <rect class="st5" x="559" y="283" width="18" height="1"/>
  <path class="st4" d="M583,273c0,1.8-4.3,1.1-5.5,1s-5.3-.4-5.5-2l11,1Z"/>
  <path class="st5" d="M593,272l4-.5c3.7,1.9,8.2,2.6,11,6-5.7-.1-9.2-6-15-5.5Z"/>
  <path class="st4" d="M589,276c-1.4.5-6.2-1.4-5-2,1.9-.2,4.4-.3,5,2Z"/>
  <path class="st4" d="M595,284l-2.5-4,4.5,4c-.7,0-1.3,0-2,0Z"/>
  <path class="st4" d="M594,277c.1.1,0,.7,0,1-1.5-.3-4.3-.5-4-2,.3-.2,3.8.9,4,1Z"/>
  <path class="st4" d="M591,279c.7.3-.6,1.7-2,1s.6-1.7,2-1Z"/>
  <path class="st5" d="M558,284c.7.3-.6,1.7-2,1s.6-1.7,2-1Z"/>
  <path class="st5" d="M609.5,278c.6.3.6.7,0,1v-1Z"/>
  <path class="st4" d="M448,285l9.5-2.1c1.4-.8,12.1,1.8,10.5,3.1-1.5.6-2.9-1-3.5-1h-16.5Z"/>
  <polygon class="st4" points="449 276 428 282 438 277.5 449 276"/>
  <path class="st4" d="M449,273l-17,4c1.1-1.8,5.8-3.4,7.7-3.8,3.1-.5,6.2-.2,9.3-.2Z"/>
  <polygon class="st5" points="409 282 417.1 275.6 421 274.5 409 282"/>
  <path class="st4" d="M422,269l-13,8.5c2.8-4.1,8.1-7.5,13-8.5Z"/>
  <path class="st5" d="M426,272c1.1.5-2.8,2.2-4,2-1.1-.5,2.8-2.2,4-2Z"/>
  <path class="st4" d="M425,268c.7.3-.6,1.7-2,1s.6-1.7,2-1Z"/>
  <path class="st5" d="M476.5,285c.6.6,2,1.3,1,2-.5-.6-2-1.3-1-2Z"/>
  <path class="st4" d="M469.5,286c.6.3.6.7,0,1v-1Z"/>
  <path class="st4" d="M430.5,277c.6.3.6.7,0,1v-1Z"/>
  <path class="st0" d="M597,284l-4.5-4,2.5,4c-15.2,0-28.7,5-41.6,5.1s-1.3-2-1.9-2c-4.7.3-7.5,1.9-12.6-1.1,0-.3,0-.7,0-1,14-7.1,28.1-13.9,43.2-18.3s13.4-4.9,23.4-.9c14.7,5.8,20.5,16.7,26.3,30.7-7.7-3.2-16-9.8-24.1-11.9-2.5-.7-8-.5-10.9-.6ZM593,272c5.7-.5,9.3,5.4,15,5.5-2.8-3.4-7.2-4.1-11-6l-4,.5ZM583,273l-11-1c.2,1.6,4.3,1.9,5.5,2s5.5.8,5.5-1ZM589,276c-.6-2.3-3.1-2.1-5-2-1.2.6,3.6,2.5,5,2ZM588,278c-5.3-1.1-10.5-3.4-16-3l12.7,3.7,3.2-.7ZM594,277c-.2-.1-3.6-1.2-4-1-.3,1.5,2.5,1.7,4,2,0-.3.1-.8,0-1ZM609.5,278v1c.6-.3.6-.7,0-1ZM557.5,281c3.9-.7,10.7,0,15,0s5.8,2.9,6.5,0c-9.2-1.8-18.9-3.7-27.7.8s-3.4,1.9-2.8,3.2c2.5-.8,6.9-3.6,9-4ZM591,279c-1.4-.7-2.7.6-2,1,1.4.7,2.7-.6,2-1ZM577,283h-18v1h18v-1ZM558,284c-1.4-.7-2.7.6-2,1,1.4.7,2.7-.6,2-1Z"/>
  <path class="st3" d="M407,320c8.7-15,48.8-20.7,60-9.5s-5.4-.8-5,1c1.1,1.2,13.2,12.6,12,13.5-13.8-1.7-27.3,2.3-41.5,1-6.6-.6-11.6-3.4-17.2-4.8s-5.1.2-7.3-.2l-1-1ZM434,316c2.4.4,5.9-.2,5-3.5s-7.2-.3-5,3.5ZM468,322c-.5-1.9-11-11.1-12-10,.2,4.1-1.6,7.8-4,11l16-1ZM428,313c-1.1-1-11.8,4-10,6l14,4c-1-3.6-4.4-5.7-4-10Z"/>
  <path class="st4" d="M472,337c-3.9,5.4-8.7,10.5-14.1,14.4-4,2.8-8.7,4.1-11.9,7.6-6.7,1.2-15.4,1.6-22,0l-14-14c5,1.5,7.5,5.1,13,6.5,10.3,2.8,29.1,1.4,35.5-8.6s1-3.6,1.5-4.9,2-.9,2-2c.4,0,1.2-1.1,3.3-1s5.5,1.2,6.7,2Z"/>
  <path class="st5" d="M460,338c-9.4,4.2-17.4,4.9-27.5,5s-2.9,1-3.9,1-.6-1.6-1.3-1.9c-5.8-2.4-10.4-3.4-14.2-9.1l12,6.5c12.8,4.3,24.4-2.3,37-3.5,0,1.1-1.9,1.8-2,2Z"/>
  <path class="st5" d="M446,359c3.3-3.4,8-4.7,11.9-7.6,5.4-3.9,10.2-9.1,14.1-14.4,1.7,1-1.3,5.2-2.2,6.3-5.6,7.8-14.4,13.9-23.8,15.7Z"/>
  <path class="st5" d="M424,359c-6.2-1.5-13-6.7-15-13l-5,5c-1.1-3.1,6-11.6,6-6l14,14Z"/>
  <path class="st5" d="M406,321c-.2,7.6-22.3,1.1-19-2,6.3,2.1,12.4,2.3,19,2Z"/>
  <path class="st5" d="M406,335c.5,2.1-1.1,2.3-2.3,3.2-3.3,2.6-7.4,5.9-10.7,8.3s-2.1,1.9-4,1.4c4.4-5.5,9.9-11.2,17-13Z"/>
  <path class="st5" d="M403,327c2,1.7-5.7,4.6-6.7,4.8-3.3.6-9.6,1.1-12.3-1.3,6.6-.3,12.8-1.2,19-3.5Z"/>
  <path class="st4" d="M462,389c0,1.5-.6,2.6-2,3,.2-.7-.4-2.3.1-2.9s1.7,0,1.9-.1Z"/>
  <path class="st5" d="M408,321c-.7-.1-1.1,0-1-1l1,1Z"/>
  <path class="st3" d="M596,325c-7.8,0-15.4,1.4-23.5,1-8.9-.4-17.4-3.3-26.5-1-1.7-1.5,10.8-13.7,13-14.5-1.9-1.6-5.1,1.9-6-1.5,14.6-8,37.2-5.8,51.5,2,10.5,5.7,12.3,13.3,27.5,7-2.7,4.4-7.3,5.2-12,5-8.8-.3-15.1-6.7-24,2ZM568,323l-4-11c-5.7,1.8-8.8,7.3-14,10l18,1ZM575,312h-5s0,4,0,4c3.3.4,5.6-.2,5-4ZM602,316c-.3-.4-7.7-2.7-9-4l-4,10c2,.6,15.1-3.2,13-6Z"/>
  <path class="st4" d="M558,335c0,.7,0,1.3,0,2,.9,7.7,13.6,14.1,20.6,14.9,12,1.4,21.1-1.1,31.4-6.9-3.3,6.7-8.2,8.7-14,13-6,1.1-13.9,1.6-20,1l-14.9-9.6c-4.1-2.7-6.8-9.2-12.1-9.4-.5-1.1-2.3-3.7-1-4.5,4.1-.6,5.9-.9,10-.5Z"/>
  <path class="st5" d="M558,335c11.2,1.1,21.7,6.8,33.2,4.7l12.8-4.2c-.5,2.2-4.2,4.2-6,5-13,5.5-27.3.5-40-3.5,0-.7,0-1.3,0-2Z"/>
  <path class="st5" d="M549,340c5.3.2,8,6.7,12.1,9.4l14.9,9.6c-9.4-1-22.9-10.6-27-19Z"/>
  <path class="st4" d="M620,323v3c-.7,0-1.3,0-2,0-7.7-.6-14.1-1.1-22-1,8.9-8.7,15.2-2.3,24-2Z"/>
  <path class="st5" d="M610,345c.4-.8,0-2.3,1.5-3,1.7-.3,9.2,6,8.5,9-2.9.6-5.3-5.5-7.5-5s-5.4,9.9-16.5,12c5.8-4.3,10.7-6.3,14-13Z"/>
  <path class="st5" d="M632,344c-1,1-7.5-4.8-9-5.5-2.9-1.2-7.8.4-8-4.5,2.1-.2,3.9-.1,5.9.6s12.7,7.8,11.1,9.4Z"/>
  <path class="st5" d="M620,326c4.7.5,9.2,1.5,14,1,.3,2,.2,1.6-1.2,2.3-3.1,1.3-12.8.3-14.8-3.3.7,0,1.3,0,2,0Z"/>
  <path class="st4" d="M549,389c0,0-.8-.3-1-1l1,1Z"/>
  <path class="st4" d="M575,466l-13-7c0-.5.2-1.6-.1-1.9-1.7-1.4-18.8,11.5-22.2,13.1-18.5,8.6-48.9,6.7-66.4-4l-13.3-9.2c19-.2,38.8,6.2,57.5,5,16.1-1,33.5-5.8,49.8-6.8,4,2.4,5.8,6.7,7.6,10.8Z"/>
  <path class="st0" d="M508,487l2,18c-.4,0-1.8.8-2,1-5-3.8-3.8-12.1-6-18l1,15c-2.7.6-8.6-.6-7-4.5-.1-.5-.6-.6-1-.5h-2c0-.3,0-.7,0-1-1.2-4.8-3.9-7.4-5-12,6.3.6,13.7,1.8,20,2Z"/>
  <path class="st5" d="M536,482c-.3.4-.5,2-1,3-3,5.6-5.7,12.4-12,15l8-14c-3-1.1-7.2.9-9,1s-.7,0-1,0c-3.9.2-8.1,0-12,0s-.7,0-1,0c-6.3-.2-13.7-1.4-20-2,1.1,4.6,3.8,7.2,5,12-3.4-.4-5.6-6.8-7-10s-1.9-3.1-2-5c.6.1,8.1,1,8.5,1h34c1.9,0,6.5-2.1,9.5-1Z"/>
  <path class="st0" d="M522,487c1.8,0,6-2.1,9-1l-8,14c-3.6,2.9-4.7,5-9.7,5.7s-2-.7-2.3-.7l-2-18c3.9,0,8.1.2,12,0l-.5,9,1.5-9Z"/>
  <path class="st4" d="M484,482c.1,1.9,1.3,3.4,2,5-3.3-.2-8.3-3.5-10.9-5.6s-9.8-9.5-6.6-8.4c4.3,2.4,10.9,7.9,15.5,9Z"/>
  <path class="st4" d="M458,459c-3.7,3.5-8.2,6.2-13,8,.8-2.6,4.7-9.4,7-10.5,4.3-2,4.4,1.4,6,2.5Z"/>
  <path class="st4" d="M536,482c1.7-2.5,14.3-6.8,18-8.5-5.5,5.2-10.7,10.9-19,11.5.5-1,.7-2.6,1-3Z"/>
  <path class="st4" d="M511,505c-.3,0-.7,0-1,0l-2-18c.3,0,.7,0,1,0l2,18Z"/>
  <path class="st4" d="M503,503l-1-15c2.2,5.8,1,14.2,6,18-.2.2.3,1.8,0,2-1.7,1.4-3.6-3.7-5-5Z"/>
  <path class="st4" d="M579,465c.2.9,2,1.1,0,3.5-3.2,4.1-2.6.6-3.1-.5l3-3Z"/>
  <path class="st5" d="M495,498c-.3,0-.9.9-1.5,1-.7-.1-.4-.7-.5-1h2Z"/>
  <path class="st0" d="M507.6,385.1c5.1-1.7,7.8,7.2,1.7,7.8s-4.8-6.7-1.7-7.8Z"/>
  <path class="st4" d="M515.7,759.2c8.9-2.6,11.4,10.6,4.6,12.6s-12.2-10.4-4.6-12.6Z"/>
  <path class="st4" d="M515.7,673.2c9.5-2,11,11.1,3.5,12.6s-11-11.1-3.5-12.6Z"/>
  <path class="st4" d="M516.7,843.2c10.7-2.3,10.2,15.8-.8,12.4-6.2-1.9-5-11.2.8-12.4Z"/>
  <path class="st4" d="M557,452c-.2,1.5-4.3,1.6-5.6,1.9-11.7,1.8-33.9,5.9-44.8,5.1-13.2-.9-27.9-5.4-41.5-5.5,11.2-2.2,23.7-6.7,35.3-5.2s7.8,2.7,11.3,2.8,8.9-2.5,13.1-2.9c10.6-1.1,21.8,3.9,32.4,3.9Z"/>
  <path class="st4" d="M486,979v17h-14c-3-14.8-2.1-18.9,14-17ZM483,982c-7.4-.4-10.1-.9-9.1,7.5s4.7,3.1,9.1,3.4v-3c-2-.5-6.1,1.5-6-1.5.2-6.2,5.5-1.9,6-2.5v-4Z"/>
  <path class="st4" d="M552.1,671.9c-1.4-.9-1.7-14.4-.7-15.9s12.3-1.4,13.6-.5,2.4,14.4,1.5,15.6-13.4,1.4-14.4.8ZM563,669c.3-.4.9-9.6.6-10.1-1.2-1.7-10.4-2-9.6,2.1h7s0,5,0,5c-.8.8-7.4-1.7-7,1.5.8,2.1,8.7,1.9,9,1.5Z"/>
  <path class="st1" d="M480,658v3c-8.3-1.1-8.3,6.1,0,5v3c-4.4-.4-8.4,2-9.1-3.4-1.1-8.4,1.6-8,9.1-7.5Z"/>
  <path class="st4" d="M484,798v17c-2.2-.3-14,1-14-1.5v-15.5h14ZM481,801h-9s0,11,0,11h9s0-3,0-3c-8.1,1.3-9.1-7.9,0-4v-4Z"/>
  <path class="st4" d="M470.6,726.1c1.7-.6,12-.5,12.9.8s.9,14.7-.5,15.6-12.7.9-13.6-.5-1.2-15.1,1.2-15.9ZM481,729c-10.6-1.3-9.3,2-9,11h9s0-3,0-3l-6-.6v-4.4c4.6.3,6.8,3.4,6-3Z"/>
  <path class="st4" d="M485,907v16h-14v-16h14ZM483,913c2.9-3-5.9-5.8-9.1-3.6s-.6,8.1-.9,10.6h10s0-3,0-3c-1.7-.6-7.1,1.6-7-1.5.2-6.4,6-1.5,7-2.5Z"/>
  <path class="st4" d="M485,871v15.5c0,2.3-15,2.3-15,0v-15.5h15ZM482,874h-9s0,11,0,11c4.8-.6,10.5,2.5,9-4-8.7,1.6-8.9-5.6,0-4v-3Z"/>
  <path class="st4" d="M484,835c.7,5.6.7,10.4,0,16h-14v-16h14ZM482,838c-7.6-.1-11.2-1.7-10.1,7.5s5.6,2.9,10.1,3.4c1.1-6-2.3-3.6-7-4-1.2-6.1,2.6-3.6,7-4v-3Z"/>
  <path class="st4" d="M484,762v15.5c0,2.5-12.6,1.6-15,.5v-14.5c0-2.6,12.6-1.2,15-1.5ZM481,765h-9s0,11,0,11c4.8-.6,10.5,2.5,9-4-8.1,3.1-9.1-7,0-3v-4Z"/>
  <path class="st4" d="M471,943c3.1.6,12-1,14.1.4s1.4,14.3.5,15.6-14.6,1.5-14.6-.6v-15.5ZM483,946h-9s0,11,0,11c2.2-.2,7.3.8,8.6-.9,3.8-5.3-4.8-1.3-5.6-2.1v-5s6,1,6,1v-4Z"/>
  <path class="st4" d="M483,707h-14v-16c2.7,1.1,13.4-1.8,14.5,0,1.7,2.6,0,12.6-.5,16ZM481,697c2.9-2.9-5.8-5.8-9.1-3.6s-1.4,9.3-.5,10.6c3.3,4.7,18.4-3.9,3.6-3.1-1.8-6.9,4.8-2.8,6-4Z"/>
  <path class="st4" d="M567,907v15.5c0,3.3-12.7,0-15,.5v-16h15ZM564,910h-9s0,3,0,3c8.9-1.6,8.7,5.6,0,4-1.5,6.5,4.2,3.4,9,4v-11Z"/>
  <path class="st4" d="M552,943c3.1.6,12-1,14.1.4s1.4,14.3.5,15.6-14.6,1.5-14.6-.6v-15.5ZM564,946h-9c-.8,6.4,1.4,3.3,6,3v4.4s-6,.6-6,.6v3s9,0,9,0v-11Z"/>
  <path class="st4" d="M552,835c3.1.6,12-1,14.1.4s1.4,14.3.5,15.6-14.6,1.5-14.6-.6v-15.5ZM564,838h-9s0,3,0,3c1.3.3,5.9-.6,6,.5,1.1,7.7-7.7-.8-6,7.5,10.6,1.3,9.3-2,9-11Z"/>
  <path class="st4" d="M566,743h-14v-17c17.6-1.7,15.2,2.2,14,17ZM564,740c-.7-4.6,2.4-10.3-3.5-11.1s-7.3,0-6.5,5.1c2.2.4,3.2-2.6,5.5-2s2,4.5,1.5,5c-.8.8-7.4-1.7-7,1.5,2.5,2.8,6.8,1.1,10,1.5Z"/>
  <path class="st4" d="M552,887v-16c14-.5,17-2,15,13.5-.9,7.1-9.9,1.2-15,2.5ZM564,874c-4.8.6-10.5-2.5-9,4l6-1c1,5.8-1.6,3.8-6,4v3s9,0,9,0v-10Z"/>
  <path class="st4" d="M566,762c1.1.7,1.6,14.6.6,16.1s-14.6,1.5-14.6-.6v-15.5h14ZM564,765c-4.9.8-11.7-2.7-10,4,4.3-.7,7.8-3.4,7,2.5s-5.6.2-7,.5c-1.6,6.7,5.1,3.2,10,4v-11Z"/>
  <path class="st4" d="M566,799v16h-14v-17l14,1ZM564,812c.3-9,1.6-12.3-9-11v5c2-1.3,3.4-2.5,6-2,.8,6.4-.5,5-6,5v3s9,0,9,0Z"/>
  <path class="st4" d="M566,691v16h-14c-2.3-5.5.2-10.4,0-16h14ZM564,694h-10s0,3,0,3c4.7.4,8.1-2,7,4-16.5-1.1-.8,7.9,2.6,3.1s0-7.6.4-10.1Z"/>
  <path class="st4" d="M567,996h-15v-17c2.4.3,15-1.1,15,1.5v15.5ZM564,983h-9c-.9,5.3,2.4,2,6,2v4.4s-6,.6-6,.6v3s9,0,9,0v-10Z"/>
  <path class="st0" d="M468,322l-16,1c2.4-3.2,4.2-6.8,4-11,1-1.1,11.4,8.1,12,10Z"/>
  <path class="st0" d="M428,313c-.4,4.3,3,6.4,4,10l-14-4c-1.8-2,8.9-7,10-6Z"/>
  <path class="st0" d="M434,316c-2.2-3.8,4.1-6.7,5-3.5s-2.6,3.9-5,3.5Z"/>
  <path class="st0" d="M568,323l-18-1c5.1-2.7,8.3-8.2,14-10l4,11Z"/>
  <path class="st0" d="M602,316c2.1,2.7-11,6.6-13,6l4-10c1.2,1.3,8.7,3.6,9,4Z"/>
  <path class="st0" d="M575,312c.6,3.8-1.7,4.4-5,4v-4s5,0,5,0Z"/>
  <path class="st4" d="M522,487l-1.5,9,.5-9c.3,0,.7,0,1,0Z"/>
  <path class="st1" d="M483,982v4c-.5.6-5.9-3.7-6,2.5s4,1,6,1.5v3c-4.4-.4-8.4,2-9.1-3.4-1.1-8.4,1.6-8,9.1-7.5Z"/>
  <path class="st2" d="M563,669c-.3.3-8.2.5-9-1.5-.4-3.2,6.2-.7,7-1.5v-5s-7,0-7,0c-.9-4.1,8.3-3.7,9.6-2.1s-.2,9.7-.6,10.1Z"/>
  <path class="st1" d="M481,801v4c-9.1-3.9-8.1,5.3,0,4v3s-9,0-9,0v-11s9,0,9,0Z"/>
  <path class="st0" d="M481,729c.8,6.4-1.4,3.3-6,3v4.4s6,.6,6,.6v3s-9,0-9,0c-.3-9-1.6-12.3,9-11Z"/>
  <path class="st1" d="M483,913c-1,1-6.8-4-7,2.5s5.3.9,7,1.5v3s-10,0-10,0c.4-2.4-1-9.3.9-10.6,3.2-2.2,12,.6,9.1,3.6Z"/>
  <path class="st1" d="M482,874v3c-8.9-1.6-8.7,5.6,0,4,1.5,6.5-4.2,3.4-9,4v-11s9,0,9,0Z"/>
  <path class="st2" d="M482,838v3c-4.4.4-8.2-2.1-7,4,4.7.4,8.1-2,7,4-4.5-.5-9.3,2.2-10.1-3.4-1.2-9.2,2.4-7.7,10.1-7.5Z"/>
  <path class="st1" d="M481,765v4c-9.2-4-8.1,6.1,0,3,1.5,6.5-4.2,3.4-9,4v-11h9Z"/>
  <path class="st0" d="M483,946v4s-6-1-6-1v5c.8.8,9.4-3.2,5.6,2.1s-6.4.7-8.6.9v-11s9,0,9,0Z"/>
  <path class="st1" d="M481,697c-1.2,1.2-7.8-2.8-6,4,14.9-.8-.3,7.8-3.6,3.1s-.9-9.7.5-10.6c3.3-2.3,12,.6,9.1,3.6Z"/>
  <path class="st1" d="M564,910v11c-4.8-.6-10.5,2.5-9-4,8.7,1.6,8.9-5.6,0-4v-3s9,0,9,0Z"/>
  <path class="st0" d="M564,946v11s-9,0-9,0v-3s6-.6,6-.6v-4.4c-4.6.3-6.8,3.4-6-3h9Z"/>
  <path class="st1" d="M564,838c.3,9,1.6,12.3-9,11-1.6-8.3,7.1.2,6-7.5s-4.7-.2-6-.5v-3s9,0,9,0Z"/>
  <path class="st1" d="M564,740c-3.2-.4-7.5,1.2-10-1.5-.4-3.2,6.2-.7,7-1.5s0-4.6-1.5-5c-2.3-.6-3.3,2.4-5.5,2-.8-5.1,2.1-5.6,6.5-5.1s2.8,6.5,3.5,11.1Z"/>
  <path class="st0" d="M564,874v10s-9,0-9,0v-3c4.4-.2,7,1.8,6-4l-6,1c-1.5-6.5,4.2-3.4,9-4Z"/>
  <path class="st1" d="M564,765v11c-4.9-.8-11.6,2.7-10-4,1.4-.3,6.9.6,7-.5.8-5.9-2.7-3.2-7-2.5-1.7-6.7,5.1-3.2,10-4Z"/>
  <path class="st1" d="M564,812h-9s0-3,0-3c5.5,0,6.8,1.4,6-5-2.6-.5-4,.7-6,2v-5c10.6-1.3,9.2,2,9,11Z"/>
  <path class="st1" d="M564,694c-.4,2.5.8,8.3-.4,10.1-3.4,4.8-19-4.2-2.6-3.1,1.1-6-2.3-3.6-7-4v-3s10,0,10,0Z"/>
  <path class="st1" d="M564,983v10s-9,0-9,0v-3s6-.6,6-.6v-4.4c-3.7,0-6.9,3.3-6-2h9Z"/>
</svg>