<?xml version="1.0" encoding="UTF-8"?>
<svg id="Layer_1" xmlns="http://www.w3.org/2000/svg" version="1.1" viewBox="0 0 1024 1024">
  <!-- Generator: Adobe Illustrator 29.8.2, SVG Export Plug-In . SVG Version: 2.1.1 Build 3)  -->
  <defs>
    <style>
      .st0 {
        fill: #c3395f;
      }

      .st1 {
        fill: #ecdcc0;
      }

      .st2 {
        fill: #33445a;
      }

      .st3 {
        fill: #4b657d;
      }

      .st4 {
        fill: #130f0f;
      }

      .st5 {
        fill: #ee6986;
      }
    </style>
  </defs>
  <path class="st1" d="M215,1024H0V0h1024v1024h-135c-4.9-29.2-10.3-58.4-14.8-87.7-11.8-76.5-16.7-185.3-65.8-247.2-4.2-5.3-10.8-10.8-14.2-15.8-10.5-15.3-23.5-45-31.3-62.7-36.6-82.6-46.9-167-63.1-254.9-1.1-6.1-8.2-34-7.5-37s4.8-8.2,6.1-13c2.1-7.8,2.5-14.7,0-22.6s-5.9-9.3-6.3-11.8,1.6-7.4,2-10.9c1-10.7-1.9-20.2-8.6-28.4s-3.2-2-4.4-3.6c-2-2.7-4-19.5-5.3-24.7-22.3-91.2-106.1-174.2-205.9-145.5-10.3,3-11.2,3.3-22.3,4.7-21.9,2.8-37,7.7-55.8,19.2s-35.4,26.6-50.7,42.3-29.3,32.3-36.3,54.7c-2.4,7.6-2.8,15.8-5,23-4.6,15.4-11.8,21.6-10.8,40.3s4.3,14.6,4.8,20.2-1.5,5.8-1.8,8.8c-1,12.7,2.5,16.3,7.5,26.5s9.2,16,10.5,30.5c7.3,83.2-8.9,174.1-18,257s-9,145-31.7,211.3c-17,49.4-59.7,110.5-40,164.5,1,2.8,2.2,7.8,5.8,7.7v-33.5l3-10.5c-.6,13.2,1.2,26.3,3,39.3l-16.9,59.6Z"/>
  <path class="st4" d="M889,1024h-6c-6.5-31.4-11.1-63.3-16-95s-2.9-14.1-4-21,.2-2.7,0-4c-.5-3.4-1.5-6.7-2-10s.1-2.1,0-3c-.6-4-1.4-8-2-12s.1-2.1,0-3c-.8-5.3-1.2-10.7-2-16s-2.2-10.9-3-16-.4-7.2-1-11-.9-2.2-1-3c-.4-2.3-.6-4.5-1-7s-.8-3-1-4c-.8-4.6-1.1-9.4-2-14s-.9-2.4-1-3c-.9-4.4-2.1-8-3-12s-1-7-2-11-2.1-6.7-3-10-.6-2.5-1-4c-.7-2.3-1.4-4-2-6s-.7-2-1-3c-4.1-12.5-6.8-21.1-13-33s-1.7-2.4-2-3c-2-3.7-3.8-7.3-6-11s-2.7-2.7-3-3c-2.6-3.4-4.8-8.7-9-14s-2.5-2.5-3-3c-12.6-14.4-22.8-23.5-38.7-34.8-36.6-26-77.4-45.9-113.8-72.2-17.7,34.3-55.7,49.3-84,73-13,10.9-25.7,24-36.5,37-2.6,1.6-7.1,8.2-9.4,11.1-4.2,5.3-8.4,11-11.6,16.9-.8,0-2,.4-2-.5,0-5,29.2-40.7,34.5-46.5,9.3-10,20.6-17.8,29.5-27,12.7-8.8,26.4-16.5,38.9-25.6s27.7-21.2,34.6-36.4l-2.3,2.9c-12.9,8.3-25,18.2-38.2,26-22.9,13.6-48.4,23.7-74,31,2.6,5.5-1.8,8.2-4.2,12.3s-1.4,6.6-4.5,7.5c-7.7,2.3-12.3-3.8-18.9-4.7-14.8-2.1-13.3,2.9-21.4,11.4-22,23.2-47.2,43.6-68,68,7.3,13.1,26.6.2,23.7,19.7s-2.2,10.3-4.2,12.8c-3.8,4.7-5.6,2.9-9.8,4.2s-4.1,4.3-9.5,2-4.4-8-5.4-12.6-3.8-15.5-8.9-13.1l-33.9,35.2c-.9,3.3,5.3,9.9,7.8,11.8,6.8,5.1,15.2,3.3,12.8,15.7s-4.2,11.5-5.3,12.7c-2.9,3.2-6.4,1.5-9.9,2.1s-7.3,4.2-12.5-.6c-6.5-6,1.6-19.8-4.6-27.4-22.4,24.1-45,47.7-63.5,75-6.2,9.1-6.9,10.3-9.7,21.8-8.6,35.5-10.1,71.9,7.4,105.1,3.5,6.7,8.6,12.1,11.3,19.1-9.2,0-16.3-8.6-23-14l3,16h-6c-.8-6.6-1.7-13.8-3.3-20.2s-1-7.4-5.7-8.8c.2,8.3,3.9,16.1,6,24-4,3.6-15.4-13-17.4-16.1-5.4-8.2-9.7-17.5-12.6-26.9-2.9,1.2-2.2,5.6-3,8-4.2,13.2-9,26.4-12,40h-6l16.9-59.6c-1.8-13.1-3.6-26.1-3-39.3l-3,10.5v33.5c-3.5,0-4.7-5-5.8-7.7-19.7-54,23.1-115.1,40-164.5,22.8-66.3,24.1-141.8,31.7-211.3s25.3-173.8,18-257-4.4-18.1-10.5-30.5-8.5-13.8-7.5-26.5,2-6,1.8-8.8c-.5-5.6-4.4-12.7-4.8-20.2-1.1-18.7,6.1-24.9,10.8-40.3s2.6-15.4,5-23c7-22.4,20.3-38.4,36.3-54.7s31.7-30.7,50.7-42.3,33.9-16.4,55.8-19.2c11.1-1.4,11.9-1.7,22.3-4.7,99.8-28.7,183.6,54.3,205.9,145.5,1.3,5.2,3.3,22,5.3,24.7s3.3,2.2,4.4,3.6c6.7,8.2,9.6,17.7,8.6,28.4s-2.5,7.5-2,10.9,5,7.7,6.3,11.8c2.4,7.9,2.1,14.8,0,22.6s-5.4,10.1-6.1,13,6.4,31,7.5,37c16.2,87.8,26.5,172.3,63.1,254.9,7.8,17.7,20.9,47.3,31.3,62.7,3.4,4.9,10,10.5,14.2,15.8,49.1,61.9,54,170.8,65.8,247.2,4.5,29.3,9.9,58.5,14.8,87.7ZM501,58c-23.7,1.1-36.8,5.8-54,21.5-2.8,2.5-5.2,5.5-8,8,3.8.7,7.7-1.2,11.5-1.5,9.8-.7,24.9.9,34.3,3.7s3.7.3,4.2,2.3c-13.3-1.4-28.1-3.2-41.5-2s-14.8,3.3-20.9,9.1c-8.6,8.3-16.8,20.5-21.6,31.4,10.3-5.2,21.4-7.6,33-6.5s.9.5,1,1c-.2,0-.8.9-1.6.9-14.8.8-35.2,2.1-37.4,20.1-2.9,2-4.9,20-4,21,2.9-.6,5-2.1,8-3,11.7-3.4,18.6-2,30-2,3.9.3,7.4,1.7,11,3-13,.1-25.9-1.8-38.8,1.7s-5.4,1.2-6.2,3.3c9.2-2.3,18.1-.3,27.2,1.3,21.3,3.8,41.6,11.2,62.4,16.6,36.5,9.4,72.8,16.6,110.4,8.1-.5,1.7-4.2,2.2-5.8,2.7-5.9,1.7-14.7,3.8-20.7,4.3-12.8,1-25.8-1-38.5-.5,19.5,17.2,43.5,32.3,69.6,36.4,2.5.4,4.9-.1,7.4.1s.7,0,1,0,1.1.9,3,1c7.4.3,14.7-.4,22-1s5.9-1.6,10-1c-4.4,3.9-14.7,4.6-20.5,4.8-32.5.9-56.9-8.3-82.5-27.8-4-3.1-12.1-12.1-15.7-13.8s-9.9-2.2-13.2-2.8-2.3-1.3-2,.5c9.5,5.2,14.9,16.5,22,24.5,21.1,23.6,54.4,37.7,86,31.5l-10.6,3.9c-19.3,2.2-37-5.6-54.4-12.4,10.2,10.9,17.9,22.8,23,37s3.2,33.1,20,30.1c13-2.3,21.6-20.9,31-29,8.5-7.3,17.6-6.5,25.3-16.7s8.5-15.5,7.6-21.4-9.7-6.4-13-7.6-1.4-.9-2-1c-1-3.1-3.2-4.9-4.5-8s-1.9-8.7-2.8-9.7-8-3.6-10.2-5.3c-6.8-5-7.8-11.1-12.1-15.9s-12.2-7.7-13.4-10.6.2-1.9,1.5-1.5c3.2,1,6.5,6.3,10.5,6.5-1.5-6-3.6-10.9-6-16.5-7.8-18.3-13.6-20.5-26.5-34-.7-.8-2.5-2.1-1-3,4.8,2.7,9.4,5.8,13.5,9.5s10.1,11.6,11,12c2.8,1.3,8.5.4,13,2,10.7,4,13.4,13.1,19,21.5s-.3,1.3.2,1.8c1,1,8.7,1.8,10.3,4.2,0-4-2.3-7.4-3.5-11-6-16.9-12.3-28.1-22-43s-7.6-10.4-7-11c1.1-1,7.2,5.9,8,7,15.5,20.7,19.1,39.6,29.6,60.9s9.3,9.7,11.3,23.7-2.5,7.5,6.1,8.4c-1.6-18.3-7.8-36.8-14.8-53.7s-7.8-18.1-13.2-25.3c0-.3.1-.7,0-1-.5-1.5-1.6-2.1-2-3-7.9-15.8-22.1-33.3-36-44-4.5-7.5-28.4-21.3-37-25.5-22.2-10.9-45.1-16.7-70-15.5ZM439,70c-24.2,3-44,15.8-63,30-3.3,2.5-7,4.6-10.1,7.4s-3.6,1.1-1.9,2.6,14.7-6.4,17.2-7.3c10-3.4,21.2-5.8,31.8-4.2l-20,4.5c-15.1,1.7-29.1,10-41,19s-11.5,9.8-17,16c-9.4,10.6-16.7,21.8-22,35s-.8.2-1,1,.1,1.4,0,2c-2.2,2-5.2,12.7-4.5,16,7.7-10.3,17-21.3,26.5-30s7.8-6.5,13-8c-6.2,6.5-12.7,12.6-19,19-16.4,16.8-33.5,41.1-34,66-.1,5.4.3,13.8,4,18,1.2-5.4,4.4-10,6.5-15s.2-4.3.5-5,1.4-.7,1.9-1.6c5.5-12.2,10.9-25.5,21.1-34.4-9.6,13.7-18.6,33-23,49-5.2,7.4-8.6,18.6-8,27.6s1,2.1,1,2.4c.5,3.7,0,8.7,4,11-.2-5.1.1-10.3,1.3-15.2s1.1-5.3,2.7-5.8c-1.7,16.1-4.8,33,10,44-1.3-7.8-3.2-15.6-4-23.5-5.2-52.7,15.1-101,68.9-116,2.5-.7,6.9.7,6.1-2.5h-15.5c-.6,0-9.2,2.6-9.5,3-.6.1-1.5-.2-2,0s-1.8.8-2,1h-1v-1c4.5-2.8,7.9-3.9,13-5,7.6-1.7,14.4-2.2,22,0,.2-3.4-.3-6.9.1-10.4,1.9-16.1,11.9-40.2,22.4-52.6,5.5-6.5,13.1-13.3,18.9-19s13-13.5,21.6-18.5c-5.3-1.5-10.8-.1-16,.5ZM623,169c-1-.6-1.7-1.7-3.2-2.2s-9.6-3.2-8.7-.3,3.4,5.8,4.5,8.5c4.6,11.9,5.4,24.6,15,34,1.5,1.5,8.3,6.7,10,7s1.6,0,1.5-1.5c-.2-3.1-.6-7.4-1-10.5-1.5-13-6.2-28.1-18-35ZM329,286c5.6-1.3,26.1.6,32,2.5,1.9.6,6.1,4.2,7,3.5l1-2c-.2,2.5,2.7,2.1,4.6,3.9s7.5,9.7,5.4,13.1c-2.3-1.3-21-5.2-25-6-6.6-1.3-17.6-3.7-24-3s-10.4,3.5-11,7.6,4.2,22.6,5.1,23.3,6,0,5.9-1.4-4.9-1.7-5-3.5c2.2-.3,5.3.5,7.3-.2s1.7-2.6,2.7-3.3c5.4-3.3,14.6-5.7,20.9-5.6s3.9.5,6,1v1c-1-.3-3.6,0-5,0-2.7,0-5.4-.2-8.1.4l-8.9,3.5c6.4-.5,13.6-1.8,20-1,11,1.3,23.9,13.7,27,24-.6.2-1.6-.2-2,0l-3.5-5-4.5,6,8-1c-.5.3-.6,1-2.1,1.4-7.7,1.9-16.9,4.1-24.7,5.4s-5.4,0-10.8,2.2-.2-1.2-2.5-2-4.8.2-5,0c-.7-.7.7-6.6-6-3-.6-.7,3.4-5.7-3-4.5,4.7-4.9-1.3-7.4-6-8,3.9,14.9,3.5,30.6,6.2,45.7,8.6,46.6,46,98,78.2,131.8,33.7,35.4,68.7,10.4,100.8-12.2s53.6-39.2,64.9-59.1c8-14.2,10-30.4,14.8-45.7s0-.7,0-1,.8-.3,1-1-.1-.7,0-1,.7-1.2,1-2-.1-.7,0-1,.8-.6,1-1c.3-.7.6-1.4,1-2,8.7,1.9,13.4,5.8,22.5,2s12.3-10,17.5-17c15.2-20.7,33-58.1,22.4-83.9-5.9-14.3-15-5.2-22.4.9s-3.7.7-6,7c-2.2,1.8-2.1,2.2-3,3-4.3,4-5.4,7.2-8,10s-8.6,6.2-9.7,6.8-5,1.1-5.2,1.3c-.4.5-.9,10.5-1.4,13.1-2.2,10.7-5.6,22.5-11.2,31.8-.9,0-.4-1.3-.5-2l1-8-2,3c-.3-21.4-4.6-44.5-10.5-65-8.4-28.8-27.1-44.6-46-66-12.8-14.5-15.3-24.1-35.7-30.3-19.1-5.9-76-22.8-93-20.4-60.1,8.2-90.4,50.9-86.8,110.3.1,2.2,1.2,12.5,2.5,12.4s6.2-9,10.5-10ZM657,202c-3.4-5.4-8.3-9.9-15-11,5.8,18.6-2.7,44.8,23,50-.3-5.3.4-10.7,0-16-.7-9.5-3.1-15.2-8-23ZM688,263c2.5-14.7-2.2-30.2-18-34-.8,1.9-2.1,12.5-1.8,13.4s3.7,2.6,4.9,4c7.5,8.6,11.4,21,7,32.1,5.7-2.6,7.1-10.1,8-15.5ZM652,278c5.7-.4,10,14.5,11.6,15,4.2,1.3,9.8-7.5,11.2-10.6,5.9-13,4.1-27.3-7.4-36.3l-1.9,11.1c-2.5,8.2-7.8,14.7-13.6,20.9ZM684,281c-1.6,1.4-7,4.3-6.6,6,3.4,5.9,5.8,12.4,8.3,18.7s2,7.9,2.3,8.2c1.7,1.8,1.7-.7,2.1-1.4,1.1-2.1,2.1-5.2,1.9-7.6,4.7-3.6,1.1-29-3.5-29-1.8,1.1-3.2,3.8-4.5,5ZM657,455c3.7,39.2,10.2,79.2,29.5,114s11,15.9,15.5,24.5c-4.1-1.9-7.2-6.6-9.8-10.2-44.4-61-39.7-149.3-44.2-221.3-2.3-.6-1.6.4-2.3,1.3-2.6,3.3-4.7,7.3-7.3,10.7-2.6,3.4-12.1,13.6-12.5,16.5,4.7,53.7,4,109.6,25,160.1-1.4.8-2-1.7-2.5-2.5-1.6-2.7-2.8-5.3-4.5-8-5.4-14.9-7.9-30.7-12-46l-10-102c-6.5,1.7-12,3.9-19,3-2.7,21.4-4.2,44-3.1,65.5s1.2,16.9,2.2,19.8,4,2.2,5.3,5.7.8,8.1,1.6,11.4c6.3,26.6,14.6,47.7,31.5,69.5s19.6,18.5,33.5,27.5c26.4,17.1,54.5,31.7,80.4,49.6-.4-3.4-3-6.2-4.5-9-31-58.7-47.4-109.7-60-175l1-4c13,67,36.3,134.6,71.6,192.9l19.4,13.6c-14.8-29.3-28.7-58.1-40-89-3.4-9.3-6.5-24.7-11-32.5-13.7-50-22.5-101.1-32-152,.2-12.2-4.6-31.7-7.3-44.2-4-18.5-8.4-36.9-17.2-53.8-1.4-.3-3.7,2.9-5.1,3.9s-4.2,1-4.9,2.1c-1.3,1.9-.2,13.1-.5,16.5-.8,8.8-4.1,18.6-7,27s-5.5,10.8-6,15c-1.3,10.9,2.5,33.7,3.1,46,.9,18,1.3,35.6,3,53.5ZM598,317c-.4-.4-9.3-.6-11-4,2.3,12.5,4.6,25.2,4,38l3.1-11.5c0-5.6-4-10.8-3.1-16.5l2.4,2,2.5,10c0-2.8,3.3-16.7,2-18ZM314,427c-2.9,51.8-10.4,101.2-16,152.5-4.4,40.3-6.4,81-13,121,.4,1,1.5,1.1,2-.1s1.2-6.1,1.7-8.2c9.1-39.1,14-80.2,21.3-119.7,1.3-1.6,1,.8,1,1.5s0,2,0,3c-.6,29.3-9.7,69.7-15.3,99.2-8,41.8-17.4,88.2-31.9,128.1-16.3,44.8-44.8,83.1-42.7,133.3,0,1.2-.8,3.7,1,3.5-.2-9.3,2-18.9,4.7-27.8,5.3-17,11.3-35.6,18-52s-.6-2.7,2.2-2.2c-5.9,18.7-11,37.7-12,57.5-1.6,31,1.6,65,22,89.5-.7-5.8-.8-12.3-2.5-18s-5-9.3-7-14c-13.3-32.8-5.6-71.2,4.5-104h1c-2.2,8.1-4.2,20.3-5.7,28.8-4.8,28.5-6.3,57,7.7,83.2,1.9.2.5-1.8.3-2.8-1.6-7.4-4.2-14.4-3.3-22.2.2-.3,1.2.5,1.5,1,2.1,3.2,4.6,17,6.7,22.3,4.3,10.8,11.1,21,19.8,28.7-2.8-9.9-7.7-19-10.5-29-22.1-79,18.2-157.5,39-232,3.4-12,6.6-34.5,11.5-44-2.1,31-15.2,60.5-22.3,90.2s-1.6,3.1-.2,3.8c28.4-59.5,45.4-123.6,55.2-188.8,6.3-41.9,11.6-89.4,9.3-131.7-1-19.6-3.7-20.1-12.2-35.8s-6.3-12.3-8.8-18.7c-1.7-.2-.9,2.3-1,3.5-1.5,39.7-.5,76.5-5,116.5s.2,2.7,0,4-.8.3-1,2,.2,3.4,0,5-.9.2-1,1c-1.6,12.4-3.9,24.9-5,37s-.9.3-1,1,0,1.9,0,2l-2,5c0-14.9,3.2-29.8,4.9-44.6,4.3-39.3,9-82.4,7.1-121.9s-8.9-39.5-11.9-61.1-1.4-21.8-3.4-32.6-2.4-14.6-7.2-19.8c-.6,7.2,1.3,15.3,1.5,22.5,1.1,28.1-.5,56.5-2,84.5ZM354,333c.3,10.4,9.2,16.1,18.7,11.2s7.2-5.9,3.7-10.2c-5.2-6.4-4.1,1.5-4.9,3-3.4,5.8-8.7-.8-10.5-2l1-5c12.3-2-1.1-5.4-6.9-4.9-1.2,2.5-1.2,5.2-1.1,7.9ZM351,326c-3.6-1.2-13.8,5.1-13.8,8.3s5.8,10.2,9.1,11.9,14.1,3.3,14.7,2.8c1.7-1.5-.6-1.8-1.3-2.2-9.1-6.2-9.4-9.4-8.7-20.8ZM595,448c-1.1-18.8,1.7-37.4,3-56-.9.1-2.4-.3-2.9,0-1.1.7-5.6,22-6.8,25.7-10.4,33.2-26.7,47.7-52.8,69.2-22.7,18.7-50,39.1-78.5,47,4.4,11.2,3.5,24.7,6.5,36s8.9,17.3,8.5,27c2.8.4,1.5-.3,2-1.5,1.1-2.7,1.6-4.7,3-7.5,16.5-32.6,62-49.5,91.7-69.8s23.7-16.2,28.3-22.7c3.7-5.3-.4-15.4-1-22s-.2-17.6-1-25.5ZM312,774c-.4,1.1-.7,2.1-1,3s-.6,1.1-1,2c-9,22.2-22,46-29.3,68.2-6,18.2-9.4,37.6-12.5,56.5s.6,1.2,1.8,1.3c5.3-28.2,16.7-55.8,30.8-80.7,6.1-10.7,13.7-20.6,19.7-31.3,24.4-43.5,43.4-93.3,57.5-141,1.9-4.6,3.3-9,4.7-13.8,7.6-25.9,12.6-53.4,15.3-80.2,1.7-.2.9,2.3,1,3.5.7,15.9-3.8,34.9-7,50.5-11.8,57.5-33.4,114-61,165.5,1.2,1.7,2.1-.4,2.8-1.2,5.1-5.7,22.5-28.2,25.2-34.3,17.9-22.1,32-47.1,47.8-70.7s31.6-40.3,35.4-52.6,2.4-25.4,2.8-33.2c.7-11.7-2-23.8,3.1-34.9s5.9-7.4,6-8.1c0-1.1-.8-7.1-1.2-7.4-.6-.5-13.7,0-16.9-.6-6.7-1.1-13.7-4.3-18.9-8.6.6,42.2-7.1,86.2-22,125.5-1.9,5.1-3.8,10.8-6.5,15.5s.2,2.5-2.5,2c9.3-24.6,17-49.8,21.7-75.8,4.1-23,6.6-46.4,5.3-69.7-16.7-17.4-31-37.8-46.7-56.3-.6-.7,0-1.9-2.3-1.3.9,5.6,1.8,12.8,2,18.4,3.2,92.5-20,204-54,289.5ZM604,491c-3.4,10.6-14.5,18-23.1,24.4-24.9,18.5-72.6,39.1-90.9,60.1s-18.4,45.2-16.1,65,8,5.9,9.6,3.5.2-11.4.4-14.5c2.4-28.8,10.2-43.3,34.1-58.9,29.9-19.6,66.6-33.3,89.9-61.1l-4-18.4ZM583,537c-20.7,14.2-71.4,36.9-83.4,55.1s-11.6,25.7-11.6,33.4v17.5c9.8.9,23.1-16,31.5-9,2,1.6,2.2,6,4.8,5.9s14.9-4.7,18.9-6.1c8.5-3,16.6-7,24.8-10.7,13.7-6.3,26.7-13,39.5-21s35.1-22.7,34.4-26.4-9.5-10.6-10.9-12.6-.5-1.3-1-2c-9.3-13.6-16.2-28.9-20-45-1.3-1.2-8,6.7-9.5,8-5.5,4.6-11.6,9-17.5,13ZM453,553c-8.9,18.4,3.6,32.8,7.5,51,2.5,11.9,2.8,24,4.1,36h4.4c1-17.6,1.9-32.6-2.7-49.8-2.8-10.4-11.3-23.4-12.9-32.2s0-3.2.6-5l1-1,1.5,6-.5-9c-3.4-.5-2.4,2.8-3,4ZM449,595c0,1.7.1,3.3,0,5s.1,3.3,0,5c-.2,3.3-.8,7.3-1,11s-1.4,6.2-1.1,8.5,2.7,2.1,3.1,2.5,1.5,2.2,2,3c2.2,3.2,3.1,9.4,8,10,.9-1-1.6-22.6-2-26s-.7-4-1-6-.6-3.3-1-5-.5-3.1-1-5c-1.2-4.4-2.3-8.7-4-13-3,1.6-1.8,7.1-2,10ZM458,645c-.9-2.2-3.4-2.8-4.8-4.6-3.5-4.4-5.4-15.3-12.1-7.8,9.2,0,7.4,12.2,17,12.5ZM440.5,634v1c.6-.3.6-.7,0-1ZM445,636c-3.2-2.4-4.2,7.3,2,6,.5-.6-1.8-5.8-2-6ZM479.5,655h22c.7,0,7,4.3,9.2,4.8,7.2,1.5,5-1.5,7.4-5.1s4.5-4.1,3.9-8.1-4.3-8.1-4.6-8.5c-4-5.2-14.2,4.7-19.2,6.7s-13.5,3.3-20.3,4.3c.5,1.9,1.6,1.8,3.2,1.8,5.7-.2,15.7-2.9,21.1-5s8.9-8.1,13.7-2.3,1.9,6-.1,9.7c-3.8,7-10.6-1.9-16.4-2.2s-9.1,1.5-13,2.1-6.3-.7-7.5.6-1.5,3.8.5,1.4ZM455,663c2.6-3,4.5-4.1,0-8.5-6.6-6.6-20.3.9-19.5-14.5l-43.5,63.5c3.8,1,5.4,1.7,7,5.5-.6,1.8,0,7.8.5,10,17.8-19,38.4-36.5,55.5-56ZM454.8,647.3c-3.1-3-10.6-3.7-14.8-3.2,1,4.8,4.4,2.4,8.2,3.2s5.3,1,7.3,2.7c.5-.4-.7-2.6-.8-2.7ZM465.7,644.2c-10,2.2-5.9,20.7,3.6,15.7s6.4-17.9-3.6-15.7ZM513,652c1.3-2,1.5-7.5-1.4-7.8s-7.2,3.5-7.5,3.8c-1.8,1.8.6,1.6,1.5,2s6.9,2.3,7.5,2ZM481,659c-5.1-1.2-6.4,4.8-10.7,5.8s-6-.4-9.3-.3c-19.8,19.9-40.8,38.6-59.6,59.5,1,3.9,3.5,6.6,2.5,11l77-76ZM394,722c-.2-5.3,2-19.3-6-12,5.4,1,3.6,6.8,4,10.5s.8,3.1,2,1.5ZM388,713c-1.9-1.4-5,5.4-5.9,6.5,1.9,1.7,4.2,3.7,6.9,3.5l-1-10ZM385,727c.7-2.9-5.3-4.7-6-4-2.5,2.7,4.3,4.8,6,4ZM388.3,728.3c-6.1,5.6-.9,21.4,8.7,9.2,7.3-9.3-2.4-14.9-8.7-9.2ZM381.8,731.2c-.2-.3-4.5-2-5.3-2.1-3.9-.2-3.5,3.2-5.2,5.6-2.9,4-12.3,14.2-13.7,17.3s-.1,7.7-.5,11c4.2-4.1,24.1-22.6,25-26.5s.4-4.5-.1-5.3ZM397,742c1.4,5.9,6.9,9.2,9.2,15.3s.9,13.5,4.3,15.8,3.2-.9,5.5-1.6c3.3-1,6.3.2,9.1-2.9s4.5-15.3,3.6-16.6c-4.4-2.5-9.4-1.2-14-3s-9.3-7.9-13.6-10.9c1.1,5.7,9.6,12.7,15,14.5s10.1-1.4,8,9-12,10.1-13.8,3.8,0-5-.4-7.6c-1.2-6.2-7.2-13-12.8-15.7ZM393,746c-3.5,1.9-8.6-3.2-10.3-2.9s-21.2,23.9-25.2,26.9c-1.4,3.2,2.4,9.2-.5,13,1.7.5,2-.7,3-1.5,5.7-4.5,28.1-27.3,32-33s1.4-1,1-2.5ZM411,754c2,4,.7,14.2,7,9.5s-1.2-8.4-7-9.5ZM349,769c4.6,0,2.7-6,3-9-2.6,1.6-3.2,6.2-3,9ZM347.7,774.2c-4.7,1.4-7.1,11.4-1.2,11.9s10.4-14.6,1.2-11.9ZM339,778l-23.5,32c8.6-6.6,14.6-16,23-23l.5-9ZM355,786c-.5-.5-2.4-.5-1.9,1.4,1.2,4.4,8.3,14.1,12,17s9.9,2.4,7.5,11.6-9,7-12.6,4.5-.4-13.2-1.2-16.8-6.4-11.6-8.8-14.7c.6,7.4,6.6,14.2,6.9,21.7s-3.1,12.8,1.1,14.9,14-.6,15.3-1.4,4.5-10.7,4.7-11.7c1-6.8-5.1-6.2-9.3-8.6-5.8-3.3-8-7.1-11.5-12.5s-2-5.1-2.2-5.3ZM287,867c17.7-25.3,39.7-47.3,60.6-70,.3-3.9-2.9-9.3-7.1-6-14.8,17-34.5,32.1-44.6,52.4-2.9,5.8-6.7,14.1-8.9,20.1s-2,3.7,0,3.5ZM297,801c0,0,.4-2.1-.5-2-2.7,1.6-.7,3.1.5,2ZM369.9,810.1l-8.9-4.1c1.5,2.5.2,10.3,1.9,11.6,5.3,3.7,8.4-5.9,7-7.5ZM314.5,811v1c.6-.3.6-.7,0-1ZM230,924v-4h-1v4h1ZM257.5,1007v1c.6-.3.6-.7,0-1Z"/>
  <path class="st4" d="M634,291c15-9,23.6,2.2,21.5,17-2.5-2.4-1.7-6.5-2.8-9.3s-1.7-1.6-1.7-1.7c-.8-1.8-.2-4.7-3.7-5.8-11.5-3.4-22.3,15-27.3,23.3,1.2.7,4.8.8,6,.5,14.6,5.8,14.1,33,.2,38.7s-5,.8-7.1,1.9-11.6,15-14.7,5.5,7.2-11.6,7.6-17.5c.4-5.7-5.7-12.1-1.1-15.5l1,2c.5-5.8,3.3-13.7,6-19s6.6-11.4,7-12,1.5,1,3-3c1.3-1,5.4-4.6,6-5ZM610.8,359.8c.5-.3,3.2-5.3,5.8-6.6s8.1-1,11.3-3.7c7.2-5.9,7-27.7-1.6-30.2s-7.6-.8-8.4.4-3.9,11-4,11.9c-.2,4.2,3.4,10.4,2.9,13.8s-7,7.6-8.4,11.7-.5,4.5,2.4,2.8Z"/>
  <path class="st2" d="M286,876l-5,32.5c0,13.3-.3,26.7,3.6,39.6,1.4,1.6,3.7,0,5.9,0,32.2-.8,42.3,21.6,81.4,13.4s66.8-25.9,110.6-15.3c33.9,8.2,62.7,35.9,95.4,45.6,8.4,2.5,17.7,5.7,12.6-6.6-7-16.8-28.5-41.9-38.8-59.2-3-5.1-5.5-10.1-7.6-14.9,30.8,38.5,67.8,71.4,104.6,103.9,2.1,2.5,2.6,5.9,2.4,9.1h-96l-55.5-38c-1.8,1.3.4,2.1,1.2,2.8,14.5,13.6,32.4,23.3,48.3,35.2h-274l-3-16c6.7,5.4,13.7,14,23,14-2.8-7-7.8-12.5-11.3-19.1-17.4-33.1-16-69.5-7.4-105.1,2.8-11.5,3.5-12.7,9.7-21.8Z"/>
  <path class="st2" d="M802,692c4.2,5.3,6.4,10.6,9,14-6.8,2.1-44.1,12.7-46.5,17s6.1,33.2,8.7,35.7,3.4,1.3,5,1.1c3.2-.4,26.8-7.8,27.8-9.5,2-3-2.1-17.7-4.5-20.4s-13.2-.5-13.6,3.6,3.1,10.6,5,8.5c-.6-8-3.5-9.4,6-11l4.6,17c-4.7,1.6-24.2,9.6-27.6,7.5s-10-28.2-8.5-30.5c2.4-3.8,39.9-14.3,46.5-16,2.2,3.7,4,7.3,6,11-4.1.9-8,2.7-8,7.5s6.9,26.2,8.5,29.5c3.6,7.2,9.3,3.2,15.5,2,.6,2,1.3,3.7,2,6-5.2,2.8-13.6,2.1-14,9.5s6.2,29.4,8.5,31.5,11.5-.1,15.5-1c.9,4.6,1.2,9.4,2,14l-9,2c0-2.7-.1-7.9-4-5.5.5,11.8,5,8.2,14,7.5.4,2.5.6,4.7,1,7-4.5-.4-13.2,2.4-14.6,7-1.2,3.9,5.2,27.8,6.9,33.3,2.7,8.6,4,14.1,14.7,8.8.6,4,1.4,8,2,12-4.9-.6-11.8,4.2-16.3,3s-2.2-10.6-6.4-11.9-13.9,1.5-15.1,5.5,3.7,24.6,8.5,26.1c7.1,2.1,23.3-5.9,31.3-5.8,1.1,6.9,2.9,14,4,21-31.5,4-66.7-11.5-87-35.5s-7.3-11.8-11.2-16.8-1-2.1-2.8-1.7c-3.5,50.3-13.3,100.1-25,149h-41c17.4-40.2,34.2-81.6,47-123.5,7.7-25.1,15-51.6,19-77.5,3.8,4.6,3.9,19.7,9.2,22.3s19.4-3,25-4.5,25.3-6.9,28.3-9.7,2.1-2.5,2.3-3.8c.7-3.9-3.8-21.1-7.5-23.2s-21.1,3.7-23.7,5.8-.8,2.8-.6,3.1c1,1.1,19.1-7.9,23-5.5s7,18.6,4,21.1l-45.8,14.3c-3.2.8-4.6-1.2-5.7-3.8s-5.2-17.8-5.5-20.6c-.6-6.1,3.3-6.7,8-8.9,11.3-5.2,27.6-8.6,37.7-14.3s4.7-3.3,5.1-4.9c.9-3.1-6.4-28.2-8.8-30.8s-2.4-2.1-3.7-2.3c-2.8-.4-23.3,6.1-26.8,7.8s-3,1.4-3.4,3c6.2.5,26.7-9.1,31-6.5s9.3,27,7.8,29.4-42.3,14.8-47.8,19.2c.4-2.8-.3-6.1,0-9,5-1.4,33.4-11.6,35.6-13.9s0-15-2.5-16.6-17.1,1.7-18.6,5.5.7,3.1.4,4.3c-.5,2.1-9,4.6-10.8,3.5s-8.1-31.9-11.3-37.2-8.7-3.4-13.6-.9c-4.3,2.3-3.6,5-3,9.4.8,6.3,10.1,36.2,13,42s3.9,5.3,8.8,4.7c-1.2,13.9-4,28.6-7.2,42.3s-1.7,2.5-1.8,2.7c-2.5-3.7-4.1-8.6-5.7-12.8-9.9-26-21.6-67.1-14.8-94.3,6.7-26.6,40.4-43.7,65.5-48ZM790,813c-1.4-1.4-1.9.1-2,1.5-.3,3.3,2.6,14.2,6,15.1s15.2-3.4,17.6-4.5c7-3.5,3.6-9.6,1-9s-.2,4.5-.5,4.9c-.6.9-16.9,5.9-18,5-.3-1.9-3.4-12.3-4.1-13ZM820,860c-1.7-1.4-13.5,4.7-16.4,3.9s-1.8-9.6-5.3-10.8-13.7,1.4-14.9,5.8,4.4,25.3,9.1,26,31.5-7.7,36.4-9.6,7.9-2.5,7.7-7.8-5.2-23.5-9.4-24.5-11.1,2.5-12.4,4.3-.4,8.1,3.1,6.6c-2.4-5.8,6.6-9,9.5-6s5.5,18.5,5.4,20.6-.5,1.8-1.6,2.2l-38.7,10.2c-1.2-.3-7.7-20.1-4.7-22.6s8.4-2.9,9-2.4c1.7,1.2.7,10.7,6.5,11.1s19.7-4.3,16.5-7.1Z"/>
  <path class="st3" d="M867,929c4.9,31.7,9.5,63.6,16,95h-142c11.7-48.9,21.5-98.7,25-149,1.8-.4,2,.6,2.8,1.7,3.9,5,6.8,11.6,11.2,16.8,20.2,24.1,55.5,39.5,87,35.5Z"/>
  <path class="st4" d="M644,930c-.4,17.1,8.1,38.9,8.9,56.6l4.1,34.4,22-92.6c.7-3.1-2.7-3.2-4-4.8-2.9-3.6-5.3-11.5-5.9-16.1-.7-5.5-.3-41.1,1.9-43.4,3.2-3.3,1,2.3,1,2.5v34c0,3.1,2.2,14.5,3.5,17.5s2.1,4.3,4.5,4c9.3-43.2,18-86.6,26.5-130,4.2-21.2,7.8-55.9,15.5-74-2.2,22.8-6.4,45.6-10.3,68.2-6.7,38.6-13.7,77.5-21.7,115.8-8.5,40.9-18.6,81.6-29,122h-10c.2-3.2-.3-6.6-2.4-9.1-36.8-32.6-73.8-65.5-104.6-103.9-1.2-2.7-2.1-3.6-3-7,18.5,20.6,37.6,40.7,57.5,60l51.5,47-5.4-42c-30.6-43.7-72.6-111.9-67.5-167s-.1-4.7.3-7.2c1.4-8.8,5.7-18,7.8-26.8,1.7-.5,2,.3,3,1-19.1,45.4-1.7,93,19.5,134,10.2,19.8,22.3,39,35.5,57-2.4-18.1-7.8-36.2-9-54.5-4.2-63.9,11.4-137.5,40-194.5s12.2-23,13-22c-3.4,12.4-10.5,24-15.5,36-14.9,35.8-24.6,70.9-29.4,109.6-3.8,31.3-5.7,64.6,1.9,95.4Z"/>
  <path class="st2" d="M690,902v54.5c1.2,4.6,1.3,21.9,8.3,21.3s19.4-20.2,23.7-26.3.8-3,3-2.5c-9.2,25.2-19,50.1-29,75h-35c10.4-40.4,20.5-81.1,29-122Z"/>
  <path class="st4" d="M768,810c-.6,4.2-1.4,8.8-2,13-3.9,26-11.3,52.4-19,77.5-12.8,41.9-29.6,83.3-47,123.5h-4c10-24.9,19.8-49.8,29-75,12.3-33.9,23.4-67,32-102,0-.2,1.4-1.3,1.8-2.7,3.3-13.6,6.1-28.4,7.2-42.3.6,0,1.4-.8,2-1-.3,2.9.4,6.2,0,9Z"/>
  <path class="st3" d="M246,1024h-25c3-13.6,7.8-26.8,12-40,1.6.7,2.2,2.2,2.9,3.6,5,11,8.4,24.5,10.1,36.4Z"/>
  <path class="st2" d="M233,984c.8-2.4.1-6.8,3-8,2.9,9.4,7.2,18.7,12.6,26.9s13.4,19.7,17.4,16.1c-2.1-7.9-5.8-15.7-6-24,4.7,1.4,4.7,4.8,5.7,8.8,1.6,6.4,2.5,13.6,3.3,20.2h-23c-1.8-11.9-5.1-25.4-10.1-36.4s-1.3-2.9-2.9-3.6Z"/>
  <path class="st4" d="M549,1024c-15.9-11.8-33.8-21.6-48.3-35.2s-3-1.6-1.2-2.8l55.5,38h-6Z"/>
  <path class="st3" d="M600,613c1.9.3-.6,3-1,3.5-9.6,11.4-22.5,19.7-32,29.5s-20.2,16.9-29.5,27c-5.3,5.8-34.5,41.5-34.5,46.5s1.2.5,2,.5c3.2-5.9,7.5-11.6,11.6-16.9s6.7-9.5,9.4-11.1c11.1-6.8,21.1-16,33-22.5s19.8-8.8,29.4-13.6c17.2-8.6,48.9-28.4,67.1-28.9s9.4,12,11.7,22.3c3,13.2,37.1,16.2,40.3,26.7s0,5.6.6,8.4c1.7,7.7,16,6,20.5,11s6.7,24.5,11,25.6,8.4-6.9,10.8-8.9c13.7-11.4,30.7-20.3,48.5-23,.5.5,1.4,1,3,3-25.1,4.3-58.8,21.4-65.5,48-6.9,27.2,4.8,68.3,14.8,94.3s3.2,9.1,5.7,12.8c-8.6,35-19.7,68.1-32,102-2.2-.5-2.1,1.2-3,2.5-4.2,6.1-16.2,25.6-23.7,26.3s-7.2-16.7-8.3-21.3v-54.5c8-38.4,15-77.2,21.7-115.8,3.9-22.6,8.1-45.4,10.3-68.2.4-1,2.5-7.2-.5-6-4.6,3.9-7.4,9.5-10.2,14.8-16.8,31.6-36.6,78.2-49,112s-17.6,61.4-18.3,91.2c-7.6-30.7-5.7-64.1-1.9-95.4,4.7-38.7,14.5-73.8,29.4-109.6,5-12,12-23.6,15.5-36-.8-1-12.2,20.5-13,22-2.5-.6-2,1.4-2.8,2.6-23.4,36.9-38.4,74.6-45,118-.7,4.7-2.9,34.7-5.7,35.4s-6.9-8.9-8-11c-7.5-13.3-14.1-30.8-17.2-45.8-2.4-11.7-1.9-25.3-4.8-36.2-.7-2.5-.3-3.3-2.5-5s-1.2-1.5-3-1c-2.1,8.7-6.4,17.9-7.8,26.8-.4,2.6,0,4.9-.3,7.2-3.2-.6-1.7,1.6-2,3.4-2.8,16.5-1.9,32.4-2,49.1l6.9,59.8c-1,3.1-6,1.3-8.2.4-5-1.9-28.1-18.4-31.7-14.8-.7,1.8.7,3,1,4,.9,3.4,1.8,4.3,3,7,2.1,4.9,4.6,9.8,7.6,14.9,10.3,17.3,31.8,42.4,38.8,59.2,5.1,12.3-4.2,9.1-12.6,6.6-32.7-9.8-61.5-37.4-95.4-45.6-43.8-10.6-70.6,6.8-110.6,15.3s-49.2-14.1-81.4-13.4c-2.2,0-4.6,1.7-5.9,0-3.9-12.8-3.6-26.3-3.6-39.6l5-32.5c18.5-27.3,41.1-50.8,63.5-75,6.2,7.6-1.9,21.5,4.6,27.4,5.2,4.8,8,1.4,12.5.6s7,1.1,9.9-2.1,5-10.9,5.3-12.7c2.4-12.4-5.9-10.7-12.8-15.7s-8.8-8.5-7.8-11.8l33.9-35.2c5.1-2.4,8.2,9.6,8.9,13.1s-1,9.9,5.4,12.6,5.9-.8,9.5-2,6,.4,9.8-4.2,3.7-9.3,4.2-12.8c2.8-19.5-16.4-6.6-23.7-19.7,20.8-24.4,46-44.8,68-68,8.1-8.5,6.6-13.5,21.4-11.4s11.1,7,18.9,4.7,3.2-5.3,4.5-7.5c2.4-4.1,6.8-6.8,4.2-12.3,25.6-7.3,51.1-17.4,74-31ZM592,691c-23,24.3-53.8,46.4-65.8,79.7-2,5.7-4.7,12.3-3.2,18.3,4.5,3.4,27-26.7,29.8-30.7,14-19.6,25.4-41.1,39.3-60.8,1-1.4,1.2-3,.9-4.6l30-35c-1.2-1.1-8.4,6.8-9.5,8-7.5,7.8-14.2,17.3-21.5,25ZM616,794c3.2.5,5.1-2.5,7-4.5,19.6-21.4,32.7-68.6,30.1-97-1-11.2-12.4-11.9-20.1-6-24.2,18.8-15.1,80.2-17,107.5ZM493.5,685v1c.6-.3.6-.7,0-1ZM392,818c56.1-22.2,83.6-76.6,101-131-5.5,7.8-9.5,16.7-14.6,24.9-18.9,30.3-46.7,63.6-70.9,90.1s-10.8,10.2-15.5,16Z"/>
  <path class="st1" d="M329,286c-1.6-4.4-1.3-10.8-1-15.5,1.2-27.3,7-57.8,30.1-74.9,9.8-7.3,33.3-16.4,45.4-17.6,21-2,86.9,17,104.8,29.2,13.2,9,20.1,23.4,31,34.5s19.5,14.5,27.7,32.8c6.2,13.9,11.4,34.1,13.9,49.1,1.9,11.7,2.5,23.7,4.1,35.4l4-3c.1,1.3-.1,2.7,0,4s-.4,2,.5,2c5.6-9.3,9-21.1,11.2-31.8.5-2.6,1-12.6,1.4-13.1s3.8-.6,5.2-1.3,9.3-6.3,9.7-6.8l1,2c-2.7,5.2-5.5,13.2-6,19l-1-2c-4.7,3.4,1.5,9.7,1.1,15.5-.4,6-9.7,11.1-7.6,17.5,3.1,9.6,11.7-3.9,14.7-5.5s4.9-1,7.1-1.9c13.9-5.7,14.4-32.9-.2-38.7.4-.1,5.6-4.2,6.5-5,4.1-3.6,6.4-9.2,11.5-11,1.7,13.7,4.7,36.2-3.6,47.9s-8.9,7.7-9.5,10.6c-.9,4.9,8.2-5,9-6,13.2-15.9,9.5-35.7,6-54.5.4,0,1.7-1.4,2-1-.6,3.7,1.2,4.4,3,1,0,.1,1.3.5,1.7,1.7,1,2.8.3,6.9,2.8,9.3,2.1-14.8-6.5-26-21.5-17v-2c7.4-6.1,16.5-15.3,22.4-.9,10.6,25.8-7.3,63.2-22.4,83.9-8.1,5.8-13.4,15.4-25.4,13.9s-9-5.1-13.2-2-1,2.4-1.4,3.1-.7,1.3-1,2l-1,1c-.1.3.1.7,0,1l-1,2c-.1.3.1.7,0,1l-1,1c0,.3,0,.7,0,1-1.9.6-2,2.4-2.5,4-5.4,14.4-8.4,26.7-17.2,39.8-17.6,26.1-82.6,79.4-113.2,85.8-31.6,6.6-45.5-14.3-63-36.1-26.7-33.3-57.7-79.9-58.1-123.9s.6-12.1,1.1-12.5,6.9.9,8-2c2.3.8,2.3,2.1,2.5,2,5.4-2.3,5.4-1.4,10.8-2.2,7.8-1.3,17-3.5,24.7-5.4s1.6-1.1,2.1-1.4l-8,1,4.5-6,3.5,5c.3-.2,1.4.2,2,0-3.1-10.3-16-22.6-27-24-1.5-1.1-3.6-.7-3-3,1.4,0,4-.3,5,0s5.1,4.2,8,3c-1.6-3.1-5.2-3.3-8-4s-3.7-1-6-1c.6-2.9-1.6-2.1-3.5-2-3.3.1-8.3.8-11.6,1.5-5.6,1.2-8.9,6.1-12.1.2-3.8-6.8-.7-10.3,1.2-16.7,6.4-.7,17.4,1.7,24,3-.6,2.5,1.3,2,2.6,2.8,12.9,7.4,29.4,22.4,36.2,35.9s2.3,8.9,5.2,12.3c.1,3.7,0,7.3,0,11,1.5.2,1.8-2.6,1.9-3.6,1.4-12.8.8-29-8.9-38.4-1.1-2.2-10.3-13-12-14,2-3.3-3.3-10.9-5.4-13.1s-4.8-1.4-4.6-3.9l-1,2c-.9.7-5-2.9-7-3.5-5.9-1.9-26.4-3.8-32-2.5ZM461,288c18.8-8.4,32.9-16.7,54.5-15,7.8.6,16.5,3.6,24.5,4-1.3-2.4-4.7-3.4-7-4.5-25.8-11.9-39.7-13.1-66.5-3.6-8.9,3.2-19.4,7.2-26,14l-1-2c-3,2.6-5.3,5.9-5.5,10-1.6.7-.5-5.4-3-3s-1.8,12.2,3,12c-.5,7-1.9,13.8.9,20.6s7.1,8.8,10,6.3,5.4-16.9,6.6-19.9c2.7-6.5,7-12.4,9.5-19ZM500,297c-.6,0-1.3,0-2,0-.3-1.5-3.6-1.6-4,0-9.3,0-24.5,4.1-31,11-1.2-.6-.4-3.9-2.5-3-4.1,1.8-1.1,10.3-2.7,12.8s-3.6.9-3.8,1.2c-1.7,2,2.2,2.1,3,2-.6,2.6-7.5,14.4-6,16,3.2,3.3,5.5-7.1,6.2-8.3,2.3-4.1,9.9-13.3,14.4-14.6s1.2.4,1.4,1.5c1.6,8.8.9,10.9,8.7,16.3s2.8.8,3.3,1.2c-4.2,2.3-10,.4-14.5,1s-3.1.8-1.5,2c5.6-.3,11.4.4,17,0s13.9-1.8,21-4.5c4.5-1.7,5.5-4.9,12-2.5l-3-3.5c1.5-4,9.1-5.6,10-6.5,2.4-2.6-3.3-1.2-3-3,5.9-2.3,10.9-5.6,15-10.5-.3-1.1-2.4-.2-3-.5-11.2-6.1-16.5-9.6-30.6-9.9s-3.3.3-4.4,1.9ZM374,321l-3-.5c1,1.5,3.2,2.5,3,.5ZM394,414c3.3,5,7.1,8.2,13,10.5,11.9,4.5,12.8-5.1,18.9-7s10.6.5,13.5-3.5.3-1.7.5-2c2.5.3,4.2-1.2,5.5-3,5.5-7.1-.5-18.2-2.5-16s2.2,5.9,2,9c-6.2,7.1-7.6,2.3-13.7,1.2-9.5-1.7-9.3.8-16.1,3.5-9.3,3.7-16.7-.3-21.2-8.7.2-2,0-4,0-6-5.8,7.6-5.1,14.2,0,22ZM409,441c-3.4,1.5-4.7,3.8-7,6s-3.7,4.8-4,5c-.7.5-7.5-1.1-6,3.5s5.1,1.5,7,1.5c1,5.5,4.6,9.9,8,14s.6,2.4,1.2,2.8c.9.6,2.2,0,2.8.2,0,1.7,1.3,2.7,2,4,5.5,10.1,15,10.2,25.2,6.7,3.2-1.1,12.8-5.3,8.8-9.7s-4.6-.3-7,0c2.4-3,6.3-2.4,9.5-4s7.4-5.8,9.5-7.5c4.9-4.1,9.2-9.3,14-13.5,2.4-.7,7-.8,7-3.5s-2.5-2.5-2.7-2.5c-2-.2-3.6,1.4-5.3,2-16.3,2.9-31.4-8.8-47-7-1.4.2-3.5,1.8-5.6,1.9-4.5.4-6.2-1.8-10.4,0Z"/>
  <path class="st5" d="M314,427l2,18.5c0,31.5-2.3,63-4,94.5l2.7-7.8c5.1-31.8,8.4-64,9.3-96.2l2,11.5c3.9,52.7,1.3,105.6-5.1,157.9l-16.8,100.6c1.4.2,1.4-1.7,1.7-2.8,2.2-6.9,3.8-15.2,5.6-22.4,6.5-26.5,14.6-57.5,17.6-84.4.3-2.6-1.3-.9-1.9-1.4s0-1.5,0-2l1-1c1.1-12.1,3.4-24.6,5-37l1-1c.2-1.6-.2-3.4,0-5l1-2c.2-1.3-.1-2.7,0-4,2.9-4.4,2.2-10.6,3.9-15.6l5.1-42.4c6.5,34.1,4.6,69.1-.2,103.3-3.5,25.3-13.8,96-23.8,115.7s-8.1,32-11.5,44c-20.8,74.5-61.1,153-39,232,2.8,10,7.7,19.1,10.5,29-8.7-7.7-15.4-18-19.8-28.7s-4.6-19.1-6.7-22.3-1.3-1.3-1.5-1c-.9,7.8,1.7,14.8,3.3,22.2s1.6,3-.3,2.8c-14-26.2-12.5-54.7-7.7-83.2,1.4-8.5,3.5-20.7,5.7-28.8s5.8-7.1,1.5-8c-1.4,2.4-1.7,5.4-2.5,8-10,32.8-17.8,71.1-4.5,104,1.9,4.8,5.5,9.2,7,14s1.8,12.1,2.5,18c-20.5-24.5-23.7-58.5-22-89.5,1-19.7,6.1-38.8,12-57.5-2.8-.5-1.6.7-2.2,2.2-6.7,16.4-12.7,35.1-18,52s-4.9,18.4-4.7,27.8c-1.7.2-.9-2.3-1-3.5-2.1-50.2,26.4-88.5,42.7-133.3,14.5-39.9,23.9-86.3,31.9-128.1,5.6-29.5,14.7-69.9,15.3-99.2,1.6-.3,1.1-2.3,0-3,0-.7.3-3.1-1-1.5-7.3,39.5-12.2,80.6-21.3,119.7s-1.1,6.8-1.7,8.2-1.6,1.2-2,.1c6.6-40,8.6-80.7,13-121,5.6-51.3,13.1-100.7,16-152.5ZM322,540c-3-.5-1.6.8-2,2.4-2.5,9.9-1.9,24.5-3,35.1-1.5,14.8-4.4,29.6-5,44.5l3.5-11c4.5-23.3,6.3-47.3,6.5-71ZM313,558c-3.1-.5-1.6.8-2,2.5-.7,3.4-1.2,7-1,10.5,1.3,1.7,1.8-.1,2-1.5.5-3.7.5-7.8,1-11.5ZM310,721c.6-.6,4.9-13.8,5.5-16,7.2-24.4,11.8-49.8,15.5-75-1.8.3-1.7,2.1-2.1,3.4-7.6,22.4-16.6,60.8-20.6,84.4s-.5,5.4,1.7,3.2Z"/>
  <path class="st5" d="M608,99c.2.3-.1,1.8.5,2.9,1.4,2.2,3.3,4.4,4.5,6.5s2.1,2.5,0,2.6c0-1.7-1.2-2.3-2.3-3.2-9.3-8.4-20.3-17.3-30.8-24.2-3.3-2.1-11.3-7.6-14.5-8.5s-1.9,1.3-1.4,1.9,9.9,6,11.9,7.6c3.8,3,8,6.3,11.6,9.4,2.2,2,16,15.2,16.5,16.5,1.9,4.5-7.4-3.5-8.1-3.9-1.2-.8-2.2-1.9-3.9-1.6-1.6,1.5,10.3,10.9,11,12.5,1.5,3.3-5-1.4-4,2,2.5,8,18.6,19.2,25,26s3.9,4.7,6,7,.9,2.4,1,2.5c.6.5,2.5.4,1.9-1.4-1.7-5.9-11.4-9.3-7-16.6,9.7,14.9,16,26.1,22,43-4.2.7-1.9,5.1-7,5-5.6-8.4-8.3-17.5-19-21.5s-10.2-.8-13-2-8.7-10-11-12c-4.1-3.6-8.8-6.8-13.5-9.5-1.6.9.2,2.3,1,3,13,13.4,18.7,15.7,26.5,34l-4,2c-.7-2.5-3.3-7.6-5-9.3-4.7-4.8-6.2-7.5-10.5-12.7s-11.6-10.5-17-16c-1.2-.4-2,.2-1.5,1.5,1.2,2.7,13.5,9.8,11,12.5s-6-3.3-7.7-3.8-3.1-.6-2.3,1.3,13.6,12,12,13.5l-52-8,46,17c-18.9-.3-40.6-2.4-59.4-5.1s-30-5.7-44.6-9.9c-.5,2.6.5,1.8,2,2.5,22.8,10.6,68.7,14.3,94,14.5.1,0,.2,1,2,1s2.7.1,4,0c3.3-1.9,21.5,8.3,19,11-31.8,8.5-64,2.8-95.2-5.3s-39.7-12.2-57.8-18.7c-3.6-1.3-7.1-2.7-11-3,2.9,0,7.1-1.3,11.5-1s11.9,2.7,17,3,1.6-.2,1.5-2l-38-11c22.3-1.3,43.3,1.5,65,6-2.7-2.7-8.3-5-12-6.5-12.6-5.1-27.5-9.2-41-10.5-.1-2.3-.3-1.8,1.5-2,14.4-1.8,31.9,3.6,46.5,4-5.9-4.5-14.4-7.5-21.5-10-6-2.1-19.8-7.1-25.5-7-.1-.5-.5-1-1-1-.5-2.4,1.1-2.2,2.8-2.7,16.2-4.7,34.6-2.5,51.2-2.3-2-2.9-7.1-4-10.5-5s-14-4-17-4h-14.5c-.2-2.6-.1-1.7,1.5-2,12.2-2.3,24.3.1,36.5,1-5.6-7.3-16.5-8.8-24.6-11.9s-3.1-.2-3.4-2.1c7.8-1,15.7-1.3,23.5-1.1s6.8,1.5,8.9,1.1-.2-2.9,1.1-3.1c10.8-2.2,36.3,12.2,47.5,15.1.5-2.1-1.1-2.3-2.3-3.2-10.3-8.2-26.2-14.6-38.7-18.8l9.5-1,31.5,6c-5.6-7.2-15-9.6-23-13,0-1.9,4.2-1,5.4-.9,5.5.6,11.6,2.8,17.1,3.9.6-1.4-1.9-2.6-2.8-3.2-4.6-2.9-11.4-5.9-16.7-6.8l8-1c2.9-2.1-27.7-9.2-29.5-9l1.5-2c24.9-1.2,47.8,4.6,70,15.5,8.5,4.2,32.5,18,37,25.5ZM560,74l3,.5c-1-1.5-3.2-2.5-3-.5ZM590.5,104v1c.6-.3.6-.7,0-1ZM559,126c1.3-1.1-1.6-2.7-2.3-3.2-8.4-6.7-19.2-14.4-29.7-16.8,8.7,5.7,18.8,13.8,27.9,18.6.9.5,3.2,2.2,4.1,1.4ZM568.5,121v1c.6-.3.6-.7,0-1ZM546,145c.3-2-1.3-2.8-2.5-4-9.7-8.8-26-17.2-39.1-18.9-1.1-.1-5.4-1-5.4.9,8.9,3.3,17.9,7.1,25,13.5-4.2,1.2-9.3-2.3-13.5-2.5-.9-.1-.6,1.9-.5,2,.5.5,10.5,4.6,12.7,5.8s5.7,3,7.3,5.2l-41-11c1.9,3.7,13.9,6.6,14,10.5-2.4,2-17.6-3.5-13.9,2.4s16.4,6.8,18.9,7.6c9,2.8,25.6,7.5,34.6,8.4s2.6.8,2.4-.9c-5.2-1.6-10.8-4.2-15.3-7.2s-7.3-4.3-5.7-5.8l15,2c1-5.4-1.6-9.2-5-13l12,5ZM572,122c-1.1-1.1-3.1.9-2,2s3.1-.9,2-2ZM600.6,140.4l-27.6-16.4,8.1,7.4c7.8,5.1,15.1,11.1,23.2,15.8s2.9,1.7,2.7-.2c-3-.5-4.4-4.8-6.3-6.7ZM494,157c-1.4-.7-2.7.6-2,1,1.4.7,2.7-.6,2-1Z"/>
  <path class="st0" d="M312,774c34.1-85.6,57.2-197,54-289.5-.2-5.6-1.2-12.8-2-18.4,2.3-.6,1.7.5,2.3,1.3,15.7,18.4,30,38.8,46.7,56.3,1.3,23.3-1.2,46.7-5.3,69.7-4.6,26-12.3,51.2-21.7,75.8,2.7.6,1.7-.7,2.5-2,2.8-4.7,4.6-10.4,6.5-15.5,14.9-39.4,22.6-83.4,22-125.5,5.3,4.2,12.2,7.5,18.9,8.6,3.2.5,16.3,0,16.9.6s1.3,6.3,1.2,7.4-4.9,5.8-6,8.1c-5.1,11.1-2.4,23.2-3.1,34.9-.4,7.8-.8,26.8-2.8,33.2-3.8,12.2-27.1,40.1-35.4,52.6-15.8,23.6-29.9,48.6-47.8,70.7,1.4-3.1,2-7.9,3.8-11.7,5.6-11.6,15.8-28,19-40s-.3-3.7-1.8-2.3-5.4,11.9-7,14c-1.6.3-1.1-1.4-.9-2.4,1.5-9.6,9.2-24.4,12.2-34.8s7.8-29.4,8.7-42.3.7-7.9-1-10.5c3.2-15.6,7.7-34.6,7-50.5s.8-3.7-1-3.5c-2.7,26.9-7.7,54.3-15.3,80.2-1.4,4.8-2.8,9.2-4.7,13.8s-9.2,19.1-10,18c1.8-13.6,5.5-27.1,7.7-40.8,3.5-21.4,6.5-44,7.3-65.7s.1-8.9,0-13.1.8-3.7-1-3.5c-10.4,69.6-32.8,137.9-58.3,203.2s-5.1,12.9-7.9,19.1-1.4,5.2-3.8,4.7ZM384,685c.1-.2,1.2-3.6,1-4-1.5-.3-1.7,2.5-2,4,.3,0,.8.1,1,0ZM382.5,686v1c.6-.3.6-.7,0-1Z"/>
  <path class="st2" d="M799,689c-17.8,2.8-34.7,11.6-48.5,23s-8.1,9.6-10.8,8.9c-4.3-1.1-7-21.1-11-25.6s-18.8-3.3-20.5-11,.2-5.5-.6-8.4c-3.2-10.5-37.4-13.5-40.3-26.7-2.3-10.3,5.3-22.9-11.7-22.3s-49.9,20.3-67.1,28.9-19.9,8.4-29.4,13.6-21.8,15.7-33,22.5c10.8-13,23.5-26.1,36.5-37,28.3-23.7,66.3-38.8,84-73,36.4,26.3,77.2,46.3,113.8,72.2,15.9,11.3,26.1,20.4,38.7,34.8Z"/>
  <path class="st3" d="M583,537c2.2-.4,4.3,3.2,5.3,2.9,4.2-1.3,15.8-11,19.7-9.4s13.2,19.9,13.7,23.5-5.8,6.8-6.6,6c-2-2,3-4.1,3.1-4.7.5-2.5-8.8-20.6-10.7-21.2s-17.5,8.1-18.1,9.1c-1.1,1.9.4,5.7.8,7.8,1.8,1.2,10.5-7.5,15-5.5s6.8,10.8,6.8,13.2c0,3.7-8.5,9.7-12.3,2.3s2.3-3.8,3.4-2.9-.1,2.6,0,2.9c.7.7,5.6-1,5.9-2.6s-4-9.4-4.6-9.5c-3.5-.7-16,6.7-15.2,11.3s7.1,15.8,7.8,16.3c4.3,2.7,13.7-5.8,15-4.5-.3,3.2-1.5,6.2-1,9.5s-.5,1.9,1.5,1.5,11.6-6.3,12-7c1.1-1.7-.5-3.3-.6-5,2.7-.5,5.3,1.6,5,4.4-.4,4.2-19.1,11.6-22.6,15.5s-3.8,10-6.5,11.5-4.2,0-6,1c-7,4-16.1,11-23,16s-3.2,1-3,3.5c-8.2,3.8-16.2,7.7-24.8,10.7-4,1.4-15.6,5.9-18.9,6.1s-2.8-4.3-4.8-5.9c-8.5-7-21.7,10-31.5,9v-17.5c0-7.7,7.2-26.7,11.6-33.4,12-18.2,62.7-40.9,83.4-55.1Z"/>
  <path class="st0" d="M335,543c4.5-40,3.5-76.8,5-116.5s-.8-3.7,1-3.5c2.5,6.3,5.6,12.7,8.8,18.7,8.5,15.7,11.2,16.2,12.2,35.8,2.2,42.3-3.1,89.8-9.3,131.7-9.8,65.2-26.8,129.3-55.2,188.8-1.3-.7,0-2.7.2-3.8,7-29.7,20.1-59.2,22.3-90.2,10.1-19.6,20.3-90.4,23.8-115.7,4.8-34.2,6.6-69.2.2-103.3l-5.1,42.4c-1.7,5-.9,11.2-3.9,15.6Z"/>
  <path class="st5" d="M312,774c2.5.5,3.1-3,3.8-4.7,2.9-6.2,5.4-12.7,7.9-19.1,25.5-65.4,47.9-133.6,58.3-203.2,1.7-.2.9,2.3,1,3.5.2,4.2.2,8.9,0,13.1-.8,21.7-3.8,44.3-7.3,65.7-2.2,13.6-5.9,27.2-7.7,40.8.8,1.2,9.4-16.6,10-18-14,47.7-33.1,97.6-57.5,141-6,10.7-13.6,20.6-19.7,31.3-14.2,24.8-25.5,52.4-30.8,80.7-1.2,0-2.1.9-1.8-1.3,3.2-18.8,6.6-38.3,12.5-56.5,7.3-22.3,20.3-46,29.3-68.2,2.4.3,2.7-.3,1-2,.3-.9.6-1.9,1-3Z"/>
  <path class="st1" d="M595,448c.8,7.9.3,17.2,1,25.5s4.7,16.7,1,22c-4.6,6.5-21.1,17.8-28.3,22.7-29.8,20.3-75.2,37.2-91.7,69.8-2.3-.7-2-2.6-2.1-4.4-.2-2.9-1.2-18.5-.5-19.6s7-3,8.9-4.1c16.3-10.3,41.7-38.7,55.2-53.8,19.9-22.4,38.2-46.6,52.5-73,1.4-.3,1.1,1.1,1.3,2.2.8,3.2,2.4,9.9,2.7,12.8Z"/>
  <path class="st5" d="M477,588c-1.4,2.8-1.9,4.8-3,7.5s.8,1.9-2,1.5c.3-9.6-6.3-18.5-8.5-27s-2.1-24.8-6.5-36c28.5-8,55.8-28.4,78.5-47,26.1-21.5,42.4-36,52.8-69.2,1.2-3.7,5.7-25,6.8-25.7s2.1,0,2.9,0c-1.3,18.6-4.1,37.2-3,56-.3-3-1.9-9.6-2.7-12.8s.1-2.5-1.3-2.2c-14.3,26.4-32.6,50.6-52.5,73-13.5,15.1-38.8,43.5-55.2,53.8s-8.4,3.5-8.9,4.1c-.7,1.1.3,16.7.5,19.6s-.2,3.7,2.1,4.4Z"/>
  <path class="st0" d="M314,427c1.6-28,3.1-56.4,2-84.5s-2.1-15.2-1.5-22.5c4.8,5.1,5.9,13,7.2,19.8,2,10.8,1.9,21.8,3.4,32.6,3,21.6,10.8,38.2,11.9,61.1,1.9,39.4-2.8,82.6-7.1,121.9-1.6,14.9-4.8,29.7-4.9,44.6l2-5c.6.5,2.2-1.2,1.9,1.4-3,27-11.1,57.9-17.6,84.4-1.8,7.2-3.4,15.5-5.6,22.4s-.3,3-1.7,2.8l16.8-100.6c6.4-52.3,9-105.2,5.1-157.9l-2-11.5c-.9,32.2-4.2,64.4-9.3,96.2l-2.7,7.8c1.7-31.5,3.9-63,4-94.5l-2-18.5Z"/>
  <path class="st5" d="M358,176c-.2.3,0,1.9-.9,2.5-1.5,1-3.5.3-5.1.5,1.2-.8,2.6-2,4-3,.3,0,.7,0,1,0h1Z"/>
  <path class="st5" d="M393,103c0,3.1,3.1,1,1,5l9-.5c-4.5,4.7-13.1,5.3-19.5,7.5s-11.4,3.8-12.5,5c-3.3,3.9,6.6,0,7.5,0s8.3-.9,7.5,1.5-17.6,3.6-15,10.5c-2.4.9-6.5,2.8-8,5,5-.8,10-2,15-3l1.5,2c-1.4,0-16.3,3.5-13.5,6,5,.5,11.1-1.6,15,2.5,0,1.4-12,6.1-14,7.1s-2.5-.2-2,2.4c4.6-.3,9.4-2.1,14-.5-6.2,5.3-15.6,5.5-22,11-.4,2.1.8,1.7,2.3,1.3,6.2-1.5,12.2-3.6,18.7-2.8.6,4.7-9.5,1.4-8,7-5.1,1.1-8.5,2.2-13,5s-.6.8-1,1c-.9,0-2.4-.2-3,0-.2-2.3,1.3-4.7-2.3-3.8-6,1.5-20.8,13.7-23.8,19.3s-1.8,2.9-.4,3.6c6-4.9,13.8-12.2,20.5-16l.6.8c1.5-.2,2.9-.6,4.4-.8-9.9,6.7-16.8,11.7-24,22-10.2,8.9-15.7,22.2-21.1,34.4s-1.8,1.4-1.9,1.6l-2-1.5-2,5.5c-1.7.3-1.1-2.4-.9-3.4,1.2-7.3,7.4-14.2,7.4-21.6-5.2,5.3-6.4,14.3-9.7,20.3s-1.7,2.7-3.8,2.7c.5-24.9,17.6-49.2,34-66-1.6,1.9,0,3.9-.5,6s-3.3,2.9-3.4,3.1c-.6.8-.4,2.4,1.4,1.9s25.8-16,24.6-16.9l-10,.5,16-15.5c-2.8,1.3-6.7,1.3-9,2-5.2,1.5-9.1,4.4-13,8-7.4-1.7-14.5,8.2-19.5,13s-2.2.7-2.5,1c.1-.6-.2-1.5,0-2l1-1c5.3-13.2,12.6-24.4,22-35,1.6,3.7-10.8,20.2-10,21l8.5-5c1,1-2.6,4-1.5,5,1.8,1.6,3.1-1.4,3.8-1.9,4.5-3.5,9.7-7.7,15.2-9.6s5.3,1.1,6-2c1.3-5.8-12.4,2.6-15,1.5-1.4-1.2,8.3-9,9-11.5s-5.3.8-6,0c8.1-9.3,18.6-15.7,28-23.5-8.5.2-12.1,9.9-21,10,11.9-9,25.9-17.3,41-19Z"/>
  <path class="st5" d="M329,286c-4.3,1-9.8,10-10.5,10-1.3,0-2.4-10.2-2.5-12.4-3.6-59.4,26.7-102.1,86.8-110.3s73.9,14.6,93,20.4c20.4,6.2,22.9,15.8,35.7,30.3,18.9,21.4,37.7,37.2,46,66,6,20.5,10.2,43.6,10.5,65l2-3-1,8c-.1-1.3,0-2.7,0-4l-4,3c-1.7-11.7-2.3-23.7-4.1-35.4-2.4-15-7.7-35.2-13.9-49.1-8.1-18.4-15-20.1-27.7-32.8s-17.8-25.5-31-34.5c-17.9-12.2-83.8-31.2-104.8-29.2-12.1,1.2-35.6,10.3-45.4,17.6-23.1,17.1-28.9,47.6-30.1,74.9s-.6,11.1,1,15.5Z"/>
  <path class="st3" d="M604,491l4,18.4c-23.3,27.8-60,41.5-89.9,61.1-23.8,15.7-31.7,30.1-34.1,58.9s.7,12.9-.4,14.5c-1.7,2.4-9,1.4-9.6-3.5-2.3-19.8,2.7-49.6,16.1-65s66-41.7,90.9-60.1c8.7-6.4,19.8-13.8,23.1-24.4Z"/>
  <path class="st0" d="M439,70c5.2-.6,10.7-2,16-.5-8.5,4.9-14.6,11.7-21.6,18.5s-13.4,12.5-18.9,19c-10.4,12.4-20.4,36.5-22.4,52.6s0,6.9-.1,10.4c-7.6-2.2-14.4-1.7-22,0-1.5-5.6,8.6-2.3,8-7-6.5-.8-12.5,1.3-18.7,2.8s-2.7.8-2.3-1.3c6.4-5.5,15.8-5.7,22-11-4.6-1.6-9.4.2-14,.5-.5-2.7.6-1.7,2-2.4s14-5.6,14-7.1c-3.8-4.1-10-2.1-15-2.5-2.8-2.5,12.1-6.1,13.5-6l-1.5-2c1.9-.4,4.1-1.6,6.6-1.9s18.8-.5,10.7-3-19.1,1-24.4,2.9c-2.6-6.9,14.3-8.5,15-10.5s-6.5-1.7-7.5-1.5-10.7,3.9-7.5,0,10.2-4.3,12.5-5c6.4-2.2,15-2.7,19.5-7.5l-9,.5c2.1-4-.9-1.9-1-5l20-4.5c-10.6-1.6-21.8.8-31.8,4.2s-16.5,7.9-17.2,7.3c-1.8-1.5,1.4-2.2,1.9-2.6,3.2-2.8,6.8-4.9,10.1-7.4,5.4,3.3,10.6-2.5,16-4.5,10.6-3.9,23.2-5.6,34-9.5,3-2.8-7.8-2-8.5-2-1.2,0-3.7.8-3.5-1,5.2-2.8,13.6-2.2,17-7l-5-1,13-5Z"/>
  <path class="st0" d="M439,125c5.7,0,19.5,4.9,25.5,7,7.1,2.5,15.6,5.6,21.5,10-14.6-.4-32.1-5.8-46.5-4s-1.6-.3-1.5,2c13.5,1.4,28.3,5.4,41,10.5s9.3,3.8,12,6.5c-21.7-4.5-42.7-7.3-65-6l38,11c0,1.8.5,2.1-1.5,2-5.1-.3-11.6-2.6-17-3s-8.6,1-11.5,1c-11.4,0-18.3-1.4-30,2-.2-2.3-4.6-4.7-4.9-5.6s.7-10.8.9-12.4c2.2-18,22.6-19.3,37.4-20.1.8,0,1.4-.9,1.6-.9Z"/>
  <path class="st5" d="M590,396c-4.8,15.3-6.8,31.5-14.8,45.7-11.3,19.9-45.7,45.6-64.9,59.1-32.1,22.6-67.1,47.6-100.8,12.2-32.2-33.8-69.7-85.2-78.2-131.8-2.8-15.1-2.4-30.8-6.2-45.7,4.7.6,10.7,3.2,6,8,6.4-1.2,2.4,3.8,3,4.5,6.7-3.6,5.3,2.3,6,3s2.2-1,5,0c-1.1,2.9-7.6,1.6-8,2s-1.1,10.9-1.1,12.5c.4,44,31.4,90.7,58.1,123.9,17.5,21.8,31.4,42.6,63,36.1,30.6-6.4,95.6-59.7,113.2-85.8,8.8-13.1,11.9-25.4,17.2-39.8s.6-3.3,2.5-4Z"/>
  <path class="st2" d="M583,537c5.9-4,12-8.4,17.5-13s8.2-9.1,9.5-8c3.8,16.1,10.7,31.4,20,45-6.4,2-12.3,6.3-17,11,6.6-1,12.3-5.7,18-9,1.5,2.1,10.7,11.4,10.9,12.6.7,3.7-29.6,23.4-34.4,26.4-12.8,8-25.8,14.7-39.5,21-.2-2.5,1.6-2.5,3-3.5,6.9-5,16-11.9,23-16s4.2,0,6-1c2.6-1.5,4.6-9.5,6.5-11.5,3.5-3.9,22.2-11.3,22.6-15.5s-2.3-4.9-5-4.4c0,1.7,1.6,3.3.6,5s-10.9,6.8-12,7c-2,.4-1.3-.3-1.5-1.5-.5-3.3.7-6.3,1-9.5-1.3-1.3-10.7,7.2-15,4.5s-7.6-14.8-7.8-16.3c-.8-4.7,11.7-12.1,15.2-11.3s4.7,8.9,4.6,9.5c-.4,1.6-5.3,3.3-5.9,2.6s.3-2.5,0-2.9c-1.1-.9-5.4-1-3.4,2.9,3.8,7.4,12.4,1.4,12.3-2.3s-4.4-12.2-6.8-13.2c-4.4-2-13.2,6.8-15,5.5-.4-2.1-1.9-5.9-.8-7.8s16.2-9.7,18.1-9.1,11.2,18.7,10.7,21.2-5.1,2.7-3.1,4.7,7.1-2.5,6.6-6-10.4-22.1-13.7-23.5-15.4,8.1-19.7,9.4-3.2-3.2-5.3-2.9Z"/>
  <path class="st1" d="M731,541c-2.4-4.2-3.5-2.8-5.1-4.7-3.4-4.2-5.7-16-7.9-21.3-1.8-.2-.9,2.1-.7,3.2.7,5.6,3.1,11,2.7,16.8l-6.5-12c-12.4-33-21.3-67.8-24.5-103,.2-.3,1.2.5,1.5,1,2.8,5,5.9,27.4,8,35s2.9,11.4,4.7,16.3,2.1,5.6,3.8,6.7c-3-29-8.3-57.3-9.1-86.6,0-1.9,1.1-3.2,1.1-3.4,9.5,50.9,18.3,102,32,152Z"/>
  <path class="st5" d="M648,238c.3,0,.7,0,1,0,.6.1,1.3.8,2,1,.9,2.4.7,5.5,1.8,7.7,1.7,3.6,2.6,1.1,4.5,7.4s1.6,2.2,1.8,3.4c.4,4.5-11.3,15.7-15.1,16.9s-4.3-.7-5.9,0-7.7,6.5-10.1,8c-7.1,4.3-16.6,8.9-24.9,9.1,3.7-3.1,10.7-4.2,14.4-6.6s1.4-1.8,1.6-1.9.4-1,1.1-1.4c4.5-3.1,13.7-3.6,16.9-9.6l-4-.5c1-1.7,18.5-10.9,16-13.5-4.5,2.1-8.2,5.7-12.8,7.7s-14.5,3.3-20.2,5.3v-4c7.3-1.6,16.4-5.4,23-9s6.1-2,5-5l-7,2c-.5-.5,3.6-8.1.9-9.9s-18.9,3.8-22.6,3.8-3.1-1-3.3-1c.6-3.2-1.6-1.8-3.5-2-9.8-1-19.7-2.7-28-8-1.3,0-.1,4.1,1.2,5.1,3.1,2.2,17,4.5,21.3,4.9-.5,5.3,8.9,2,10,3v2s-17.5,0-17.5,0c-13.2,0-37.2-13-46.5-22.5-1.1-1.1-2.4-1.7-2-3.5,1.1-1.2,23.7,17.9,29,14.5-8-5.6-16.8-10.4-24-17s-7-5.8-7-9.5c25.6,19.5,50,28.7,82.5,27.8,5.8-.2,16.1-.9,20.5-4.8Z"/>
  <path class="st0" d="M362,175c.3-.4,8.9-3,9.5-3h15.5c.8,3.2-3.6,1.7-6.1,2.5-53.8,15.1-74.1,63.3-68.9,116,.8,7.9,2.7,15.7,4,23.5-14.8-11-11.7-27.9-10-44-1.7.4-2.4,4.3-2.7,5.8-1.1,4.9-1.4,10.2-1.3,15.2-3.9-2.3-3.4-7.3-4-11,2.9-9.8,4.3-20.1,7-30,4.4-16,13.4-35.3,23-49s14.1-15.3,24-22c1.5-.2,3.5.5,5.1-.5s.7-2.3.9-2.5,1.6-.9,2-1c1.1,5.8,1.8.2,2,0Z"/>
  <path class="st0" d="M356,176c-1.4,1-2.8,2.2-4,3-1.5.2-2.9.6-4.4.8l-.6-.8c1-.6,5.2-2.7,6-3s2.1,0,3,0Z"/>
  <path class="st0" d="M357,176c-.3,0-.7,0-1,0,.4-.2.6-.8,1-1v1Z"/>
  <path class="st2" d="M455,663l-22.4,9.1c-8.8,3.9-15.8,12.8-21.6,20.4s-11.7,15.5-12,16.5c-1.6-3.8-3.2-4.5-7-5.5l43.5-63.5c-.8,15.4,12.9,7.8,19.5,14.5s2.6,5.5,0,8.5Z"/>
  <path class="st5" d="M608,212c11.4,5.1,26.5,14.2,30,27-7.3.6-14.6,1.3-22,1-.3-2.2,1.4-3.2-1.5-4-21.3-5.7-33.4-6.3-52.8-19.2-1.4-.9-12.5-9.1-5.2-7.8s6.1,3.6,9.6,3.9l-1-5c8.4-.1,16.8-3,25-4-.5,4.9,7.6,5.4,9,10-8.5-1.7-24.8-8.4-7,2.5-2.5,0-1.6,3.1-2,3.5-.9,1-14.2-5.4-17-5,7.8,7.8,20.9,12.9,32,13l-2.7-2.8c-.9-1.6-9.2-2.7-8.3-4.7,1.6-3.5,7.2.1,9.6.4s6.3,0,9.4,0l-8-4c2.4-2.7,2.9-1.1,3-5-3.7-1.6-7.7-2.6-11.4-4.1s-5.2-1.5-4.6-3.9c9.4-1.1,16.4-4.6,16,8Z"/>
  <path class="st1" d="M626,137c-4.4,7.3,5.2,10.6,7,16.6s-1.3,2-1.9,1.4-.3-1.7-1-2.5c-2.1-2.3-4-4.9-6-7-6.4-6.8-22.5-18-25-26s5.4,1.4,4-2-12.6-11-11-12.5c1.7-.3,2.6.8,3.9,1.6s10,8.5,8.1,3.9-14.3-14.5-16.5-16.5c-3.6-3.2-7.8-6.5-11.6-9.4s-11.3-6.9-11.9-7.6-.4-2.4,1.4-1.9c3.2.9,11.2,6.4,14.5,8.5,10.5,6.8,21.5,15.7,30.8,24.2s2.3,1.5,2.3,3.2c2.2,0,.5-1.7,0-2.6-1.2-2.2-3.2-4.3-4.5-6.5s-.3-2.6-.5-2.9c13.9,10.7,28.1,28.2,36,44l-1,.5c-.6,2,1.5,1.5,3,2.5.1.3,0,.7,0,1,.4,1.2,3.3,9.8,0,7s-3.1-5.8-4.2-7.3c-3.2-4.2-8.3-11.7-12.3-14.7s-2.8-1.8-2.5,1c-.8-1-6.9-8-8-7s6.1,9.7,7,11ZM604.5,119v1c.6-.3.6-.7,0-1Z"/>
  <path class="st5" d="M392,612c1.7,2.6,1.2,7.5,1,10.5-.9,12.8-5.1,29.8-8.7,42.3s-10.6,25.2-12.2,34.8-.7,2.7.9,2.4c1.6-2.1,6.1-13.1,7-14,1.5-1.4,2.3.4,1.8,2.3-3.2,12.1-13.4,28.4-19,40s-2.5,8.6-3.8,11.7c-2.7,6.1-20.1,28.6-25.2,34.3s-1.6,2.9-2.8,1.2c27.6-51.5,49.2-108.1,61-165.5Z"/>
  <path class="st3" d="M481,659l-77,76c.9-4.4-1.5-7.2-2.5-11,18.8-20.9,39.7-39.6,59.6-59.5,3.2-.1,5.8,1.1,9.3.3s5.6-6.9,10.7-5.8Z"/>
  <path class="st3" d="M287,867c-2,.2-.3-2.7,0-3.5,2.2-6,6-14.3,8.9-20.1,10.1-20.3,29.8-35.4,44.6-52.4,4.2-3.3,7.4,2.1,7.1,6-20.9,22.7-42.9,44.7-60.6,70Z"/>
  <path class="st5" d="M627,133c-.3-2.8.6-2.5,2.5-1,4,3,9.1,10.5,12.3,14.7s3.9,7,4.2,7.3c3.3,2.8.4-5.7,0-7,5.4,7.3,9.7,16.9,13.2,25.3,7,16.9,13.2,35.4,14.8,53.7-8.6-.9-5.2-1.8-6.1-8.4-2-14-6.5-14-11.3-23.7-10.5-21.3-14.1-40.2-29.6-60.9ZM648.5,155v1c.6-.3.6-.7,0-1Z"/>
  <path class="st3" d="M455,663c-17.1,19.5-37.7,37-55.5,56-.5-2.2-1.1-8.2-.5-10s10.4-14.4,12-16.5c5.8-7.6,12.8-16.5,21.6-20.4l22.4-9.1Z"/>
  <path class="st3" d="M454,553c-.7,1.8-.9,3.1-.6,5,1.5,8.8,10.1,21.9,12.9,32.2,4.6,17.2,3.7,32.2,2.7,49.8h-4.4c-1.3-12-1.5-24.1-4.1-36-3.9-18.2-16.5-32.6-7.5-51h1Z"/>
  <path class="st0" d="M652,278c5.7-6.2,11-12.7,13.6-20.9l1.9-11.1c11.5,9,13.2,23.4,7.4,36.3-1.4,3.1-7,11.9-11.2,10.6s-5.9-15.4-11.6-15ZM668,278c5.8-5.3,6.8-15,1.5-21-.8,3.8-1.4,7.6-2.7,11.3s-3.9,6.1-4.8,8.2.2,1.8,1.5,1.5c2.6-.7,2.7-3.2,4.5-4v4Z"/>
  <path class="st3" d="M811,706c.3.3,1.2,0,3,3-6.7,1.6-44.2,12.2-46.5,16s6.6,29.4,8.5,30.5c3.4,2.1,22.9-5.9,27.6-7.5l-4.6-17c-9.4,1.6-6.6,3-6,11-1.9,2.2-5.2-6.5-5-8.5.4-4.1,10.3-7.3,13.6-3.6s6.5,17.4,4.5,20.4-24.6,9.1-27.8,9.5-3.7,0-5-1.1c-2.6-2.5-10.8-32.1-8.7-35.7s39.7-14.9,46.5-17Z"/>
  <path class="st2" d="M863,904c-7,.8-24.2,8-30.3,5.8s-7.3-20.8-6.6-21.8,11.5-3.5,12-3.1c.6,2.2,2.2,10.6,3.2,11.8,3,3.5,15.6-2,19.8-2.8.5,3.3,1.5,6.6,2,10Z"/>
  <path class="st2" d="M567,646c9.5-9.8,22.4-18.1,32-29.5s2.9-3.2,1-3.5c13.2-7.8,25.3-17.8,38.2-26l2.3-2.9c-6.9,15.2-21.3,26.7-34.6,36.4s-26.2,16.8-38.9,25.6Z"/>
  <path class="st1" d="M352,122c8.9,0,12.5-9.8,21-10-9.4,7.8-19.9,14.2-28,23.5.7.8,7-3.6,6,0s-10.4,10.3-9,11.5c2.6,1.1,16.3-7.3,15-1.5s-4.8,1.5-6,2c-5.5,1.9-10.7,6.1-15.2,9.6s-2,3.6-3.8,1.9,2.5-4,1.5-5l-8.5,5c-.8-.8,11.6-17.3,10-21,5.5-6.2,10.4-11,17-16ZM334.5,152v1c.6-.3.6-.7,0-1Z"/>
  <path class="st2" d="M853,833c.6,3.8.5,7.7,1,11-3.5-.9-2,5.8-1.7,7.2.4,2.2,1.6,9,4.7,8.8.8,5.3,1.2,10.7,2,16-2.1,0-7.8,2.3-9.1.4s-8.5-30.3-8.8-34c-.8-8.5,4.9-8.3,11.9-9.4Z"/>
  <path class="st5" d="M439,70l-13,5,5,1c-3.4,4.8-11.8,4.2-17,7-.2,1.7,2.3.9,3.5,1s11.5-.8,8.5,2c-10.8,3.9-23.4,5.6-34,9.5s-10.6,7.8-16,4.5c19-14.2,38.8-27,63-30ZM405,87c-1.7-.3-3.1.2-4.7.8s-5,2.3-4.3,4.2c3.3-.6,7.4-1.7,9-5ZM394.5,92v1c.6-.3.6-.7,0-1Z"/>
  <path class="st3" d="M393,746c.4,1.5-.4,1.7-1,2.5-3.9,5.7-26.3,28.5-32,33s-1.3,1.9-3,1.5c2.9-3.8-1-9.8.5-13,4-3,22.9-26.4,25.2-26.9s6.8,4.8,10.3,2.9Z"/>
  <path class="st5" d="M379,307c1.7,1,10.9,11.8,12,14,5.2,10.2,6.7,19.8,7,31-2.9-3.5-3.1-8.3-5.2-12.3-6.7-13.4-23.3-28.4-36.2-35.9s-3.2-.3-2.6-2.8c4,.8,22.7,4.7,25,6Z"/>
  <path class="st5" d="M632,494c4.1,15.3,6.6,31.1,12,46-17.8-29-22.5-49.6-24-83.5-.1-2.5-2.6-7.8,0-9.5,2.5,15.3,6.3,30.3,10.3,45.3s1.7,1.6,1.8,1.7Z"/>
  <path class="st2" d="M839,769c.9,3.3,2.1,6.6,3,10-3.9,1.2-1.3,11.4,2,11,.9,4,2.1,7.6,3,12-3.3-.2-10.1,3.9-12.5,1s-7.8-26.8-7.5-28.5c.5-3.4,8.8-5.7,12-5.5Z"/>
  <path class="st0" d="M623,169c-3.9,2.7,4.2,11.8,3,13-.8.5-7.3-2.6-6,.5,3,1.9,16.6,24.1,18,23.5s-.3-3.2,3-2c.4,3.1.8,7.4,1,10.5s.1,1.8-1.5,1.5-8.5-5.5-10-7c-9.6-9.5-10.4-22.1-15-34s-3.8-6.3-4.5-8.5,7.5-.2,8.7.3,2.2,1.6,3.2,2.2Z"/>
  <path class="st0" d="M657,202c-4.8-1.8-11.6-1.9-10.8,4.2l12.8,25.8c4.8.5-.9-6.6,0-9,2.5,1.2,3.4,7,6,2,.4,5.3-.3,10.7,0,16-25.7-5.2-17.2-31.4-23-50,6.7,1.1,11.6,5.6,15,11Z"/>
  <path class="st3" d="M863,908c-8,0-24.2,7.9-31.3,5.8s-9.7-22-8.5-26.1,11.4-6.6,15.1-5.5,4.1,11.3,6.4,11.9c4.5,1.1,11.4-3.6,16.3-3,.1.9-.1,2.1,0,3-4.1.7-16.8,6.3-19.8,2.8s-2.7-9.5-3.2-11.8c-.5-.4-11.6,2.6-12,3.1-.7.9,3.9,20.8,6.6,21.8,6.1,2.1,23.3-5.1,30.3-5.8.2,1.3-.2,2.7,0,4Z"/>
  <path class="st2" d="M822,723c6.2,11.9,8.9,20.5,13,33-5.2-.1-8.6,4.8-11.5-1s-8.3-24.8-8.3-27.7,4.5-3.8,6.8-4.3Z"/>
  <path class="st0" d="M644,540c1.7,2.7,2.9,5.3,4.5,8s1.1,3.3,2.5,2.5c-21.1-50.5-20.3-106.3-25-160.1.4-3,9.8-13.1,12.5-16.5,2.6-3.4,4.7-7.3,7.3-10.7s0-1.8,2.3-1.3c4.5,72-.2,160.3,44.2,221.3,2.6,3.6,5.7,8.3,9.8,10.2-4.5-8.6-10.8-16-15.5-24.5-19.3-34.8-25.8-74.9-29.5-114,3.2-.6,1.7,1.6,2,3.5,4.9,37,10.2,66.2,25.6,100.5,7,15.6,15.7,30.2,28,42l1.5-1.5c-10.4-16.7-20.2-34.2-27.5-52.5-1.5-3.7-9.9-26-8.5-28,.6,0,1.2.5,1.5,1,2.9,4.6,6.6,16.8,9.3,22.7,13.5,28.8,32.8,59.5,52.8,84.2s4.6,6.7,8.4,8.1c1.5,2.8,4.1,5.6,4.5,9-26-17.9-54-32.4-80.4-49.6-13.8-9-23.2-14.3-33.5-27.5-16.9-21.8-25.2-42.9-31.5-69.5s-.1-7.8-1.6-11.4-4.8-3.9-5.3-5.7c-1-2.9-2-15.9-2.2-19.8-1.1-21.6.3-44.2,3.1-65.5,6.9.9,12.5-1.3,19-3l10,102c0-.1-1.4-.3-1.8-1.7-4-14.9-7.8-30-10.3-45.3-2.6,1.7-.1,7,0,9.5,1.6,33.9,6.2,54.5,24,83.5ZM637,412c.5,30.4-.1,60.7,8.3,90.2s18.4,49.1,34.2,68.8c-14.9-36.4-27.7-74-35.2-112.8l-7.3-46.2ZM714.5,602v1c.6-.3.6-.7,0-1Z"/>
  <path class="st5" d="M623,169c11.8,6.9,16.5,22,18,35-3.3-1.2-2.9,1.9-3,2-1.4.6-15-21.6-18-23.5-1.3-3.1,5.2,0,6-.5,1.2-1.2-6.9-10.3-3-13Z"/>
  <path class="st2" d="M381.8,731.2c.5.8.4,4.2.1,5.3-.8,3.9-20.8,22.4-25,26.5.4-3.3-.9-8,.5-11s10.8-13.3,13.7-17.3,1.3-5.9,5.2-5.6,5.1,1.7,5.3,2.1Z"/>
  <path class="st5" d="M330,298c-1.9,6.4-4.9,9.9-1.2,16.7,3.2,5.8,6.5,1,12.1-.2s8.3-1.4,11.6-1.5,4.1-.8,3.5,2c-6.4,0-15.5,2.2-20.9,5.6s-1.3,2.8-2.7,3.3-5.1-.1-7.3.2c0,1.8,4.9,1.9,5,3.5s-5,2.2-5.9,1.4-5.4-21.6-5.1-23.3c.6-4,7.4-7.1,11-7.6Z"/>
  <path class="st5" d="M657,202c4.9,7.8,7.3,13.5,8,23-2.6,5-3.5-.8-6-2-.9,2.4,4.8,9.5,0,9l-12.8-25.8c-.9-6.2,6-6.1,10.8-4.2ZM659,222c.7-1.4-.6-2.7-1-2-.7,1.4.6,2.7,1,2Z"/>
  <path class="st3" d="M397,742c5.6,2.7,11.6,9.6,12.8,15.7s-.2,5.3.4,7.6c1.8,6.3,12.9.5,13.8-3.8,2.1-10.4-2.1-6.9-8-9s-13.9-8.8-15-14.5c4.3,3,8.6,8.9,13.6,10.9s9.6.5,14,3c.9,1.3-2.2,15-3.6,16.6-2.8,3.1-5.7,1.9-9.1,2.9s-2.6,3.5-5.5,1.6-2.4-10.7-4.3-15.8-7.8-9.4-9.2-15.3Z"/>
  <path class="st3" d="M355,786c.2.2,1.3,3.9,2.2,5.3,3.4,5.4,5.7,9.2,11.5,12.5,4.2,2.4,10.3,1.8,9.3,8.6s-4.1,11.3-4.7,11.7c-1.4.9-14,2.1-15.3,1.4-4.2-2.1-.9-10.9-1.1-14.9-.3-7.5-6.3-14.2-6.9-21.7,2.3,3.1,8.1,11.3,8.8,14.7s-.8,15.5,1.2,16.8c3.6,2.5,11.2.8,12.6-4.5,2.4-9.2-2.4-7.6-7.5-11.6s-10.8-12.6-12-17,1.4-1.9,1.9-1.4Z"/>
  <path class="st5" d="M670,229c15.8,3.8,20.5,19.3,18,34-1.9-2.2-3.8-5-4-8l-1,4c-1.2,1.6-5.2-13.6-5.8-14.7-2.4-4.9-8.8-8.6-7.2-15.3Z"/>
  <path class="st1" d="M347,154c2.3-.6,6.2-.7,9-2l-16,15.5,10-.5c1.2.9-22.5,16.3-24.6,16.9s-2-1.1-1.4-1.9,2.7-.3,3.4-3.1-1.1-4,.5-6c6.3-6.4,12.8-12.5,19-19Z"/>
  <path class="st1" d="M351,326c-.7,11.3-.4,14.6,8.7,20.8s3,.7,1.3,2.2-12.8-1.8-14.7-2.8c-3.3-1.7-9.1-8.2-9.1-11.9s10.2-9.5,13.8-8.3Z"/>
  <path class="st3" d="M852,830c.1.8.8,1.8,1,3-7,1.1-12.7.9-11.9,9.4.3,3.7,7.3,31.9,8.8,34s7-.4,9.1-.4c.1.9-.1,2.1,0,3-10.7,5.3-12-.1-14.7-8.8s-8.1-29.3-6.9-33.3c1.4-4.6,10.1-7.3,14.6-7Z"/>
  <path class="st0" d="M692,305c.2,2.4-.8,5.5-1.9,7.6s-.4,3.2-2.1,1.4-1.6-6.5-2.3-8.2c-2.5-6.4-4.9-12.8-8.3-18.7-.4-1.8,5-4.7,6.6-6,1.3,3.9,4.1,7.1,5.3,11.2s2.5,10.7,2.7,12.8Z"/>
  <path class="st3" d="M839,769c-3.3-.1-11.5,2.1-12,5.5s6.6,27.4,7.5,28.5c2.4,2.9,9.2-1.2,12.5-1,.1.6.7,1.6,1,3-4,.9-12.3,3.8-15.5,1s-8.8-27.6-8.5-31.5c.5-7.4,8.8-6.7,14-9.5.4,1.5.7,2.8,1,4Z"/>
  <path class="st3" d="M354,333c1.2.2,3.1-.3,4,0s2.2,1.5,3,2c1.9,1.2,7.1,7.8,10.5,2s-.3-9.4,4.9-3,.4,8-3.7,10.2c-9.5,4.9-18.4-.8-18.7-11.2Z"/>
  <path class="st3" d="M820,720c.3.6,1.2,1.4,2,3-2.3.5-6.8,1.3-6.8,4.3s6.6,24.5,8.3,27.7c3,5.8,6.3.9,11.5,1,.3,1,.7,2,1,3-6.2,1.2-12,5.2-15.5-2s-8.5-26.4-8.5-29.5c0-4.8,3.9-6.6,8-7.5Z"/>
  <path class="st3" d="M465.7,644.2c10.1-2.2,10.9,11.8,3.6,15.7s-13.7-13.4-3.6-15.7Z"/>
  <path class="st0" d="M294,239c2.1,0,2.9-1,3.8-2.7,3.3-6,4.5-15,9.7-20.3,0,7.4-6.2,14.3-7.4,21.6s-.8,3.7.9,3.4l2-5.5,2,1.5c-.3.7.3,3.3-.5,5-2.1,5-5.3,9.6-6.5,15-3.7-4.2-4.1-12.6-4-18Z"/>
  <path class="st0" d="M334,162c-9.5,8.7-18.8,19.7-26.5,30-.7-3.3,2.3-14,4.5-16s1.7-.2,2.5-1c5-4.9,12.1-14.8,19.5-13Z"/>
  <path class="st3" d="M388.3,728.3c6.3-5.7,16,0,8.7,9.2-9.6,12.2-14.8-3.6-8.7-9.2Z"/>
  <path class="st0" d="M598,317c1.3,1.2-2.1,15.2-2,18l-2.5-10-2.4-2c-.9,5.7,3.1,10.9,3.1,16.5l-3.1,11.5c.6-12.8-1.7-25.5-4-38,1.7,3.4,10.5,3.6,11,4Z"/>
  <path class="st5" d="M594,387c.4-.6.1-2.1,1.4-3.1,4.2-3.1,9,1.5,13.2,2,12,1.5,17.3-8.1,25.4-13.9-5.1,7-8.7,13.5-17.5,17s-13.8-.1-22.5-2Z"/>
  <path class="st5" d="M692,305c-.2-2.2-2-10.4-2.7-12.8-1.2-4-4-7.3-5.3-11.2,1.3-1.2,2.7-3.9,4.5-5,4.6,0,8.2,25.3,3.5,29Z"/>
  <path class="st2" d="M456,603c.4,1.7.7,3.2,1,5-2.9-.6-1.8,1.4-2.3,3.2-1.4,5.2-1.7,11.5-4.7,15.8-.4-.4-2.6.4-3.1-2.5s.9-5.7,1.1-8.5c2.8-1.8,4.6-9.6,1-11,.1-1.7-.1-3.3,0-5,3.1-.6,4.1,2.8,7,3Z"/>
  <path class="st0" d="M691,456l-1,4c-3.7-19.2-8.2-38.4-9-58,1.4-.2,1.5,1.8,1.7,2.8,4,16.3,5.1,34.6,8.3,51.2Z"/>
  <path class="st2" d="M339,778l-.5,9c-8.4,7-14.4,16.4-23,23l23.5-32Z"/>
  <path class="st2" d="M458,614c.4,3.4,2.9,25,2,26-4.9-.6-5.8-6.7-8-10,4.2-4.2,2.3-11.6,6-16Z"/>
  <path class="st3" d="M347.7,774.2c9.3-2.7,5.2,12.4-1.2,11.9s-3.5-10.5,1.2-11.9Z"/>
  <path class="st5" d="M298,280c0-.3-1-1.1-1-2.4-.6-9,2.8-20.2,8-27.6-2.7,9.9-4.1,20.2-7,30Z"/>
  <path class="st3" d="M369.9,810.1c1.4,1.6-1.6,11.2-7,7.5s-.4-9-1.9-11.6l8.9,4.1Z"/>
  <path class="st5" d="M400,146c-.2,1.6-1.1,11.8-.9,12.4.3.9,4.7,3.4,4.9,5.6-3,.9-5.1,2.4-8,3-.9-1,1.1-19,4-21Z"/>
  <path class="st3" d="M411,754c5.7,1,15.1,3.3,7,9.5s-4.9-5.4-7-9.5Z"/>
  <path class="st2" d="M354,333c0-2.7,0-5.4,1.1-7.9,5.8-.6,19.1,2.9,6.9,4.9s-4.6-1.6-4,3c-.9-.3-2.8.2-4,0Z"/>
  <path class="st3" d="M457,608c.3,2,.7,3.9,1,6-3.7,4.4-1.8,11.8-6,16-.5-.8-1.6-2.6-2-3,3-4.3,3.3-10.6,4.7-15.8s-.6-3.8,2.3-3.2Z"/>
  <path class="st3" d="M851,823c-9,.7-13.5,4.3-14-7.5,3.9-2.4,3.9,2.8,4,5.5l9-2c.2,1,.7,2.3,1,4Z"/>
  <path class="st3" d="M458,645c-9.6-.3-7.8-12.6-17-12.5,6.8-7.4,8.7,3.4,12.1,7.8s4,2.4,4.8,4.6Z"/>
  <path class="st3" d="M630,561c.5.7.7,1.6,1,2-5.7,3.3-11.4,8-18,9,4.7-4.7,10.6-9,17-11Z"/>
  <path class="st0" d="M648,180c1.3,3.5,3.6,7,3.5,11-1.6-2.5-9.3-3.2-10.3-4.2s0-1.6-.2-1.8c5.1.1,2.8-4.3,7-5Z"/>
  <path class="st3" d="M854,844c.8,5.1,2.2,10.6,3,16-3.1.3-4.4-6.6-4.7-8.8s-1.7-8.1,1.7-7.2Z"/>
  <path class="st3" d="M513,652c-.5.4-6.4-1.5-7.5-2s-3.3-.1-1.5-2,7.1-3.8,7.5-3.8c2.9.2,2.7,5.7,1.4,7.8Z"/>
  <path class="st3" d="M388,713l1,10c-2.8.3-5-1.8-6.9-3.5.9-1.1,4-7.9,5.9-6.5Z"/>
  <path class="st2" d="M455,598l-6-3c.2-2.9-1-8.3,2-10,1.8,4.2,2.9,8.6,4,13Z"/>
  <path class="st5" d="M357,317c-.6,2.3,1.5,1.9,3,3-6.4-.8-13.6.5-20,1l8.9-3.5c2.6-.7,5.4-.5,8.1-.4Z"/>
  <path class="st3" d="M454.8,647.3c.1,0,1.3,2.4.8,2.7-2-1.7-4.8-2.2-7.3-2.7-3.9-.8-7.3,1.5-8.2-3.2,4.1-.5,11.7.3,14.8,3.2Z"/>
  <path class="st3" d="M394,722c-1.2,1.6-1.8,0-2-1.5-.4-3.8,1.4-9.6-4-10.5,8-7.3,5.8,6.7,6,12Z"/>
  <path class="st5" d="M628,296c-1.5,4-2.6,2.5-3,3,.9-.8.8-1.2,3-3Z"/>
  <path class="st5" d="M618,311l-1-2c2.6-2.8,3.7-6,8-10-.4.6-6.3,10.6-7,12Z"/>
  <path class="st5" d="M634,291c-.6.4-4.7,4-6,5,2.3-6.3,1.7-3.5,6-7v2Z"/>
  <path class="st3" d="M844,790c-3.3.4-5.9-9.8-2-11,1,4,1.2,7.6,2,11Z"/>
  <path class="st3" d="M455,598c.5,1.9.6,3.3,1,5-2.9-.2-3.9-3.6-7-3,.1-1.7,0-3.3,0-5l6,3Z"/>
  <path class="st3" d="M448,616c.2-3.7.8-7.7,1-11,3.6,1.4,1.8,9.2-1,11Z"/>
  <path class="st3" d="M349,769c-.2-2.8.4-7.4,3-9-.3,3,1.6,8.9-3,9Z"/>
  <path class="st3" d="M445,636c.3.2,2.5,5.4,2,6-6.2,1.3-5.2-8.4-2-6Z"/>
  <path class="st3" d="M385,727c-1.7.8-8.4-1.3-6-4s6.7,1.1,6,4Z"/>
  <path class="st2" d="M252,870c.8-2.6,1.1-5.6,2.5-8,4.3.9-1.4,7.6-1.5,8h-1Z"/>
  <path class="st1" d="M362,330l-1,5c-.8-.5-2.8-1.9-3-2-.6-4.6,1-2.5,4-3Z"/>
  <path class="st2" d="M453,553c.6-1.1-.4-4.5,3-4l.5,9-1.5-6-1,1h-1Z"/>
  <path class="st2" d="M362,316c2.8.7,6.4.9,8,4-2.9,1.2-7.2-2.8-8-3v-1Z"/>
  <path class="st5" d="M646,146c-1.5-1-3.6-.5-3-2.5l1-.5c.4.9,1.5,1.5,2,3Z"/>
  <rect class="st1" x="229" y="920" width="1" height="4"/>
  <path class="st5" d="M362,175c-.2.2-.9,5.8-2,0,.5-.2,1.4.1,2,0Z"/>
  <path class="st0" d="M311,777c1.7,1.7,1.4,2.3-1,2,.4-.9.8-1.5,1-2Z"/>
  <path class="st0" d="M297,801c-1.2,1.1-3.2-.4-.5-2,.9-.1.6,1.9.5,2Z"/>
  <path class="st2" d="M311,577c0-1,0-2,0-3,1.1.7,1.6,2.7,0,3Z"/>
  <path class="st5" d="M591,393l1-2c-.3.8-1,1.9-1,2Z"/>
  <path class="st0" d="M651,239c3.3,1.2,12.5,4.1,13,7.6.9,5.9-4,16.6-7.6,21.4-7.7,10.2-16.8,9.4-25.3,16.7-9.4,8.1-18.1,26.7-31,29-16.8,3-15.9-18.9-20-30.1s-12.8-26-23-37c17.4,6.9,35.1,14.6,54.4,12.4l10.6-3.9c-31.6,6.2-64.9-8-86-31.5-7.1-8-12.5-19.3-22-24.5-.2-1.8,1-.7,2-.5,3.4.5,10.5,1.5,13.2,2.8s11.7,10.7,15.7,13.8c0,3.7,4.4,7.2,7,9.5,7.3,6.6,16,11.4,24,17-5.3,3.4-27.9-15.7-29-14.5-.4,1.8.9,2.4,2,3.5,9.4,9.5,33.3,22.5,46.5,22.5h17.5v-2c-1.1-1-10.5,2.3-10-3,2.8.3,6.1,0,9,0s1.2,1,3.3,1c3.7,0,21.6-4.5,22.6-3.8,2.8,1.8-1.4,9.3-.9,9.9l7-2c1.1,3-2.8,3.8-5,5-1.1-2-3.2-.7-4.7-.2-20.6,6.6-38.6,12.1-60.3,4.2-.3,2.5,2,3,3.7,3.8,10.4,4.4,27.4,3.6,38.3,1.2v4c0,0-1,.9-1,1l-16,3c-3.3,3.4,12.4,4.5,15,1l2,1c-7.6,4.3-8.1,3.9-16.6,6.9-1.3.4-3.1.3-3.4,2.1,7.3,1,14.1-1.5,21-3s1.4,0,2,0c-.2,0-.7,1.3-1.6,1.9-3.7,2.4-10.7,3.6-14.4,6.6,8.3-.2,17.9-4.8,24.9-9.1s9.4-7.7,10.1-8c1.6-.6,3.3.9,5.9,0,3.8-1.3,15.5-12.4,15.1-16.9s-1.4-2.2-1.8-3.4c-2-6.3-2.8-3.8-4.5-7.4s-.9-5.3-1.8-7.7Z"/>
  <path class="st0" d="M334,549c.2-1.7,1-1.9,1-2l-1,2Z"/>
  <path class="st0" d="M581,175l-46-17,52,8c1.6-1.5-11.3-11.9-12-13.5s1.1-1.6,2.3-1.3,7.1,4.5,7.7,3.8c2.5-2.7-9.8-9.8-11-12.5s.2-1.9,1.5-1.5c5.5,5.5,12.1,10,17,16s5.9,7.9,10.5,12.7,4.3,6.8,5,9.3l4-2c2.4,5.6,4.5,10.5,6,16.5-4-.2-7.3-5.5-10.5-6.5s-2,.2-1.5,1.5c1.2,2.9,11.1,7.9,13.4,10.6,4.2,4.9,5.3,10.9,12.1,15.9s9.6,4.4,10.2,5.3,1.8,7.4,2.8,9.7,3.5,4.9,4.5,8c-.3,0-.7,0-1,0-4.1-.6-6,.7-10,1-3.5-12.8-18.6-21.9-30-27,.4-12.6-6.6-9.1-16-8s-1.4,0-2,0c-8.2,1.1-16.6,3.9-25,4l1,5c-3.5-.3-6.1-3.3-9.6-3.9-7.2-1.3,3.8,6.8,5.2,7.8,19.4,12.9,31.6,13.5,52.8,19.2,2.9.8,1.2,1.8,1.5,4-1.9,0-2.8-1-3-1l-.5-1-.5,1c-2.4-.2-4.9.3-7.4-.1-26.1-4.1-50.2-19.2-69.6-36.4,12.7-.5,25.7,1.5,38.5.5s14.8-2.5,20.7-4.3,5.3-1,5.8-2.7c-37.7,8.5-73.9,1.4-110.4-8.1-20.8-5.4-41.1-12.9-62.4-16.6s-18-3.6-27.2-1.3c.8-2.1,4.3-2.8,6.2-3.3,12.9-3.5,25.8-1.6,38.8-1.7,18,6.5,38.5,13.7,57.8,18.7,31.2,8.1,63.4,13.8,95.2,5.3,2.5-2.7-15.7-12.9-19-11,1.8-.2,5.7-2,8-2-.2-1.8-4.6-1-6-1ZM588.5,166v1c.6-.3.6-.7,0-1Z"/>
  <path class="st5" d="M699,389c0,.2-1.1,1.5-1.1,3.4.8,29.3,6,57.6,9.1,86.6-1.6-1.1-3.1-4.9-3.8-6.7-1.8-4.9-3.4-11.2-4.7-16.3-2-7.6-5.2-30-8-35s-1.3-1.3-1.5-1c3.2,35.2,12.1,70,24.5,103l6.5,12c.4-5.8-2-11.2-2.7-16.8s-1.1-3.4.7-3.2c2.2,5.3,4.6,17.1,7.9,21.3s2.7.5,5.1,4.7c4.4,7.8,7.6,23.3,11,32.5,11.3,30.9,25.2,59.7,40,89l-19.4-13.6c-35.3-58.4-58.5-125.9-71.6-192.9-3.2-16.6-4.3-34.9-8.3-51.2-.2-1-.3-3-1.7-2.8.7,19.6,5.3,38.8,9,58,12.6,65.3,29,116.3,60,175-3.8-1.4-6-5.1-8.4-8.1-20-24.7-39.3-55.4-52.8-84.2-2.7-5.9-6.4-18.1-9.3-22.7s-.9-1.1-1.5-1c-1.4,2,7,24.3,8.5,28,7.3,18.3,17.1,35.8,27.5,52.5l-1.5,1.5c-12.3-11.9-21-26.5-28-42-15.4-34.3-20.7-63.5-25.6-100.5-.2-1.9,1.3-4.1-2-3.5-1.7-17.9-2.1-35.5-3-53.5-.6-12.3-4.4-35.1-3.1-46s4.5-10.5,6-15c2.9-8.4,6.2-18.2,7-27s-.8-14.7.5-16.5,3.6-1.2,4.9-2.1,3.7-4.2,5.1-3.9c8.8,16.9,13.2,35.3,17.2,53.8,2.7,12.5,7.5,31.9,7.3,44.2ZM710,560c-13.8-41.3-23.9-83.6-30.7-126.8-1.8-11.5-2.7-23.1-4.4-34.6s-.4-4.7-1.9-4.6c.9,40,7.5,79.7,17,118.5-1.1,1.4-2.3-4-2.5-4.5-2-6.3-4.2-12.6-6.1-18.9s-5.6-26-6.5-27c-2.4-2.6-2,4.4-2,5.5,1.3,19.8,9.4,47.6,21,63s8.7,21.1,16,29.5ZM660,427c-2.5-3-2.1,5.4-2,6.5,1.1,15.7,5.7,34.3,9.2,49.8l4.7,8.7c.4-2.6,1.1-4.5.8-7.2-.8-9.1-6.1-23.9-8.3-33.8-1.8-7.9-2.9-16.1-4.5-24ZM678,518c.5-4.2-1.5-4.2-1,0h1Z"/>
  <path class="st0" d="M312,174c.2-.8,1-.9,1-1l-1,1Z"/>
  <path class="st3" d="M479.5,655c-2.1,2.3-.8-1.1-.5-1.4,1.2-1.3,5.3-.3,7.5-.6,3.9-.5,9.4-2.3,13-2.1,5.8.4,12.6,9.3,16.4,2.2s2.9-6.3.1-9.7c-4.8-5.8-8.8.4-13.7,2.3s-15.4,4.8-21.1,5-2.7,0-3.2-1.8c6.8-.9,13.9-1.7,20.3-4.3s15.2-11.9,19.2-6.7,4.5,8,4.6,8.5c.6,4-2.1,5.4-3.9,8.1s-.2,6.6-7.4,5.1-8.5-4.8-9.2-4.8h-22Z"/>
  <path class="st5" d="M613,239c-.3,0-.7,0-1,0l.5-1,.5,1Z"/>
  <path class="st3" d="M440.5,634c.6.3.6.7,0,1v-1Z"/>
  <path class="st0" d="M501,58l-1.5,2c1.8-.2,32.4,6.9,29.5,9l-8,1c5.3.9,12.1,3.9,16.7,6.8s3.4,1.8,2.8,3.2c-5.5-1.1-11.6-3.2-17.1-3.9s-5.4-1-5.4.9c8,3.4,17.4,5.9,23,13l-31.5-6-9.5,1c12.5,4.1,28.4,10.6,38.7,18.8s2.7,1.1,2.3,3.2c-11.2-2.8-36.7-17.2-47.5-15.1s0,2.9-1.1,3.1c-2.1.4-6.1-1-8.9-1.1-7.9-.3-15.8,0-23.5,1.1.3,1.9,2.1,1.6,3.4,2.1,8.1,3.1,19.1,4.6,24.6,11.9-12.2-.8-24.3-3.2-36.5-1-1.6.3-1.7-.7-1.5,2h14.5c3,0,13.5,2.9,17,4s8.5,2.1,10.5,5c-16.6-.2-35.1-2.4-51.2,2.3-1.7.5-3.3.3-2.8,2.7-11.6-1.1-22.7,1.3-33,6.5,4.8-10.9,12.9-23.1,21.6-31.4s12.4-8.3,20.9-9.1c13.4-1.2,28.1.5,41.5,2-.5-2-2.6-1.9-4.2-2.3-9.4-2.7-24.6-4.3-34.3-3.7s-7.7,2.2-11.5,1.5c2.8-2.6,5.2-5.5,8-8,17.2-15.6,30.4-20.4,54-21.5Z"/>
  <path class="st0" d="M327,593c.1-.7,1-.9,1-1l-1,1Z"/>
  <path class="st2" d="M314.5,811c.6.3.6.7,0,1v-1Z"/>
  <path class="st0" d="M670,229c-1.6,6.7,4.8,10.4,7.2,15.3s4.6,16.3,5.8,14.7l1-4c.2,3,2.1,5.8,4,8-.9,5.4-2.3,12.9-8,15.5,4.4-11.1.6-23.4-7-32.1s-4.6-3-4.9-4,1.1-11.5,1.8-13.4Z"/>
  <path class="st0" d="M333,555c.1-.8,1-.9,1-1l-1,1Z"/>
  <path class="st5" d="M590,395l1-1c-.2.7-1,.9-1,1Z"/>
  <path class="st5" d="M592,390l1-1c-.2.4-.9.7-1,1Z"/>
  <path class="st5" d="M257.5,1007c.6.3.6.7,0,1v-1Z"/>
  <path class="st3" d="M768,810c5.6-4.4,46.2-16.5,47.8-19.2s-5.4-27.9-7.8-29.4c-4.3-2.6-24.8,7-31,6.5.4-1.6,2-2.4,3.4-3,3.5-1.6,24.1-8.2,26.8-7.8s2.8,1.3,3.7,2.3c2.5,2.6,9.7,27.7,8.8,30.8s-3.6,4.1-5.1,4.9c-10,5.7-26.4,9.1-37.7,14.3s-8.6,2.7-8,8.9,4.3,18,5.5,20.6,2.5,4.6,5.7,3.8l45.8-14.3c2.9-2.5-2.4-20.1-4-21.1-3.9-2.4-22,6.6-23,5.5s-.3-2.3.6-3.1c2.7-2.1,20.9-7.5,23.7-5.8s8.2,19.3,7.5,23.2-1.3,2.9-2.3,3.8c-3.1,2.7-23,8.2-28.3,9.7s-20.5,6.6-25,4.5-5.4-17.7-9.2-22.3c.6-4.2,1.4-8.8,2-13Z"/>
  <path class="st3" d="M766,802c-4.9.6-6.8-.5-8.8-4.7s-12.2-35.8-13-42-1.3-7.1,3-9.4c4.8-2.6,10.3-4.6,13.6.9s9.6,36.2,11.3,37.2,10.2-1.4,10.8-3.5-1-2.8-.4-4.3c1.5-3.8,15.1-7.6,18.6-5.5s5.4,13.4,2.5,16.6-30.6,12.5-35.6,13.9-1.4.9-2,1ZM757.9,747.1c-2.2-1.4-11.8,1.3-10.8,5.2l15,46.2c1.8,1.1,38-12.1,39.6-14.6s-1.5-9.3-2.1-10c-1.6-2.2-13,1.5-13.4,2.2-.6,1,.2,4.3-.3,6.2-.8,2.8-12.5,6.7-14.8,5.2-4.2-2.6-11.1-39.1-13.1-40.4Z"/>
  <path class="st3" d="M820,860c3.2,2.8-14.5,7.2-16.5,7.1-5.9-.4-4.9-9.8-6.5-11.1s-8.2,1.8-9,2.4c-3,2.5,3.5,22.3,4.7,22.6l38.7-10.2c1.2-.4,1.6-1,1.6-2.2,0-2.1-4.3-19.4-5.4-20.6-2.9-3-12,.3-9.5,6-3.5,1.5-4.8-4.3-3.1-6.6s10.4-4.7,12.4-4.3c4.2,1,9.3,20.6,9.4,24.5s-3.7,6.3-7.7,7.8-33,10.1-36.4,9.6c-4.8-.7-10.2-22.3-9.1-26s10.9-7.2,14.9-5.8,2.4,9.9,5.3,10.8,14.7-5.4,16.4-3.9Z"/>
  <path class="st3" d="M790,813c.6.6,3.7,11,4.1,13,1,.9,17.4-4.2,18-5s-2.1-4.4.5-4.9,6.1,5.6-1,9-15.6,5.1-17.6,4.5c-3.4-.9-6.3-11.8-6-15.1s.7-2.9,2-1.5Z"/>
  <path class="st2" d="M644,930c.7-29.8,7.9-63.1,18.3-91.2s32.3-80.4,49-112c2.8-5.3,5.6-10.8,10.2-14.8,3-1.2.9,5,.5,6-7.7,18.1-11.3,52.8-15.5,74-8.6,43.4-17.2,86.8-26.5,130-2.4.3-3.7-2.2-4.5-4-1.3-3-3.5-14.4-3.5-17.5v-34c0-.2,2.2-5.8-1-2.5s-2.6,37.9-1.9,43.4c.6,4.6,3,12.5,5.9,16.1s4.7,1.7,4,4.8l-22,92.6-4.1-34.4c-.7-17.7-9.2-39.5-8.9-56.6Z"/>
  <path class="st2" d="M577,802c-5.1,55,36.9,123.3,67.5,167l5.4,42-51.5-47c-19.9-19.4-39-39.4-57.5-60-.3-1-1.7-2.2-1-4,3.6-3.6,26.7,12.9,31.7,14.8s7.2,2.6,8.2-.4l-6.9-59.8c.1-16.7-.8-32.6,2-49.1.3-1.9-1.1-4,2-3.4Z"/>
  <path class="st2" d="M674,711c-28.6,57-44.2,130.6-40,194.5,1.2,18.3,6.5,36.4,9,54.5-13.2-17.9-25.3-37.2-35.5-57-21.2-41-38.5-88.7-19.5-134,2.3,1.6,1.9,2.4,2.5,5,2.9,10.9,2.4,24.6,4.8,36.2,3,15,9.7,32.5,17.2,45.8s5.8,11.5,8,11,4.9-30.6,5.7-35.4c6.6-43.4,21.6-81.1,45-118,.8-1.3.3-3.2,2.8-2.6Z"/>
  <path class="st2" d="M616,794c1.9-27.3-7.2-88.7,17-107.5s19-5.3,20.1,6c2.6,28.5-10.5,75.6-30.1,97-1.9,2.1-3.8,5-7,4.5Z"/>
  <path class="st2" d="M392,818c4.7-5.7,10.5-10.5,15.5-16,24.2-26.5,52-59.8,70.9-90.1s9.1-17.1,14.6-24.9c-17.3,54.4-44.9,108.8-101,131Z"/>
  <path class="st2" d="M592,691c0,.8,1,1.7,1,2,.2,1.6,0,3.2-.9,4.6-13.9,19.7-25.2,41.2-39.3,60.8s-25.3,34-29.8,30.7c-1.5-5.9,1.2-12.6,3.2-18.3,12-33.4,42.8-55.5,65.8-79.7Z"/>
  <path class="st4" d="M592,691c7.3-7.7,14-17.2,21.5-25s8.3-9.1,9.5-8l-30,35c0-.3-1.1-1.2-1-2Z"/>
  <path class="st2" d="M493.5,685c.6.3.6.7,0,1v-1Z"/>
  <path class="st4" d="M434,300c-4.7.2-4.6-10.5-3-12,2.5-2.4,1.4,3.6,3,3,.2-4.1,2.5-7.4,5.5-10l1,2c6.6-6.8,17.1-10.8,26-14,26.8-9.6,40.7-8.4,66.5,3.6,2.3,1.1,5.7,2.1,7,4.5-8-.3-16.7-3.4-24.5-4-21.6-1.7-35.7,6.6-54.5,15-9,4-17.9,8.3-27,12Z"/>
  <path class="st4" d="M494,297c1.3,0,2.7-.1,4,0s1.4,0,2,0c5.7.7,13.1,4.1,19,5-.3,2.4-5,.6-4,4,6.8.4,13.4,2.2,20-1,.6.3,2.7-.7,3,.5-4.1,4.9-9.1,8.2-15,10.5-.3,1.7,5.4.4,3,3s-8.5,2.6-10,6.5l3,3.5c-6.5-2.4-7.5.8-12,2.5-7.1,2.7-13.4,4-21,4.5.1-1.4.3-2.1-1-3s-2.2-.4-3.3-1.2c-7.9-5.5-7.1-7.6-8.7-16.3s.5-2.1-1.4-1.5c-4.4,1.3-12.1,10.5-14.4,14.6s-2.9,11.6-6.2,8.3,5.4-13.4,6-16c2.3-.3,7.6-7.7,10.5-10,9.7-7.5,19.7-8.1,31.5-8s10.6,2.7,13-1c-4.6-.5-8.3-1.7-13-2-15-1-27.8,2.1-38.5,13,.5-.9,2.3-4.8,2.5-5,6.5-6.9,21.7-11,31-11ZM495,311c-.3,0-1.1-.9-2.4-1-2.3-.2-15.6,1-16.5,2.1s-.2,4.8-.1,5.9c2.5,20.4,32.7,15.6,28-6-3,0-6-.6-9-1ZM506,326c2,1.8,8.2-6.8,9-8.5s1.7-.9,0-2-7.7-2.8-8-2.5c2.2,2.6-1.5,12.6-1,13ZM506,327c-1.4-.7-2.7.6-2,1,1.4.7,2.7-.6,2-1Z"/>
  <path class="st5" d="M440,475c-11.6,1.5-17.3,2.8-29-1-.6-.2-1.9.4-2.8-.2s-.7-2.2-1.2-2.8c4.3.5.1-3.6,0-5.6-.2-3.9,3.5-6.6,7-7.4,13.9,3.1,13.6.2,25.8-2.7s22.2-2.1,33.2-5.3c-4.8,4.2-9.1,9.4-14,13.5s-7.6,6.6-9.5,7.5c-3.2,1.6-7.1.9-9.5,4ZM443,462c-3.4,0-9.5-.8-10,4,3.6,0,9.6,1.4,10-4Z"/>
  <path class="st5" d="M445,402c-.2,3.8-2.9,6.6-5,10s0,1.3-.5,2c-2.9,4-9.8,2.3-13.5,3.5-6.2,1.9-7.1,11.5-18.9,7s-9.7-5.5-13-10.5c6.6.5,11.9,2.8,18,4l-12.7-8.8c-3.7-1.3-2.3.6-4.3,1.8-3.2-5.2-1.4-8.2-1-13,4.5,8.4,11.9,12.4,21.2,8.7,6.7-2.6,6.5-5.1,16.1-3.5s7.6,5.9,13.7-1.2ZM419,412c.9.9,4.7-1.9,6.5-2.1s9.4,2.6,8.5-1.4-19-.5-15,3.5Z"/>
  <path class="st5" d="M461,288c-2.4,6.6-6.7,12.5-9.5,19s-5.8,19.2-6.6,19.9c-2.9,2.5-8.8-3.5-10-6.3-2.8-6.8-1.5-13.6-.9-20.6,9.1-3.7,18-8,27-12Z"/>
  <path class="st5" d="M472,446c-9.1,3.2-12.5,3-21.5,3h-16c-3.1,0-8.3,3.1-14.5,3-2.1-6.7-12.9-3.2-18-5,2.3-2.2,3.6-4.5,7-6,4.8,3.1,13.9,5.3,16-2,15.6-1.8,30.7,9.9,47,7Z"/>
  <path class="st4" d="M472,446c1.7-.6,3.3-2.3,5.3-2s2.7,2.4,2.7,2.5c0,2.7-4.6,2.8-7,3.5-11,3.2-22.1,2.6-33.2,5.3s-11.9,5.8-25.8,2.7-7.2-1.1-15-1-6.3.6-7-1.5c-1.5-4.6,5.3-3,6-3.5-.6,3.4,6.7,2.1,8.3,1.8,7.2-1.4,5.4-1.9,13.7-1.8s11.4-3,14.5-3h16c9,0,12.4.2,21.5-3ZM441,452c-7.8-.6-15.2,2.3-23,2.5,1.8,1.8,4.9,2.6,7.4,2.5l15.6-5Z"/>
  <path class="st5" d="M651,297c-1.8,3.4-3.6,2.7-3-1-.3-.4-1.6,1-2,1-.7,0-1.9-1.5-2.5-2-.1,1.2.3,2.6.5,4-5,1.8-7.3,7.4-11.5,11s-6.1,4.9-6.5,5c-1.2.3-4.8.2-6-.5,5-8.3,15.7-26.7,27.3-23.3,3.5,1,2.9,4,3.7,5.8Z"/>
  <path class="st4" d="M646,297c3.5,18.8,7.2,38.7-6,54.5-.8,1-9.9,10.8-9,6s7.4-7.6,9.5-10.6c8.3-11.8,5.3-34.2,3.6-47.9s-.7-2.8-.5-4c.6.5,1.8,2,2.5,2Z"/>
  <path class="st5" d="M413,478c11.2,3.7,23.5,2.3,34-3,4,4.4-5.5,8.6-8.8,9.7-10.2,3.4-19.7,3.3-25.2-6.7Z"/>
  <path class="st5" d="M499,300v3c-11.8,0-21.8.5-31.5,8s-8.2,9.7-10.5,10-4.7,0-3-2,3.3-.4,3.8-1.2c1.6-2.5-1.4-11,2.7-12.8s1.3,2.4,2.5,3c-.2.2-2,4.1-2.5,5,10.7-10.9,23.5-14,38.5-13Z"/>
  <path class="st5" d="M535,305c-6.5,3.2-13.2,1.4-20,1-1-3.4,3.7-1.6,4-4-5.9-.9-13.3-4.3-19-5,1-1.6,2.5-2,4.4-1.9,14.1.3,19.4,3.8,30.6,9.9Z"/>
  <path class="st4" d="M394,398c-.4,4.8-2.1,7.8,1,13,1.9-1.1.6-3,4.3-1.8l12.7,8.8c-6.1-1.2-11.4-3.5-18-4-5.1-7.8-5.8-14.4,0-22,0,2,.2,4,0,6Z"/>
  <path class="st4" d="M440,475c2.4-.3,4.9-2.3,7,0-10.5,5.3-22.8,6.7-34,3-.7-1.3-2-2.3-2-4,11.7,3.8,17.4,2.5,29,1Z"/>
  <path class="st0" d="M414,458c-3.5.8-7.2,3.5-7,7.4s4.3,6.1,0,5.6c-3.4-4.1-7-8.5-8-14,7.8,0,7-.8,15,1Z"/>
  <path class="st0" d="M402,447c5.1,1.8,15.9-1.7,18,5-8.3-.1-6.5.4-13.7,1.8s-8.8,1.7-8.3-1.8c.3-.2,2.1-3.2,4-5Z"/>
  <path class="st2" d="M391,321c9.7,9.4,10.3,25.6,8.9,38.4s-.4,3.8-1.9,3.6c0-3.7,0-7.3,0-11-.3-11.2-1.8-20.8-7-31Z"/>
  <path class="st4" d="M440,412c2.1-3.4,4.8-6.2,5-10s-2.3-8.7-2-9c2.1-2.2,8.1,9,2.5,16s-3.1,3.3-5.5,3Z"/>
  <path class="st4" d="M409,441c4.1-1.9,5.9.4,10.4,0s4.2-1.8,5.6-1.9c-2.1,7.3-11.2,5.1-16,2Z"/>
  <path class="st2" d="M486,336c-5.6.4-11.4-.3-17,0-1.6-1.2,0-1.8,1.5-2,4.6-.6,10.3,1.3,14.5-1,1.3.9,1.1,1.6,1,3Z"/>
  <path class="st5" d="M498,297c-1.3-.1-2.7,0-4,0,.4-1.6,3.7-1.5,4,0Z"/>
  <path class="st2" d="M374,321c.2,2-2,1-3-.5l3,.5Z"/>
  <path class="st1" d="M310,721c-2.2,2.1-1.9-2.1-1.7-3.2,4-23.5,13-62,20.6-84.4.4-1.3.3-3.1,2.1-3.4-3.7,25.1-8.2,50.6-15.5,75s-4.9,15.4-5.5,16Z"/>
  <path class="st1" d="M322,540c-.2,23.7-2,47.7-6.5,71l-3.5,11c.6-14.9,3.4-29.7,5-44.5,1.1-10.6.5-25.2,3-35.1s-1-2.9,2-2.4Z"/>
  <path class="st2" d="M313,558c-.5,3.7-.5,7.8-1,11.5s-.7,3.2-2,1.5c-.2-3.5.3-7.1,1-10.5s-1.1-3,2-2.5Z"/>
  <path class="st1" d="M546,145l-12-5c3.4,3.8,6,7.6,5,13l-15-2c-1.6,1.5,4.7,5.1,5.7,5.8,4.5,3,10.1,5.6,15.3,7.2.3,1.6-1.3,1-2.4.9-9-.9-25.7-5.6-34.6-8.4s-18.3-6.7-18.9-7.6c-3.7-5.9,11.5-.4,13.9-2.4,0-3.9-12.1-6.8-14-10.5l41,11c-1.6-2.2-5-3.8-7.3-5.2s-12.2-5.3-12.7-5.8-.4-2.1.5-2c4.2.2,9.3,3.7,13.5,2.5-7.1-6.4-16.1-10.2-25-13.5,0-1.9,4.3-1,5.4-.9,13,1.7,29.4,10.1,39.1,18.9s2.9,2,2.5,4Z"/>
  <path class="st4" d="M581,175c1.4,0,5.8-.9,6,1-2.3,0-6.1,1.8-8,2s-2.7,0-4,0l-2-1c-25.3-.3-71.3-3.9-94-14.5-1.5-.7-2.5.2-2-2.5,14.6,4.1,29.6,7.7,44.6,9.9s40.5,4.8,59.4,5.1Z"/>
  <path class="st1" d="M600.6,140.4c2,1.9,3.3,6.2,6.3,6.7.2,1.9-1.9.7-2.7.2-8-4.7-15.4-10.8-23.2-15.8l-8.1-7.4,27.6,16.4Z"/>
  <path class="st4" d="M559,126c-.9.8-3.2-.9-4.1-1.4-9.1-4.8-19.1-12.9-27.9-18.6,10.5,2.4,21.3,10.1,29.7,16.8s3.5,2.1,2.3,3.2Z"/>
  <path class="st1" d="M572,122c1.1,1.1-.9,3.1-2,2s.9-3.1,2-2Z"/>
  <path class="st0" d="M494,157c.7.3-.6,1.7-2,1s.6-1.7,2-1Z"/>
  <path class="st1" d="M560,74c-.2-2,2-1,3,.5l-3-.5Z"/>
  <path class="st0" d="M575,178c-1.8,0-1.9-1-2-1l2,1Z"/>
  <path class="st1" d="M568.5,121c.6.3.6.7,0,1v-1Z"/>
  <path class="st1" d="M590.5,104c.6.3.6.7,0,1v-1Z"/>
  <path class="st5" d="M384,685c-.1.1-.7,0-1,0,.3-1.5.5-4.3,2-4,.2.3-.9,3.8-1,4Z"/>
  <path class="st5" d="M382.5,686c.6.3.6.7,0,1v-1Z"/>
  <path class="st1" d="M710,560c-7.3-8.4-9.3-20.7-16-29.5-11.6-15.4-19.7-43.2-21-63s-.5-8.1,2-5.5,5.3,22.9,6.5,27c1.8,6.3,4,12.7,6.1,18.9s1.4,5.9,2.5,4.5c-9.5-38.8-16.1-78.4-17-118.5,1.5,0,1.7,3.5,1.9,4.6,1.7,11.5,2.6,23.1,4.4,34.6,6.8,43.1,16.9,85.5,30.7,126.8ZM691,516c.7-1.4-.6-2.7-1-2-.7,1.4.6,2.7,1,2Z"/>
  <path class="st1" d="M660,427c1.6,8,2.7,16.1,4.5,24,2.2,9.8,7.5,24.7,8.3,33.8s-.4,4.6-.8,7.2l-4.7-8.7c-3.5-15.4-8.1-34-9.2-49.8s-.5-9.5,2-6.5Z"/>
  <path class="st0" d="M678,518h-1c-.5-4.2,1.5-4.2,1,0Z"/>
  <path class="st5" d="M714.5,602c.6.3.6.7,0,1v-1Z"/>
  <path class="st5" d="M637,412l7.3,46.2c7.5,38.8,20.3,76.4,35.2,112.8-15.8-19.6-27.3-44.5-34.2-68.8s-7.8-59.8-8.3-90.2Z"/>
  <path class="st1" d="M592,204c-.5,2.4,3.1,3.2,4.6,3.9,3.7,1.5,7.7,2.5,11.4,4.1-.1,3.9-.6,2.3-3,5l8,4c-3.1-.1-6.3.3-9.4,0s-8-3.9-9.6-.4,7.4,3.1,8.3,4.7l2.7,2.8c-11.1,0-24.2-5.2-32-13,2.8-.4,16.1,6,17,5s-.5-3.5,2-3.5c-17.8-10.9-1.5-4.3,7-2.5-1.4-4.6-9.5-5.1-9-10,.6,0,1.3,0,2,0Z"/>
  <path class="st5" d="M588.5,166c.6.3.6.7,0,1v-1Z"/>
  <path class="st1" d="M616,271c5.7-2,14-2.7,20.2-5.3s8.3-5.6,12.8-7.7c2.5,2.6-15,11.8-16,13.5l4,.5c-3.2,6-12.5,6.4-16.9,9.6s-.9,1.4-1.1,1.4c-.6,0-1.4-.1-2,0-1-5.2,6.8-2,6-8-.3-.3-6.5,1.7-7,2l-2-1c.5-.7.5-3.1,1-4s.9-1,1-1Z"/>
  <path class="st4" d="M639,258c-6.6,3.6-15.7,7.4-23,9-10.8,2.4-27.9,3.2-38.3-1.2s-4.1-1.3-3.7-3.8c21.7,7.9,39.6,2.4,60.3-4.2s3.6-1.8,4.7.2Z"/>
  <path class="st1" d="M603,248c-4.3-.5-18.2-2.7-21.3-4.9s-2.5-5.1-1.2-5.1c8.3,5.4,18.2,7,28,8s4-1.2,3.5,2c-2.9,0-6.2.3-9,0Z"/>
  <path class="st5" d="M616,277c.5-.3,6.7-2.2,7-2,.8,6-7,2.8-6,8-6.9,1.5-13.7,4-21,3,.3-1.8,2.1-1.7,3.4-2.1,8.6-2.9,9-2.5,16.6-6.9Z"/>
  <path class="st5" d="M615,272c-.5.9-.5,3.3-1,4-2.6,3.5-18.3,2.4-15-1l16-3Z"/>
  <path class="st1" d="M347,179c-6.7,3.8-14.5,11.1-20.5,16-1.4-.7,0-2.6.4-3.6,2.9-5.5,17.7-17.7,23.8-19.3s2.1,1.5,2.3,3.8c-.8.3-5,2.4-6,3Z"/>
  <path class="st4" d="M378,134c-5,1-10,2.2-15,3,1.5-2.2,5.6-4.1,8-5,5.2-1.8,19.4-4.4,24.4-2.9,8.1,2.5-9.6,2.8-10.7,3-2.5.3-4.7,1.5-6.6,1.9Z"/>
  <path class="st5" d="M604.5,119c.6.3.6.7,0,1v-1Z"/>
  <path class="st1" d="M648.5,155c.6.3.6.7,0,1v-1Z"/>
  <path class="st5" d="M668,278v-4c-1.9.8-1.9,3.3-4.5,4s-2-.2-1.5-1.5c.8-2.1,3.6-5,4.8-8.2s1.9-7.5,2.7-11.3c5.3,6,4.3,15.7-1.5,21Z"/>
  <path class="st5" d="M334.5,152c.6.3.6.7,0,1v-1Z"/>
  <path class="st1" d="M405,87c-1.6,3.2-5.7,4.3-9,5-.8-1.9,3.3-3.8,4.3-4.2,1.6-.6,3-1.1,4.7-.8Z"/>
  <path class="st1" d="M394.5,92c.6.3.6.7,0,1v-1Z"/>
  <path class="st0" d="M659,222c-.3.7-1.7-.6-1-2s1.7.6,1,2Z"/>
  <path class="st2" d="M757.9,747.1c2,1.3,8.9,37.8,13.1,40.4s14-2.5,14.8-5.2-.3-5.1.3-6.2,11.8-4.3,13.4-2.2,2.5,9.3,2.1,10c-1.5,2.5-37.8,15.7-39.6,14.6l-15-46.2c-.9-3.9,8.6-6.6,10.8-5.2Z"/>
  <path class="st3" d="M495,311c3,.4,6,1,9,1,4.7,21.5-25.5,26.4-28,6,.8.2,2.7-.2,3,0s0,2.2,1.6,2.9,3.5-.2,4.4.1c3.7,1.4,4.4,5.3,9.5,1s1.7-5.4.5-9,.1-1.4,0-2Z"/>
  <path class="st2" d="M495,311c.1.6-.2,1.5,0,2-2.4,0-4.9-.3-7.3.2s-2.3,1.7-2.7,1.8c-2,.6-6.6-.6-6,3-.3-.2-2.2.2-3,0-.1-1.1-.2-5.5.1-5.9.9-1.1,14.1-2.3,16.5-2.1s2.2,1,2.4,1Z"/>
  <path class="st1" d="M506,326c-.5-.4,3.2-10.4,1-13,.3-.3,7.2,2,8,2.5,1.7,1.1.5,1.1,0,2-.9,1.7-7,10.2-9,8.5Z"/>
  <path class="st0" d="M499,300c4.7.3,8.4,1.6,13,2-2.4,3.7-8.7,1-13,1v-3Z"/>
  <path class="st1" d="M506,327c.7.3-.6,1.7-2,1s.6-1.7,2-1Z"/>
  <path class="st1" d="M443,462c-.4,5.3-6.4,3.9-10,4,.5-4.8,6.6-4.1,10-4Z"/>
  <path class="st5" d="M610.8,359.8c-2.9,1.7-3.2-.4-2.4-2.8,1.4-4.1,7.9-8.6,8.4-11.7s-3.1-9.6-2.9-13.8,3.6-11.4,4-11.9c.8-1.2,7-.8,8.4-.4,8.7,2.5,8.9,24.3,1.6,30.2s-7.8,1.9-11.3,3.7-5.3,6.3-5.8,6.6Z"/>
  <path class="st4" d="M419,412c-4-3.9,13.7-9.1,15-3.5s-6.6,1.2-8.5,1.4-5.6,3-6.5,2.1Z"/>
  <path class="st1" d="M441,452l-15.6,5c-2.5.2-5.6-.7-7.4-2.5,7.8-.2,15.2-3.1,23-2.5Z"/>
  <path class="st5" d="M691,516c-.3.7-1.7-.6-1-2s1.7.6,1,2Z"/>
  <path class="st4" d="M495,313c1.2,3.6,4.5,4.8-.5,9s-5.8.4-9.5-1v-6c.3,0,1.2-1.5,2.7-1.8,2.4-.5,4.9-.1,7.3-.2Z"/>
  <path class="st1" d="M485,315v6c-.8-.3-2.9.4-4.4-.1s-1.5-2.7-1.6-2.9c-.6-3.6,4-2.4,6-3Z"/>
</svg>