<?xml version="1.0" encoding="UTF-8"?>
<svg id="Red_Icons" data-name="Red Icons" xmlns="http://www.w3.org/2000/svg" viewBox="0 0 97.2 97.2">
  <defs>
    <style>
      .cls-1 {
        fill: none;
        stroke: #be1e2d;
        stroke-linecap: round;
        stroke-linejoin: round;
        stroke-width: 3px;
      }

      .cls-2 {
        fill: #be1e2d;
        stroke-width: 0px;
      }
    </style>
  </defs>
  <g>
    <ellipse class="cls-2" cx="68.98" cy="57.09" rx="1.12" ry="1.84"/>
    <path class="cls-1" d="m51.21,48.35c-3.6-3.01-8.65-4.89-14.25-4.89-10.91,0-19.76,7.12-19.76,15.9,0,0-.3,12.72,15.9,10.75,16.2-1.97,31.49.3,35.12,5.6"/>
    <path class="cls-1" d="m52.18,49.23c-5.87-6.29.05-15.64,8.24-14.25,9.92,1.68,9.08,14.67,9.08,14.67.42.14,10.9,11.32,12.16,13.41s-1.12,4.75-5.31,4.61-12.02-.56-14.67-2.52"/>
  </g>
  <path class="cls-2" d="m21.55,33.27c.1-1.59.27-3.29.5-5.11s.51-3.58.83-5.31l-2.32-.31c.31-.41.65-.84,1.02-1.29.37-.45.72-.87,1.05-1.26.33-.39.72-.83,1.17-1.32.44.02.87.06,1.29.13.36.07.74.18,1.13.31s.72.32,1.02.57c-.61,1.18-1.12,2.38-1.51,3.59-.39,1.21-.71,2.42-.96,3.64-.25,1.22-.45,2.44-.6,3.67-.15,1.23-.29,2.46-.43,3.69-.38-.07-.71-.17-.98-.29-.28-.12-.5-.23-.68-.35-.22-.13-.39-.25-.52-.37Z"/>
</svg>