<?xml version="1.0" encoding="UTF-8"?>
<svg id="Red_Icons" xmlns="http://www.w3.org/2000/svg" version="1.1" viewBox="0 0 97.2 97.2">
  <!-- Generator: Adobe Illustrator 29.8.2, SVG Export Plug-In . SVG Version: 2.1.1 Build 3)  -->
  <defs>
    <style>
      .st0 {
        stroke-width: 3px;
      }

      .st0, .st1 {
        fill: none;
        stroke: #be1e2d;
        stroke-linecap: round;
        stroke-linejoin: round;
      }

      .st1 {
        stroke-width: 2px;
      }
    </style>
  </defs>
  <g>
    <path class="st0" d="M56.1,51.5s-.7,4.5-.7,7.8,3,8.7,3.7,13.3,1,6.8,1,6.8c0,0,7.3.8,7.3-.8s-2-1.2-2.3-2-.3-12.7.5-15,7-12.5,7-12.5c0,0,3-5.2,4-9.5s1.3-10.2,1.3-10.2c0,0,2-2.5,2.7-3.8s-.8-3.5-.8-3.5c0,0-.3.3.3-1.2s-1.3-3.7-1.8-3.2-4.2,2.8-4.2,2.8c0,0-2,1.2-3.7,1.2s-4.8,3.8-4.8,3.8c0,0-7,2.2-6.3,4.3.2.8,3.7,1.7,3.7,1.7-.5,1.5-4.7,5.2-4.7,5.2,0,0-8.2,1.3-17.7,2.3s-13.7,4.8-13.7,4.8c0,0-1.8,2.9-2.8,4.5-1.8,2.8-4.8,6.5-5.5,12.5-.6,4.5.7,10.2.7,10.2,0,0,2.2-1.2,3.3-3.5s3.2-9.3,3.2-9.3"/>
    <path class="st0" d="M26.6,49.2s-2.2,7.2,0,11.2,3,7.2,1.8,9.3-1.2,5.4-.5,9.2c.2.8,6.5.8,6.5.8,0,0,1.2-1-.5-3.8-1.5-2.6-.3-8,1.3-9.8,3.1-3.4,6-8.3,4.8-12.7s-3.7-5.7-3.7-5.7"/>
    <path class="st0" d="M41.1,56.8c.2.5,8.2,5,14,4"/>
    <path class="st0" d="M44.8,60.2s-2.8,4.3-5,6.8-3.3,4-2.3,5.7,3.3,3.3,3,6.3h-5.5"/>
    <path class="st1" d="M70.2,28.2s1.5.3,2-1.7"/>
    <path class="st1" d="M63.6,43.2s1.3,3,3,3.8l1.8-2.3s3.8,1.2,5.3.3"/>
    <path class="st1" d="M61.6,50.5s1.8,4.5,2.3,5.2c.5.7,5.8-3,5.8-3"/>
  </g>
  <path class="st0" d="M42.5,31.4c.1.1.2.2.2.3s0,0-.3,0h-12.7c-.4,0-.8,0-1.1.2l-.4-.6c.5,0,.9,0,1.2,0h11.3l.7-1,1.1,1ZM42,20.7c.1.1.2.2.2.2s0,0-.2,0h-10.8c-.4,0-.8,0-1.1.2l-.4-.6c.5,0,.9,0,1.2,0h9.5l.7-.9,1,1ZM40.4,25.6c.1.1.2.2.2.3s0,.1-.3.1h-8.3c-.4,0-.8,0-1.1.2l-.4-.6c.5,0,.9,0,1.2,0h7l.7-.9,1,.9Z"/>
</svg>