<?xml version="1.0" encoding="UTF-8"?>
<svg id="Red_Icons" xmlns="http://www.w3.org/2000/svg" version="1.1" viewBox="0 0 97.2 97.2">
  <!-- Generator: Adobe Illustrator 29.8.2, SVG Export Plug-In . SVG Version: 2.1.1 Build 3)  -->
  <defs>
    <style>
      .st0 {
        stroke-width: 3px;
      }

      .st0, .st1 {
        fill: none;
        stroke: #be1e2d;
        stroke-linecap: round;
        stroke-linejoin: round;
      }

      .st2 {
        isolation: isolate;
      }

      .st3 {
        fill: #be1e2d;
      }
    </style>
  </defs>
  <g>
    <path class="st0" d="M63.4,24.9s3.8-1,7.3,3.8c3.5,4.7,6.4,4.1,8.1,5.7,1.7,1.5-.9,6.5-3.8,6.9l-8.7,1.1s-1.1,8.9-3.6,12.9-3.5,10.9-3.2,13.3.5,8.5-1.5,9.8c-2.7,1.8-4.9.5-5.2-3.9-.2-2.9-1-7.5-1.1-10.7s-1.7-4.8-1.7-4.8c0,0-8.2,1.4-11.1,0s-4.5-1.7-4.5-1.7c0,0,0,5.4-2.4,7.7-2.4,2.3-8.3,6-8.1,12.2,0,2.4-.4,4.7-2.4,4.5s-5.3-.9-4.4-7.4,5.6-14.9,4.6-18.7,1-10.4,8.3-12.3,15.5,1.2,21.3-.8c2.3-.8,4-17.4,11.9-17.6h.2Z"/>
    <path class="st0" d="M63.1,25.6c0,.5.6,7.7-1.2,9.7s-5.1,2.1-6-2.2"/>
    <path class="st0" d="M23.5,46.8s-4.7-1.2-5-6.6,9.2-8.2,9.2-8.2"/>
    <path class="st0" d="M64.3,51.6s4.8,4.9,4.9,8.3c0,3.3-1,6.8-1.6,8.5s-4.8,1.5-4-4.3c.7-5.3-2.5-5.2-2.5-5.2"/>
    <path class="st0" d="M38.7,59.9s0,4.8-2.6,7.3-6.6,5.9-6.8,8.9-2.1,6.4-5.1,4.6"/>
    <ellipse class="st3" cx="67.5" cy="32.6" rx=".9" ry="1.5" transform="translate(-3.4 8.3) rotate(-6.9)"/>
  </g>
  <g class="st2">
    <g class="st2">
      <path class="st3" d="M50.4,16.3l-.7.4v12.3c0,1.4,0,2.4,0,3.1,0,.7,0,1.1,0,1.1,0,.2-.2.4-.5.5-.3.1-.5.2-.6.2s-.1-.1-.1-.3v-2.6h-14.1v2.2c0,.2-.2.4-.5.6-.3.2-.5.2-.6.2s-.1,0-.1-.2,0-.5,0-1.3c0-.7,0-1.7,0-3v-12.1c0-.9,0-1.9,0-2.9l1.4,1.2h13.3l.8-1,1.5,1.1c.1,0,.2.2.2.2s0,.1-.2.2ZM48.7,30.5v-14.2h-4.5v8.6c0,.4,0,.6.3.7.2.1.5.2.9.2.8,0,1.5-.2,2.1-.5.5.4.8.7.8.8s-.3.2-.8.4c-.6.1-1.1.2-1.5.2s-.9,0-1.4-.1c-.5,0-.8-.2-1-.4-.2-.2-.3-.6-.3-1.3v-8.7h-3.3c0,4.2-.4,7.1-1.2,8.6s-2,2.7-3.7,3.7l-.2-.2c1.5-1.1,2.5-2.5,3.1-4.1.6-1.6.9-4.2.9-7.9h-4.3v14.2h14.1Z"/>
    </g>
    <g class="st2">
      <path class="st1" d="M50.4,16.3l-.7.4v12.3c0,1.4,0,2.4,0,3.1,0,.7,0,1.1,0,1.1,0,.2-.2.4-.5.5-.3.1-.5.2-.6.2s-.1-.1-.1-.3v-2.6h-14.1v2.2c0,.2-.2.4-.5.6-.3.2-.5.2-.6.2s-.1,0-.1-.2,0-.5,0-1.3c0-.7,0-1.7,0-3v-12.1c0-.9,0-1.9,0-2.9l1.4,1.2h13.3l.8-1,1.5,1.1c.1,0,.2.2.2.2s0,.1-.2.2ZM48.7,30.5v-14.2h-4.5v8.6c0,.4,0,.6.3.7.2.1.5.2.9.2.8,0,1.5-.2,2.1-.5.5.4.8.7.8.8s-.3.2-.8.4c-.6.1-1.1.2-1.5.2s-.9,0-1.4-.1c-.5,0-.8-.2-1-.4-.2-.2-.3-.6-.3-1.3v-8.7h-3.3c0,4.2-.4,7.1-1.2,8.6s-2,2.7-3.7,3.7l-.2-.2c1.5-1.1,2.5-2.5,3.1-4.1.6-1.6.9-4.2.9-7.9h-4.3v14.2h14.1Z"/>
    </g>
  </g>
  <path class="st3" d="M76.9,34.2s-1.9,1.2-2.2,1.9c-.8,1.9,3.2,1.6,3.2,1.6,0,0,1.2-2.6-1-3.5Z"/>
</svg>