<?xml version="1.0" encoding="UTF-8"?>
<svg id="Red_Icons" xmlns="http://www.w3.org/2000/svg" version="1.1" viewBox="0 0 97.2 97.2">
  <!-- Generator: Adobe Illustrator 29.8.2, SVG Export Plug-In . SVG Version: 2.1.1 Build 3)  -->
  <defs>
    <style>
      .st0, .st1, .st2, .st3 {
        fill: none;
        stroke: #be1e2d;
        stroke-linecap: round;
        stroke-linejoin: round;
      }

      .st0, .st2 {
        stroke-width: 3px;
      }

      .st1 {
        stroke-width: 2.2px;
      }

      .st4 {
        fill: #be1e2d;
      }

      .st2 {
        font-family: STSong, STSong;
        font-size: 16px;
      }

      .st3 {
        stroke-width: 1.6px;
      }
    </style>
  </defs>
  <g>
    <path class="st0" d="M62.5,42.5c-3.8-.6-6.5-2.9-6.5-2.9-1-.2-6.7-6.7-6.7-6.7l-1.5-.2c0-3.1,4.8-7.1,4.8-7.1-1.7-3.7-1-9.6-1-9.6,1.5,1,5,4.4,5,4.4,1.7-.2,10-.2,11.8,0,0,0,3.5-3.5,5-4.4,0,0,.8,6-1,9.6,0,0,4.8,4,4.8,7.1l-1.5.2s-5.8,6.5-6.7,6.7c0,0-2.7,2.3-6.5,2.9h.2,0Z"/>
    <ellipse class="st4" cx="66.6" cy="29.5" rx=".9" ry="1.5"/>
    <ellipse class="st4" cx="58.3" cy="29.5" rx=".9" ry="1.5"/>
    <path class="st4" d="M60.2,34.5c0,.6.8,1.8,1.9,1.8s1.9-1.2,1.9-1.8-.8-1.1-1.9-1.1-1.9.5-1.9,1.1Z"/>
    <path class="st1" d="M64.7,21.1s1,0,1.9,2.6"/>
    <path class="st1" d="M59.3,21.1s-1,0-1.9,2.6"/>
    <path class="st1" d="M69.3,27.2s4.4,2.3,4,7.5"/>
    <path class="st1" d="M68.4,33.6s1.9,2,.7,5.5"/>
    <path class="st1" d="M54.9,27.2s-4.5,2.3-4,7.5"/>
    <path class="st1" d="M56.3,33.6s-1.9,2-.7,5.5"/>
    <path class="st0" d="M69.5,39.7c0,.5,1,11.5-1.3,18-2.2,6.4-3.2,14.3-2.3,15.2s3.6,2.9,2.9,5.5c-.6,2.3-5.7,1.8-7.9.6"/>
    <path class="st0" d="M59.3,56.8s-.6,11.6-.2,14.9,2.7,6.4.5,8.8-6.3.5-7.1-2.1c-.8-2.6-1.9-15.5-2.8-19-.8-3.1-4.1-6.5-4.1-6.5"/>
    <path class="st3" d="M65.9,53.2c-.2.5.6,5.1-6.5,7.3"/>
    <path class="st0" d="M49.9,34.2s-6.4,8.7-10.3,13.2c-3.8,4.5-7.7,12.8-7.7,21.7s1.4,9.9,3.5,11.4,10.4,1.7,12.4,1.4c4.3-.7,3.9-6.8-1-7.3-5.3-.6-8-1.1-8-1.1"/>
    <path class="st0" d="M39.3,58.1s12.4,2.4,7.5,15.2"/>
    <path class="st0" d="M32.8,77.8s-7.7-7.1-9-16.7c-1.3-9.6,11.5-17.6,14-19.7,3.7-3.2,2.9-7.7.2-6.6"/>
    <path class="st1" d="M69.7,43.4s-2.4,4.8-9,5.3"/>
    <path class="st1" d="M47,39s1.8,5.6,7.1,8.2"/>
    <path class="st1" d="M38.4,49.3s1.4,3.8,4.5,6.3"/>
    <path class="st3" d="M47.5,67.4s-3.7-2.2-6.9,1.6"/>
    <path class="st1" d="M32.6,66.5s1.1,2.7,3.4,3.1"/>
    <path class="st3" d="M57.8,65.7s-1.6,2.1-4.3,2.1"/>
    <path class="st3" d="M67.2,60s-1.4,3-4.8,3.2"/>
  </g>
  <text class="st2" transform="translate(24.9 27.4)"><tspan x="0" y="0">六</tspan></text>
</svg>