<?xml version="1.0" encoding="UTF-8"?>
<svg id="Red_Icons" xmlns="http://www.w3.org/2000/svg" version="1.1" viewBox="0 0 97.2 97.2">
  <!-- Generator: Adobe Illustrator 29.8.2, SVG Export Plug-In . SVG Version: 2.1.1 Build 3)  -->
  <defs>
    <style>
      .st0 {
        fill: none;
        stroke: #be1e2d;
        stroke-linecap: round;
        stroke-linejoin: round;
        stroke-width: 3px;
      }

      .st1 {
        fill: #be1e2d;
      }
    </style>
  </defs>
  <g>
    <path class="st0" d="M57.7,46c-2.9-.4-5-2.2-5-2.2-.7-.2-5.2-5.2-5.2-5.2l2.5-5.6c-1.3-2.8-.7-7.4-.7-7.4,1.2.7,3.8,3.4,3.8,3.4,1.3-.1,7.7-.1,9,0,0,0,2.7-2.6,3.8-3.4,0,0,.6,4.6-.7,7.3l2.5,5.6s-4.4,5-5.2,5.2c0,0-2.1,1.8-5,2.2h.2Z"/>
    <ellipse class="st1" cx="60.9" cy="36.1" rx=".7" ry="1.1"/>
    <ellipse class="st1" cx="54.6" cy="36.1" rx=".7" ry="1.1"/>
    <path class="st1" d="M56,39.9c0,.5.6,1.4,1.4,1.4s1.4-.9,1.4-1.4-.6-.8-1.4-.8-1.4.4-1.4.8Z"/>
    <path class="st0" d="M64,53c0,3,0,7.3-1.1,10.3-1.7,4.9-.6,10.7.3,11.2,2.8,1.5,3.2,2.2,3.2,4s-5.8,2-8.5.5"/>
    <path class="st0" d="M55.3,62.7s1.2,6.6,1.6,9.2c.4,2.6,1.5,7.5-.2,9.3-1.7,1.8-6,0-6.6-2-.6-2-.5-12-1.6-14.5-1.8-4.2-3.2-4.8-3.2-4.8"/>
    <path class="st0" d="M46.8,48.3c-1.7,2.2-4,5.2-5.7,7.2-2.9,3.4-7.5,10-7.5,16.7s1.7,6.9,3.3,8,10,1.6,11.5,1.3c2-.4,1.9-4.9-1.8-5.4-4-.5-6.1-.9-6.1-.9"/>
    <path class="st0" d="M40.8,63.7s9.4,1.8,5.8,11.6"/>
    <path class="st0" d="M33.4,76.9s-5.5,0-6.5-7.4,5.7-13.9,7.6-15.5"/>
    <path class="st0" d="M76.6,36.3c-1.1-1.9-3-3.9-1.4-5.8,1.6-1.9-1.6-8-4.2-7.7s-2.9-3.4-5.5-5c-3-1.9-6.1-2.3-7.6-2.4h0s-.2,0-.5,0-.5,0-.5,0h0c-1.5,0-4.5.4-7.6,2.4-2.6,1.6-2.8,5.4-5.5,5s-5.8,5.8-4.2,7.7c1.6,1.9-.3,3.9-1.4,5.8s-.8,6.1,2.5,7.6c3.3,1.4,6.6,3.3,7.7,5.8,1.1,2.5,5.2,5.2,8.8,5.7h.3c3.6-.5,7.7-3.2,8.8-5.7,1.1-2.5,4.4-4.4,7.7-5.8,3.3-1.4,3.6-5.7,2.5-7.6h0Z"/>
    <path class="st0" d="M34.3,53.7s-3.1-1.8-.1-4.3c1.1-.9,4.4-1.4,4.4-1.4,0,0,.2,8.1-4.3,5.8Z"/>
  </g>
  <path class="st0" d="M32.5,26.2c.1,0,.2.1.2.2s0,0-.3.1l-7.5,1.6v6.2c0,.3.1.5.4.6s.9.1,2,.1,1.8,0,2.3,0,.7,0,.8-.1c.1,0,.2-.2.3-.4,0-.2.2-.5.2-.9s.1-1,.2-1.9h.2c0,1,0,1.6,0,1.9s.2.5.4.6c.1,0,.2.1.2.2s0,.2-.2.4c-.1.2-.3.4-.5.5s-.5.2-.8.2c-.3,0-.8,0-1.4,0-.6,0-1.2,0-1.9,0s-1.2,0-1.7,0-.9-.1-1.1-.4c-.2-.2-.3-.5-.3-.9v-6.1l-4.6,1c-.4,0-.7.2-.9.3l-.7-.4c.5,0,1-.2,1.3-.3l4.9-1v-4.3c0-.7,0-1.2,0-1.7l1.3.6c.1,0,.2.1.2.2s0,.1-.1.2l-.5.4v4.5l5.7-1.2.5-1.1,1.3.8Z"/>
</svg>