<?xml version="1.0" encoding="UTF-8"?>
<svg id="Red_Icons" xmlns="http://www.w3.org/2000/svg" version="1.1" viewBox="0 0 97.2 97.2">
  <!-- Generator: Adobe Illustrator 29.8.2, SVG Export Plug-In . SVG Version: 2.1.1 Build 3)  -->
  <defs>
    <style>
      .st0 {
        fill: none;
        stroke: #be1e2d;
        stroke-linecap: round;
        stroke-linejoin: round;
        stroke-width: 3px;
      }

      .st1 {
        fill: #be1e2d;
      }
    </style>
  </defs>
  <g>
    <path class="st0" d="M60.6,46.5c-4.2,3.8-12.2.2-13.4-7.6s1.1-15,6.3-16.9c7.2-2.6,9.2,3.5,9.2,3.5.4-.2,6.3-1.3,9.2,1.8.4.4,5,4.2,4.1,14.7-.8,9.4,4.9,10.5,4.9,10.5,0,0,2.4,1.6,0,3.6s-11.1-.2-12.3-6.3"/>
    <path class="st0" d="M47,38.9s-18.9-1.6-22.7,10.7.5,27.3,2.2,29.3c1.6,2,10.7,1.2,11.6.5.5-.4,1.4-5,1.9-8.6.4-2.4,2.4-4.1,4.8-4.1h5.8c1.2,0,2.3.8,2.6,2.1.8,3.4,2.3,10.2,3.6,11,1.2.8,6.6,1.1,9.6.5.9-.2,1.6-.9,1.8-1.8.6-3.1,2.1-12,1.6-25.3"/>
    <path class="st0" d="M26.2,45.8s-7.4.4-7.8,11.6"/>
    <ellipse class="st1" cx="67.6" cy="35.5" rx="1.2" ry="1.9"/>
  </g>
  <path class="st0" d="M30.1,23.3l-.5.3c-.6,2.8-1.2,5.1-2,6.7s-1.9,3.1-3.3,4.5l-.2-.2c1.4-1.5,2.5-3.2,3.2-5,.7-1.8,1.3-4.2,1.6-7.2l1.2.7c0,0,0,0,0,.1s0,0,0,.1ZM39.3,33.6v.2c-.3,0-.5,0-.7,0-.5,0-.9,0-1.2.3,0,0,0,0-.1,0,0,0-.4-.3-.9-.8-.5-.5-1-1.3-1.6-2.2-.6-.9-1.1-2.1-1.6-3.6-.5-1.5-.8-3-.8-4.6,0-.8-.1-1.6-.2-2.2l1.2.7c0,0,.1.1.1.1s0,0-.1.1l-.5.3c0,2.5.6,4.8,1.8,7.1,1.2,2.3,2.7,3.8,4.7,4.4Z"/>
</svg>