<svg xmlns="http://www.w3.org/2000/svg" viewBox="0 0 400 844" width="400" height="844">
  <!-- Background -->
  <defs>
    <linearGradient id="bgGradient" x1="0%" y1="0%" x2="100%" y2="100%">
      <stop offset="0%" style="stop-color:#2563eb;stop-opacity:1" />
      <stop offset="50%" style="stop-color:#1e40af;stop-opacity:1" />
      <stop offset="100%" style="stop-color:#1d4ed8;stop-opacity:1" />
    </linearGradient>
  </defs>

  <!-- Background -->
  <rect width="400" height="844" fill="#1e40af"/>
  
  <!-- Center Glow -->
  <ellipse cx="200" cy="422" rx="150" ry="150" fill="rgba(255,255,255,0.05)"/>

  <!-- Game Header -->
  <g transform="translate(20, 20)">
    <!-- Panel background -->
    <rect x="0" y="0" width="360" height="90" rx="16" fill="#0D1B2A" stroke="#2A9D8F" stroke-width="2" />
    
    <!-- Button placeholders -->
    <g transform="translate(90, 15)">
      <!-- Prev button -->
      <rect x="0" y="0" width="65" height="35" rx="8" fill="#2A9D8F" />
      <!-- Arrow pointing left -->
      <line x1="24" y1="17.5" x2="41" y2="17.5" stroke="white" stroke-width="3" stroke-linecap="round" />
      <!-- Arrowhead -->
      <path d="M 24 17.5 L 30 11.5 M 24 17.5 L 30 23.5" stroke="white" stroke-width="3" stroke-linecap="round" />
      
      <!-- Reset button -->
      <rect x="74" y="0" width="65" height="35" rx="8" fill="#2A9D8F" />
      <!-- Reset icon -->
      <g transform="translate(107, 17.5)">
        <g transform="rotate(-135) scale(1.6)">
          <path d="M 0 -5 A 5 5 0 1 1 -5 0" 
                stroke="white" stroke-width="2" fill="none" stroke-linecap="round" />
          <g transform="translate(-5, 0) rotate(245)">
            <path d="M 0 0 L -2 -3 M 0 0 L -2 3" 
                  stroke="white" stroke-width="2" fill="none" stroke-linecap="round" />
          </g>
        </g>
      </g>
      
      <!-- Next button -->
      <rect x="148" y="0" width="65" height="35" rx="8" fill="#2A9D8F" />
      <!-- Arrow pointing right -->
      <line x1="172" y1="17.5" x2="189" y2="17.5" stroke="white" stroke-width="3" stroke-linecap="round" />
      <!-- Arrowhead -->
      <path d="M 189 17.5 L 183 11.5 M 189 17.5 L 183 23.5" stroke="white" stroke-width="3" stroke-linecap="round" />
    </g>
    
    <!-- Info display -->
    <text x="180" y="75" text-anchor="middle" font-family="Arial, sans-serif" font-size="18" fill="#FFD93D" font-weight="bold">puzzle 15 | solved 3</text>
  </g>

  <!-- Swimming Sharks and Submarines ABOVE the board -->
  <g opacity="0.7">
    <!-- Baby Shark 1 (swimming left to right) -->
    <g>
      <animateTransform attributeName="transform" type="translate" 
                        values="-80,0; 480,0" dur="15s" repeatCount="indefinite"/>
      <ellipse cx="50" cy="180" rx="25" ry="13" fill="#7c8691" stroke="#4b5563" stroke-width="2"/>
      <polygon points="25,180 16,176 16,184" fill="#7c8691" stroke="#4b5563" stroke-width="2"/>
      <polygon points="50,167 56,160 62,167" fill="#7c8691" stroke="#4b5563" stroke-width="2"/>
      <ellipse cx="46" cy="180" rx="6" ry="3" fill="#7c8691" stroke="#4b5563" stroke-width="2"/>
      <circle cx="62" cy="177" r="5" fill="#ffffff"/>
      <circle cx="62" cy="177" r="3" fill="#000000"/>
      <circle cx="63" cy="175" r="1.5" fill="#ffffff"/>
      <ellipse cx="68" cy="182" rx="2" ry="1" fill="#4b5563"/>
    </g>
    
    <!-- Happy Shark 2 (swimming right to left - facing left) -->
    <g>
      <animateTransform attributeName="transform" type="translate" 
                        values="480,0; -80,0" dur="17s" repeatCount="indefinite" begin="-7s"/>
      <ellipse cx="55" cy="220" rx="30" ry="12" fill="#6b7280" stroke="#374151" stroke-width="2"/>
      <polygon points="75,220 84,216 84,224" fill="#6b7280" stroke="#374151" stroke-width="2"/>
      <polygon points="55,208 48,200 40,208" fill="#6b7280" stroke="#374151" stroke-width="2"/>
      <ellipse cx="60" cy="220" rx="8" ry="4" fill="#6b7280" stroke="#374151" stroke-width="2"/>
      <circle cx="42" cy="217" r="4" fill="#ffffff"/>
      <circle cx="42" cy="217" r="2" fill="#000000"/>
      <path d="M38 220 Q35 223 32 220" stroke="#374151" stroke-width="2" fill="none"/>
    </g>
    
    <!-- Baby Shark 3 (swimming left to right) -->
    <g>
      <animateTransform attributeName="transform" type="translate" 
                        values="-80,0; 480,0" dur="18s" repeatCount="indefinite" begin="-3s"/>
      <ellipse cx="50" cy="160" rx="25" ry="13" fill="#7c8691" stroke="#4b5563" stroke-width="2"/>
      <polygon points="25,160 16,156 16,164" fill="#7c8691" stroke="#4b5563" stroke-width="2"/>
      <polygon points="50,147 56,140 62,147" fill="#7c8691" stroke="#4b5563" stroke-width="2"/>
      <ellipse cx="46" cy="160" rx="6" ry="3" fill="#7c8691" stroke="#4b5563" stroke-width="2"/>
      <circle cx="62" cy="157" r="5" fill="#ffffff"/>
      <circle cx="62" cy="157" r="3" fill="#000000"/>
      <circle cx="63" cy="155" r="1.5" fill="#ffffff"/>
      <ellipse cx="68" cy="162" rx="2" ry="1" fill="#4b5563"/>
    </g>
    
    <!-- Yellow Submarine (swimming right to left - facing left) -->
    <g>
      <animateTransform attributeName="transform" type="translate" 
                        values="500,0; -100,0" dur="20s" repeatCount="indefinite" begin="-8s"/>
      <ellipse cx="50" cy="200" rx="40" ry="15" fill="#fbbf24" stroke="#f59e0b" stroke-width="2"/>
      <rect x="45" y="185" width="10" height="15" rx="5" fill="#fbbf24" stroke="#f59e0b" stroke-width="2"/>
      <rect x="49" y="180" width="2" height="8" fill="#6b7280"/>
      <ellipse cx="90" cy="200" rx="8" ry="4" fill="none" stroke="#f59e0b" stroke-width="2"/>
      <line x1="82" y1="200" x2="98" y2="200" stroke="#f59e0b" stroke-width="2"/>
      <line x1="90" y1="192" x2="90" y2="208" stroke="#f59e0b" stroke-width="2"/>
      <circle cx="30" cy="200" r="6" fill="#60a5fa" stroke="#1d4ed8" stroke-width="2"/>
      <circle cx="40" cy="200" r="4" fill="#60a5fa" stroke="#1d4ed8" stroke-width="2"/>
    </g>
    
    <!-- Mini Steampunk Submarine (swimming left to right) -->
    <g>
      <animateTransform attributeName="transform" type="translate" 
                        values="-70,0; 470,0" dur="16s" repeatCount="indefinite" begin="-4s"/>
      <ellipse cx="40" cy="240" rx="25" ry="10" fill="#ea580c" stroke="#c2410c" stroke-width="2"/>
      <rect x="37" y="225" width="6" height="10" rx="3" fill="#ea580c" stroke="#c2410c" stroke-width="2"/>
      <rect x="39" y="220" width="1.5" height="5" fill="#92400e"/>
      <ellipse cx="5" cy="240" rx="5" ry="3" fill="none" stroke="#c2410c" stroke-width="2"/>
      <line x1="0" y1="240" x2="10" y2="240" stroke="#c2410c" stroke-width="2"/>
      <line x1="5" y1="235" x2="5" y2="245" stroke="#c2410c" stroke-width="2"/>
      <circle cx="55" cy="240" r="4" fill="#fbbf24" stroke="#f59e0b" stroke-width="2"/>
      <circle cx="48" cy="240" r="2.5" fill="#fbbf24" stroke="#f59e0b" stroke-width="2"/>
      <rect x="32" y="248" width="16" height="2" rx="1" fill="#92400e"/>
      <circle cx="35" cy="252" r="1.5" fill="#92400e"/>
      <circle cx="45" cy="252" r="1.5" fill="#92400e"/>
    </g>
  </g>

  <!-- Swimming Creatures BELOW the board -->
  <g opacity="0.7">
    <!-- Happy Shark (swimming left to right) -->
    <g>
      <animateTransform attributeName="transform" type="translate" 
                        values="-80,0; 480,0" dur="15s" repeatCount="indefinite" begin="-5s"/>
      <ellipse cx="55" cy="680" rx="30" ry="12" fill="#6b7280" stroke="#374151" stroke-width="2"/>
      <polygon points="25,680 15,675 15,685" fill="#6b7280" stroke="#374151" stroke-width="2"/>
      <polygon points="55,668 62,660 70,668" fill="#6b7280" stroke="#374151" stroke-width="2"/>
      <ellipse cx="50" cy="680" rx="8" ry="4" fill="#6b7280" stroke="#374151" stroke-width="2"/>
      <circle cx="68" cy="677" r="4" fill="#ffffff"/>
      <circle cx="68" cy="677" r="2" fill="#000000"/>
      <path d="M72 680 Q75 683 78 680" stroke="#374151" stroke-width="2" fill="none"/>
    </g>
    
    <!-- Luxury Submarine (swimming right to left - facing left) -->
    <g>
      <animateTransform attributeName="transform" type="translate" 
                        values="520,0; -120,0" dur="28s" repeatCount="indefinite" begin="-10s"/>
      <ellipse cx="70" cy="730" rx="55" ry="18" fill="#1e293b" stroke="#0f172a" stroke-width="2"/>
      <ellipse cx="70" cy="730" rx="55" ry="18" fill="none" stroke="#fbbf24" stroke-width="1"/>
      <rect x="60" y="712" width="20" height="15" rx="8" fill="#1e293b" stroke="#fbbf24" stroke-width="2"/>
      <rect x="20" y="727" width="30" height="6" rx="3" fill="#92400e"/>
      <ellipse cx="45" cy="730" rx="12" ry="8" fill="#dbeafe" stroke="#0284c7" stroke-width="2"/>
      <rect x="27" y="725" width="8" height="10" rx="4" fill="#dbeafe" stroke="#0284c7" stroke-width="2"/>
      <g transform="translate(125, 730)">
        <circle cx="0" cy="0" r="7" fill="none" stroke="#fbbf24" stroke-width="2"/>
        <path d="M-5,-5 Q0,0 5,-5" stroke="#fbbf24" stroke-width="2" fill="none"/>
        <path d="M-5,5 Q0,0 5,5" stroke="#fbbf24" stroke-width="2" fill="none"/>
      </g>
    </g>
    
    <!-- Yellow Submarine (swimming left to right) -->
    <g>
      <animateTransform attributeName="transform" type="translate" 
                        values="-100,0; 500,0" dur="20s" repeatCount="indefinite" begin="-12s"/>
      <ellipse cx="50" cy="700" rx="40" ry="15" fill="#fbbf24" stroke="#f59e0b" stroke-width="2"/>
      <rect x="45" y="685" width="10" height="15" rx="5" fill="#fbbf24" stroke="#f59e0b" stroke-width="2"/>
      <rect x="49" y="680" width="2" height="8" fill="#6b7280"/>
      <ellipse cx="10" cy="700" rx="8" ry="4" fill="none" stroke="#f59e0b" stroke-width="2"/>
      <line x1="2" y1="700" x2="18" y2="700" stroke="#f59e0b" stroke-width="2"/>
      <line x1="10" y1="692" x2="10" y2="708" stroke="#f59e0b" stroke-width="2"/>
      <circle cx="70" cy="700" r="6" fill="#60a5fa" stroke="#1d4ed8" stroke-width="2"/>
      <circle cx="60" cy="700" r="4" fill="#60a5fa" stroke="#1d4ed8" stroke-width="2"/>
    </g>
    
    <!-- Baby Shark (swimming right to left - facing left) -->
    <g>
      <animateTransform attributeName="transform" type="translate" 
                        values="480,0; -80,0" dur="19s" repeatCount="indefinite" begin="-15s"/>
      <ellipse cx="50" cy="750" rx="25" ry="13" fill="#7c8691" stroke="#4b5563" stroke-width="2"/>
      <polygon points="75,750 84,746 84,754" fill="#7c8691" stroke="#4b5563" stroke-width="2"/>
      <polygon points="50,737 44,730 38,737" fill="#7c8691" stroke="#4b5563" stroke-width="2"/>
      <ellipse cx="54" cy="750" rx="6" ry="3" fill="#7c8691" stroke="#4b5563" stroke-width="2"/>
      <circle cx="38" cy="747" r="5" fill="#ffffff"/>
      <circle cx="38" cy="747" r="3" fill="#000000"/>
      <circle cx="37" cy="745" r="1.5" fill="#ffffff"/>
      <ellipse cx="32" cy="752" rx="2" ry="1" fill="#4b5563"/>
    </g>
    
    <!-- Majestic Orca (swimming left to right on bottom) -->
    <g>
      <animateTransform attributeName="transform" type="translate" 
                        values="-150,0; 750,0" dur="45s" repeatCount="indefinite" begin="-20s"/>
      <g transform="translate(0, 780) scale(1.9)">
        <!-- Dynamic curved body -->
        <path d="M -62 2 Q -40 -20 -10 -18 Q 20 -16 50 -12 Q 75 -5 85 2 Q 75 9 50 16 Q 20 20 -10 18 Q -40 22 -62 2" fill="#000000" stroke="#1a1a1a" stroke-width="1"/>
        <!-- Angled dorsal fin -->
        <path d="M -18 -18 Q -12 -35 -6 -18 Q -12 -14 -18 -18" fill="#000000" stroke="#1a1a1a" stroke-width="1"/>
        <!-- Reduced white belly -->
        <ellipse cx="8" cy="12" rx="32" ry="8" fill="#ffffff"/>
        <!-- Eye patch -->
        <ellipse cx="68" cy="-8" rx="8" ry="5" fill="#ffffff" transform="rotate(-5 68 -8)"/>
        <!-- Eye -->
        <circle cx="71" cy="-6" r="2.5" fill="#000000"/>
        <circle cx="71" cy="-6" r="1" fill="#ffffff"/>
        <!-- Small chin mark -->
        <ellipse cx="78" cy="10" rx="5" ry="3" fill="#ffffff"/>
        <!-- Curved tail -->
        <path d="M -62 2 Q -80 -10 -90 -4 Q -82 2 -80 8 Q -90 14 -80 8 Q -70 2 -62 2" fill="#000000" stroke="#1a1a1a" stroke-width="1"/>
      </g>
    </g>
  </g>

  <!-- School of Tiny Fish -->
  <g opacity="0.5">
    <g>
      <animateTransform attributeName="transform" type="translate" 
                        values="450,0; -100,0" dur="20s" repeatCount="indefinite" begin="-5s"/>
      <g transform="translate(0, 190)">
        <ellipse cx="0" cy="0" rx="3" ry="2" fill="#fbbf24"/>
        <polygon points="3,0 5,-1 5,1" fill="#fbbf24"/>
        <circle cx="-1" cy="0" r="0.5" fill="#000000"/>
      </g>
      <g transform="translate(8, 195)">
        <ellipse cx="0" cy="0" rx="3" ry="2" fill="#fbbf24"/>
        <polygon points="3,0 5,-1 5,1" fill="#fbbf24"/>
        <circle cx="-1" cy="0" r="0.5" fill="#000000"/>
      </g>
      <g transform="translate(16, 188)">
        <ellipse cx="0" cy="0" rx="3" ry="2" fill="#fbbf24"/>
        <polygon points="3,0 5,-1 5,1" fill="#fbbf24"/>
        <circle cx="-1" cy="0" r="0.5" fill="#000000"/>
      </g>
      <g transform="translate(24, 192)">
        <ellipse cx="0" cy="0" rx="3" ry="2" fill="#fbbf24"/>
        <polygon points="3,0 5,-1 5,1" fill="#fbbf24"/>
        <circle cx="-1" cy="0" r="0.5" fill="#000000"/>
      </g>
      <g transform="translate(32, 197)">
        <ellipse cx="0" cy="0" rx="3" ry="2" fill="#fbbf24"/>
        <polygon points="3,0 5,-1 5,1" fill="#fbbf24"/>
        <circle cx="-1" cy="0" r="0.5" fill="#000000"/>
      </g>
    </g>
  </g>

  <!-- Puzzle Grid -->
  <g transform="translate(25, 270)">
    <!-- Row 1 -->
    <rect x="0" y="0" width="47" height="47" rx="12" fill="#0f766e"/>
    <g transform="translate(6, 6)">
      <rect x="10" y="5" width="4" height="30" rx="2" fill="#374151"/>
      <rect x="8" y="12" width="8" height="3" rx="1" fill="#374151"/>
      <rect x="8" y="20" width="8" height="3" rx="1" fill="#374151"/>
      <rect x="20" y="2" width="4" height="33" rx="2" fill="#374151"/>
      <rect x="18" y="15" width="8" height="3" rx="1" fill="#374151"/>
      <rect x="18" y="25" width="8" height="3" rx="1" fill="#374151"/>
    </g>
    
    <rect x="52" y="0" width="47" height="47" rx="12" fill="#2563eb"/>
    
    <rect x="104" y="0" width="47" height="47" rx="12" fill="#FFD93D"/>
    <g transform="translate(127, 23) scale(1.4)">
      <ellipse cx="0" cy="0" rx="10" ry="7" fill="#E67E22" />
      <path d="M 8 0 L 12 -4 L 12 4 Z" fill="#E67E22" />
      <circle cx="-5" cy="-1" r="2" fill="white" />
      <circle cx="-5" cy="-1" r="1" fill="black">
        <animate attributeName="opacity" values="1;0;1" dur="2s" repeatCount="indefinite" begin="0s"/>
      </circle>
    </g>
    
    <rect x="156" y="0" width="47" height="47" rx="12" fill="#2563eb"/>
    <rect x="208" y="0" width="47" height="47" rx="12" fill="#2563eb"/>
    <rect x="260" y="0" width="47" height="47" rx="12" fill="#2563eb"/>
    
    <rect x="312" y="0" width="47" height="47" rx="12" fill="#0f766e"/>
    <g transform="translate(318, 6)">
      <rect x="10" y="5" width="4" height="30" rx="2" fill="#374151"/>
      <rect x="8" y="12" width="8" height="3" rx="1" fill="#374151"/>
      <rect x="8" y="20" width="8" height="3" rx="1" fill="#374151"/>
      <rect x="20" y="2" width="4" height="33" rx="2" fill="#374151"/>
      <rect x="18" y="15" width="8" height="3" rx="1" fill="#374151"/>
      <rect x="18" y="25" width="8" height="3" rx="1" fill="#374151"/>
    </g>

    <!-- Row 2 -->
    <rect x="0" y="52" width="47" height="47" rx="12" fill="#2563eb"/>
    <rect x="52" y="52" width="47" height="47" rx="12" fill="#2563eb"/>
    <rect x="104" y="52" width="47" height="47" rx="12" fill="#2563eb"/>
    <rect x="156" y="52" width="47" height="47" rx="12" fill="#2563eb"/>
    <rect x="208" y="52" width="47" height="47" rx="12" fill="#2563eb"/>
    <rect x="260" y="52" width="47" height="47" rx="12" fill="#2563eb"/>
    
    <rect x="312" y="52" width="47" height="47" rx="12" fill="#FFD93D"/>
    <g transform="translate(335, 75) scale(1.4)">
      <ellipse cx="0" cy="0" rx="10" ry="7" fill="#E67E22" />
      <path d="M 8 0 L 12 -4 L 12 4 Z" fill="#E67E22" />
      <circle cx="-5" cy="-1" r="2" fill="white" />
      <circle cx="-5" cy="-1" r="1" fill="black">
        <animate attributeName="opacity" values="1;0;1" dur="2.5s" repeatCount="indefinite" begin="0.8s"/>
      </circle>
    </g>

    <!-- Row 3 -->
    <rect x="0" y="104" width="47" height="47" rx="12" fill="#2563eb"/>
    <rect x="52" y="104" width="47" height="47" rx="12" fill="#2563eb"/>
    <rect x="104" y="104" width="47" height="47" rx="12" fill="#2563eb"/>
    <rect x="156" y="104" width="47" height="47" rx="12" fill="#2563eb"/>
    <rect x="208" y="104" width="47" height="47" rx="12" fill="#2563eb"/>
    <rect x="260" y="104" width="47" height="47" rx="12" fill="#2563eb"/>
    <rect x="312" y="104" width="47" height="47" rx="12" fill="#2563eb"/>

    <!-- Row 4 -->
    <rect x="0" y="156" width="47" height="47" rx="12" fill="#2563eb"/>
    
    <rect x="52" y="156" width="47" height="47" rx="12" fill="#FFD93D"/>
    <g transform="translate(75, 179) scale(1.4)">
      <ellipse cx="0" cy="0" rx="10" ry="7" fill="#E67E22" />
      <path d="M 8 0 L 12 -4 L 12 4 Z" fill="#E67E22" />
      <circle cx="-5" cy="-1" r="2" fill="white" />
      <circle cx="-5" cy="-1" r="1" fill="black">
        <animate attributeName="opacity" values="1;0;1" dur="3s" repeatCount="indefinite" begin="1.5s"/>
      </circle>
    </g>
    
    <rect x="104" y="156" width="47" height="47" rx="12" fill="#2563eb"/>
    <rect x="156" y="156" width="47" height="47" rx="12" fill="#2563eb"/>
    <rect x="208" y="156" width="47" height="47" rx="12" fill="#2563eb"/>
    
    <rect x="260" y="156" width="47" height="47" rx="12" fill="#0f766e"/>
    <g transform="translate(266, 162)">
      <rect x="10" y="5" width="4" height="30" rx="2" fill="#374151"/>
      <rect x="8" y="12" width="8" height="3" rx="1" fill="#374151"/>
      <rect x="8" y="20" width="8" height="3" rx="1" fill="#374151"/>
      <rect x="20" y="2" width="4" height="33" rx="2" fill="#374151"/>
      <rect x="18" y="15" width="8" height="3" rx="1" fill="#374151"/>
      <rect x="18" y="25" width="8" height="3" rx="1" fill="#374151"/>
    </g>
    
    <rect x="312" y="156" width="47" height="47" rx="12" fill="#2563eb"/>

    <!-- Row 5 -->
    <rect x="0" y="208" width="47" height="47" rx="12" fill="#2563eb"/>
    <rect x="52" y="208" width="47" height="47" rx="12" fill="#2563eb"/>
    <rect x="104" y="208" width="47" height="47" rx="12" fill="#2563eb"/>
    
    <rect x="156" y="208" width="47" height="47" rx="12" fill="#0f766e"/>
    <g transform="translate(162, 214)">
      <rect x="10" y="5" width="4" height="30" rx="2" fill="#374151"/>
      <rect x="8" y="12" width="8" height="3" rx="1" fill="#374151"/>
      <rect x="8" y="20" width="8" height="3" rx="1" fill="#374151"/>
      <rect x="20" y="2" width="4" height="33" rx="2" fill="#374151"/>
      <rect x="18" y="15" width="8" height="3" rx="1" fill="#374151"/>
      <rect x="18" y="25" width="8" height="3" rx="1" fill="#374151"/>
    </g>
    
    <rect x="208" y="208" width="47" height="47" rx="12" fill="#2563eb"/>
    
    <rect x="260" y="208" width="47" height="47" rx="12" fill="#0f766e"/>
    <g transform="translate(266, 214)">
      <rect x="10" y="5" width="4" height="30" rx="2" fill="#374151"/>
      <rect x="8" y="12" width="8" height="3" rx="1" fill="#374151"/>
      <rect x="8" y="20" width="8" height="3" rx="1" fill="#374151"/>
      <rect x="20" y="2" width="4" height="33" rx="2" fill="#374151"/>
      <rect x="18" y="15" width="8" height="3" rx="1" fill="#374151"/>
      <rect x="18" y="25" width="8" height="3" rx="1" fill="#374151"/>
    </g>
    
    <rect x="312" y="208" width="47" height="47" rx="12" fill="#2563eb"/>

    <!-- Row 6 -->
    <rect x="0" y="260" width="47" height="47" rx="12" fill="#2563eb"/>
    <rect x="52" y="260" width="47" height="47" rx="12" fill="#2563eb"/>
    <rect x="104" y="260" width="47" height="47" rx="12" fill="#2563eb"/>
    <rect x="156" y="260" width="47" height="47" rx="12" fill="#2563eb"/>
    
    <rect x="208" y="260" width="47" height="47" rx="12" fill="#FFD93D"/>
    <g transform="translate(231, 283) scale(1.4)">
      <ellipse cx="0" cy="0" rx="10" ry="7" fill="#E67E22" />
      <path d="M 8 0 L 12 -4 L 12 4 Z" fill="#E67E22" />
      <circle cx="-5" cy="-1" r="2" fill="white" />
      <circle cx="-5" cy="-1" r="1" fill="black">
        <animate attributeName="opacity" values="1;0;1" dur="2.2s" repeatCount="indefinite" begin="0.3s"/>
      </circle>
    </g>
    
    <rect x="260" y="260" width="47" height="47" rx="12" fill="#2563eb"/>
    
    <rect x="312" y="260" width="47" height="47" rx="12" fill="#0f766e"/>
    <g transform="translate(318, 266)">
      <rect x="10" y="5" width="4" height="30" rx="2" fill="#374151"/>
      <rect x="8" y="12" width="8" height="3" rx="1" fill="#374151"/>
      <rect x="8" y="20" width="8" height="3" rx="1" fill="#374151"/>
      <rect x="20" y="2" width="4" height="33" rx="2" fill="#374151"/>
      <rect x="18" y="15" width="8" height="3" rx="1" fill="#374151"/>
      <rect x="18" y="25" width="8" height="3" rx="1" fill="#374151"/>
    </g>

    <!-- Row 7 -->
    <rect x="0" y="312" width="47" height="47" rx="12" fill="#2563eb"/>
    <rect x="52" y="312" width="47" height="47" rx="12" fill="#2563eb"/>
    <rect x="104" y="312" width="47" height="47" rx="12" fill="#2563eb"/>
    
    <rect x="156" y="312" width="47" height="47" rx="12" fill="#0f766e"/>
    <g transform="translate(162, 318)">
      <rect x="10" y="5" width="4" height="30" rx="2" fill="#374151"/>
      <rect x="8" y="12" width="8" height="3" rx="1" fill="#374151"/>
      <rect x="8" y="20" width="8" height="3" rx="1" fill="#374151"/>
      <rect x="20" y="2" width="4" height="33" rx="2" fill="#374151"/>
      <rect x="18" y="15" width="8" height="3" rx="1" fill="#374151"/>
      <rect x="18" y="25" width="8" height="3" rx="1" fill="#374151"/>
    </g>
    
    <rect x="208" y="312" width="47" height="47" rx="12" fill="#2563eb"/>
    <rect x="260" y="312" width="47" height="47" rx="12" fill="#2563eb"/>
    <rect x="312" y="312" width="47" height="47" rx="12" fill="#2563eb"/>
  </g>

  <!-- Seaweed Forest at Bottom -->
  <g transform="translate(0, 630)" opacity="0.4">
    <g>
      <animateTransform attributeName="transform" type="rotate" 
                        values="0 20 217; 3 20 217; -3 20 217; 0 20 217" dur="4s" repeatCount="indefinite"/>
      <path d="M20 217 Q18 180 22 143 Q16 106 26 69 Q18 35 20 0" stroke="#10b981" stroke-width="3" fill="none" stroke-linecap="round"/>
    </g>
    
    <g>
      <animateTransform attributeName="transform" type="rotate" 
                        values="0 80 217; 3 80 217; -3 80 217; 0 80 217" dur="4s" repeatCount="indefinite" begin="-1s"/>
      <path d="M80 217 Q78 180 82 143 Q76 106 86 69 Q78 35 80 0" stroke="#10b981" stroke-width="3" fill="none" stroke-linecap="round"/>
    </g>
    
    <g>
      <animateTransform attributeName="transform" type="rotate" 
                        values="0 160 217; 3 160 217; -3 160 217; 0 160 217" dur="4s" repeatCount="indefinite" begin="-2s"/>
      <path d="M160 217 Q158 180 162 143 Q156 106 166 69 Q158 35 160 0" stroke="#10b981" stroke-width="3" fill="none" stroke-linecap="round"/>
    </g>
    
    <g>
      <animateTransform attributeName="transform" type="rotate" 
                        values="0 240 217; 3 240 217; -3 240 217; 0 240 217" dur="4s" repeatCount="indefinite" begin="-0.5s"/>
      <path d="M240 217 Q238 180 242 143 Q236 106 246 69 Q238 35 240 0" stroke="#10b981" stroke-width="3" fill="none" stroke-linecap="round"/>
    </g>
    
    <g>
      <animateTransform attributeName="transform" type="rotate" 
                        values="0 320 217; 3 320 217; -3 320 217; 0 320 217" dur="4s" repeatCount="indefinite" begin="-1.5s"/>
      <path d="M320 217 Q318 180 322 143 Q316 106 326 69 Q318 35 320 0" stroke="#10b981" stroke-width="3" fill="none" stroke-linecap="round"/>
    </g>
    
    <g>
      <animateTransform attributeName="transform" type="rotate" 
                        values="0 380 217; 3 380 217; -3 380 217; 0 380 217" dur="4s" repeatCount="indefinite" begin="-2.5s"/>
      <path d="M380 217 Q378 180 382 143 Q376 106 386 69 Q378 35 380 0" stroke="#10b981" stroke-width="3" fill="none" stroke-linecap="round"/>
    </g>
  </g>

  <!-- Floating Bubbles -->
  <g opacity="0.3">
    <circle cx="60" cy="844" r="4" fill="rgba(255,255,255,0.3)" stroke="rgba(255,255,255,0.4)">
      <animateTransform attributeName="transform" type="translate" 
                        values="0,0; 10,-844" dur="8s" repeatCount="indefinite"/>
    </circle>
    
    <circle cx="140" cy="844" r="6" fill="rgba(255,255,255,0.3)" stroke="rgba(255,255,255,0.4)">
      <animateTransform attributeName="transform" type="translate" 
                        values="0,0; -5,-844" dur="8s" repeatCount="indefinite" begin="-2s"/>
    </circle>
    
    <circle cx="220" cy="844" r="3" fill="rgba(255,255,255,0.3)" stroke="rgba(255,255,255,0.4)">
      <animateTransform attributeName="transform" type="translate" 
                        values="0,0; 8,-844" dur="8s" repeatCount="indefinite" begin="-4s"/>
    </circle>
    
    <circle cx="300" cy="844" r="5" fill="rgba(255,255,255,0.3)" stroke="rgba(255,255,255,0.4)">
      <animateTransform attributeName="transform" type="translate" 
                        values="0,0; -3,-844" dur="8s" repeatCount="indefinite" begin="-1s"/>
    </circle>
    
    <circle cx="100" cy="844" r="7" fill="rgba(255,255,255,0.3)" stroke="rgba(255,255,255,0.4)">
      <animateTransform attributeName="transform" type="translate" 
                        values="0,0; 12,-844" dur="8s" repeatCount="indefinite" begin="-3s"/>
    </circle>
  </g>
</svg>