<?xml version="1.0" encoding="UTF-8"?>
<svg id="Gold_Icons" data-name="Gold Icons" xmlns="http://www.w3.org/2000/svg" viewBox="0 0 97.2 97.2">
  <defs>
    <style>
      .cls-1 {
        fill: none;
        stroke: #be1e2d;
        stroke-linecap: round;
        stroke-linejoin: round;
        stroke-width: 3px;
      }

      .cls-2 {
        fill: #be1e2d;
        stroke-width: 0px;
      }
    </style>
  </defs>
  <g>
    <ellipse class="cls-2" cx="68.98" cy="57.09" rx="1.12" ry="1.84"/>
    <path class="cls-1" d="m51.21,48.35c-3.6-3.01-8.65-4.89-14.25-4.89-10.91,0-19.76,7.12-19.76,15.9,0,0-.3,12.72,15.9,10.75,16.2-1.97,31.49.3,35.12,5.6"/>
    <path class="cls-1" d="m52.18,49.23c-5.87-6.29.05-15.64,8.24-14.25,9.92,1.68,9.08,14.67,9.08,14.67.42.14,10.9,11.32,12.16,13.41s-1.12,4.75-5.31,4.61-12.02-.56-14.67-2.52"/>
  </g>
  <path class="cls-2" d="m18.39,30.83c.07-1.02.17-2.11.32-3.27s.33-2.29.53-3.4l-1.48-.2c.2-.26.41-.54.65-.83.24-.29.46-.56.67-.81.21-.25.46-.53.75-.85.28,0,.55.04.83.08.23.05.47.11.72.2s.46.21.65.36c-.39.76-.71,1.52-.97,2.3-.25.77-.46,1.55-.62,2.33-.16.78-.29,1.56-.39,2.35-.1.79-.19,1.58-.27,2.36-.24-.05-.45-.11-.63-.18-.18-.07-.32-.15-.43-.22-.14-.08-.25-.16-.34-.24Z"/>
</svg>