<?xml version="1.0" encoding="UTF-8"?>
<svg id="Gold_Icons" data-name="Gold Icons" xmlns="http://www.w3.org/2000/svg" viewBox="0 0 97.2 97.2">
  <defs>
    <style>
      .cls-1 {
        fill: none;
        stroke: #965f36;
        stroke-linecap: round;
        stroke-linejoin: round;
        stroke-width: 3px;
      }

      .cls-2 {
        fill: #965f36;
        stroke-width: 0px;
      }
    </style>
  </defs>
  <g>
    <g>
      <ellipse class="cls-2" cx="52.09" cy="32.31" rx="1.06" ry="1.74"/>
      <ellipse class="cls-2" cx="61.91" cy="32.31" rx="1.06" ry="1.74"/>
      <path class="cls-1" d="m67.9,27.73c.51-2.04-.17-11.4-2.72-9.36s-3.57,6.3-3.57,6.3c-1.21-.54-8.58-.54-9.79,0,0,0-1.02-4.26-3.57-6.3s-3.23,7.32-2.72,9.36c0,0-1.87,6.47,0,10.04,1.64,3.13,9.74,5.88,11.57,6.16.03.02.35.02.38,0,1.83-.28,8.79-3.02,10.43-6.16,1.87-3.57,0-10.04,0-10.04Z"/>
      <path class="cls-1" d="m62.67,42.56s-.95,4.58-.38,10.11c.43,4.19,2.29,15.63,1.33,24.98"/>
      <path class="cls-1" d="m58.28,58.19s1.91,13.54,1.53,20.97"/>
      <path class="cls-1" d="m39.98,60.48s5.15-2.29,9.72,2.67,2.1,13.92,2.1,13.92c0,0,6.1-.38,6.86,3.05"/>
      <path class="cls-1" d="m47.04,40.27c-.19.76-2.67,3.81-5.72,6.86-3.05,3.05-8.01,7.63-7.44,17.16.72,12,9.53,17.73,20.59,16.59,8.17-.85,14.87-4,16.78-16.4"/>
    </g>
    <ellipse class="cls-2" cx="57.12" cy="36.49" rx="1.22" ry=".86"/>
  </g>
  <path class="cls-2" d="m30.05,17.37c1.04,0,1.84.21,2.41.63.57.42.93.98,1.09,1.67.16.69.14,1.47-.07,2.34-.2.87-.55,1.75-1.03,2.65-.48.9-1.09,1.76-1.81,2.59-.73.83-1.54,1.55-2.43,2.17-.07.04-.09.11-.07.2.03.07.08.11.15.11.49.04.99.13,1.48.25s.92.31,1.29.55.67.54.89.91c.22.36.31.8.28,1.31,0,.07-.02.12-.07.13-.03.03-.07.04-.13.04-.6-.13-1.33-.23-2.19-.31s-1.75-.11-2.68-.11-1.84.04-2.75.11-1.71.18-2.41.33c-.07.03-.13,0-.18-.07-.03-.07-.03-.13,0-.17.34-.58.77-1.14,1.3-1.66.53-.52,1.1-1.04,1.72-1.55.61-.51,1.24-1.03,1.87-1.56.63-.53,1.23-1.09,1.78-1.66.55-.58,1.03-1.19,1.43-1.84.4-.65.67-1.36.82-2.13l.02-.02c.06-.54,0-.96-.19-1.27-.18-.31-.43-.51-.74-.6-.31-.1-.67-.1-1.06-.01-.39.09-.77.25-1.14.49s-.69.55-.96.94c-.28.39-.45.82-.52,1.3-.03.15-.04.3-.02.45.01.15.01.3,0,.43-.02.13-.05.25-.1.37-.05.12-.16.21-.32.28-.25.13-.48.12-.69-.02-.21-.15-.38-.38-.51-.69-.13-.31-.21-.7-.24-1.15-.03-.45,0-.92.11-1.41s.28-.97.54-1.45c.25-.47.61-.9,1.06-1.29s1.01-.7,1.67-.93c.66-.23,1.45-.35,2.37-.35Z"/>
</svg>