<?xml version="1.0" encoding="UTF-8"?>
<svg id="Gold_Icons" data-name="Gold Icons" xmlns="http://www.w3.org/2000/svg" viewBox="0 0 97.2 97.2">
  <defs>
    <style>
      .cls-1 {
        stroke-width: 3px;
      }

      .cls-1, .cls-2, .cls-3 {
        fill: none;
        stroke: #965f36;
        stroke-linecap: round;
        stroke-linejoin: round;
      }

      .cls-2 {
        stroke-width: 2.15px;
      }

      .cls-3 {
        stroke-width: 1.61px;
      }

      .cls-4 {
        fill: #965f36;
        stroke-width: 0px;
      }
    </style>
  </defs>
  <g>
    <path class="cls-1" d="m62.46,42.51c-3.85-.58-6.55-2.89-6.55-2.89-.96-.19-6.74-6.74-6.74-6.74l-1.54-.19c0-3.08,4.82-7.13,4.82-7.13-1.73-3.66-.96-9.63-.96-9.63,1.54.96,5.01,4.43,5.01,4.43,1.73-.19,10.02-.19,11.75,0,0,0,3.47-3.47,5.01-4.43,0,0,.77,5.97-.96,9.63,0,0,4.82,4.05,4.82,7.13l-1.54.19s-5.78,6.55-6.74,6.74c0,0-2.7,2.31-6.55,2.89h.19Z"/>
    <ellipse class="cls-4" cx="66.59" cy="29.49" rx=".89" ry="1.46"/>
    <ellipse class="cls-4" cx="58.33" cy="29.49" rx=".89" ry="1.46"/>
    <path class="cls-4" d="m60.19,34.45c0,.61.83,1.84,1.86,1.84s1.86-1.23,1.86-1.84-.83-1.1-1.86-1.1-1.86.49-1.86,1.1Z"/>
    <path class="cls-2" d="m64.73,21.06s.96,0,1.93,2.57"/>
    <path class="cls-2" d="m59.27,21.06s-.96,0-1.93,2.57"/>
    <path class="cls-2" d="m69.34,27.23s4.45,2.29,3.97,7.46"/>
    <path class="cls-2" d="m68.45,33.6s1.93,2.05.72,5.53"/>
    <path class="cls-2" d="m54.9,27.23s-4.45,2.29-3.97,7.46"/>
    <path class="cls-2" d="m56.28,33.6s-1.93,2.05-.72,5.53"/>
    <path class="cls-1" d="m69.5,39.67c0,.48.96,11.55-1.28,17.97s-3.23,14.27-2.27,15.23,3.58,2.87,2.91,5.46c-.6,2.33-5.68,1.75-7.93.63"/>
    <path class="cls-1" d="m59.34,56.83s-.64,11.55-.16,14.92,2.73,6.42.48,8.82-6.26.48-7.06-2.09c-.8-2.57-1.92-15.55-2.78-19.05-.75-3.08-4.12-6.45-4.12-6.45"/>
    <path class="cls-3" d="m65.95,53.17c-.16.48.61,5.1-6.45,7.34"/>
    <path class="cls-1" d="m49.93,34.21s-6.42,8.66-10.27,13.15c-3.85,4.49-7.7,12.83-7.7,21.66,0,8.82,1.44,9.95,3.53,11.39s10.37,1.74,12.37,1.41c4.3-.72,3.91-6.75-.98-7.34-5.29-.64-8.02-1.12-8.02-1.12"/>
    <path class="cls-1" d="m39.34,58.12s12.35,2.41,7.54,15.24"/>
    <path class="cls-1" d="m32.76,77.85s-7.7-7.06-8.98-16.68c-1.28-9.63,11.54-17.63,13.96-19.73,3.69-3.21,2.89-7.7.16-6.58"/>
    <path class="cls-2" d="m69.66,43.36s-2.41,4.81-8.98,5.29"/>
    <path class="cls-2" d="m47.04,39.03s1.76,5.61,7.06,8.18"/>
    <path class="cls-2" d="m38.38,49.29s1.44,3.85,4.49,6.26"/>
    <path class="cls-3" d="m47.52,67.42s-3.69-2.25-6.9,1.6"/>
    <path class="cls-2" d="m32.6,66.46s1.12,2.73,3.37,3.05"/>
    <path class="cls-3" d="m57.79,65.66s-1.6,2.09-4.33,2.09"/>
    <path class="cls-3" d="m67.25,60.04s-1.44,3.05-4.81,3.21"/>
  </g>
  <path class="cls-4" d="m23.53,14.45c.98-.03,1.74.13,2.28.48.54.35.92.8,1.14,1.36.22.56.31,1.17.27,1.85-.04.68-.14,1.33-.32,1.96-.44,0-.82-.06-1.14-.18-.13-.04-.26-.11-.39-.19-.13-.08-.25-.18-.34-.31-.09-.12-.16-.27-.21-.43-.04-.16-.05-.35-.02-.57.06-.42-.04-.78-.31-1.08s-.59-.47-.99-.51c-.4-.04-.83.08-1.29.36-.46.29-.86.79-1.19,1.52-.13.31-.25.61-.35.93-.1.31-.18.61-.25.89-.07.28-.12.52-.15.73-.04.21-.05.37-.05.47.35-.32.76-.54,1.23-.65s.94-.12,1.43-.03c.49.09.96.26,1.42.51.46.26.86.59,1.21,1.01.35.42.62.9.81,1.44s.25,1.16.2,1.83c-.09.79-.31,1.49-.66,2.1-.15.26-.33.52-.55.78-.22.26-.49.48-.81.68s-.69.35-1.1.47c-.42.12-.89.18-1.43.18-1.15,0-2.06-.22-2.71-.65-.66-.43-1.14-1-1.45-1.71-.31-.71-.47-1.51-.48-2.41-.01-.9.06-1.81.22-2.75.1-.6.22-1.22.34-1.86.12-.64.28-1.26.48-1.86s.43-1.16.7-1.7c.27-.53.61-.99,1.03-1.39.42-.39.9-.71,1.46-.94.56-.23,1.22-.35,1.98-.35Zm-1.31,8.88c-.5-.03-.92.06-1.26.27-.34.21-.61.49-.8.83-.19.34-.3.72-.32,1.12-.02.4.04.78.19,1.13.14.35.38.65.69.89.31.24.72.36,1.21.36s.94-.11,1.28-.33c.34-.22.6-.49.79-.82.18-.33.28-.69.31-1.07.02-.39-.04-.75-.2-1.09-.15-.34-.39-.63-.7-.87-.31-.24-.71-.38-1.19-.41Z"/>
</svg>