<?xml version="1.0" encoding="UTF-8"?>
<svg xmlns="http://www.w3.org/2000/svg" xmlns:xlink="http://www.w3.org/1999/xlink" viewBox="0 0 97.54 97.54">
  <defs>
    <style>
      .cls-1 {
        fill: none;
        stroke: #be1e2d;
        stroke-linecap: round;
        stroke-linejoin: round;
        stroke-width: 3px;
      }

      .cls-2 {
        fill: url(#radial-gradient);
      }

      .cls-2, .cls-3, .cls-4 {
        stroke-width: 0px;
      }

      .cls-5 {
        mix-blend-mode: multiply;
      }

      .cls-6 {
        isolation: isolate;
      }

      .cls-3 {
        fill: #be1e2d;
      }

      .cls-4 {
        fill: #f1e4b2;
      }
    </style>
    <radialGradient id="radial-gradient" cx="67.33" cy="-9.71" fx="67.33" fy="-9.71" r="175.2" gradientUnits="userSpaceOnUse">
      <stop offset="0" stop-color="#fff" stop-opacity="0"/>
      <stop offset="1" stop-color="#c1a292"/>
    </radialGradient>
  </defs>
  <g class="cls-6">
    <g id="Gold_Piece" data-name="Gold Piece">
      <g>
        <rect class="cls-3" x="2.02" y="1.77" width="94" height="94" rx="5.9" ry="5.9"/>
        <rect class="cls-4" x="5.68" y="5.43" width="86.68" height="86.68" rx="2.24" ry="2.24" transform="translate(97.79 -.25) rotate(90)"/>
        <rect class="cls-4" x="5.68" y="5.43" width="86.68" height="86.68" rx="2.24" ry="2.24" transform="translate(97.79 -.25) rotate(90)"/>
        <g class="cls-5">
          <path class="cls-2" d="m90.12,5.43H11.48v78.64c0,1.23,1,2.24,2.24,2.24h73.13l5.5,6.33V14c0-7.57-1-8.57-2.24-8.57Z"/>
        </g>
        <polygon class="cls-1" points="87.29 85.39 87.29 9.91 12.41 9.91 12.41 85.6 87.29 85.39"/>
        <line class="cls-1" x1="12.52" y1="85.6" x2="5.75" y2="92"/>
        <line class="cls-1" x1="87.29" y1="85.39" x2="93.19" y2="91.6"/>
      </g>
    </g>
  </g>
</svg>