<?xml version="1.0" encoding="UTF-8"?>
<svg id="Gold_Icons" data-name="Gold Icons" xmlns="http://www.w3.org/2000/svg" viewBox="0 0 97.2 97.2">
  <defs>
    <style>
      .cls-1 {
        fill: none;
        stroke: #be1e2d;
        stroke-linecap: round;
        stroke-linejoin: round;
        stroke-width: 3px;
      }

      .cls-2 {
        fill: #be1e2d;
        stroke-width: 0px;
      }
    </style>
  </defs>
  <g>
    <g>
      <ellipse class="cls-2" cx="54.09" cy="32.31" rx="1.06" ry="1.74"/>
      <ellipse class="cls-2" cx="63.91" cy="32.31" rx="1.06" ry="1.74"/>
      <path class="cls-1" d="m69.9,27.73c.51-2.04-.17-11.4-2.72-9.36s-3.57,6.3-3.57,6.3c-1.21-.54-8.58-.54-9.79,0,0,0-1.02-4.26-3.57-6.3s-3.23,7.32-2.72,9.36c0,0-1.87,6.47,0,10.04,1.64,3.13,9.74,5.88,11.57,6.16.03.02.35.02.38,0,1.83-.28,8.79-3.02,10.43-6.16,1.87-3.57,0-10.04,0-10.04Z"/>
      <path class="cls-1" d="m64.67,42.56s-.95,4.58-.38,10.11c.43,4.19,2.29,15.63,1.33,24.98"/>
      <path class="cls-1" d="m60.28,58.19s1.91,13.54,1.53,20.97"/>
      <path class="cls-1" d="m41.98,60.48s5.15-2.29,9.72,2.67,2.1,13.92,2.1,13.92c0,0,6.1-.38,6.86,3.05"/>
      <path class="cls-1" d="m49.04,40.27c-.19.76-2.67,3.81-5.72,6.86-3.05,3.05-8.01,7.63-7.44,17.16.72,12,9.53,17.73,20.59,16.59,8.17-.85,14.87-4,16.78-16.4"/>
    </g>
    <ellipse class="cls-2" cx="59.12" cy="36.49" rx="1.22" ry=".86"/>
  </g>
  <path class="cls-2" d="m29.21,16.17c.66,0,1.18.14,1.54.41.36.27.6.63.7,1.07.1.44.09.94-.04,1.5-.13.56-.35,1.12-.66,1.69-.31.57-.7,1.13-1.16,1.66-.47.53-.99.99-1.55,1.39-.05.03-.06.07-.04.13.02.05.05.07.1.07.32.03.63.08.94.16s.59.2.83.35.43.35.57.58c.14.23.2.51.18.84,0,.05-.01.08-.04.08-.02.02-.05.03-.08.03-.38-.08-.85-.15-1.4-.2s-1.12-.07-1.71-.07-1.18.02-1.76.07-1.09.12-1.54.21c-.05.02-.08,0-.11-.04-.02-.05-.02-.08,0-.11.21-.37.49-.73.83-1.06.34-.34.71-.67,1.1-.99.39-.33.79-.66,1.2-1,.41-.34.79-.7,1.14-1.06.35-.37.66-.76.92-1.18.26-.42.43-.87.53-1.36h.01c.04-.36,0-.63-.12-.83-.12-.2-.28-.32-.48-.38-.2-.06-.43-.06-.68,0-.25.06-.49.16-.73.32s-.44.35-.62.6c-.18.25-.29.53-.34.83-.02.09-.02.19-.01.29,0,.1,0,.19,0,.27,0,.08-.03.16-.06.24-.03.07-.1.13-.2.18-.16.08-.31.08-.44-.01-.14-.09-.25-.24-.33-.44-.08-.2-.14-.45-.15-.74-.02-.29,0-.59.07-.9s.18-.62.34-.92c.16-.3.39-.58.68-.83s.65-.45,1.07-.6c.42-.15.93-.22,1.52-.22Z"/>
</svg>