<?xml version="1.0" encoding="UTF-8"?>
<svg id="Gold_Icons" data-name="Gold Icons" xmlns="http://www.w3.org/2000/svg" viewBox="0 0 97.2 97.2">
  <defs>
    <style>
      .cls-1 {
        stroke-width: 3px;
      }

      .cls-1, .cls-2 {
        fill: none;
        stroke: #be1e2d;
        stroke-linecap: round;
        stroke-linejoin: round;
      }

      .cls-2 {
        stroke-width: 2px;
      }

      .cls-3 {
        fill: #be1e2d;
        stroke-width: 0px;
      }
    </style>
  </defs>
  <path class="cls-3" d="m23.42,15.33c.5,0,.92.09,1.25.27.33.18.58.42.75.72s.27.64.29,1.02c.02.38-.02.77-.13,1.17-.11.4-.29.79-.52,1.17-.23.38-.52.72-.87,1.01.41.23.7.51.87.84s.24.67.22,1.03-.13.72-.33,1.07c-.2.36-.46.66-.79.92-.33.26-.72.47-1.16.62-.44.15-.91.2-1.41.14-.34,0-.67-.04-1-.13-.33-.08-.63-.2-.89-.35-.26-.15-.48-.33-.65-.53-.17-.21-.27-.43-.29-.67-.02-.24.05-.5.22-.77s.44-.54.83-.81c.21-.04.36-.04.47-.02s.19.06.25.1c.06.05.09.11.11.18-.29.32-.42.59-.4.8.02.22.14.39.34.5.21.12.47.18.79.19.32,0,.64-.04.94-.13.31-.1.58-.25.81-.46.23-.21.35-.48.37-.8-.03-.36-.15-.63-.37-.8-.22-.17-.46-.3-.72-.37-.31-.08-.65-.1-1.02-.08-.05-.13-.05-.24-.01-.34.02-.04.04-.07.06-.1.49-.13.88-.3,1.19-.51.31-.21.55-.42.74-.63s.31-.41.39-.59c.08-.19.13-.33.15-.42,0-.02,0-.03,0-.04,0,0,0-.02,0-.04.04-.35,0-.62-.11-.82-.11-.2-.27-.33-.47-.39-.2-.06-.43-.06-.69,0-.26.06-.5.16-.73.32-.23.15-.43.35-.62.6-.18.25-.3.53-.34.83-.02.09-.02.19-.01.29,0,.1.01.19,0,.27s-.03.16-.06.24c-.04.07-.1.13-.2.18-.21.11-.41.07-.57-.12s-.28-.46-.33-.8c-.05-.35-.04-.74.04-1.17.08-.43.26-.84.53-1.22s.66-.7,1.16-.96c.5-.26,1.14-.39,1.91-.39Z"/>
  <g>
    <path class="cls-1" d="m56.09,51.5s-.67,4.5-.67,7.83,3,8.67,3.67,13.33,1,6.83,1,6.83c0,0,7.33.83,7.33-.83s-2-1.17-2.33-2-.33-12.67.5-15,7-12.5,7-12.5c0,0,3-5.17,4-9.5s1.33-10.17,1.33-10.17c0,0,2-2.5,2.67-3.83s-.83-3.5-.83-3.5c0,0-.33.33.33-1.17s-1.33-3.67-1.83-3.17-4.17,2.83-4.17,2.83c0,0-2,1.17-3.67,1.17s-4.83,3.83-4.83,3.83c0,0-7,2.17-6.33,4.33.25.8,3.67,1.67,3.67,1.67-.5,1.5-4.67,5.17-4.67,5.17,0,0-8.17,1.33-17.67,2.33s-13.67,4.83-13.67,4.83c0,0-1.8,2.92-2.83,4.5-1.82,2.79-4.76,6.54-5.5,12.5-.56,4.49.67,10.17.67,10.17,0,0,2.17-1.17,3.33-3.5s3.17-9.33,3.17-9.33"/>
    <path class="cls-1" d="m26.59,49.17s-2.17,7.17,0,11.17c2.17,4,3,7.17,1.83,9.33s-1.25,5.4-.5,9.17c.17.83,6.5.83,6.5.83,0,0,1.17-1-.5-3.83-1.5-2.55-.33-8,1.33-9.83,3.1-3.41,6-8.33,4.83-12.67s-3.67-5.67-3.67-5.67"/>
    <path class="cls-1" d="m41.09,56.83c.17.5,8.17,5,14,4"/>
    <path class="cls-1" d="m44.75,60.17s-2.83,4.33-5,6.83-3.33,4-2.33,5.67,3.33,3.33,3,6.33h-5.5"/>
    <path class="cls-2" d="m70.25,28.17s1.5.33,2-1.67"/>
    <path class="cls-2" d="m63.59,43.17s1.33,3,3,3.83l1.83-2.33s3.83,1.17,5.33.33"/>
    <path class="cls-2" d="m61.59,50.5s1.83,4.5,2.33,5.17,5.83-3,5.83-3"/>
  </g>
</svg>