<?xml version="1.0" encoding="UTF-8"?>
<svg id="Gold_Icons" data-name="Gold Icons" xmlns="http://www.w3.org/2000/svg" viewBox="0 0 97.2 97.2">
  <defs>
    <style>
      .cls-1 {
        fill: none;
        stroke: #be1e2d;
        stroke-linecap: round;
        stroke-linejoin: round;
        stroke-width: 3px;
      }

      .cls-2 {
        fill: #be1e2d;
        stroke-width: 0px;
      }
    </style>
  </defs>
  <g>
    <path class="cls-1" d="m35.01,24.85s-3.82-.96-7.35,3.78-6.41,4.14-8.07,5.66.93,6.51,3.84,6.86l8.73,1.06s1.13,8.93,3.59,12.92c2.47,3.99,3.47,10.88,3.18,13.3s-.46,8.53,1.47,9.8c2.67,1.76,4.9.53,5.18-3.89.19-2.93.98-7.51,1.13-10.69.14-3.18,1.69-4.78,1.69-4.78,0,0,8.19,1.43,11.06.06s4.45-1.67,4.45-1.67c0,0-.04,5.41,2.39,7.67s8.31,5.99,8.11,12.18c-.08,2.45.41,4.72,2.41,4.47s5.31-.92,4.38-7.43c-.93-6.51-5.6-14.86-4.64-18.68s-.95-10.38-8.34-12.27c-7.4-1.88-15.46,1.25-21.31-.75-2.27-.78-4.03-17.4-11.87-17.62Z"/>
    <path class="cls-1" d="m35.29,25.56c-.07.55-.57,7.68,1.21,9.74,1.78,2.06,5.09,2.1,5.99-2.22"/>
    <path class="cls-1" d="m74.95,46.81s5.05-3.63,5.33-8.94-3.27-7.96-3.27-7.96"/>
    <path class="cls-1" d="m34.15,51.61s-4.84,4.94-4.88,8.26c-.03,3.32,1.02,6.77,1.55,8.49s4.8,1.51,4.03-4.31c-.7-5.29,2.48-5.23,2.48-5.23"/>
    <path class="cls-1" d="m59.7,59.89s-.03,4.79,2.61,7.33c2.64,2.54,6.58,5.89,6.77,8.86s2.1,6.42,5.09,4.57"/>
    <ellipse class="cls-2" cx="30.93" cy="32.54" rx="1.51" ry=".92" transform="translate(-5.11 59.32) rotate(-83.06)"/>
  </g>
  <path class="cls-2" d="m21.8,24.93c.05-.53.09-1.03.13-1.48.04-.46.09-.91.15-1.36l-3.72-.21c-.16-.02-.29-.1-.39-.24-.1-.15-.13-.3-.07-.45.08-.25.2-.57.35-.94s.34-.81.57-1.29c.23-.48.5-1.01.83-1.58.32-.57.69-1.17,1.11-1.79.25,0,.5.02.74.06.21.04.44.1.68.18.24.08.45.22.64.41-.44.53-.84,1.06-1.22,1.57-.33.45-.65.92-.97,1.41s-.56.93-.71,1.31l2.35.21c.15-1.04.38-2.14.7-3.28.2-.02.4,0,.62.03.19.04.39.1.62.2.22.09.45.23.69.42-.16.31-.31.67-.46,1.1s-.28.88-.42,1.36c-.13.49-.26.98-.38,1.48-.12.5-.22.98-.31,1.43-.09.45-.16.86-.22,1.23-.06.37-.1.66-.13.88-.24-.05-.44-.11-.59-.18-.15-.07-.27-.15-.35-.22-.1-.08-.18-.16-.22-.24Z"/>
  <path class="cls-2" d="m21.49,34.22s1.95,1.25,2.21,1.88c.79,1.92-3.21,1.62-3.21,1.62,0,0-1.25-2.62,1-3.5Z"/>
</svg>