<?xml version="1.0" encoding="UTF-8"?>
<svg id="Gold_Icons" data-name="Gold Icons" xmlns="http://www.w3.org/2000/svg" viewBox="0 0 97.2 97.2">
  <defs>
    <style>
      .cls-1 {
        fill: none;
        stroke: #be1e2d;
        stroke-linecap: round;
        stroke-linejoin: round;
        stroke-width: 3px;
      }

      .cls-2 {
        fill: #be1e2d;
        stroke-width: 0px;
      }
    </style>
  </defs>
  <g>
    <g>
      <ellipse class="cls-2" cx="62.97" cy="28.3" rx=".81" ry="1.32"/>
      <path class="cls-1" d="m70.02,24s-5.29-1.87-9.28-.67-1.54,3.09-6.89,4.86c-2.21.73-.06,5.33,2.54,6.93,1.14.7,5.23.55,5.62.84,1.79,1.36,1.88,2.57,1.63,3.2-.4,1-22.15,6.39-25.35,6.99-3.19.6-7.31,3.15-7.78,12.17-.18,3.41-3.19,7.69-4.19,8.89s-4.32,10.38-3.2,11.68,7.49,1.77,8.29.38.45-2.34-.94-4.33,1.45-4.79,5.84-6.78c4.39-2,6.97-4.9,8.97-7.64,1.34-1.84,7.38,1.6,14.77-.4,0,0,.18,17.99,1.2,18.96,2.76,2.64,4.34,2.88,6.53,2.08s1.45-4.07.05-6.27,3.99-15.77,8.18-21.16c4.19-5.39,4.99-10.58,4.59-15.97-.4-5.39-4.56-8.69-4.56-8.69,0,0-.69-4.99-1.68-7.58-1-2.59-4.34,2.49-4.34,2.49Z"/>
      <path class="cls-1" d="m38.56,46.11s-3.64-3.44-6.96-1.14c-4.41,3.06-3.9,8.97-8.05,10.67-3.33,1.36-5.05-2.61-5.05-5.8"/>
      <path class="cls-1" d="m49.68,61c0,1.13-2.26,5.28-4.52,7.54s-3.77,3.96-3.77,6.41,1.88,3.02.94,4.52-4.21,1.34-5.65.38c-1.7-1.13-2.83-3.96.38-11.68"/>
    </g>
    <path class="cls-2" d="m55.75,28.3s1.51,1.32,1.13,2.45-2.07.94-2.07.94c0,0-2.07-2.26.94-3.39Z"/>
  </g>
  <path class="cls-2" d="m21.03,21.42s-.07.02-.11.03c-.04,0-.08.02-.13.04-.05.01-.1.03-.15.04-.11.02-.23.03-.35.02-.12,0-.23-.03-.33-.07-.1-.04-.18-.11-.23-.2-.06-.09-.07-.23-.04-.41h-.01c.07-.39.14-.81.24-1.25.09-.44.2-.88.31-1.33.11-.45.23-.9.36-1.35.13-.45.25-.88.39-1.3.68.07,1.34.12,1.97.15.27.02.55.03.83.04.28,0,.56,0,.84,0,.28,0,.54-.03.78-.06s.47-.07.67-.13c0,.5-.12.9-.39,1.18-.27.29-.6.49-.99.61-.39.12-.81.18-1.25.17-.44,0-.82-.06-1.13-.15-.16.38-.32.8-.47,1.25-.15.45-.3.91-.43,1.37.27-.07.57-.13.89-.18.32-.05.65-.06.97-.04.33.02.63.08.92.2.29.11.54.29.74.52.21.24.35.55.43.94.08.39.08.87-.01,1.43-.07.43-.2.81-.39,1.15-.2.34-.44.62-.73.85s-.62.4-.99.52c-.37.12-.76.18-1.18.18-.58,0-1.06-.08-1.46-.25-.39-.17-.7-.38-.92-.63-.22-.25-.36-.52-.42-.82-.06-.29-.04-.56.06-.81.1-.25.27-.45.51-.61.24-.16.56-.23.94-.22-.14.32-.21.6-.2.85,0,.24.07.45.18.61.12.16.28.28.49.36s.45.12.72.11c.38,0,.71-.11.99-.29.28-.19.48-.41.62-.68.14-.27.2-.54.19-.83-.01-.29-.12-.53-.32-.73-.2-.2-.5-.33-.89-.4-.39-.07-.9,0-1.51.17Z"/>
</svg>