<?xml version="1.0" encoding="UTF-8"?>
<svg id="Gold_Icons" data-name="Gold Icons" xmlns="http://www.w3.org/2000/svg" viewBox="0 0 97.2 97.2">
  <defs>
    <style>
      .cls-1 {
        stroke-width: 3px;
      }

      .cls-1, .cls-2, .cls-3 {
        fill: none;
        stroke: #be1e2d;
        stroke-linecap: round;
        stroke-linejoin: round;
      }

      .cls-2 {
        stroke-width: 2.15px;
      }

      .cls-3 {
        stroke-width: 1.61px;
      }

      .cls-4 {
        fill: #be1e2d;
        stroke-width: 0px;
      }
    </style>
  </defs>
  <g>
    <path class="cls-1" d="m41.33,42.51c3.85-.58,6.55-2.89,6.55-2.89.96-.19,6.74-6.74,6.74-6.74l1.54-.19c0-3.08-4.82-7.13-4.82-7.13,1.73-3.66.96-9.63.96-9.63-1.54.96-5.01,4.43-5.01,4.43-1.73-.19-10.02-.19-11.75,0,0,0-3.47-3.47-5.01-4.43,0,0-.77,5.97.96,9.63,0,0-4.82,4.05-4.82,7.13l1.54.19s5.78,6.55,6.74,6.74c0,0,2.7,2.31,6.55,2.89h-.19Z"/>
    <ellipse class="cls-4" cx="37.2" cy="29.49" rx=".89" ry="1.46"/>
    <ellipse class="cls-4" cx="45.46" cy="29.49" rx=".89" ry="1.46"/>
    <path class="cls-4" d="m43.59,34.45c0,.61-.83,1.84-1.86,1.84s-1.86-1.23-1.86-1.84.83-1.1,1.86-1.1,1.86.49,1.86,1.1Z"/>
    <path class="cls-2" d="m39.06,21.06s-.96,0-1.93,2.57"/>
    <path class="cls-2" d="m44.51,21.06s.96,0,1.93,2.57"/>
    <path class="cls-2" d="m34.45,27.23s-4.45,2.29-3.97,7.46"/>
    <path class="cls-2" d="m35.34,33.6s-1.93,2.05-.72,5.53"/>
    <path class="cls-2" d="m48.89,27.23s4.45,2.29,3.97,7.46"/>
    <path class="cls-2" d="m47.51,33.6s1.93,2.05.72,5.53"/>
    <path class="cls-1" d="m34.29,39.67c0,.48-.96,11.55,1.28,17.97,2.25,6.42,3.23,14.27,2.27,15.23s-3.58,2.87-2.91,5.46c.6,2.33,5.68,1.75,7.93.63"/>
    <path class="cls-1" d="m44.45,56.83s.64,11.55.16,14.92-2.73,6.42-.48,8.82,6.26.48,7.06-2.09c.8-2.57,1.92-15.55,2.78-19.05.75-3.08,4.12-6.45,4.12-6.45"/>
    <path class="cls-3" d="m37.84,53.17c.16.48-.61,5.1,6.45,7.34"/>
    <path class="cls-1" d="m53.86,34.21s6.42,8.66,10.27,13.15c3.85,4.49,7.7,12.83,7.7,21.66s-1.44,9.95-3.53,11.39-10.37,1.74-12.37,1.41c-4.3-.72-3.91-6.75.98-7.34,5.29-.64,8.02-1.12,8.02-1.12"/>
    <path class="cls-1" d="m64.45,58.12s-12.35,2.41-7.54,15.24"/>
    <path class="cls-1" d="m71.03,77.85s7.7-7.06,8.98-16.68c1.28-9.63-11.54-17.63-13.96-19.73-3.69-3.21-2.89-7.7-.16-6.58"/>
    <path class="cls-2" d="m34.13,43.36s2.41,4.81,8.98,5.29"/>
    <path class="cls-2" d="m56.75,39.03s-1.76,5.61-7.06,8.18"/>
    <path class="cls-2" d="m65.41,49.29s-1.44,3.85-4.49,6.26"/>
    <path class="cls-3" d="m56.27,67.42s3.69-2.25,6.9,1.6"/>
    <path class="cls-2" d="m71.19,66.46s-1.12,2.73-3.37,3.05"/>
    <path class="cls-3" d="m46,65.66s1.6,2.09,4.33,2.09"/>
    <path class="cls-3" d="m36.54,60.04s1.44,3.05,4.81,3.21"/>
  </g>
  <path class="cls-4" d="m21.08,15.26c.63-.02,1.11.08,1.46.31.35.22.59.51.73.87.14.36.2.75.17,1.18-.02.43-.09.85-.2,1.25-.28,0-.52-.04-.73-.11-.08-.03-.17-.07-.25-.12-.08-.05-.16-.12-.22-.2-.06-.08-.1-.17-.13-.27-.03-.1-.03-.22-.01-.36.04-.27-.03-.5-.2-.69s-.38-.3-.64-.33c-.26-.03-.53.05-.83.23-.29.18-.55.51-.76.97-.08.2-.16.39-.22.59-.07.2-.12.39-.16.57-.04.18-.08.33-.1.47-.02.13-.04.24-.04.3.22-.21.49-.34.78-.41s.6-.08.92-.02c.31.06.62.17.91.33.29.16.55.38.78.64.22.27.4.57.52.92s.16.74.13,1.17c-.06.5-.2.95-.42,1.34-.09.17-.21.33-.35.5-.14.16-.31.31-.52.43s-.44.23-.71.3c-.27.07-.57.11-.92.11-.74,0-1.32-.14-1.74-.41-.42-.28-.73-.64-.92-1.09-.2-.45-.3-.97-.31-1.54,0-.57.04-1.16.14-1.76.07-.38.14-.78.22-1.19.08-.41.18-.81.31-1.19s.28-.74.45-1.08c.17-.34.39-.64.66-.89.27-.25.58-.45.94-.6.36-.15.78-.22,1.27-.22Zm-.84,5.68c-.32-.02-.59.04-.8.18-.22.13-.39.31-.51.53-.12.22-.19.46-.2.71-.01.26.03.5.12.72.09.22.24.41.44.57.2.15.46.23.78.23s.6-.07.82-.21c.22-.14.39-.32.5-.53.12-.21.18-.44.2-.69.01-.25-.03-.48-.13-.7-.1-.22-.25-.41-.45-.56-.2-.15-.46-.24-.76-.26Z"/>
</svg>