<?xml version="1.0" encoding="UTF-8"?>
<svg id="Gold_Icons" data-name="Gold Icons" xmlns="http://www.w3.org/2000/svg" viewBox="0 0 97.2 97.2">
  <defs>
    <style>
      .cls-1 {
        fill: none;
        stroke: #be1e2d;
        stroke-linecap: round;
        stroke-linejoin: round;
        stroke-width: 3px;
      }

      .cls-2 {
        fill: #be1e2d;
        stroke-width: 0px;
      }
    </style>
  </defs>
  <g>
    <path class="cls-1" d="m60.57,46.53c-4.17,3.81-12.16.18-13.43-7.62-1.27-7.8,1.09-15.01,6.35-16.87,7.25-2.56,9.25,3.45,9.25,3.45.36-.18,6.26-1.27,9.16,1.81.37.4,5.04,4.22,4.08,14.7-.85,9.4,4.9,10.52,4.9,10.52,0,0,2.36,1.63,0,3.63s-11.07-.18-12.34-6.35"/>
    <path class="cls-1" d="m46.96,38.91s-18.87-1.63-22.68,10.71.54,27.26,2.18,29.26c1.63,2,10.71,1.22,11.61.5.55-.44,1.37-5.04,1.93-8.57.38-2.38,2.42-4.13,4.83-4.13h5.82c1.23,0,2.29.85,2.56,2.05.76,3.44,2.29,10.16,3.56,11.01,1.16.77,6.61,1.08,9.6.46.89-.18,1.57-.89,1.75-1.77.62-3.14,2.06-11.96,1.63-25.26"/>
    <path class="cls-1" d="m26.18,45.8s-7.35.41-7.76,11.57"/>
    <ellipse class="cls-2" cx="67.55" cy="35.53" rx="1.15" ry="1.89"/>
  </g>
  <path class="cls-2" d="m21.77,16.68c.62,0,1.1.08,1.44.23.34.15.59.36.73.62.15.26.21.55.2.87s-.08.65-.19.99c-.26.78-.77,1.68-1.51,2.69.48.51.8.98.97,1.41.17.42.23.81.18,1.15s-.18.64-.41.9c-.22.26-.49.47-.8.64-.31.17-.64.29-1,.38s-.7.13-1.01.13c-.73,0-1.31-.08-1.75-.24-.44-.16-.77-.37-.98-.63-.21-.26-.34-.56-.36-.89-.03-.33,0-.67.07-1.03.18-.82.63-1.75,1.36-2.8-.36-.59-.57-1.15-.63-1.68-.06-.53.03-1,.27-1.4s.65-.72,1.22-.96c.56-.24,1.3-.36,2.21-.36Zm-1.32,8.32c.41,0,.74-.08,1-.25.26-.18.38-.41.38-.69s-.15-.59-.46-.92c-.3-.34-.8-.66-1.5-.97-.09.18-.19.37-.3.57-.11.21-.2.41-.27.62-.07.21-.11.41-.13.6-.01.19.02.36.09.51.08.15.21.27.39.36.19.09.45.14.78.15Zm.84-3.89c.14-.18.28-.37.43-.59s.27-.43.38-.64.19-.42.24-.62c.05-.2.06-.38.01-.54-.04-.16-.14-.29-.31-.39-.16-.1-.4-.16-.72-.18-.27,0-.52.03-.75.11-.23.08-.42.2-.57.36s-.26.33-.31.54c-.05.21-.04.42.05.64.08.22.25.45.5.68.25.23.6.44,1.06.64Z"/>
</svg>